 0 
SECTION
 2 
HEADER
 9 
$ACADVER
 1 
AC1004
 9 
$EXTMIN
 10 
0.0
 20 
0.0
 9 
$EXTMAX
 10 
3.8
 20 
2.601
 9 
$LIMMIN
 10 
0.0
 20 
0.0
 9 
$LIMMAX
 10 
3.8
 20 
2.601
 9 
$INSBASE
 10 
0.0
 20 
0.0
 9 
$VIEWCTR
 10 
1.9
 20 
1.2
 9 
$VIEWSIZE
 40 
2.601
 9 
$ORTHOMODE
 70 
 0 
 9 
$REGENMODE
 70 
 1 
 9 
$FILLMODE
 70 
 1 
 9 
$QTEXTMODE
 70 
 0 
 9 
$DRAGMODE
 70 
 2 
 9 
$LTSCALE
 40 
1.0
 9 
$OSMODE
 70 
 0 
 9 
$ATTMODE
 70 
 1 
 9 
$TEXTSIZE
 40 
0.2
 9 
$TRACEWID
 40 
0.05
 9 
$TEXTSTYLE
 7 
STANDARD
 9 
$CLAYER
 8 
0
 9 
$CELTYPE
 6 
BYLAYER
 9 
$CECOLOR
 62 
 256 
 9 
$DIMSCALE
 40 
1.0
 9 
$DIMLFAC
 40 
1.0
 9 
$LUNITS
 70 
 2 
 9 
$LUPREC
 70 
 4 
 9 
$AXISMODE
 70 
 0 
 9 
$AXISUNIT
 10 
0.0
 20 
0.0
 9 
$SKETCHINC
 40 
0.1
 9 
$MENU
 1 
acad
 9 
$ELEVATION
 40 
0.0
 9 
$THICKNESS
 40 
0.0
 9 
$VIEWDIR
 10 
0.0
 20 
0.0
 30 
1.0
 9 
$LIMCHECK
 70 
 0 
 9 
$BLIPMODE
 70 
 1 
 9 
$FASTZOOM
 70 
 1 
 9 
$SKPOLY
 70 
 0 
 9 
$ANGBASE
 50 
0.0
 9 
$ANGDIR
 70 
 0 
 9 
$PDMODE
 70 
 0 
 9 
$PDSIZE
 40 
0.0
 9 
$PLINEWID
 40 
0.0
 9 
$COORDS
 70 
 0 
 9 
$ATTDIA
 70 
 0 
 9 
$ATTREQ
 70 
 1 
 0 
ENDSEC
 0 
SECTION
 2 
TABLES
 0 
TABLE
 2 
LTYPE
 70 
 10 
 0 
LTYPE
 2 
CONTINUOUS
 70 
 64 
 3 
Solid line
 72 
 65 
 73 
 0 
 40 
0.0
 0 
ENDTAB
 0 
TABLE
 2 
LAYER
 70 
 153 
 0 
LAYER
 2 
0
 70 
 64 
 62 
 7 
 6 
CONTINUOUS
 0 
ENDTAB
 0 
ENDSEC
 0 
SECTION
 2 
BLOCKS
 0 
ENDSEC
 0 
SECTION
 2 
ENTITIES
 0 
LINE
 8 
0
 62 
 7 
 10 
0.0
 20 
2.5
 11 
3.8
 21 
2.5
 0 
LINE
 8 
0
 62 
 7 
 10 
3.8
 20 
2.5
 11 
3.8
 21 
0.0
 0 
LINE
 8 
0
 62 
 7 
 10 
3.8
 20 
0.0
 11 
0.0
 21 
0.0
 0 
LINE
 8 
0
 62 
 7 
 10 
0.0
 20 
0.0
 11 
0.0
 21 
2.5
 0 
CIRCLE
 8 
0
 62 
 7 
 10 
3.125
 20 
2.2
 40 
0.075
 0 
CIRCLE
 8 
0
 62 
 7 
 10 
3.125
 20 
2.2
 40 
0.046
 0 
CIRCLE
 8 
0
 62 
 7 
 10 
2.651
 20 
2.2
 40 
0.075
 0 
CIRCLE
 8 
0
 62 
 7 
 10 
2.651
 20 
2.2
 40 
0.046
 0 
CIRCLE
 8 
0
 62 
 7 
 10 
2.937
 20 
2.093
 40 
0.032
 0 
CIRCLE
 8 
0
 62 
 7 
 10 
2.937
 20 
2.093
 40 
0.018
 0 
CIRCLE
 8 
0
 62 
 7 
 10 
2.839
 20 
2.093
 40 
0.032
 0 
CIRCLE
 8 
0
 62 
 7 
 10 
2.839
 20 
2.093
 40 
0.018
 0 
CIRCLE
 8 
0
 62 
 7 
 10 
2.937
 20 
2.015
 40 
0.032
 0 
CIRCLE
 8 
0
 62 
 7 
 10 
2.937
 20 
2.015
 40 
0.018
 0 
LINE
 8 
0
 62 
 7 
 10 
2.806
 20 
2.048
 11 
2.871
 21 
2.048
 0 
LINE
 8 
0
 62 
 7 
 10 
2.871
 20 
2.048
 11 
2.871
 21 
1.983
 0 
LINE
 8 
0
 62 
 7 
 10 
2.871
 20 
1.983
 11 
2.806
 21 
1.983
 0 
LINE
 8 
0
 62 
 7 
 10 
2.806
 20 
1.983
 11 
2.806
 21 
2.048
 0 
CIRCLE
 8 
0
 62 
 7 
 10 
2.839
 20 
2.015
 40 
0.018
 0 
LINE
 8 
0
 62 
 7 
 10 
3.136
 20 
1.972
 11 
3.136
 21 
2.113
 0 
LINE
 8 
0
 62 
 7 
 10 
3.136
 20 
2.594
 11 
2.64
 21 
2.594
 0 
LINE
 8 
0
 62 
 7 
 10 
2.64
 20 
1.972
 11 
2.64
 21 
2.113
 0 
LINE
 8 
0
 62 
 7 
 10 
3.136
 20 
1.972
 11 
2.64
 21 
1.972
 0 
LINE
 8 
0
 62 
 7 
 10 
3.136
 20 
2.594
 11 
3.136
 21 
2.287
 0 
LINE
 8 
0
 62 
 7 
 10 
2.64
 20 
2.594
 11 
2.64
 21 
2.287
 0 
LINE
 8 
0
 62 
 7 
 10 
0.525
 20 
0.937
 11 
0.525
 21 
0.918
 0 
LINE
 8 
0
 62 
 7 
 10 
0.525
 20 
0.918
 11 
0.538
 21 
0.905
 0 
LINE
 8 
0
 62 
 7 
 10 
0.538
 20 
0.905
 11 
0.55
 21 
0.918
 0 
LINE
 8 
0
 62 
 7 
 10 
0.55
 20 
0.918
 11 
0.55
 21 
0.937
 0 
LINE
 8 
0
 62 
 7 
 10 
0.538
 20 
0.905
 11 
0.538
 21 
0.899
 0 
LINE
 8 
0
 62 
 7 
 10 
0.569
 20 
0.937
 11 
0.582
 21 
0.937
 0 
LINE
 8 
0
 62 
 7 
 10 
0.569
 20 
0.899
 11 
0.582
 21 
0.899
 0 
LINE
 8 
0
 62 
 7 
 10 
0.576
 20 
0.937
 11 
0.576
 21 
0.899
 0 
LINE
 8 
0
 62 
 7 
 10 
0.601
 20 
0.899
 11 
0.601
 21 
0.937
 0 
LINE
 8 
0
 62 
 7 
 10 
0.601
 20 
0.937
 11 
0.626
 21 
0.912
 0 
LINE
 8 
0
 62 
 7 
 10 
0.626
 20 
0.937
 11 
0.626
 21 
0.899
 0 
CIRCLE
 8 
0
 62 
 7 
 10 
0.475
 20 
0.925
 40 
0.038
 0 
CIRCLE
 8 
0
 62 
 7 
 10 
0.475
 20 
0.925
 40 
0.02
 0 
CIRCLE
 8 
0
 62 
 7 
 10 
1.075
 20 
0.925
 40 
0.038
 0 
CIRCLE
 8 
0
 62 
 7 
 10 
1.075
 20 
0.925
 40 
0.02
 0 
CIRCLE
 8 
0
 62 
 7 
 10 
1.075
 20 
1.025
 40 
0.038
 0 
CIRCLE
 8 
0
 62 
 7 
 10 
1.075
 20 
1.025
 40 
0.02
 0 
CIRCLE
 8 
0
 62 
 7 
 10 
1.075
 20 
2.025
 40 
0.038
 0 
CIRCLE
 8 
0
 62 
 7 
 10 
1.075
 20 
2.025
 40 
0.02
 0 
CIRCLE
 8 
0
 62 
 7 
 10 
1.075
 20 
1.125
 40 
0.038
 0 
CIRCLE
 8 
0
 62 
 7 
 10 
1.075
 20 
1.125
 40 
0.02
 0 
CIRCLE
 8 
0
 62 
 7 
 10 
1.075
 20 
1.225
 40 
0.038
 0 
CIRCLE
 8 
0
 62 
 7 
 10 
1.075
 20 
1.225
 40 
0.02
 0 
CIRCLE
 8 
0
 62 
 7 
 10 
1.075
 20 
1.325
 40 
0.038
 0 
CIRCLE
 8 
0
 62 
 7 
 10 
1.075
 20 
1.325
 40 
0.02
 0 
CIRCLE
 8 
0
 62 
 7 
 10 
1.075
 20 
1.425
 40 
0.038
 0 
CIRCLE
 8 
0
 62 
 7 
 10 
1.075
 20 
1.425
 40 
0.02
 0 
CIRCLE
 8 
0
 62 
 7 
 10 
1.075
 20 
1.525
 40 
0.038
 0 
CIRCLE
 8 
0
 62 
 7 
 10 
1.075
 20 
1.525
 40 
0.02
 0 
CIRCLE
 8 
0
 62 
 7 
 10 
1.075
 20 
1.625
 40 
0.038
 0 
CIRCLE
 8 
0
 62 
 7 
 10 
1.075
 20 
1.625
 40 
0.02
 0 
CIRCLE
 8 
0
 62 
 7 
 10 
1.075
 20 
1.725
 40 
0.038
 0 
CIRCLE
 8 
0
 62 
 7 
 10 
1.075
 20 
1.725
 40 
0.02
 0 
CIRCLE
 8 
0
 62 
 7 
 10 
1.075
 20 
1.825
 40 
0.038
 0 
CIRCLE
 8 
0
 62 
 7 
 10 
1.075
 20 
1.825
 40 
0.02
 0 
CIRCLE
 8 
0
 62 
 7 
 10 
1.075
 20 
1.925
 40 
0.038
 0 
CIRCLE
 8 
0
 62 
 7 
 10 
1.075
 20 
1.925
 40 
0.02
 0 
CIRCLE
 8 
0
 62 
 7 
 10 
1.075
 20 
2.125
 40 
0.038
 0 
CIRCLE
 8 
0
 62 
 7 
 10 
1.075
 20 
2.125
 40 
0.02
 0 
CIRCLE
 8 
0
 62 
 7 
 10 
1.075
 20 
2.225
 40 
0.038
 0 
CIRCLE
 8 
0
 62 
 7 
 10 
1.075
 20 
2.225
 40 
0.02
 0 
CIRCLE
 8 
0
 62 
 7 
 10 
1.075
 20 
2.325
 40 
0.038
 0 
CIRCLE
 8 
0
 62 
 7 
 10 
1.075
 20 
2.325
 40 
0.02
 0 
CIRCLE
 8 
0
 62 
 7 
 10 
0.475
 20 
2.325
 40 
0.038
 0 
CIRCLE
 8 
0
 62 
 7 
 10 
0.475
 20 
2.325
 40 
0.02
 0 
CIRCLE
 8 
0
 62 
 7 
 10 
0.475
 20 
2.225
 40 
0.038
 0 
CIRCLE
 8 
0
 62 
 7 
 10 
0.475
 20 
2.225
 40 
0.02
 0 
CIRCLE
 8 
0
 62 
 7 
 10 
0.475
 20 
2.125
 40 
0.038
 0 
CIRCLE
 8 
0
 62 
 7 
 10 
0.475
 20 
2.125
 40 
0.02
 0 
CIRCLE
 8 
0
 62 
 7 
 10 
0.475
 20 
2.025
 40 
0.038
 0 
CIRCLE
 8 
0
 62 
 7 
 10 
0.475
 20 
2.025
 40 
0.02
 0 
CIRCLE
 8 
0
 62 
 7 
 10 
0.475
 20 
1.925
 40 
0.038
 0 
CIRCLE
 8 
0
 62 
 7 
 10 
0.475
 20 
1.925
 40 
0.02
 0 
CIRCLE
 8 
0
 62 
 7 
 10 
0.475
 20 
1.825
 40 
0.038
 0 
CIRCLE
 8 
0
 62 
 7 
 10 
0.475
 20 
1.825
 40 
0.02
 0 
CIRCLE
 8 
0
 62 
 7 
 10 
0.475
 20 
1.725
 40 
0.038
 0 
CIRCLE
 8 
0
 62 
 7 
 10 
0.475
 20 
1.725
 40 
0.02
 0 
CIRCLE
 8 
0
 62 
 7 
 10 
0.475
 20 
1.625
 40 
0.038
 0 
CIRCLE
 8 
0
 62 
 7 
 10 
0.475
 20 
1.625
 40 
0.02
 0 
CIRCLE
 8 
0
 62 
 7 
 10 
0.475
 20 
1.525
 40 
0.038
 0 
CIRCLE
 8 
0
 62 
 7 
 10 
0.475
 20 
1.525
 40 
0.02
 0 
CIRCLE
 8 
0
 62 
 7 
 10 
0.475
 20 
1.425
 40 
0.038
 0 
CIRCLE
 8 
0
 62 
 7 
 10 
0.475
 20 
1.425
 40 
0.02
 0 
CIRCLE
 8 
0
 62 
 7 
 10 
0.475
 20 
1.325
 40 
0.038
 0 
CIRCLE
 8 
0
 62 
 7 
 10 
0.475
 20 
1.325
 40 
0.02
 0 
CIRCLE
 8 
0
 62 
 7 
 10 
0.475
 20 
1.225
 40 
0.038
 0 
CIRCLE
 8 
0
 62 
 7 
 10 
0.475
 20 
1.225
 40 
0.02
 0 
CIRCLE
 8 
0
 62 
 7 
 10 
0.475
 20 
1.125
 40 
0.038
 0 
CIRCLE
 8 
0
 62 
 7 
 10 
0.475
 20 
1.125
 40 
0.02
 0 
CIRCLE
 8 
0
 62 
 7 
 10 
0.475
 20 
1.025
 40 
0.038
 0 
CIRCLE
 8 
0
 62 
 7 
 10 
0.475
 20 
1.025
 40 
0.02
 0 
LINE
 8 
0
 62 
 7 
 10 
0.925
 20 
0.937
 11 
0.95
 21 
0.937
 0 
LINE
 8 
0
 62 
 7 
 10 
0.938
 20 
0.937
 11 
0.938
 21 
0.899
 0 
LINE
 8 
0
 62 
 7 
 10 
0.963
 20 
0.937
 11 
0.963
 21 
0.931
 0 
LINE
 8 
0
 62 
 7 
 10 
0.963
 20 
0.931
 11 
0.988
 21 
0.905
 0 
LINE
 8 
0
 62 
 7 
 10 
0.988
 20 
0.905
 11 
0.988
 21 
0.899
 0 
LINE
 8 
0
 62 
 7 
 10 
0.988
 20 
0.937
 11 
0.988
 21 
0.931
 0 
LINE
 8 
0
 62 
 7 
 10 
0.988
 20 
0.931
 11 
0.963
 21 
0.905
 0 
LINE
 8 
0
 62 
 7 
 10 
0.963
 20 
0.905
 11 
0.963
 21 
0.899
 0 
LINE
 8 
0
 62 
 7 
 10 
1.007
 20 
0.931
 11 
1.014
 21 
0.937
 0 
LINE
 8 
0
 62 
 7 
 10 
1.014
 20 
0.937
 11 
1.014
 21 
0.899
 0 
LINE
 8 
0
 62 
 7 
 10 
1.007
 20 
0.899
 11 
1.02
 21 
0.899
 0 
LINE
 8 
0
 62 
 7 
 10 
0.561
 20 
1.031
 11 
0.555
 21 
1.037
 0 
LINE
 8 
0
 62 
 7 
 10 
0.555
 20 
1.037
 11 
0.542
 21 
1.037
 0 
LINE
 8 
0
 62 
 7 
 10 
0.542
 20 
1.037
 11 
0.536
 21 
1.031
 0 
LINE
 8 
0
 62 
 7 
 10 
0.536
 20 
1.031
 11 
0.536
 21 
1.005
 0 
LINE
 8 
0
 62 
 7 
 10 
0.536
 20 
1.005
 11 
0.542
 21 
0.999
 0 
LINE
 8 
0
 62 
 7 
 10 
0.542
 20 
0.999
 11 
0.561
 21 
0.999
 0 
LINE
 8 
0
 62 
 7 
 10 
0.561
 20 
0.999
 11 
0.561
 21 
1.012
 0 
LINE
 8 
0
 62 
 7 
 10 
0.561
 20 
1.012
 11 
0.555
 21 
1.012
 0 
LINE
 8 
0
 62 
 7 
 10 
0.574
 20 
0.999
 11 
0.574
 21 
1.037
 0 
LINE
 8 
0
 62 
 7 
 10 
0.574
 20 
1.037
 11 
0.599
 21 
1.012
 0 
LINE
 8 
0
 62 
 7 
 10 
0.599
 20 
1.037
 11 
0.599
 21 
0.999
 0 
LINE
 8 
0
 62 
 7 
 10 
0.612
 20 
1.037
 11 
0.631
 21 
1.037
 0 
LINE
 8 
0
 62 
 7 
 10 
0.631
 20 
1.037
 11 
0.637
 21 
1.031
 0 
LINE
 8 
0
 62 
 7 
 10 
0.637
 20 
1.031
 11 
0.637
 21 
1.005
 0 
LINE
 8 
0
 62 
 7 
 10 
0.637
 20 
1.005
 11 
0.631
 21 
0.999
 0 
LINE
 8 
0
 62 
 7 
 10 
0.631
 20 
0.999
 11 
0.612
 21 
0.999
 0 
LINE
 8 
0
 62 
 7 
 10 
0.618
 20 
1.037
 11 
0.618
 21 
0.999
 0 
LINE
 8 
0
 62 
 7 
 10 
0.536
 20 
1.099
 11 
0.536
 21 
1.137
 0 
LINE
 8 
0
 62 
 7 
 10 
0.536
 20 
1.137
 11 
0.555
 21 
1.137
 0 
LINE
 8 
0
 62 
 7 
 10 
0.555
 20 
1.137
 11 
0.561
 21 
1.131
 0 
LINE
 8 
0
 62 
 7 
 10 
0.561
 20 
1.131
 11 
0.561
 21 
1.124
 0 
LINE
 8 
0
 62 
 7 
 10 
0.561
 20 
1.124
 11 
0.555
 21 
1.118
 0 
LINE
 8 
0
 62 
 7 
 10 
0.555
 20 
1.118
 11 
0.536
 21 
1.118
 0 
LINE
 8 
0
 62 
 7 
 10 
0.542
 20 
1.118
 11 
0.561
 21 
1.099
 0 
LINE
 8 
0
 62 
 7 
 10 
0.599
 20 
1.131
 11 
0.593
 21 
1.137
 0 
LINE
 8 
0
 62 
 7 
 10 
0.593
 20 
1.137
 11 
0.58
 21 
1.137
 0 
LINE
 8 
0
 62 
 7 
 10 
0.58
 20 
1.137
 11 
0.574
 21 
1.131
 0 
LINE
 8 
0
 62 
 7 
 10 
0.574
 20 
1.131
 11 
0.574
 21 
1.124
 0 
LINE
 8 
0
 62 
 7 
 10 
0.574
 20 
1.124
 11 
0.58
 21 
1.118
 0 
LINE
 8 
0
 62 
 7 
 10 
0.58
 20 
1.118
 11 
0.593
 21 
1.118
 0 
LINE
 8 
0
 62 
 7 
 10 
0.593
 20 
1.118
 11 
0.599
 21 
1.112
 0 
LINE
 8 
0
 62 
 7 
 10 
0.599
 20 
1.112
 11 
0.599
 21 
1.105
 0 
LINE
 8 
0
 62 
 7 
 10 
0.599
 20 
1.105
 11 
0.593
 21 
1.099
 0 
LINE
 8 
0
 62 
 7 
 10 
0.593
 20 
1.099
 11 
0.58
 21 
1.099
 0 
LINE
 8 
0
 62 
 7 
 10 
0.58
 20 
1.099
 11 
0.574
 21 
1.105
 0 
LINE
 8 
0
 62 
 7 
 10 
0.612
 20 
1.137
 11 
0.637
 21 
1.137
 0 
LINE
 8 
0
 62 
 7 
 10 
0.625
 20 
1.137
 11 
0.625
 21 
1.099
 0 
LINE
 8 
0
 62 
 7 
 10 
0.561
 20 
1.239
 11 
0.536
 21 
1.239
 0 
LINE
 8 
0
 62 
 7 
 10 
0.536
 20 
1.239
 11 
0.536
 21 
1.226
 0 
LINE
 8 
0
 62 
 7 
 10 
0.536
 20 
1.226
 11 
0.555
 21 
1.226
 0 
LINE
 8 
0
 62 
 7 
 10 
0.555
 20 
1.226
 11 
0.561
 21 
1.22
 0 
LINE
 8 
0
 62 
 7 
 10 
0.561
 20 
1.22
 11 
0.561
 21 
1.207
 0 
LINE
 8 
0
 62 
 7 
 10 
0.561
 20 
1.207
 11 
0.555
 21 
1.201
 0 
LINE
 8 
0
 62 
 7 
 10 
0.555
 20 
1.201
 11 
0.542
 21 
1.201
 0 
LINE
 8 
0
 62 
 7 
 10 
0.542
 20 
1.201
 11 
0.536
 21 
1.207
 0 
LINE
 8 
0
 62 
 7 
 10 
0.574
 20 
1.239
 11 
0.574
 21 
1.22
 0 
LINE
 8 
0
 62 
 7 
 10 
0.574
 20 
1.22
 11 
0.587
 21 
1.207
 0 
LINE
 8 
0
 62 
 7 
 10 
0.587
 20 
1.207
 11 
0.599
 21 
1.22
 0 
LINE
 8 
0
 62 
 7 
 10 
0.599
 20 
1.22
 11 
0.599
 21 
1.239
 0 
LINE
 8 
0
 62 
 7 
 10 
0.587
 20 
1.207
 11 
0.587
 21 
1.201
 0 
LINE
 8 
0
 62 
 7 
 10 
0.536
 20 
1.301
 11 
0.536
 21 
1.326
 0 
LINE
 8 
0
 62 
 7 
 10 
0.536
 20 
1.326
 11 
0.549
 21 
1.339
 0 
LINE
 8 
0
 62 
 7 
 10 
0.549
 20 
1.339
 11 
0.561
 21 
1.326
 0 
LINE
 8 
0
 62 
 7 
 10 
0.561
 20 
1.326
 11 
0.561
 21 
1.301
 0 
LINE
 8 
0
 62 
 7 
 10 
0.536
 20 
1.314
 11 
0.561
 21 
1.314
 0 
LINE
 8 
0
 62 
 7 
 10 
0.574
 20 
1.307
 11 
0.574
 21 
1.333
 0 
LINE
 8 
0
 62 
 7 
 10 
0.574
 20 
1.333
 11 
0.58
 21 
1.339
 0 
LINE
 8 
0
 62 
 7 
 10 
0.58
 20 
1.339
 11 
0.593
 21 
1.339
 0 
LINE
 8 
0
 62 
 7 
 10 
0.593
 20 
1.339
 11 
0.599
 21 
1.333
 0 
LINE
 8 
0
 62 
 7 
 10 
0.599
 20 
1.333
 11 
0.599
 21 
1.307
 0 
LINE
 8 
0
 62 
 7 
 10 
0.599
 20 
1.307
 11 
0.593
 21 
1.301
 0 
LINE
 8 
0
 62 
 7 
 10 
0.593
 20 
1.301
 11 
0.58
 21 
1.301
 0 
LINE
 8 
0
 62 
 7 
 10 
0.58
 20 
1.301
 11 
0.574
 21 
1.307
 0 
LINE
 8 
0
 62 
 7 
 10 
0.574
 20 
1.307
 11 
0.599
 21 
1.333
 0 
LINE
 8 
0
 62 
 7 
 10 
0.536
 20 
1.401
 11 
0.536
 21 
1.426
 0 
LINE
 8 
0
 62 
 7 
 10 
0.536
 20 
1.426
 11 
0.549
 21 
1.439
 0 
LINE
 8 
0
 62 
 7 
 10 
0.549
 20 
1.439
 11 
0.561
 21 
1.426
 0 
LINE
 8 
0
 62 
 7 
 10 
0.561
 20 
1.426
 11 
0.561
 21 
1.401
 0 
LINE
 8 
0
 62 
 7 
 10 
0.536
 20 
1.414
 11 
0.561
 21 
1.414
 0 
LINE
 8 
0
 62 
 7 
 10 
0.58
 20 
1.433
 11 
0.587
 21 
1.439
 0 
LINE
 8 
0
 62 
 7 
 10 
0.587
 20 
1.439
 11 
0.587
 21 
1.401
 0 
LINE
 8 
0
 62 
 7 
 10 
0.58
 20 
1.401
 11 
0.593
 21 
1.401
 0 
LINE
 8 
0
 62 
 7 
 10 
0.536
 20 
1.501
 11 
0.536
 21 
1.526
 0 
LINE
 8 
0
 62 
 7 
 10 
0.536
 20 
1.526
 11 
0.549
 21 
1.539
 0 
LINE
 8 
0
 62 
 7 
 10 
0.549
 20 
1.539
 11 
0.561
 21 
1.526
 0 
LINE
 8 
0
 62 
 7 
 10 
0.561
 20 
1.526
 11 
0.561
 21 
1.501
 0 
LINE
 8 
0
 62 
 7 
 10 
0.536
 20 
1.514
 11 
0.561
 21 
1.514
 0 
LINE
 8 
0
 62 
 7 
 10 
0.574
 20 
1.533
 11 
0.58
 21 
1.539
 0 
LINE
 8 
0
 62 
 7 
 10 
0.58
 20 
1.539
 11 
0.593
 21 
1.539
 0 
LINE
 8 
0
 62 
 7 
 10 
0.593
 20 
1.539
 11 
0.599
 21 
1.533
 0 
LINE
 8 
0
 62 
 7 
 10 
0.599
 20 
1.533
 11 
0.599
 21 
1.526
 0 
LINE
 8 
0
 62 
 7 
 10 
0.599
 20 
1.526
 11 
0.593
 21 
1.52
 0 
LINE
 8 
0
 62 
 7 
 10 
0.593
 20 
1.52
 11 
0.58
 21 
1.52
 0 
LINE
 8 
0
 62 
 7 
 10 
0.58
 20 
1.52
 11 
0.574
 21 
1.514
 0 
LINE
 8 
0
 62 
 7 
 10 
0.574
 20 
1.514
 11 
0.574
 21 
1.501
 0 
LINE
 8 
0
 62 
 7 
 10 
0.574
 20 
1.501
 11 
0.599
 21 
1.501
 0 
LINE
 8 
0
 62 
 7 
 10 
0.536
 20 
1.601
 11 
0.536
 21 
1.626
 0 
LINE
 8 
0
 62 
 7 
 10 
0.536
 20 
1.626
 11 
0.549
 21 
1.639
 0 
LINE
 8 
0
 62 
 7 
 10 
0.549
 20 
1.639
 11 
0.561
 21 
1.626
 0 
LINE
 8 
0
 62 
 7 
 10 
0.561
 20 
1.626
 11 
0.561
 21 
1.601
 0 
LINE
 8 
0
 62 
 7 
 10 
0.536
 20 
1.614
 11 
0.561
 21 
1.614
 0 
LINE
 8 
0
 62 
 7 
 10 
0.574
 20 
1.633
 11 
0.58
 21 
1.639
 0 
LINE
 8 
0
 62 
 7 
 10 
0.58
 20 
1.639
 11 
0.593
 21 
1.639
 0 
LINE
 8 
0
 62 
 7 
 10 
0.593
 20 
1.639
 11 
0.599
 21 
1.633
 0 
LINE
 8 
0
 62 
 7 
 10 
0.599
 20 
1.633
 11 
0.599
 21 
1.626
 0 
LINE
 8 
0
 62 
 7 
 10 
0.599
 20 
1.626
 11 
0.593
 21 
1.62
 0 
LINE
 8 
0
 62 
 7 
 10 
0.593
 20 
1.62
 11 
0.587
 21 
1.62
 0 
LINE
 8 
0
 62 
 7 
 10 
0.593
 20 
1.62
 11 
0.599
 21 
1.614
 0 
LINE
 8 
0
 62 
 7 
 10 
0.599
 20 
1.614
 11 
0.599
 21 
1.607
 0 
LINE
 8 
0
 62 
 7 
 10 
0.599
 20 
1.607
 11 
0.593
 21 
1.601
 0 
LINE
 8 
0
 62 
 7 
 10 
0.593
 20 
1.601
 11 
0.58
 21 
1.601
 0 
LINE
 8 
0
 62 
 7 
 10 
0.58
 20 
1.601
 11 
0.574
 21 
1.607
 0 
LINE
 8 
0
 62 
 7 
 10 
0.536
 20 
1.701
 11 
0.536
 21 
1.726
 0 
LINE
 8 
0
 62 
 7 
 10 
0.536
 20 
1.726
 11 
0.549
 21 
1.739
 0 
LINE
 8 
0
 62 
 7 
 10 
0.549
 20 
1.739
 11 
0.561
 21 
1.726
 0 
LINE
 8 
0
 62 
 7 
 10 
0.561
 20 
1.726
 11 
0.561
 21 
1.701
 0 
LINE
 8 
0
 62 
 7 
 10 
0.536
 20 
1.714
 11 
0.561
 21 
1.714
 0 
LINE
 8 
0
 62 
 7 
 10 
0.599
 20 
1.714
 11 
0.574
 21 
1.714
 0 
LINE
 8 
0
 62 
 7 
 10 
0.574
 20 
1.714
 11 
0.574
 21 
1.72
 0 
LINE
 8 
0
 62 
 7 
 10 
0.574
 20 
1.72
 11 
0.593
 21 
1.739
 0 
LINE
 8 
0
 62 
 7 
 10 
0.593
 20 
1.739
 11 
0.593
 21 
1.701
 0 
LINE
 8 
0
 62 
 7 
 10 
0.536
 20 
1.801
 11 
0.536
 21 
1.826
 0 
LINE
 8 
0
 62 
 7 
 10 
0.536
 20 
1.826
 11 
0.549
 21 
1.839
 0 
LINE
 8 
0
 62 
 7 
 10 
0.549
 20 
1.839
 11 
0.561
 21 
1.826
 0 
LINE
 8 
0
 62 
 7 
 10 
0.561
 20 
1.826
 11 
0.561
 21 
1.801
 0 
LINE
 8 
0
 62 
 7 
 10 
0.536
 20 
1.814
 11 
0.561
 21 
1.814
 0 
LINE
 8 
0
 62 
 7 
 10 
0.599
 20 
1.839
 11 
0.574
 21 
1.839
 0 
LINE
 8 
0
 62 
 7 
 10 
0.574
 20 
1.839
 11 
0.574
 21 
1.826
 0 
LINE
 8 
0
 62 
 7 
 10 
0.574
 20 
1.826
 11 
0.593
 21 
1.826
 0 
LINE
 8 
0
 62 
 7 
 10 
0.593
 20 
1.826
 11 
0.599
 21 
1.82
 0 
LINE
 8 
0
 62 
 7 
 10 
0.599
 20 
1.82
 11 
0.599
 21 
1.807
 0 
LINE
 8 
0
 62 
 7 
 10 
0.599
 20 
1.807
 11 
0.593
 21 
1.801
 0 
LINE
 8 
0
 62 
 7 
 10 
0.593
 20 
1.801
 11 
0.58
 21 
1.801
 0 
LINE
 8 
0
 62 
 7 
 10 
0.58
 20 
1.801
 11 
0.574
 21 
1.807
 0 
LINE
 8 
0
 62 
 7 
 10 
0.536
 20 
1.901
 11 
0.536
 21 
1.926
 0 
LINE
 8 
0
 62 
 7 
 10 
0.536
 20 
1.926
 11 
0.549
 21 
1.939
 0 
LINE
 8 
0
 62 
 7 
 10 
0.549
 20 
1.939
 11 
0.561
 21 
1.926
 0 
LINE
 8 
0
 62 
 7 
 10 
0.561
 20 
1.926
 11 
0.561
 21 
1.901
 0 
LINE
 8 
0
 62 
 7 
 10 
0.536
 20 
1.914
 11 
0.561
 21 
1.914
 0 
LINE
 8 
0
 62 
 7 
 10 
0.593
 20 
1.939
 11 
0.587
 21 
1.939
 0 
LINE
 8 
0
 62 
 7 
 10 
0.587
 20 
1.939
 11 
0.574
 21 
1.926
 0 
LINE
 8 
0
 62 
 7 
 10 
0.574
 20 
1.926
 11 
0.574
 21 
1.907
 0 
LINE
 8 
0
 62 
 7 
 10 
0.574
 20 
1.907
 11 
0.58
 21 
1.901
 0 
LINE
 8 
0
 62 
 7 
 10 
0.58
 20 
1.901
 11 
0.593
 21 
1.901
 0 
LINE
 8 
0
 62 
 7 
 10 
0.593
 20 
1.901
 11 
0.599
 21 
1.907
 0 
LINE
 8 
0
 62 
 7 
 10 
0.599
 20 
1.907
 11 
0.599
 21 
1.914
 0 
LINE
 8 
0
 62 
 7 
 10 
0.599
 20 
1.914
 11 
0.593
 21 
1.92
 0 
LINE
 8 
0
 62 
 7 
 10 
0.593
 20 
1.92
 11 
0.58
 21 
1.92
 0 
LINE
 8 
0
 62 
 7 
 10 
0.58
 20 
1.92
 11 
0.574
 21 
1.914
 0 
LINE
 8 
0
 62 
 7 
 10 
0.536
 20 
2.001
 11 
0.536
 21 
2.026
 0 
LINE
 8 
0
 62 
 7 
 10 
0.536
 20 
2.026
 11 
0.549
 21 
2.039
 0 
LINE
 8 
0
 62 
 7 
 10 
0.549
 20 
2.039
 11 
0.561
 21 
2.026
 0 
LINE
 8 
0
 62 
 7 
 10 
0.561
 20 
2.026
 11 
0.561
 21 
2.001
 0 
LINE
 8 
0
 62 
 7 
 10 
0.536
 20 
2.014
 11 
0.561
 21 
2.014
 0 
LINE
 8 
0
 62 
 7 
 10 
0.574
 20 
2.033
 11 
0.574
 21 
2.039
 0 
LINE
 8 
0
 62 
 7 
 10 
0.574
 20 
2.039
 11 
0.599
 21 
2.039
 0 
LINE
 8 
0
 62 
 7 
 10 
0.599
 20 
2.039
 11 
0.599
 21 
2.033
 0 
LINE
 8 
0
 62 
 7 
 10 
0.599
 20 
2.033
 11 
0.58
 21 
2.014
 0 
LINE
 8 
0
 62 
 7 
 10 
0.58
 20 
2.014
 11 
0.58
 21 
2.001
 0 
LINE
 8 
0
 62 
 7 
 10 
0.536
 20 
2.101
 11 
0.536
 21 
2.126
 0 
LINE
 8 
0
 62 
 7 
 10 
0.536
 20 
2.126
 11 
0.549
 21 
2.139
 0 
LINE
 8 
0
 62 
 7 
 10 
0.549
 20 
2.139
 11 
0.561
 21 
2.126
 0 
LINE
 8 
0
 62 
 7 
 10 
0.561
 20 
2.126
 11 
0.561
 21 
2.101
 0 
LINE
 8 
0
 62 
 7 
 10 
0.536
 20 
2.114
 11 
0.561
 21 
2.114
 0 
LINE
 8 
0
 62 
 7 
 10 
0.574
 20 
2.101
 11 
0.574
 21 
2.139
 0 
LINE
 8 
0
 62 
 7 
 10 
0.574
 20 
2.139
 11 
0.593
 21 
2.139
 0 
LINE
 8 
0
 62 
 7 
 10 
0.593
 20 
2.139
 11 
0.599
 21 
2.133
 0 
LINE
 8 
0
 62 
 7 
 10 
0.599
 20 
2.133
 11 
0.599
 21 
2.126
 0 
LINE
 8 
0
 62 
 7 
 10 
0.599
 20 
2.126
 11 
0.593
 21 
2.12
 0 
LINE
 8 
0
 62 
 7 
 10 
0.593
 20 
2.12
 11 
0.574
 21 
2.12
 0 
LINE
 8 
0
 62 
 7 
 10 
0.58
 20 
2.12
 11 
0.599
 21 
2.101
 0 
LINE
 8 
0
 62 
 7 
 10 
0.637
 20 
2.139
 11 
0.612
 21 
2.139
 0 
LINE
 8 
0
 62 
 7 
 10 
0.612
 20 
2.139
 11 
0.612
 21 
2.101
 0 
LINE
 8 
0
 62 
 7 
 10 
0.612
 20 
2.101
 11 
0.637
 21 
2.101
 0 
LINE
 8 
0
 62 
 7 
 10 
0.612
 20 
2.12
 11 
0.631
 21 
2.12
 0 
LINE
 8 
0
 62 
 7 
 10 
0.675
 20 
2.139
 11 
0.65
 21 
2.139
 0 
LINE
 8 
0
 62 
 7 
 10 
0.65
 20 
2.139
 11 
0.65
 21 
2.101
 0 
LINE
 8 
0
 62 
 7 
 10 
0.65
 20 
2.12
 11 
0.669
 21 
2.12
 0 
LINE
 8 
0
 62 
 7 
 10 
0.536
 20 
2.231
 11 
0.542
 21 
2.237
 0 
LINE
 8 
0
 62 
 7 
 10 
0.542
 20 
2.237
 11 
0.555
 21 
2.237
 0 
LINE
 8 
0
 62 
 7 
 10 
0.555
 20 
2.237
 11 
0.561
 21 
2.231
 0 
LINE
 8 
0
 62 
 7 
 10 
0.561
 20 
2.231
 11 
0.561
 21 
2.224
 0 
LINE
 8 
0
 62 
 7 
 10 
0.561
 20 
2.224
 11 
0.555
 21 
2.218
 0 
LINE
 8 
0
 62 
 7 
 10 
0.555
 20 
2.218
 11 
0.549
 21 
2.218
 0 
LINE
 8 
0
 62 
 7 
 10 
0.555
 20 
2.218
 11 
0.561
 21 
2.212
 0 
LINE
 8 
0
 62 
 7 
 10 
0.561
 20 
2.212
 11 
0.561
 21 
2.205
 0 
LINE
 8 
0
 62 
 7 
 10 
0.561
 20 
2.205
 11 
0.555
 21 
2.199
 0 
LINE
 8 
0
 62 
 7 
 10 
0.555
 20 
2.199
 11 
0.542
 21 
2.199
 0 
LINE
 8 
0
 62 
 7 
 10 
0.542
 20 
2.199
 11 
0.536
 21 
2.205
 0 
LINE
 8 
0
 62 
 7 
 10 
0.574
 20 
2.237
 11 
0.574
 21 
2.218
 0 
LINE
 8 
0
 62 
 7 
 10 
0.574
 20 
2.218
 11 
0.587
 21 
2.205
 0 
LINE
 8 
0
 62 
 7 
 10 
0.587
 20 
2.205
 11 
0.599
 21 
2.218
 0 
LINE
 8 
0
 62 
 7 
 10 
0.599
 20 
2.218
 11 
0.599
 21 
2.237
 0 
LINE
 8 
0
 62 
 7 
 10 
0.587
 20 
2.205
 11 
0.587
 21 
2.199
 0 
LINE
 8 
0
 62 
 7 
 10 
0.612
 20 
2.231
 11 
0.618
 21 
2.237
 0 
LINE
 8 
0
 62 
 7 
 10 
0.618
 20 
2.237
 11 
0.631
 21 
2.237
 0 
LINE
 8 
0
 62 
 7 
 10 
0.631
 20 
2.237
 11 
0.637
 21 
2.231
 0 
LINE
 8 
0
 62 
 7 
 10 
0.637
 20 
2.231
 11 
0.637
 21 
2.224
 0 
LINE
 8 
0
 62 
 7 
 10 
0.637
 20 
2.224
 11 
0.631
 21 
2.218
 0 
LINE
 8 
0
 62 
 7 
 10 
0.631
 20 
2.218
 11 
0.625
 21 
2.218
 0 
LINE
 8 
0
 62 
 7 
 10 
0.631
 20 
2.218
 11 
0.637
 21 
2.212
 0 
LINE
 8 
0
 62 
 7 
 10 
0.637
 20 
2.212
 11 
0.637
 21 
2.205
 0 
LINE
 8 
0
 62 
 7 
 10 
0.637
 20 
2.205
 11 
0.631
 21 
2.199
 0 
LINE
 8 
0
 62 
 7 
 10 
0.631
 20 
2.199
 11 
0.618
 21 
2.199
 0 
LINE
 8 
0
 62 
 7 
 10 
0.618
 20 
2.199
 11 
0.612
 21 
2.205
 0 
LINE
 8 
0
 62 
 7 
 10 
0.536
 20 
2.337
 11 
0.555
 21 
2.337
 0 
LINE
 8 
0
 62 
 7 
 10 
0.555
 20 
2.337
 11 
0.561
 21 
2.331
 0 
LINE
 8 
0
 62 
 7 
 10 
0.561
 20 
2.331
 11 
0.561
 21 
2.305
 0 
LINE
 8 
0
 62 
 7 
 10 
0.561
 20 
2.305
 11 
0.555
 21 
2.299
 0 
LINE
 8 
0
 62 
 7 
 10 
0.555
 20 
2.299
 11 
0.536
 21 
2.299
 0 
LINE
 8 
0
 62 
 7 
 10 
0.542
 20 
2.337
 11 
0.542
 21 
2.299
 0 
LINE
 8 
0
 62 
 7 
 10 
0.58
 20 
2.331
 11 
0.587
 21 
2.337
 0 
LINE
 8 
0
 62 
 7 
 10 
0.587
 20 
2.337
 11 
0.587
 21 
2.299
 0 
LINE
 8 
0
 62 
 7 
 10 
0.58
 20 
2.299
 11 
0.593
 21 
2.299
 0 
LINE
 8 
0
 62 
 7 
 10 
0.612
 20 
2.331
 11 
0.618
 21 
2.337
 0 
LINE
 8 
0
 62 
 7 
 10 
0.618
 20 
2.337
 11 
0.631
 21 
2.337
 0 
LINE
 8 
0
 62 
 7 
 10 
0.631
 20 
2.337
 11 
0.637
 21 
2.331
 0 
LINE
 8 
0
 62 
 7 
 10 
0.637
 20 
2.331
 11 
0.637
 21 
2.324
 0 
LINE
 8 
0
 62 
 7 
 10 
0.637
 20 
2.324
 11 
0.631
 21 
2.318
 0 
LINE
 8 
0
 62 
 7 
 10 
0.631
 20 
2.318
 11 
0.625
 21 
2.318
 0 
LINE
 8 
0
 62 
 7 
 10 
0.631
 20 
2.318
 11 
0.637
 21 
2.312
 0 
LINE
 8 
0
 62 
 7 
 10 
0.637
 20 
2.312
 11 
0.637
 21 
2.305
 0 
LINE
 8 
0
 62 
 7 
 10 
0.637
 20 
2.305
 11 
0.631
 21 
2.299
 0 
LINE
 8 
0
 62 
 7 
 10 
0.631
 20 
2.299
 11 
0.618
 21 
2.299
 0 
LINE
 8 
0
 62 
 7 
 10 
0.618
 20 
2.299
 11 
0.612
 21 
2.305
 0 
LINE
 8 
0
 62 
 7 
 10 
0.924
 20 
2.337
 11 
0.943
 21 
2.337
 0 
LINE
 8 
0
 62 
 7 
 10 
0.943
 20 
2.337
 11 
0.949
 21 
2.331
 0 
LINE
 8 
0
 62 
 7 
 10 
0.949
 20 
2.331
 11 
0.949
 21 
2.305
 0 
LINE
 8 
0
 62 
 7 
 10 
0.949
 20 
2.305
 11 
0.943
 21 
2.299
 0 
LINE
 8 
0
 62 
 7 
 10 
0.943
 20 
2.299
 11 
0.924
 21 
2.299
 0 
LINE
 8 
0
 62 
 7 
 10 
0.93
 20 
2.337
 11 
0.93
 21 
2.299
 0 
LINE
 8 
0
 62 
 7 
 10 
0.968
 20 
2.331
 11 
0.975
 21 
2.337
 0 
LINE
 8 
0
 62 
 7 
 10 
0.975
 20 
2.337
 11 
0.975
 21 
2.299
 0 
LINE
 8 
0
 62 
 7 
 10 
0.968
 20 
2.299
 11 
0.981
 21 
2.299
 0 
LINE
 8 
0
 62 
 7 
 10 
1.0
 20 
2.331
 11 
1.006
 21 
2.337
 0 
LINE
 8 
0
 62 
 7 
 10 
1.006
 20 
2.337
 11 
1.019
 21 
2.337
 0 
LINE
 8 
0
 62 
 7 
 10 
1.019
 20 
2.337
 11 
1.025
 21 
2.331
 0 
LINE
 8 
0
 62 
 7 
 10 
1.025
 20 
2.331
 11 
1.025
 21 
2.324
 0 
LINE
 8 
0
 62 
 7 
 10 
1.025
 20 
2.324
 11 
1.019
 21 
2.318
 0 
LINE
 8 
0
 62 
 7 
 10 
1.019
 20 
2.318
 11 
1.006
 21 
2.318
 0 
LINE
 8 
0
 62 
 7 
 10 
1.006
 20 
2.318
 11 
1.0
 21 
2.312
 0 
LINE
 8 
0
 62 
 7 
 10 
1.0
 20 
2.312
 11 
1.0
 21 
2.299
 0 
LINE
 8 
0
 62 
 7 
 10 
1.0
 20 
2.299
 11 
1.025
 21 
2.299
 0 
LINE
 8 
0
 62 
 7 
 10 
0.924
 20 
2.237
 11 
0.943
 21 
2.237
 0 
LINE
 8 
0
 62 
 7 
 10 
0.943
 20 
2.237
 11 
0.949
 21 
2.231
 0 
LINE
 8 
0
 62 
 7 
 10 
0.949
 20 
2.231
 11 
0.949
 21 
2.205
 0 
LINE
 8 
0
 62 
 7 
 10 
0.949
 20 
2.205
 11 
0.943
 21 
2.199
 0 
LINE
 8 
0
 62 
 7 
 10 
0.943
 20 
2.199
 11 
0.924
 21 
2.199
 0 
LINE
 8 
0
 62 
 7 
 10 
0.93
 20 
2.237
 11 
0.93
 21 
2.199
 0 
LINE
 8 
0
 62 
 7 
 10 
0.968
 20 
2.231
 11 
0.975
 21 
2.237
 0 
LINE
 8 
0
 62 
 7 
 10 
0.975
 20 
2.237
 11 
0.975
 21 
2.199
 0 
LINE
 8 
0
 62 
 7 
 10 
0.968
 20 
2.199
 11 
0.981
 21 
2.199
 0 
LINE
 8 
0
 62 
 7 
 10 
1.006
 20 
2.231
 11 
1.013
 21 
2.237
 0 
LINE
 8 
0
 62 
 7 
 10 
1.013
 20 
2.237
 11 
1.013
 21 
2.199
 0 
LINE
 8 
0
 62 
 7 
 10 
1.006
 20 
2.199
 11 
1.019
 21 
2.199
 0 
LINE
 8 
0
 62 
 7 
 10 
0.924
 20 
2.137
 11 
0.943
 21 
2.137
 0 
LINE
 8 
0
 62 
 7 
 10 
0.943
 20 
2.137
 11 
0.949
 21 
2.131
 0 
LINE
 8 
0
 62 
 7 
 10 
0.949
 20 
2.131
 11 
0.949
 21 
2.105
 0 
LINE
 8 
0
 62 
 7 
 10 
0.949
 20 
2.105
 11 
0.943
 21 
2.099
 0 
LINE
 8 
0
 62 
 7 
 10 
0.943
 20 
2.099
 11 
0.924
 21 
2.099
 0 
LINE
 8 
0
 62 
 7 
 10 
0.93
 20 
2.137
 11 
0.93
 21 
2.099
 0 
LINE
 8 
0
 62 
 7 
 10 
0.968
 20 
2.131
 11 
0.975
 21 
2.137
 0 
LINE
 8 
0
 62 
 7 
 10 
0.975
 20 
2.137
 11 
0.975
 21 
2.099
 0 
LINE
 8 
0
 62 
 7 
 10 
0.968
 20 
2.099
 11 
0.981
 21 
2.099
 0 
LINE
 8 
0
 62 
 7 
 10 
1.0
 20 
2.105
 11 
1.0
 21 
2.131
 0 
LINE
 8 
0
 62 
 7 
 10 
1.0
 20 
2.131
 11 
1.006
 21 
2.137
 0 
LINE
 8 
0
 62 
 7 
 10 
1.006
 20 
2.137
 11 
1.019
 21 
2.137
 0 
LINE
 8 
0
 62 
 7 
 10 
1.019
 20 
2.137
 11 
1.025
 21 
2.131
 0 
LINE
 8 
0
 62 
 7 
 10 
1.025
 20 
2.131
 11 
1.025
 21 
2.105
 0 
LINE
 8 
0
 62 
 7 
 10 
1.025
 20 
2.105
 11 
1.019
 21 
2.099
 0 
LINE
 8 
0
 62 
 7 
 10 
1.019
 20 
2.099
 11 
1.006
 21 
2.099
 0 
LINE
 8 
0
 62 
 7 
 10 
1.006
 20 
2.099
 11 
1.0
 21 
2.105
 0 
LINE
 8 
0
 62 
 7 
 10 
1.0
 20 
2.105
 11 
1.025
 21 
2.131
 0 
LINE
 8 
0
 62 
 7 
 10 
0.962
 20 
2.039
 11 
0.981
 21 
2.039
 0 
LINE
 8 
0
 62 
 7 
 10 
0.981
 20 
2.039
 11 
0.987
 21 
2.033
 0 
LINE
 8 
0
 62 
 7 
 10 
0.987
 20 
2.033
 11 
0.987
 21 
2.007
 0 
LINE
 8 
0
 62 
 7 
 10 
0.987
 20 
2.007
 11 
0.981
 21 
2.001
 0 
LINE
 8 
0
 62 
 7 
 10 
0.981
 20 
2.001
 11 
0.962
 21 
2.001
 0 
LINE
 8 
0
 62 
 7 
 10 
0.968
 20 
2.039
 11 
0.968
 21 
2.001
 0 
LINE
 8 
0
 62 
 7 
 10 
1.025
 20 
2.026
 11 
1.019
 21 
2.02
 0 
LINE
 8 
0
 62 
 7 
 10 
1.019
 20 
2.02
 11 
1.006
 21 
2.02
 0 
LINE
 8 
0
 62 
 7 
 10 
1.006
 20 
2.02
 11 
1.0
 21 
2.026
 0 
LINE
 8 
0
 62 
 7 
 10 
1.0
 20 
2.026
 11 
1.0
 21 
2.033
 0 
LINE
 8 
0
 62 
 7 
 10 
1.0
 20 
2.033
 11 
1.006
 21 
2.039
 0 
LINE
 8 
0
 62 
 7 
 10 
1.006
 20 
2.039
 11 
1.019
 21 
2.039
 0 
LINE
 8 
0
 62 
 7 
 10 
1.019
 20 
2.039
 11 
1.025
 21 
2.033
 0 
LINE
 8 
0
 62 
 7 
 10 
1.025
 20 
2.033
 11 
1.025
 21 
2.014
 0 
LINE
 8 
0
 62 
 7 
 10 
1.025
 20 
2.014
 11 
1.013
 21 
2.001
 0 
LINE
 8 
0
 62 
 7 
 10 
1.013
 20 
2.001
 11 
1.006
 21 
2.001
 0 
LINE
 8 
0
 62 
 7 
 10 
0.962
 20 
1.939
 11 
0.981
 21 
1.939
 0 
LINE
 8 
0
 62 
 7 
 10 
0.981
 20 
1.939
 11 
0.987
 21 
1.933
 0 
LINE
 8 
0
 62 
 7 
 10 
0.987
 20 
1.933
 11 
0.987
 21 
1.907
 0 
LINE
 8 
0
 62 
 7 
 10 
0.987
 20 
1.907
 11 
0.981
 21 
1.901
 0 
LINE
 8 
0
 62 
 7 
 10 
0.981
 20 
1.901
 11 
0.962
 21 
1.901
 0 
LINE
 8 
0
 62 
 7 
 10 
0.968
 20 
1.939
 11 
0.968
 21 
1.901
 0 
LINE
 8 
0
 62 
 7 
 10 
1.006
 20 
1.92
 11 
1.0
 21 
1.926
 0 
LINE
 8 
0
 62 
 7 
 10 
1.0
 20 
1.926
 11 
1.0
 21 
1.933
 0 
LINE
 8 
0
 62 
 7 
 10 
1.0
 20 
1.933
 11 
1.006
 21 
1.939
 0 
LINE
 8 
0
 62 
 7 
 10 
1.006
 20 
1.939
 11 
1.019
 21 
1.939
 0 
LINE
 8 
0
 62 
 7 
 10 
1.019
 20 
1.939
 11 
1.025
 21 
1.933
 0 
LINE
 8 
0
 62 
 7 
 10 
1.025
 20 
1.933
 11 
1.025
 21 
1.926
 0 
LINE
 8 
0
 62 
 7 
 10 
1.025
 20 
1.926
 11 
1.019
 21 
1.92
 0 
LINE
 8 
0
 62 
 7 
 10 
1.019
 20 
1.92
 11 
1.006
 21 
1.92
 0 
LINE
 8 
0
 62 
 7 
 10 
1.006
 20 
1.92
 11 
1.0
 21 
1.914
 0 
LINE
 8 
0
 62 
 7 
 10 
1.0
 20 
1.914
 11 
1.0
 21 
1.907
 0 
LINE
 8 
0
 62 
 7 
 10 
1.0
 20 
1.907
 11 
1.006
 21 
1.901
 0 
LINE
 8 
0
 62 
 7 
 10 
1.006
 20 
1.901
 11 
1.019
 21 
1.901
 0 
LINE
 8 
0
 62 
 7 
 10 
1.019
 20 
1.901
 11 
1.025
 21 
1.907
 0 
LINE
 8 
0
 62 
 7 
 10 
1.025
 20 
1.907
 11 
1.025
 21 
1.914
 0 
LINE
 8 
0
 62 
 7 
 10 
1.025
 20 
1.914
 11 
1.019
 21 
1.92
 0 
LINE
 8 
0
 62 
 7 
 10 
0.962
 20 
1.839
 11 
0.981
 21 
1.839
 0 
LINE
 8 
0
 62 
 7 
 10 
0.981
 20 
1.839
 11 
0.987
 21 
1.833
 0 
LINE
 8 
0
 62 
 7 
 10 
0.987
 20 
1.833
 11 
0.987
 21 
1.807
 0 
LINE
 8 
0
 62 
 7 
 10 
0.987
 20 
1.807
 11 
0.981
 21 
1.801
 0 
LINE
 8 
0
 62 
 7 
 10 
0.981
 20 
1.801
 11 
0.962
 21 
1.801
 0 
LINE
 8 
0
 62 
 7 
 10 
0.968
 20 
1.839
 11 
0.968
 21 
1.801
 0 
LINE
 8 
0
 62 
 7 
 10 
1.0
 20 
1.833
 11 
1.0
 21 
1.839
 0 
LINE
 8 
0
 62 
 7 
 10 
1.0
 20 
1.839
 11 
1.025
 21 
1.839
 0 
LINE
 8 
0
 62 
 7 
 10 
1.025
 20 
1.839
 11 
1.025
 21 
1.833
 0 
LINE
 8 
0
 62 
 7 
 10 
1.025
 20 
1.833
 11 
1.006
 21 
1.814
 0 
LINE
 8 
0
 62 
 7 
 10 
1.006
 20 
1.814
 11 
1.006
 21 
1.801
 0 
LINE
 8 
0
 62 
 7 
 10 
0.962
 20 
1.739
 11 
0.981
 21 
1.739
 0 
LINE
 8 
0
 62 
 7 
 10 
0.981
 20 
1.739
 11 
0.987
 21 
1.733
 0 
LINE
 8 
0
 62 
 7 
 10 
0.987
 20 
1.733
 11 
0.987
 21 
1.707
 0 
LINE
 8 
0
 62 
 7 
 10 
0.987
 20 
1.707
 11 
0.981
 21 
1.701
 0 
LINE
 8 
0
 62 
 7 
 10 
0.981
 20 
1.701
 11 
0.962
 21 
1.701
 0 
LINE
 8 
0
 62 
 7 
 10 
0.968
 20 
1.739
 11 
0.968
 21 
1.701
 0 
LINE
 8 
0
 62 
 7 
 10 
1.019
 20 
1.739
 11 
1.013
 21 
1.739
 0 
LINE
 8 
0
 62 
 7 
 10 
1.013
 20 
1.739
 11 
1.0
 21 
1.726
 0 
LINE
 8 
0
 62 
 7 
 10 
1.0
 20 
1.726
 11 
1.0
 21 
1.707
 0 
LINE
 8 
0
 62 
 7 
 10 
1.0
 20 
1.707
 11 
1.006
 21 
1.701
 0 
LINE
 8 
0
 62 
 7 
 10 
1.006
 20 
1.701
 11 
1.019
 21 
1.701
 0 
LINE
 8 
0
 62 
 7 
 10 
1.019
 20 
1.701
 11 
1.025
 21 
1.707
 0 
LINE
 8 
0
 62 
 7 
 10 
1.025
 20 
1.707
 11 
1.025
 21 
1.714
 0 
LINE
 8 
0
 62 
 7 
 10 
1.025
 20 
1.714
 11 
1.019
 21 
1.72
 0 
LINE
 8 
0
 62 
 7 
 10 
1.019
 20 
1.72
 11 
1.006
 21 
1.72
 0 
LINE
 8 
0
 62 
 7 
 10 
1.006
 20 
1.72
 11 
1.0
 21 
1.714
 0 
LINE
 8 
0
 62 
 7 
 10 
0.962
 20 
1.639
 11 
0.981
 21 
1.639
 0 
LINE
 8 
0
 62 
 7 
 10 
0.981
 20 
1.639
 11 
0.987
 21 
1.633
 0 
LINE
 8 
0
 62 
 7 
 10 
0.987
 20 
1.633
 11 
0.987
 21 
1.607
 0 
LINE
 8 
0
 62 
 7 
 10 
0.987
 20 
1.607
 11 
0.981
 21 
1.601
 0 
LINE
 8 
0
 62 
 7 
 10 
0.981
 20 
1.601
 11 
0.962
 21 
1.601
 0 
LINE
 8 
0
 62 
 7 
 10 
0.968
 20 
1.639
 11 
0.968
 21 
1.601
 0 
LINE
 8 
0
 62 
 7 
 10 
1.025
 20 
1.639
 11 
1.0
 21 
1.639
 0 
LINE
 8 
0
 62 
 7 
 10 
1.0
 20 
1.639
 11 
1.0
 21 
1.626
 0 
LINE
 8 
0
 62 
 7 
 10 
1.0
 20 
1.626
 11 
1.019
 21 
1.626
 0 
LINE
 8 
0
 62 
 7 
 10 
1.019
 20 
1.626
 11 
1.025
 21 
1.62
 0 
LINE
 8 
0
 62 
 7 
 10 
1.025
 20 
1.62
 11 
1.025
 21 
1.607
 0 
LINE
 8 
0
 62 
 7 
 10 
1.025
 20 
1.607
 11 
1.019
 21 
1.601
 0 
LINE
 8 
0
 62 
 7 
 10 
1.019
 20 
1.601
 11 
1.006
 21 
1.601
 0 
LINE
 8 
0
 62 
 7 
 10 
1.006
 20 
1.601
 11 
1.0
 21 
1.607
 0 
LINE
 8 
0
 62 
 7 
 10 
0.962
 20 
1.539
 11 
0.981
 21 
1.539
 0 
LINE
 8 
0
 62 
 7 
 10 
0.981
 20 
1.539
 11 
0.987
 21 
1.533
 0 
LINE
 8 
0
 62 
 7 
 10 
0.987
 20 
1.533
 11 
0.987
 21 
1.507
 0 
LINE
 8 
0
 62 
 7 
 10 
0.987
 20 
1.507
 11 
0.981
 21 
1.501
 0 
LINE
 8 
0
 62 
 7 
 10 
0.981
 20 
1.501
 11 
0.962
 21 
1.501
 0 
LINE
 8 
0
 62 
 7 
 10 
0.968
 20 
1.539
 11 
0.968
 21 
1.501
 0 
LINE
 8 
0
 62 
 7 
 10 
1.025
 20 
1.514
 11 
1.0
 21 
1.514
 0 
LINE
 8 
0
 62 
 7 
 10 
1.0
 20 
1.514
 11 
1.0
 21 
1.52
 0 
LINE
 8 
0
 62 
 7 
 10 
1.0
 20 
1.52
 11 
1.019
 21 
1.539
 0 
LINE
 8 
0
 62 
 7 
 10 
1.019
 20 
1.539
 11 
1.019
 21 
1.501
 0 
LINE
 8 
0
 62 
 7 
 10 
0.962
 20 
1.439
 11 
0.981
 21 
1.439
 0 
LINE
 8 
0
 62 
 7 
 10 
0.981
 20 
1.439
 11 
0.987
 21 
1.433
 0 
LINE
 8 
0
 62 
 7 
 10 
0.987
 20 
1.433
 11 
0.987
 21 
1.407
 0 
LINE
 8 
0
 62 
 7 
 10 
0.987
 20 
1.407
 11 
0.981
 21 
1.401
 0 
LINE
 8 
0
 62 
 7 
 10 
0.981
 20 
1.401
 11 
0.962
 21 
1.401
 0 
LINE
 8 
0
 62 
 7 
 10 
0.968
 20 
1.439
 11 
0.968
 21 
1.401
 0 
LINE
 8 
0
 62 
 7 
 10 
1.0
 20 
1.433
 11 
1.006
 21 
1.439
 0 
LINE
 8 
0
 62 
 7 
 10 
1.006
 20 
1.439
 11 
1.019
 21 
1.439
 0 
LINE
 8 
0
 62 
 7 
 10 
1.019
 20 
1.439
 11 
1.025
 21 
1.433
 0 
LINE
 8 
0
 62 
 7 
 10 
1.025
 20 
1.433
 11 
1.025
 21 
1.426
 0 
LINE
 8 
0
 62 
 7 
 10 
1.025
 20 
1.426
 11 
1.019
 21 
1.42
 0 
LINE
 8 
0
 62 
 7 
 10 
1.019
 20 
1.42
 11 
1.013
 21 
1.42
 0 
LINE
 8 
0
 62 
 7 
 10 
1.019
 20 
1.42
 11 
1.025
 21 
1.414
 0 
LINE
 8 
0
 62 
 7 
 10 
1.025
 20 
1.414
 11 
1.025
 21 
1.407
 0 
LINE
 8 
0
 62 
 7 
 10 
1.025
 20 
1.407
 11 
1.019
 21 
1.401
 0 
LINE
 8 
0
 62 
 7 
 10 
1.019
 20 
1.401
 11 
1.006
 21 
1.401
 0 
LINE
 8 
0
 62 
 7 
 10 
1.006
 20 
1.401
 11 
1.0
 21 
1.407
 0 
LINE
 8 
0
 62 
 7 
 10 
0.962
 20 
1.339
 11 
0.981
 21 
1.339
 0 
LINE
 8 
0
 62 
 7 
 10 
0.981
 20 
1.339
 11 
0.987
 21 
1.333
 0 
LINE
 8 
0
 62 
 7 
 10 
0.987
 20 
1.333
 11 
0.987
 21 
1.307
 0 
LINE
 8 
0
 62 
 7 
 10 
0.987
 20 
1.307
 11 
0.981
 21 
1.301
 0 
LINE
 8 
0
 62 
 7 
 10 
0.981
 20 
1.301
 11 
0.962
 21 
1.301
 0 
LINE
 8 
0
 62 
 7 
 10 
0.968
 20 
1.339
 11 
0.968
 21 
1.301
 0 
LINE
 8 
0
 62 
 7 
 10 
1.0
 20 
1.333
 11 
1.006
 21 
1.339
 0 
LINE
 8 
0
 62 
 7 
 10 
1.006
 20 
1.339
 11 
1.019
 21 
1.339
 0 
LINE
 8 
0
 62 
 7 
 10 
1.019
 20 
1.339
 11 
1.025
 21 
1.333
 0 
LINE
 8 
0
 62 
 7 
 10 
1.025
 20 
1.333
 11 
1.025
 21 
1.326
 0 
LINE
 8 
0
 62 
 7 
 10 
1.025
 20 
1.326
 11 
1.019
 21 
1.32
 0 
LINE
 8 
0
 62 
 7 
 10 
1.019
 20 
1.32
 11 
1.006
 21 
1.32
 0 
LINE
 8 
0
 62 
 7 
 10 
1.006
 20 
1.32
 11 
1.0
 21 
1.314
 0 
LINE
 8 
0
 62 
 7 
 10 
1.0
 20 
1.314
 11 
1.0
 21 
1.301
 0 
LINE
 8 
0
 62 
 7 
 10 
1.0
 20 
1.301
 11 
1.025
 21 
1.301
 0 
LINE
 8 
0
 62 
 7 
 10 
0.924
 20 
1.099
 11 
0.924
 21 
1.137
 0 
LINE
 8 
0
 62 
 7 
 10 
0.924
 20 
1.137
 11 
0.943
 21 
1.137
 0 
LINE
 8 
0
 62 
 7 
 10 
0.943
 20 
1.137
 11 
0.949
 21 
1.131
 0 
LINE
 8 
0
 62 
 7 
 10 
0.949
 20 
1.131
 11 
0.949
 21 
1.124
 0 
LINE
 8 
0
 62 
 7 
 10 
0.949
 20 
1.124
 11 
0.943
 21 
1.118
 0 
LINE
 8 
0
 62 
 7 
 10 
0.943
 20 
1.118
 11 
0.924
 21 
1.118
 0 
LINE
 8 
0
 62 
 7 
 10 
0.93
 20 
1.118
 11 
0.949
 21 
1.099
 0 
LINE
 8 
0
 62 
 7 
 10 
0.987
 20 
1.131
 11 
0.981
 21 
1.137
 0 
LINE
 8 
0
 62 
 7 
 10 
0.981
 20 
1.137
 11 
0.968
 21 
1.137
 0 
LINE
 8 
0
 62 
 7 
 10 
0.968
 20 
1.137
 11 
0.962
 21 
1.131
 0 
LINE
 8 
0
 62 
 7 
 10 
0.962
 20 
1.131
 11 
0.962
 21 
1.124
 0 
LINE
 8 
0
 62 
 7 
 10 
0.962
 20 
1.124
 11 
0.968
 21 
1.118
 0 
LINE
 8 
0
 62 
 7 
 10 
0.968
 20 
1.118
 11 
0.981
 21 
1.118
 0 
LINE
 8 
0
 62 
 7 
 10 
0.981
 20 
1.118
 11 
0.987
 21 
1.112
 0 
LINE
 8 
0
 62 
 7 
 10 
0.987
 20 
1.112
 11 
0.987
 21 
1.105
 0 
LINE
 8 
0
 62 
 7 
 10 
0.987
 20 
1.105
 11 
0.981
 21 
1.099
 0 
LINE
 8 
0
 62 
 7 
 10 
0.981
 20 
1.099
 11 
0.968
 21 
1.099
 0 
LINE
 8 
0
 62 
 7 
 10 
0.968
 20 
1.099
 11 
0.962
 21 
1.105
 0 
LINE
 8 
0
 62 
 7 
 10 
1.0
 20 
1.137
 11 
1.025
 21 
1.137
 0 
LINE
 8 
0
 62 
 7 
 10 
1.013
 20 
1.137
 11 
1.013
 21 
1.099
 0 
LINE
 8 
0
 62 
 7 
 10 
0.924
 20 
0.999
 11 
0.924
 21 
1.037
 0 
LINE
 8 
0
 62 
 7 
 10 
0.924
 20 
1.037
 11 
0.943
 21 
1.037
 0 
LINE
 8 
0
 62 
 7 
 10 
0.943
 20 
1.037
 11 
0.949
 21 
1.031
 0 
LINE
 8 
0
 62 
 7 
 10 
0.949
 20 
1.031
 11 
0.949
 21 
1.024
 0 
LINE
 8 
0
 62 
 7 
 10 
0.949
 20 
1.024
 11 
0.943
 21 
1.018
 0 
LINE
 8 
0
 62 
 7 
 10 
0.943
 20 
1.018
 11 
0.924
 21 
1.018
 0 
LINE
 8 
0
 62 
 7 
 10 
0.93
 20 
1.018
 11 
0.949
 21 
0.999
 0 
LINE
 8 
0
 62 
 7 
 10 
0.962
 20 
1.037
 11 
0.962
 21 
1.031
 0 
LINE
 8 
0
 62 
 7 
 10 
0.962
 20 
1.031
 11 
0.987
 21 
1.005
 0 
LINE
 8 
0
 62 
 7 
 10 
0.987
 20 
1.005
 11 
0.987
 21 
0.999
 0 
LINE
 8 
0
 62 
 7 
 10 
0.987
 20 
1.037
 11 
0.987
 21 
1.031
 0 
LINE
 8 
0
 62 
 7 
 10 
0.987
 20 
1.031
 11 
0.962
 21 
1.005
 0 
LINE
 8 
0
 62 
 7 
 10 
0.962
 20 
1.005
 11 
0.962
 21 
0.999
 0 
LINE
 8 
0
 62 
 7 
 10 
1.0
 20 
1.005
 11 
1.0
 21 
1.031
 0 
LINE
 8 
0
 62 
 7 
 10 
1.0
 20 
1.031
 11 
1.006
 21 
1.037
 0 
LINE
 8 
0
 62 
 7 
 10 
1.006
 20 
1.037
 11 
1.019
 21 
1.037
 0 
LINE
 8 
0
 62 
 7 
 10 
1.019
 20 
1.037
 11 
1.025
 21 
1.031
 0 
LINE
 8 
0
 62 
 7 
 10 
1.025
 20 
1.031
 11 
1.025
 21 
1.005
 0 
LINE
 8 
0
 62 
 7 
 10 
1.025
 20 
1.005
 11 
1.019
 21 
0.999
 0 
LINE
 8 
0
 62 
 7 
 10 
1.019
 20 
0.999
 11 
1.006
 21 
0.999
 0 
LINE
 8 
0
 62 
 7 
 10 
1.006
 20 
0.999
 11 
1.0
 21 
1.005
 0 
LINE
 8 
0
 62 
 7 
 10 
1.0
 20 
1.005
 11 
1.025
 21 
1.031
 0 
LINE
 8 
0
 62 
 7 
 10 
0.949
 20 
1.231
 11 
0.943
 21 
1.237
 0 
LINE
 8 
0
 62 
 7 
 10 
0.943
 20 
1.237
 11 
0.93
 21 
1.237
 0 
LINE
 8 
0
 62 
 7 
 10 
0.93
 20 
1.237
 11 
0.924
 21 
1.231
 0 
LINE
 8 
0
 62 
 7 
 10 
0.924
 20 
1.231
 11 
0.924
 21 
1.205
 0 
LINE
 8 
0
 62 
 7 
 10 
0.924
 20 
1.205
 11 
0.93
 21 
1.199
 0 
LINE
 8 
0
 62 
 7 
 10 
0.93
 20 
1.199
 11 
0.949
 21 
1.199
 0 
LINE
 8 
0
 62 
 7 
 10 
0.949
 20 
1.199
 11 
0.949
 21 
1.212
 0 
LINE
 8 
0
 62 
 7 
 10 
0.949
 20 
1.212
 11 
0.943
 21 
1.212
 0 
LINE
 8 
0
 62 
 7 
 10 
0.962
 20 
1.199
 11 
0.962
 21 
1.237
 0 
LINE
 8 
0
 62 
 7 
 10 
0.962
 20 
1.237
 11 
0.987
 21 
1.212
 0 
LINE
 8 
0
 62 
 7 
 10 
0.987
 20 
1.237
 11 
0.987
 21 
1.199
 0 
LINE
 8 
0
 62 
 7 
 10 
1.0
 20 
1.237
 11 
1.019
 21 
1.237
 0 
LINE
 8 
0
 62 
 7 
 10 
1.019
 20 
1.237
 11 
1.025
 21 
1.231
 0 
LINE
 8 
0
 62 
 7 
 10 
1.025
 20 
1.231
 11 
1.025
 21 
1.205
 0 
LINE
 8 
0
 62 
 7 
 10 
1.025
 20 
1.205
 11 
1.019
 21 
1.199
 0 
LINE
 8 
0
 62 
 7 
 10 
1.019
 20 
1.199
 11 
1.0
 21 
1.199
 0 
LINE
 8 
0
 62 
 7 
 10 
1.006
 20 
1.237
 11 
1.006
 21 
1.199
 0 
LINE
 8 
0
 62 
 7 
 10 
1.15
 20 
0.75
 11 
1.15
 21 
2.5
 0 
LINE
 8 
0
 62 
 7 
 10 
0.4
 20 
0.75
 11 
1.15
 21 
0.75
 0 
LINE
 8 
0
 62 
 7 
 10 
0.4
 20 
2.5
 11 
0.4
 21 
0.75
 0 
LINE
 8 
0
 62 
 7 
 10 
1.15
 20 
2.5
 11 
0.4
 21 
2.5
 0 
CIRCLE
 8 
0
 62 
 7 
 10 
0.675
 20 
0.925
 40 
0.038
 0 
CIRCLE
 8 
0
 62 
 7 
 10 
0.675
 20 
0.925
 40 
0.02
 0 
LINE
 8 
0
 62 
 7 
 10 
2.858
 20 
1.9
 11 
2.883
 21 
1.9
 0 
LINE
 8 
0
 62 
 7 
 10 
2.883
 20 
1.9
 11 
2.883
 21 
1.858
 0 
LINE
 8 
0
 62 
 7 
 10 
2.883
 20 
1.858
 11 
2.875
 21 
1.85
 0 
LINE
 8 
0
 62 
 7 
 10 
2.875
 20 
1.85
 11 
2.858
 21 
1.85
 0 
LINE
 8 
0
 62 
 7 
 10 
2.858
 20 
1.85
 11 
2.85
 21 
1.858
 0 
LINE
 8 
0
 62 
 7 
 10 
2.908
 20 
1.892
 11 
2.917
 21 
1.9
 0 
LINE
 8 
0
 62 
 7 
 10 
2.917
 20 
1.9
 11 
2.917
 21 
1.85
 0 
LINE
 8 
0
 62 
 7 
 10 
2.908
 20 
1.85
 11 
2.925
 21 
1.85
 0 
LINE
 8 
0
 62 
 7 
 10 
1.525
 20 
2.15
 11 
1.525
 21 
2.465
 0 
CIRCLE
 8 
0
 62 
 7 
 10 
1.625
 20 
2.25
 40 
0.044
 0 
CIRCLE
 8 
0
 62 
 7 
 10 
1.625
 20 
2.25
 40 
0.026
 0 
CIRCLE
 8 
0
 62 
 7 
 10 
1.775
 20 
2.25
 40 
0.044
 0 
CIRCLE
 8 
0
 62 
 7 
 10 
1.775
 20 
2.25
 40 
0.026
 0 
CIRCLE
 8 
0
 62 
 7 
 10 
1.925
 20 
2.25
 40 
0.044
 0 
CIRCLE
 8 
0
 62 
 7 
 10 
1.925
 20 
2.25
 40 
0.026
 0 
CIRCLE
 8 
0
 62 
 7 
 10 
2.075
 20 
2.25
 40 
0.044
 0 
CIRCLE
 8 
0
 62 
 7 
 10 
2.075
 20 
2.25
 40 
0.026
 0 
LINE
 8 
0
 62 
 7 
 10 
2.175
 20 
2.15
 11 
2.175
 21 
2.465
 0 
LINE
 8 
0
 62 
 7 
 10 
1.525
 20 
2.15
 11 
2.175
 21 
2.15
 0 
LINE
 8 
0
 62 
 7 
 10 
1.525
 20 
2.475
 11 
2.175
 21 
2.475
 0 
LINE
 8 
0
 62 
 7 
 10 
1.833
 20 
2.19
 11 
1.858
 21 
2.19
 0 
LINE
 8 
0
 62 
 7 
 10 
1.858
 20 
2.19
 11 
1.858
 21 
2.148
 0 
LINE
 8 
0
 62 
 7 
 10 
1.858
 20 
2.148
 11 
1.85
 21 
2.14
 0 
LINE
 8 
0
 62 
 7 
 10 
1.85
 20 
2.14
 11 
1.833
 21 
2.14
 0 
LINE
 8 
0
 62 
 7 
 10 
1.833
 20 
2.14
 11 
1.825
 21 
2.148
 0 
LINE
 8 
0
 62 
 7 
 10 
1.875
 20 
2.182
 11 
1.883
 21 
2.19
 0 
LINE
 8 
0
 62 
 7 
 10 
1.883
 20 
2.19
 11 
1.9
 21 
2.19
 0 
LINE
 8 
0
 62 
 7 
 10 
1.9
 20 
2.19
 11 
1.908
 21 
2.182
 0 
LINE
 8 
0
 62 
 7 
 10 
1.908
 20 
2.182
 11 
1.908
 21 
2.173
 0 
LINE
 8 
0
 62 
 7 
 10 
1.908
 20 
2.173
 11 
1.9
 21 
2.165
 0 
LINE
 8 
0
 62 
 7 
 10 
1.9
 20 
2.165
 11 
1.883
 21 
2.165
 0 
LINE
 8 
0
 62 
 7 
 10 
1.883
 20 
2.165
 11 
1.875
 21 
2.157
 0 
LINE
 8 
0
 62 
 7 
 10 
1.875
 20 
2.157
 11 
1.875
 21 
2.14
 0 
LINE
 8 
0
 62 
 7 
 10 
1.875
 20 
2.14
 11 
1.908
 21 
2.14
 0 
LINE
 8 
0
 62 
 7 
 10 
3.475
 20 
1.325
 11 
3.475
 21 
1.36
 0 
LINE
 8 
0
 62 
 7 
 10 
3.475
 20 
1.36
 11 
3.487
 21 
1.372
 0 
LINE
 8 
0
 62 
 7 
 10 
3.487
 20 
1.372
 11 
3.533
 21 
1.372
 0 
LINE
 8 
0
 62 
 7 
 10 
3.533
 20 
1.372
 11 
3.545
 21 
1.36
 0 
LINE
 8 
0
 62 
 7 
 10 
3.545
 20 
1.36
 11 
3.545
 21 
1.325
 0 
LINE
 8 
0
 62 
 7 
 10 
3.475
 20 
1.337
 11 
3.545
 21 
1.337
 0 
LINE
 8 
0
 62 
 7 
 10 
3.498
 20 
1.395
 11 
3.545
 21 
1.395
 0 
LINE
 8 
0
 62 
 7 
 10 
3.522
 20 
1.395
 11 
3.498
 21 
1.418
 0 
LINE
 8 
0
 62 
 7 
 10 
3.498
 20 
1.418
 11 
3.498
 21 
1.43
 0 
LINE
 8 
0
 62 
 7 
 10 
3.498
 20 
1.43
 11 
3.51
 21 
1.442
 0 
LINE
 8 
0
 62 
 7 
 10 
3.475
 20 
1.488
 11 
3.487
 21 
1.488
 0 
LINE
 8 
0
 62 
 7 
 10 
3.545
 20 
1.477
 11 
3.545
 21 
1.5
 0 
LINE
 8 
0
 62 
 7 
 10 
3.51
 20 
1.477
 11 
3.51
 21 
1.488
 0 
LINE
 8 
0
 62 
 7 
 10 
3.51
 20 
1.488
 11 
3.545
 21 
1.488
 0 
LINE
 8 
0
 62 
 7 
 10 
3.498
 20 
1.535
 11 
3.522
 21 
1.535
 0 
LINE
 8 
0
 62 
 7 
 10 
3.522
 20 
1.535
 11 
3.545
 21 
1.558
 0 
LINE
 8 
0
 62 
 7 
 10 
3.545
 20 
1.558
 11 
3.522
 21 
1.582
 0 
LINE
 8 
0
 62 
 7 
 10 
3.522
 20 
1.582
 11 
3.498
 21 
1.582
 0 
LINE
 8 
0
 62 
 7 
 10 
3.522
 20 
1.605
 11 
3.522
 21 
1.652
 0 
LINE
 8 
0
 62 
 7 
 10 
3.522
 20 
1.652
 11 
3.51
 21 
1.652
 0 
LINE
 8 
0
 62 
 7 
 10 
3.51
 20 
1.652
 11 
3.498
 21 
1.64
 0 
LINE
 8 
0
 62 
 7 
 10 
3.498
 20 
1.64
 11 
3.498
 21 
1.617
 0 
LINE
 8 
0
 62 
 7 
 10 
3.498
 20 
1.617
 11 
3.51
 21 
1.605
 0 
LINE
 8 
0
 62 
 7 
 10 
3.51
 20 
1.605
 11 
3.533
 21 
1.605
 0 
LINE
 8 
0
 62 
 7 
 10 
3.533
 20 
1.605
 11 
3.545
 21 
1.617
 0 
LINE
 8 
0
 62 
 7 
 10 
3.545
 20 
1.617
 11 
3.545
 21 
1.64
 0 
LINE
 8 
0
 62 
 7 
 10 
3.498
 20 
1.675
 11 
3.545
 21 
1.675
 0 
LINE
 8 
0
 62 
 7 
 10 
3.522
 20 
1.675
 11 
3.498
 21 
1.698
 0 
LINE
 8 
0
 62 
 7 
 10 
3.498
 20 
1.698
 11 
3.498
 21 
1.71
 0 
LINE
 8 
0
 62 
 7 
 10 
3.498
 20 
1.71
 11 
3.51
 21 
1.722
 0 
LINE
 8 
0
 62 
 7 
 10 
3.6
 20 
2.4
 11 
3.6
 21 
0.65
 0 
LINE
 8 
0
 62 
 7 
 10 
0.1
 20 
0.6
 11 
3.5
 21 
0.6
 0 
CIRCLE
 8 
0
 62 
 7 
 10 
0.2
 20 
2.3
 40 
0.125
 0 
CIRCLE
 8 
0
 62 
 7 
 10 
0.2
 20 
2.3
 40 
0.075
 0 
CIRCLE
 8 
0
 62 
 7 
 10 
3.4
 20 
2.3
 40 
0.125
 0 
CIRCLE
 8 
0
 62 
 7 
 10 
3.4
 20 
2.3
 40 
0.075
 0 
CIRCLE
 8 
0
 62 
 7 
 10 
0.2
 20 
0.8
 40 
0.125
 0 
CIRCLE
 8 
0
 62 
 7 
 10 
0.2
 20 
0.8
 40 
0.075
 0 
CIRCLE
 8 
0
 62 
 7 
 10 
3.4
 20 
0.775
 40 
0.125
 0 
CIRCLE
 8 
0
 62 
 7 
 10 
3.4
 20 
0.775
 40 
0.075
 0 
LINE
 8 
0
 62 
 7 
 10 
0.075
 20 
1.038
 11 
0.075
 21 
1.078
 0 
LINE
 8 
0
 62 
 7 
 10 
0.075
 20 
1.078
 11 
0.142
 21 
1.078
 0 
LINE
 8 
0
 62 
 7 
 10 
0.142
 20 
1.078
 11 
0.155
 21 
1.065
 0 
LINE
 8 
0
 62 
 7 
 10 
0.155
 20 
1.065
 11 
0.155
 21 
1.038
 0 
LINE
 8 
0
 62 
 7 
 10 
0.155
 20 
1.038
 11 
0.142
 21 
1.025
 0 
LINE
 8 
0
 62 
 7 
 10 
0.115
 20 
1.158
 11 
0.102
 21 
1.145
 0 
LINE
 8 
0
 62 
 7 
 10 
0.102
 20 
1.145
 11 
0.102
 21 
1.118
 0 
LINE
 8 
0
 62 
 7 
 10 
0.102
 20 
1.118
 11 
0.115
 21 
1.105
 0 
LINE
 8 
0
 62 
 7 
 10 
0.115
 20 
1.105
 11 
0.142
 21 
1.105
 0 
LINE
 8 
0
 62 
 7 
 10 
0.142
 20 
1.105
 11 
0.155
 21 
1.118
 0 
LINE
 8 
0
 62 
 7 
 10 
0.155
 20 
1.118
 11 
0.155
 21 
1.145
 0 
LINE
 8 
0
 62 
 7 
 10 
0.155
 20 
1.145
 11 
0.142
 21 
1.158
 0 
LINE
 8 
0
 62 
 7 
 10 
0.142
 20 
1.158
 11 
0.115
 21 
1.158
 0 
LINE
 8 
0
 62 
 7 
 10 
0.075
 20 
1.198
 11 
0.075
 21 
1.212
 0 
LINE
 8 
0
 62 
 7 
 10 
0.075
 20 
1.212
 11 
0.155
 21 
1.212
 0 
LINE
 8 
0
 62 
 7 
 10 
0.155
 20 
1.198
 11 
0.155
 21 
1.225
 0 
LINE
 8 
0
 62 
 7 
 10 
0.075
 20 
1.292
 11 
0.088
 21 
1.292
 0 
LINE
 8 
0
 62 
 7 
 10 
0.155
 20 
1.278
 11 
0.155
 21 
1.305
 0 
LINE
 8 
0
 62 
 7 
 10 
0.115
 20 
1.278
 11 
0.115
 21 
1.292
 0 
LINE
 8 
0
 62 
 7 
 10 
0.115
 20 
1.292
 11 
0.155
 21 
1.292
 0 
LINE
 8 
0
 62 
 7 
 10 
0.128
 20 
1.345
 11 
0.128
 21 
1.398
 0 
LINE
 8 
0
 62 
 7 
 10 
0.128
 20 
1.398
 11 
0.115
 21 
1.398
 0 
LINE
 8 
0
 62 
 7 
 10 
0.115
 20 
1.398
 11 
0.102
 21 
1.385
 0 
LINE
 8 
0
 62 
 7 
 10 
0.102
 20 
1.385
 11 
0.102
 21 
1.358
 0 
LINE
 8 
0
 62 
 7 
 10 
0.102
 20 
1.358
 11 
0.115
 21 
1.345
 0 
LINE
 8 
0
 62 
 7 
 10 
0.115
 20 
1.345
 11 
0.142
 21 
1.345
 0 
LINE
 8 
0
 62 
 7 
 10 
0.142
 20 
1.345
 11 
0.155
 21 
1.358
 0 
LINE
 8 
0
 62 
 7 
 10 
0.155
 20 
1.358
 11 
0.155
 21 
1.385
 0 
LINE
 8 
0
 62 
 7 
 10 
0.075
 20 
1.438
 11 
0.142
 21 
1.438
 0 
LINE
 8 
0
 62 
 7 
 10 
0.142
 20 
1.438
 11 
0.155
 21 
1.452
 0 
LINE
 8 
0
 62 
 7 
 10 
0.155
 20 
1.452
 11 
0.155
 21 
1.465
 0 
LINE
 8 
0
 62 
 7 
 10 
0.155
 20 
1.465
 11 
0.142
 21 
1.478
 0 
LINE
 8 
0
 62 
 7 
 10 
0.102
 20 
1.425
 11 
0.102
 21 
1.465
 0 
LINE
 8 
0
 62 
 7 
 10 
0.088
 20 
1.638
 11 
0.075
 21 
1.625
 0 
LINE
 8 
0
 62 
 7 
 10 
0.075
 20 
1.625
 11 
0.075
 21 
1.598
 0 
LINE
 8 
0
 62 
 7 
 10 
0.075
 20 
1.598
 11 
0.088
 21 
1.585
 0 
LINE
 8 
0
 62 
 7 
 10 
0.088
 20 
1.585
 11 
0.142
 21 
1.585
 0 
LINE
 8 
0
 62 
 7 
 10 
0.142
 20 
1.585
 11 
0.155
 21 
1.598
 0 
LINE
 8 
0
 62 
 7 
 10 
0.155
 20 
1.598
 11 
0.155
 21 
1.625
 0 
LINE
 8 
0
 62 
 7 
 10 
0.155
 20 
1.625
 11 
0.142
 21 
1.638
 0 
LINE
 8 
0
 62 
 7 
 10 
0.102
 20 
1.665
 11 
0.142
 21 
1.665
 0 
LINE
 8 
0
 62 
 7 
 10 
0.142
 20 
1.665
 11 
0.155
 21 
1.678
 0 
LINE
 8 
0
 62 
 7 
 10 
0.155
 20 
1.678
 11 
0.155
 21 
1.692
 0 
LINE
 8 
0
 62 
 7 
 10 
0.155
 20 
1.692
 11 
0.128
 21 
1.718
 0 
LINE
 8 
0
 62 
 7 
 10 
0.102
 20 
1.718
 11 
0.168
 21 
1.718
 0 
LINE
 8 
0
 62 
 7 
 10 
0.168
 20 
1.718
 11 
0.182
 21 
1.705
 0 
LINE
 8 
0
 62 
 7 
 10 
0.182
 20 
1.705
 11 
0.182
 21 
1.665
 0 
LINE
 8 
0
 62 
 7 
 10 
0.075
 20 
1.745
 11 
0.155
 21 
1.745
 0 
LINE
 8 
0
 62 
 7 
 10 
0.128
 20 
1.745
 11 
0.102
 21 
1.772
 0 
LINE
 8 
0
 62 
 7 
 10 
0.102
 20 
1.772
 11 
0.102
 21 
1.785
 0 
LINE
 8 
0
 62 
 7 
 10 
0.102
 20 
1.785
 11 
0.115
 21 
1.798
 0 
LINE
 8 
0
 62 
 7 
 10 
0.115
 20 
1.798
 11 
0.142
 21 
1.798
 0 
LINE
 8 
0
 62 
 7 
 10 
0.142
 20 
1.798
 11 
0.155
 21 
1.785
 0 
LINE
 8 
0
 62 
 7 
 10 
0.155
 20 
1.785
 11 
0.155
 21 
1.758
 0 
LINE
 8 
0
 62 
 7 
 10 
0.155
 20 
1.758
 11 
0.142
 21 
1.745
 0 
LINE
 8 
0
 62 
 7 
 10 
0.115
 20 
1.878
 11 
0.102
 21 
1.865
 0 
LINE
 8 
0
 62 
 7 
 10 
0.102
 20 
1.865
 11 
0.102
 21 
1.838
 0 
LINE
 8 
0
 62 
 7 
 10 
0.102
 20 
1.838
 11 
0.115
 21 
1.825
 0 
LINE
 8 
0
 62 
 7 
 10 
0.115
 20 
1.825
 11 
0.142
 21 
1.825
 0 
LINE
 8 
0
 62 
 7 
 10 
0.142
 20 
1.825
 11 
0.155
 21 
1.838
 0 
LINE
 8 
0
 62 
 7 
 10 
0.155
 20 
1.838
 11 
0.155
 21 
1.865
 0 
LINE
 8 
0
 62 
 7 
 10 
0.155
 20 
1.865
 11 
0.142
 21 
1.878
 0 
LINE
 8 
0
 62 
 7 
 10 
0.142
 20 
1.878
 11 
0.115
 21 
1.878
 0 
LINE
 8 
0
 62 
 7 
 10 
0.102
 20 
1.905
 11 
0.155
 21 
1.905
 0 
LINE
 8 
0
 62 
 7 
 10 
0.128
 20 
1.905
 11 
0.102
 21 
1.932
 0 
LINE
 8 
0
 62 
 7 
 10 
0.102
 20 
1.932
 11 
0.102
 21 
1.945
 0 
LINE
 8 
0
 62 
 7 
 10 
0.102
 20 
1.945
 11 
0.115
 21 
1.958
 0 
LINE
 8 
0
 62 
 7 
 10 
0.115
 20 
2.038
 11 
0.102
 21 
2.025
 0 
LINE
 8 
0
 62 
 7 
 10 
0.102
 20 
2.025
 11 
0.102
 21 
1.998
 0 
LINE
 8 
0
 62 
 7 
 10 
0.102
 20 
1.998
 11 
0.115
 21 
1.985
 0 
LINE
 8 
0
 62 
 7 
 10 
0.115
 20 
1.985
 11 
0.142
 21 
1.985
 0 
LINE
 8 
0
 62 
 7 
 10 
0.142
 20 
1.985
 11 
0.155
 21 
1.998
 0 
LINE
 8 
0
 62 
 7 
 10 
0.155
 20 
1.998
 11 
0.155
 21 
2.012
 0 
LINE
 8 
0
 62 
 7 
 10 
0.155
 20 
2.012
 11 
0.128
 21 
2.038
 0 
LINE
 8 
0
 62 
 7 
 10 
0.102
 20 
2.038
 11 
0.168
 21 
2.038
 0 
LINE
 8 
0
 62 
 7 
 10 
0.168
 20 
2.038
 11 
0.182
 21 
2.025
 0 
LINE
 8 
0
 62 
 7 
 10 
0.182
 20 
2.025
 11 
0.182
 21 
1.985
 0 
LINE
 8 
0
 62 
 7 
 10 
0.102
 20 
2.118
 11 
0.102
 21 
2.078
 0 
LINE
 8 
0
 62 
 7 
 10 
0.102
 20 
2.078
 11 
0.115
 21 
2.065
 0 
LINE
 8 
0
 62 
 7 
 10 
0.115
 20 
2.065
 11 
0.128
 21 
2.078
 0 
LINE
 8 
0
 62 
 7 
 10 
0.128
 20 
2.078
 11 
0.128
 21 
2.105
 0 
LINE
 8 
0
 62 
 7 
 10 
0.128
 20 
2.105
 11 
0.142
 21 
2.118
 0 
LINE
 8 
0
 62 
 7 
 10 
0.142
 20 
2.118
 11 
0.155
 21 
2.105
 0 
LINE
 8 
0
 62 
 7 
 10 
0.155
 20 
2.105
 11 
0.155
 21 
2.065
 0 
LINE
 8 
0
 62 
 7 
 10 
0.25
 20 
1.317
 11 
0.35
 21 
1.317
 0 
LINE
 8 
0
 62 
 7 
 10 
0.25
 20 
1.35
 11 
0.35
 21 
1.35
 0 
LINE
 8 
0
 62 
 7 
 10 
0.283
 20 
1.3
 11 
0.283
 21 
1.367
 0 
LINE
 8 
0
 62 
 7 
 10 
0.317
 20 
1.3
 11 
0.317
 21 
1.367
 0 
LINE
 8 
0
 62 
 7 
 10 
0.317
 20 
1.467
 11 
0.317
 21 
1.4
 0 
LINE
 8 
0
 62 
 7 
 10 
0.317
 20 
1.4
 11 
0.3
 21 
1.4
 0 
LINE
 8 
0
 62 
 7 
 10 
0.3
 20 
1.4
 11 
0.25
 21 
1.45
 0 
LINE
 8 
0
 62 
 7 
 10 
0.25
 20 
1.45
 11 
0.35
 21 
1.45
 0 
LINE
 8 
0
 62 
 7 
 10 
0.267
 20 
1.5
 11 
0.25
 21 
1.517
 0 
LINE
 8 
0
 62 
 7 
 10 
0.25
 20 
1.517
 11 
0.25
 21 
1.55
 0 
LINE
 8 
0
 62 
 7 
 10 
0.25
 20 
1.55
 11 
0.267
 21 
1.567
 0 
LINE
 8 
0
 62 
 7 
 10 
0.267
 20 
1.567
 11 
0.283
 21 
1.567
 0 
LINE
 8 
0
 62 
 7 
 10 
0.283
 20 
1.567
 11 
0.3
 21 
1.55
 0 
LINE
 8 
0
 62 
 7 
 10 
0.3
 20 
1.55
 11 
0.3
 21 
1.517
 0 
LINE
 8 
0
 62 
 7 
 10 
0.3
 20 
1.517
 11 
0.317
 21 
1.5
 0 
LINE
 8 
0
 62 
 7 
 10 
0.317
 20 
1.5
 11 
0.35
 21 
1.5
 0 
LINE
 8 
0
 62 
 7 
 10 
0.35
 20 
1.5
 11 
0.35
 21 
1.567
 0 
LINE
 8 
0
 62 
 7 
 10 
0.317
 20 
1.667
 11 
0.317
 21 
1.6
 0 
LINE
 8 
0
 62 
 7 
 10 
0.317
 20 
1.6
 11 
0.3
 21 
1.6
 0 
LINE
 8 
0
 62 
 7 
 10 
0.3
 20 
1.6
 11 
0.25
 21 
1.65
 0 
LINE
 8 
0
 62 
 7 
 10 
0.25
 20 
1.65
 11 
0.35
 21 
1.65
 0 
LINE
 8 
0
 62 
 7 
 10 
0.267
 20 
1.717
 11 
0.25
 21 
1.733
 0 
LINE
 8 
0
 62 
 7 
 10 
0.25
 20 
1.733
 11 
0.35
 21 
1.733
 0 
LINE
 8 
0
 62 
 7 
 10 
0.35
 20 
1.717
 11 
0.35
 21 
1.75
 0 
LINE
 8 
0
 62 
 7 
 10 
3.312
 20 
1.097
 11 
3.3
 21 
1.085
 0 
LINE
 8 
0
 62 
 7 
 10 
3.3
 20 
1.085
 11 
3.3
 21 
1.062
 0 
LINE
 8 
0
 62 
 7 
 10 
3.3
 20 
1.062
 11 
3.312
 21 
1.05
 0 
LINE
 8 
0
 62 
 7 
 10 
3.312
 20 
1.05
 11 
3.323
 21 
1.05
 0 
LINE
 8 
0
 62 
 7 
 10 
3.323
 20 
1.05
 11 
3.335
 21 
1.062
 0 
LINE
 8 
0
 62 
 7 
 10 
3.335
 20 
1.062
 11 
3.335
 21 
1.085
 0 
LINE
 8 
0
 62 
 7 
 10 
3.335
 20 
1.085
 11 
3.347
 21 
1.097
 0 
LINE
 8 
0
 62 
 7 
 10 
3.347
 20 
1.097
 11 
3.358
 21 
1.097
 0 
LINE
 8 
0
 62 
 7 
 10 
3.358
 20 
1.097
 11 
3.37
 21 
1.085
 0 
LINE
 8 
0
 62 
 7 
 10 
3.37
 20 
1.085
 11 
3.37
 21 
1.062
 0 
LINE
 8 
0
 62 
 7 
 10 
3.37
 20 
1.062
 11 
3.358
 21 
1.05
 0 
LINE
 8 
0
 62 
 7 
 10 
3.3
 20 
1.132
 11 
3.358
 21 
1.132
 0 
LINE
 8 
0
 62 
 7 
 10 
3.358
 20 
1.132
 11 
3.37
 21 
1.143
 0 
LINE
 8 
0
 62 
 7 
 10 
3.37
 20 
1.143
 11 
3.37
 21 
1.155
 0 
LINE
 8 
0
 62 
 7 
 10 
3.37
 20 
1.155
 11 
3.358
 21 
1.167
 0 
LINE
 8 
0
 62 
 7 
 10 
3.323
 20 
1.12
 11 
3.323
 21 
1.155
 0 
LINE
 8 
0
 62 
 7 
 10 
3.323
 20 
1.202
 11 
3.323
 21 
1.225
 0 
LINE
 8 
0
 62 
 7 
 10 
3.323
 20 
1.225
 11 
3.335
 21 
1.237
 0 
LINE
 8 
0
 62 
 7 
 10 
3.335
 20 
1.237
 11 
3.37
 21 
1.237
 0 
LINE
 8 
0
 62 
 7 
 10 
3.347
 20 
1.237
 11 
3.347
 21 
1.202
 0 
LINE
 8 
0
 62 
 7 
 10 
3.347
 20 
1.202
 11 
3.358
 21 
1.19
 0 
LINE
 8 
0
 62 
 7 
 10 
3.358
 20 
1.19
 11 
3.37
 21 
1.202
 0 
LINE
 8 
0
 62 
 7 
 10 
3.37
 20 
1.202
 11 
3.37
 21 
1.225
 0 
LINE
 8 
0
 62 
 7 
 10 
3.37
 20 
1.225
 11 
3.358
 21 
1.237
 0 
LINE
 8 
0
 62 
 7 
 10 
3.3
 20 
1.272
 11 
3.358
 21 
1.272
 0 
LINE
 8 
0
 62 
 7 
 10 
3.358
 20 
1.272
 11 
3.37
 21 
1.283
 0 
LINE
 8 
0
 62 
 7 
 10 
3.37
 20 
1.283
 11 
3.37
 21 
1.295
 0 
LINE
 8 
0
 62 
 7 
 10 
3.37
 20 
1.295
 11 
3.358
 21 
1.307
 0 
LINE
 8 
0
 62 
 7 
 10 
3.323
 20 
1.26
 11 
3.323
 21 
1.295
 0 
LINE
 8 
0
 62 
 7 
 10 
3.323
 20 
1.33
 11 
3.358
 21 
1.33
 0 
LINE
 8 
0
 62 
 7 
 10 
3.358
 20 
1.33
 11 
3.37
 21 
1.342
 0 
LINE
 8 
0
 62 
 7 
 10 
3.37
 20 
1.342
 11 
3.37
 21 
1.353
 0 
LINE
 8 
0
 62 
 7 
 10 
3.37
 20 
1.353
 11 
3.347
 21 
1.377
 0 
LINE
 8 
0
 62 
 7 
 10 
3.323
 20 
1.377
 11 
3.37
 21 
1.377
 0 
LINE
 8 
0
 62 
 7 
 10 
3.323
 20 
1.447
 11 
3.323
 21 
1.412
 0 
LINE
 8 
0
 62 
 7 
 10 
3.323
 20 
1.412
 11 
3.335
 21 
1.4
 0 
LINE
 8 
0
 62 
 7 
 10 
3.335
 20 
1.4
 11 
3.347
 21 
1.412
 0 
LINE
 8 
0
 62 
 7 
 10 
3.347
 20 
1.412
 11 
3.347
 21 
1.435
 0 
LINE
 8 
0
 62 
 7 
 10 
3.347
 20 
1.435
 11 
3.358
 21 
1.447
 0 
LINE
 8 
0
 62 
 7 
 10 
3.358
 20 
1.447
 11 
3.37
 21 
1.435
 0 
LINE
 8 
0
 62 
 7 
 10 
3.37
 20 
1.435
 11 
3.37
 21 
1.4
 0 
LINE
 8 
0
 62 
 7 
 10 
3.3
 20 
1.54
 11 
3.3
 21 
1.575
 0 
LINE
 8 
0
 62 
 7 
 10 
3.3
 20 
1.575
 11 
3.312
 21 
1.587
 0 
LINE
 8 
0
 62 
 7 
 10 
3.312
 20 
1.587
 11 
3.358
 21 
1.587
 0 
LINE
 8 
0
 62 
 7 
 10 
3.358
 20 
1.587
 11 
3.37
 21 
1.575
 0 
LINE
 8 
0
 62 
 7 
 10 
3.37
 20 
1.575
 11 
3.37
 21 
1.54
 0 
LINE
 8 
0
 62 
 7 
 10 
3.3
 20 
1.552
 11 
3.37
 21 
1.552
 0 
LINE
 8 
0
 62 
 7 
 10 
3.3
 20 
1.633
 11 
3.312
 21 
1.633
 0 
LINE
 8 
0
 62 
 7 
 10 
3.37
 20 
1.622
 11 
3.37
 21 
1.645
 0 
LINE
 8 
0
 62 
 7 
 10 
3.335
 20 
1.622
 11 
3.335
 21 
1.633
 0 
LINE
 8 
0
 62 
 7 
 10 
3.335
 20 
1.633
 11 
3.37
 21 
1.633
 0 
LINE
 8 
0
 62 
 7 
 10 
3.323
 20 
1.727
 11 
3.323
 21 
1.692
 0 
LINE
 8 
0
 62 
 7 
 10 
3.323
 20 
1.692
 11 
3.335
 21 
1.68
 0 
LINE
 8 
0
 62 
 7 
 10 
3.335
 20 
1.68
 11 
3.347
 21 
1.692
 0 
LINE
 8 
0
 62 
 7 
 10 
3.347
 20 
1.692
 11 
3.347
 21 
1.715
 0 
LINE
 8 
0
 62 
 7 
 10 
3.347
 20 
1.715
 11 
3.358
 21 
1.727
 0 
LINE
 8 
0
 62 
 7 
 10 
3.358
 20 
1.727
 11 
3.37
 21 
1.715
 0 
LINE
 8 
0
 62 
 7 
 10 
3.37
 20 
1.715
 11 
3.37
 21 
1.68
 0 
LINE
 8 
0
 62 
 7 
 10 
3.323
 20 
1.75
 11 
3.393
 21 
1.75
 0 
LINE
 8 
0
 62 
 7 
 10 
3.335
 20 
1.75
 11 
3.323
 21 
1.762
 0 
LINE
 8 
0
 62 
 7 
 10 
3.323
 20 
1.762
 11 
3.323
 21 
1.785
 0 
LINE
 8 
0
 62 
 7 
 10 
3.323
 20 
1.785
 11 
3.335
 21 
1.797
 0 
LINE
 8 
0
 62 
 7 
 10 
3.335
 20 
1.797
 11 
3.358
 21 
1.797
 0 
LINE
 8 
0
 62 
 7 
 10 
3.358
 20 
1.797
 11 
3.37
 21 
1.785
 0 
LINE
 8 
0
 62 
 7 
 10 
3.37
 20 
1.785
 11 
3.37
 21 
1.773
 0 
LINE
 8 
0
 62 
 7 
 10 
3.37
 20 
1.773
 11 
3.347
 21 
1.75
 0 
LINE
 8 
0
 62 
 7 
 10 
3.3
 20 
1.832
 11 
3.3
 21 
1.843
 0 
LINE
 8 
0
 62 
 7 
 10 
3.3
 20 
1.843
 11 
3.37
 21 
1.843
 0 
LINE
 8 
0
 62 
 7 
 10 
3.37
 20 
1.832
 11 
3.37
 21 
1.855
 0 
LINE
 8 
0
 62 
 7 
 10 
3.323
 20 
1.902
 11 
3.323
 21 
1.925
 0 
LINE
 8 
0
 62 
 7 
 10 
3.323
 20 
1.925
 11 
3.335
 21 
1.937
 0 
LINE
 8 
0
 62 
 7 
 10 
3.335
 20 
1.937
 11 
3.37
 21 
1.937
 0 
LINE
 8 
0
 62 
 7 
 10 
3.347
 20 
1.937
 11 
3.347
 21 
1.902
 0 
LINE
 8 
0
 62 
 7 
 10 
3.347
 20 
1.902
 11 
3.358
 21 
1.89
 0 
LINE
 8 
0
 62 
 7 
 10 
3.358
 20 
1.89
 11 
3.37
 21 
1.902
 0 
LINE
 8 
0
 62 
 7 
 10 
3.37
 20 
1.902
 11 
3.37
 21 
1.925
 0 
LINE
 8 
0
 62 
 7 
 10 
3.37
 20 
1.925
 11 
3.358
 21 
1.937
 0 
LINE
 8 
0
 62 
 7 
 10 
3.323
 20 
1.96
 11 
3.358
 21 
1.96
 0 
LINE
 8 
0
 62 
 7 
 10 
3.358
 20 
1.96
 11 
3.37
 21 
1.972
 0 
LINE
 8 
0
 62 
 7 
 10 
3.37
 20 
1.972
 11 
3.37
 21 
1.983
 0 
LINE
 8 
0
 62 
 7 
 10 
3.37
 20 
1.983
 11 
3.347
 21 
2.007
 0 
LINE
 8 
0
 62 
 7 
 10 
3.323
 20 
2.007
 11 
3.382
 21 
2.007
 0 
LINE
 8 
0
 62 
 7 
 10 
3.382
 20 
2.007
 11 
3.393
 21 
1.995
 0 
LINE
 8 
0
 62 
 7 
 10 
3.393
 20 
1.995
 11 
3.393
 21 
1.96
 0 
CIRCLE
 8 
0
 62 
 7 
 10 
0.775
 20 
0.925
 40 
0.038
 0 
CIRCLE
 8 
0
 62 
 7 
 10 
0.775
 20 
0.925
 40 
0.02
 0 
CIRCLE
 8 
0
 62 
 7 
 10 
0.875
 20 
0.925
 40 
0.038
 0 
CIRCLE
 8 
0
 62 
 7 
 10 
0.875
 20 
0.925
 40 
0.02
 0 
CIRCLE
 8 
0
 62 
 7 
 10 
0.875
 20 
0.825
 40 
0.038
 0 
CIRCLE
 8 
0
 62 
 7 
 10 
0.875
 20 
0.825
 40 
0.02
 0 
CIRCLE
 8 
0
 62 
 7 
 10 
0.775
 20 
0.825
 40 
0.038
 0 
CIRCLE
 8 
0
 62 
 7 
 10 
0.775
 20 
0.825
 40 
0.02
 0 
CIRCLE
 8 
0
 62 
 7 
 10 
0.675
 20 
0.825
 40 
0.038
 0 
CIRCLE
 8 
0
 62 
 7 
 10 
0.675
 20 
0.825
 40 
0.02
 0 
LINE
 8 
0
 62 
 7 
 10 
0.856
 20 
1.025
 11 
0.85
 21 
1.019
 0 
LINE
 8 
0
 62 
 7 
 10 
0.85
 20 
1.019
 11 
0.85
 21 
1.006
 0 
LINE
 8 
0
 62 
 7 
 10 
0.85
 20 
1.006
 11 
0.856
 21 
1.0
 0 
LINE
 8 
0
 62 
 7 
 10 
0.856
 20 
1.0
 11 
0.882
 21 
1.0
 0 
LINE
 8 
0
 62 
 7 
 10 
0.882
 20 
1.0
 11 
0.888
 21 
1.006
 0 
LINE
 8 
0
 62 
 7 
 10 
0.888
 20 
1.006
 11 
0.888
 21 
1.025
 0 
LINE
 8 
0
 62 
 7 
 10 
0.888
 20 
1.025
 11 
0.875
 21 
1.025
 0 
LINE
 8 
0
 62 
 7 
 10 
0.875
 20 
1.025
 11 
0.875
 21 
1.019
 0 
LINE
 8 
0
 62 
 7 
 10 
0.888
 20 
1.038
 11 
0.85
 21 
1.038
 0 
LINE
 8 
0
 62 
 7 
 10 
0.85
 20 
1.038
 11 
0.875
 21 
1.063
 0 
LINE
 8 
0
 62 
 7 
 10 
0.85
 20 
1.063
 11 
0.888
 21 
1.063
 0 
LINE
 8 
0
 62 
 7 
 10 
0.85
 20 
1.076
 11 
0.85
 21 
1.095
 0 
LINE
 8 
0
 62 
 7 
 10 
0.85
 20 
1.095
 11 
0.856
 21 
1.101
 0 
LINE
 8 
0
 62 
 7 
 10 
0.856
 20 
1.101
 11 
0.882
 21 
1.101
 0 
LINE
 8 
0
 62 
 7 
 10 
0.882
 20 
1.101
 11 
0.888
 21 
1.095
 0 
LINE
 8 
0
 62 
 7 
 10 
0.888
 20 
1.095
 11 
0.888
 21 
1.076
 0 
LINE
 8 
0
 62 
 7 
 10 
0.85
 20 
1.082
 11 
0.888
 21 
1.082
 0 
LINE
 8 
0
 62 
 7 
 10 
0.788
 20 
1.0
 11 
0.75
 21 
1.0
 0 
LINE
 8 
0
 62 
 7 
 10 
0.75
 20 
1.0
 11 
0.763
 21 
1.013
 0 
LINE
 8 
0
 62 
 7 
 10 
0.763
 20 
1.013
 11 
0.769
 21 
1.013
 0 
LINE
 8 
0
 62 
 7 
 10 
0.763
 20 
1.013
 11 
0.75
 21 
1.025
 0 
LINE
 8 
0
 62 
 7 
 10 
0.75
 20 
1.025
 11 
0.788
 21 
1.025
 0 
LINE
 8 
0
 62 
 7 
 10 
0.756
 20 
1.063
 11 
0.75
 21 
1.057
 0 
LINE
 8 
0
 62 
 7 
 10 
0.75
 20 
1.057
 11 
0.75
 21 
1.044
 0 
LINE
 8 
0
 62 
 7 
 10 
0.75
 20 
1.044
 11 
0.756
 21 
1.038
 0 
LINE
 8 
0
 62 
 7 
 10 
0.756
 20 
1.038
 11 
0.782
 21 
1.038
 0 
LINE
 8 
0
 62 
 7 
 10 
0.782
 20 
1.038
 11 
0.788
 21 
1.044
 0 
LINE
 8 
0
 62 
 7 
 10 
0.788
 20 
1.044
 11 
0.788
 21 
1.057
 0 
LINE
 8 
0
 62 
 7 
 10 
0.788
 20 
1.057
 11 
0.782
 21 
1.063
 0 
LINE
 8 
0
 62 
 7 
 10 
0.782
 20 
1.063
 11 
0.756
 21 
1.063
 0 
LINE
 8 
0
 62 
 7 
 10 
0.671
 20 
1.011
 11 
0.671
 21 
0.986
 0 
LINE
 8 
0
 62 
 7 
 10 
0.671
 20 
0.986
 11 
0.684
 21 
0.986
 0 
LINE
 8 
0
 62 
 7 
 10 
0.684
 20 
0.986
 11 
0.684
 21 
1.005
 0 
LINE
 8 
0
 62 
 7 
 10 
0.684
 20 
1.005
 11 
0.69
 21 
1.011
 0 
LINE
 8 
0
 62 
 7 
 10 
0.69
 20 
1.011
 11 
0.703
 21 
1.011
 0 
LINE
 8 
0
 62 
 7 
 10 
0.703
 20 
1.011
 11 
0.709
 21 
1.005
 0 
LINE
 8 
0
 62 
 7 
 10 
0.709
 20 
1.005
 11 
0.709
 21 
0.992
 0 
LINE
 8 
0
 62 
 7 
 10 
0.709
 20 
0.992
 11 
0.703
 21 
0.986
 0 
LINE
 8 
0
 62 
 7 
 10 
0.671
 20 
1.024
 11 
0.69
 21 
1.024
 0 
LINE
 8 
0
 62 
 7 
 10 
0.69
 20 
1.024
 11 
0.703
 21 
1.037
 0 
LINE
 8 
0
 62 
 7 
 10 
0.703
 20 
1.037
 11 
0.69
 21 
1.049
 0 
LINE
 8 
0
 62 
 7 
 10 
0.69
 20 
1.049
 11 
0.671
 21 
1.049
 0 
LINE
 8 
0
 62 
 7 
 10 
0.703
 20 
1.037
 11 
0.709
 21 
1.037
 0 
LINE
 8 
0
 62 
 7 
 10 
0.963
 20 
0.775
 11 
0.925
 21 
0.775
 0 
LINE
 8 
0
 62 
 7 
 10 
0.925
 20 
0.775
 11 
0.925
 21 
0.794
 0 
LINE
 8 
0
 62 
 7 
 10 
0.925
 20 
0.794
 11 
0.931
 21 
0.8
 0 
LINE
 8 
0
 62 
 7 
 10 
0.931
 20 
0.8
 11 
0.938
 21 
0.8
 0 
LINE
 8 
0
 62 
 7 
 10 
0.938
 20 
0.8
 11 
0.944
 21 
0.794
 0 
LINE
 8 
0
 62 
 7 
 10 
0.944
 20 
0.794
 11 
0.944
 21 
0.775
 0 
LINE
 8 
0
 62 
 7 
 10 
0.944
 20 
0.781
 11 
0.963
 21 
0.8
 0 
LINE
 8 
0
 62 
 7 
 10 
0.931
 20 
0.838
 11 
0.925
 21 
0.832
 0 
LINE
 8 
0
 62 
 7 
 10 
0.925
 20 
0.832
 11 
0.925
 21 
0.819
 0 
LINE
 8 
0
 62 
 7 
 10 
0.925
 20 
0.819
 11 
0.931
 21 
0.813
 0 
LINE
 8 
0
 62 
 7 
 10 
0.931
 20 
0.813
 11 
0.938
 21 
0.813
 0 
LINE
 8 
0
 62 
 7 
 10 
0.938
 20 
0.813
 11 
0.944
 21 
0.819
 0 
LINE
 8 
0
 62 
 7 
 10 
0.944
 20 
0.819
 11 
0.944
 21 
0.832
 0 
LINE
 8 
0
 62 
 7 
 10 
0.944
 20 
0.832
 11 
0.95
 21 
0.838
 0 
LINE
 8 
0
 62 
 7 
 10 
0.95
 20 
0.838
 11 
0.957
 21 
0.838
 0 
LINE
 8 
0
 62 
 7 
 10 
0.957
 20 
0.838
 11 
0.963
 21 
0.832
 0 
LINE
 8 
0
 62 
 7 
 10 
0.963
 20 
0.832
 11 
0.963
 21 
0.819
 0 
LINE
 8 
0
 62 
 7 
 10 
0.963
 20 
0.819
 11 
0.957
 21 
0.813
 0 
LINE
 8 
0
 62 
 7 
 10 
0.925
 20 
0.851
 11 
0.925
 21 
0.876
 0 
LINE
 8 
0
 62 
 7 
 10 
0.925
 20 
0.864
 11 
0.963
 21 
0.864
 0 
LINE
 8 
0
 62 
 7 
 10 
0.613
 20 
0.8
 11 
0.575
 21 
0.8
 0 
LINE
 8 
0
 62 
 7 
 10 
0.575
 20 
0.8
 11 
0.588
 21 
0.813
 0 
LINE
 8 
0
 62 
 7 
 10 
0.588
 20 
0.813
 11 
0.594
 21 
0.813
 0 
LINE
 8 
0
 62 
 7 
 10 
0.588
 20 
0.813
 11 
0.575
 21 
0.825
 0 
LINE
 8 
0
 62 
 7 
 10 
0.575
 20 
0.825
 11 
0.613
 21 
0.825
 0 
LINE
 8 
0
 62 
 7 
 10 
0.575
 20 
0.844
 11 
0.575
 21 
0.857
 0 
LINE
 8 
0
 62 
 7 
 10 
0.613
 20 
0.844
 11 
0.613
 21 
0.857
 0 
LINE
 8 
0
 62 
 7 
 10 
0.575
 20 
0.851
 11 
0.613
 21 
0.851
 0 
CIRCLE
 8 
0
 62 
 7 
 10 
0.475
 20 
2.425
 40 
0.042
 0 
CIRCLE
 8 
0
 62 
 7 
 10 
0.475
 20 
2.425
 40 
0.034
 0 
CIRCLE
 8 
0
 62 
 7 
 10 
1.075
 20 
2.425
 40 
0.042
 0 
CIRCLE
 8 
0
 62 
 7 
 10 
1.075
 20 
2.425
 40 
0.034
 0 
CIRCLE
 8 
0
 62 
 7 
 10 
1.075
 20 
0.825
 40 
0.042
 0 
CIRCLE
 8 
0
 62 
 7 
 10 
1.075
 20 
0.825
 40 
0.034
 0 
CIRCLE
 8 
0
 62 
 7 
 10 
0.475
 20 
0.825
 40 
0.042
 0 
CIRCLE
 8 
0
 62 
 7 
 10 
0.475
 20 
0.825
 40 
0.034
 0 
LINE
 8 
0
 62 
 7 
 10 
0.8
 20 
1.6
 11 
0.767
 21 
1.6
 0 
LINE
 8 
0
 62 
 7 
 10 
0.767
 20 
1.6
 11 
0.75
 21 
1.617
 0 
LINE
 8 
0
 62 
 7 
 10 
0.75
 20 
1.617
 11 
0.767
 21 
1.633
 0 
LINE
 8 
0
 62 
 7 
 10 
0.767
 20 
1.633
 11 
0.8
 21 
1.633
 0 
LINE
 8 
0
 62 
 7 
 10 
0.783
 20 
1.6
 11 
0.783
 21 
1.633
 0 
LINE
 8 
0
 62 
 7 
 10 
0.758
 20 
1.658
 11 
0.75
 21 
1.667
 0 
LINE
 8 
0
 62 
 7 
 10 
0.75
 20 
1.667
 11 
0.8
 21 
1.667
 0 
LINE
 8 
0
 62 
 7 
 10 
0.8
 20 
1.658
 11 
0.8
 21 
1.675
 0 
ENDSEC
 0 
EOF
