 0 
SECTION
 2 
HEADER
 9 
$ACADVER
 1 
AC1004
 9 
$EXTMIN
 10 
0.0
 20 
0.0
 9 
$EXTMAX
 10 
7.0
 20 
3.0
 9 
$LIMMIN
 10 
0.0
 20 
0.0
 9 
$LIMMAX
 10 
7.0
 20 
3.0
 9 
$INSBASE
 10 
0.0
 20 
0.0
 9 
$VIEWCTR
 10 
3.5
 20 
1.5
 9 
$VIEWSIZE
 40 
3.0
 9 
$ORTHOMODE
 70 
 0 
 9 
$REGENMODE
 70 
 1 
 9 
$FILLMODE
 70 
 1 
 9 
$QTEXTMODE
 70 
 0 
 9 
$DRAGMODE
 70 
 2 
 9 
$LTSCALE
 40 
1.0
 9 
$OSMODE
 70 
 0 
 9 
$ATTMODE
 70 
 1 
 9 
$TEXTSIZE
 40 
0.2
 9 
$TRACEWID
 40 
0.05
 9 
$TEXTSTYLE
 7 
STANDARD
 9 
$CLAYER
 8 
0
 9 
$CELTYPE
 6 
BYLAYER
 9 
$CECOLOR
 62 
 256 
 9 
$DIMSCALE
 40 
1.0
 9 
$DIMLFAC
 40 
1.0
 9 
$LUNITS
 70 
 2 
 9 
$LUPREC
 70 
 4 
 9 
$AXISMODE
 70 
 0 
 9 
$AXISUNIT
 10 
0.0
 20 
0.0
 9 
$SKETCHINC
 40 
0.1
 9 
$MENU
 1 
acad
 9 
$ELEVATION
 40 
0.0
 9 
$THICKNESS
 40 
0.0
 9 
$VIEWDIR
 10 
0.0
 20 
0.0
 30 
1.0
 9 
$LIMCHECK
 70 
 0 
 9 
$BLIPMODE
 70 
 1 
 9 
$FASTZOOM
 70 
 1 
 9 
$SKPOLY
 70 
 0 
 9 
$ANGBASE
 50 
0.0
 9 
$ANGDIR
 70 
 0 
 9 
$PDMODE
 70 
 0 
 9 
$PDSIZE
 40 
0.0
 9 
$PLINEWID
 40 
0.0
 9 
$COORDS
 70 
 0 
 9 
$ATTDIA
 70 
 0 
 9 
$ATTREQ
 70 
 1 
 0 
ENDSEC
 0 
SECTION
 2 
TABLES
 0 
TABLE
 2 
LTYPE
 70 
 10 
 0 
LTYPE
 2 
CONTINUOUS
 70 
 64 
 3 
Solid line
 72 
 65 
 73 
 0 
 40 
0.0
 0 
ENDTAB
 0 
TABLE
 2 
LAYER
 70 
 153 
 0 
LAYER
 2 
0
 70 
 64 
 62 
 7 
 6 
CONTINUOUS
 0 
ENDTAB
 0 
ENDSEC
 0 
SECTION
 2 
BLOCKS
 0 
ENDSEC
 0 
SECTION
 2 
ENTITIES
 0 
LINE
 8 
0
 62 
 7 
 10 
0.0
 20 
3.0
 11 
7.0
 21 
3.0
 0 
LINE
 8 
0
 62 
 7 
 10 
7.0
 20 
3.0
 11 
7.0
 21 
0.0
 0 
LINE
 8 
0
 62 
 7 
 10 
7.0
 20 
0.0
 11 
0.0
 21 
0.0
 0 
LINE
 8 
0
 62 
 7 
 10 
0.0
 20 
0.0
 11 
0.0
 21 
3.0
 0 
CIRCLE
 8 
0
 62 
 7 
 10 
1.125
 20 
2.575
 40 
0.05
 0 
CIRCLE
 8 
0
 62 
 7 
 10 
1.125
 20 
2.575
 40 
0.023
 0 
CIRCLE
 8 
0
 62 
 7 
 10 
1.322
 20 
2.575
 40 
0.05
 0 
CIRCLE
 8 
0
 62 
 7 
 10 
1.322
 20 
2.575
 40 
0.023
 0 
CIRCLE
 8 
0
 62 
 7 
 10 
1.125
 20 
2.378
 40 
0.05
 0 
CIRCLE
 8 
0
 62 
 7 
 10 
1.125
 20 
2.378
 40 
0.023
 0 
CIRCLE
 8 
0
 62 
 7 
 10 
1.322
 20 
2.378
 40 
0.05
 0 
CIRCLE
 8 
0
 62 
 7 
 10 
1.322
 20 
2.378
 40 
0.023
 0 
LINE
 8 
0
 62 
 7 
 10 
1.042
 20 
2.756
 11 
1.042
 21 
2.256
 0 
LINE
 8 
0
 62 
 7 
 10 
1.405
 20 
2.756
 11 
1.405
 21 
2.256
 0 
CIRCLE
 8 
0
 62 
 7 
 10 
1.775
 20 
2.575
 40 
0.05
 0 
CIRCLE
 8 
0
 62 
 7 
 10 
1.775
 20 
2.575
 40 
0.023
 0 
LINE
 8 
0
 62 
 7 
 10 
1.042
 20 
2.756
 11 
1.405
 21 
2.756
 0 
LINE
 8 
0
 62 
 7 
 10 
1.042
 20 
2.256
 11 
1.405
 21 
2.256
 0 
LINE
 8 
0
 62 
 7 
 10 
1.052
 20 
2.097
 11 
1.393
 21 
2.097
 0 
CIRCLE
 8 
0
 62 
 7 
 10 
1.972
 20 
2.575
 40 
0.05
 0 
CIRCLE
 8 
0
 62 
 7 
 10 
1.972
 20 
2.575
 40 
0.023
 0 
LINE
 8 
0
 62 
 7 
 10 
1.331
 20 
2.858
 11 
1.319
 21 
2.87
 0 
LINE
 8 
0
 62 
 7 
 10 
1.319
 20 
2.87
 11 
1.296
 21 
2.87
 0 
LINE
 8 
0
 62 
 7 
 10 
1.296
 20 
2.87
 11 
1.284
 21 
2.858
 0 
LINE
 8 
0
 62 
 7 
 10 
1.284
 20 
2.858
 11 
1.284
 21 
2.812
 0 
LINE
 8 
0
 62 
 7 
 10 
1.284
 20 
2.812
 11 
1.296
 21 
2.8
 0 
LINE
 8 
0
 62 
 7 
 10 
1.296
 20 
2.8
 11 
1.331
 21 
2.8
 0 
LINE
 8 
0
 62 
 7 
 10 
1.331
 20 
2.8
 11 
1.331
 21 
2.823
 0 
LINE
 8 
0
 62 
 7 
 10 
1.331
 20 
2.823
 11 
1.319
 21 
2.823
 0 
LINE
 8 
0
 62 
 7 
 10 
1.046
 20 
2.762
 11 
1.046
 21 
2.91
 0 
LINE
 8 
0
 62 
 7 
 10 
1.046
 20 
2.91
 11 
1.391
 21 
2.91
 0 
LINE
 8 
0
 62 
 7 
 10 
1.391
 20 
2.91
 11 
1.391
 21 
2.762
 0 
LINE
 8 
0
 62 
 7 
 10 
1.066
 20 
2.9
 11 
1.066
 21 
2.772
 0 
LINE
 8 
0
 62 
 7 
 10 
1.056
 20 
2.772
 11 
1.214
 21 
2.772
 0 
LINE
 8 
0
 62 
 7 
 10 
1.214
 20 
2.772
 11 
1.213
 21 
2.907
 0 
LINE
 8 
0
 62 
 7 
 10 
1.214
 20 
2.89
 11 
1.076
 21 
2.89
 0 
LINE
 8 
0
 62 
 7 
 10 
1.104
 20 
2.867
 11 
1.104
 21 
2.855
 0 
LINE
 8 
0
 62 
 7 
 10 
1.104
 20 
2.855
 11 
1.127
 21 
2.832
 0 
LINE
 8 
0
 62 
 7 
 10 
1.127
 20 
2.832
 11 
1.151
 21 
2.855
 0 
LINE
 8 
0
 62 
 7 
 10 
1.151
 20 
2.855
 11 
1.151
 21 
2.867
 0 
LINE
 8 
0
 62 
 7 
 10 
1.127
 20 
2.797
 11 
1.127
 21 
2.832
 0 
LINE
 8 
0
 62 
 7 
 10 
1.204
 20 
2.89
 11 
1.204
 21 
2.782
 0 
LINE
 8 
0
 62 
 7 
 10 
1.194
 20 
2.9
 11 
1.194
 21 
2.762
 0 
LINE
 8 
0
 62 
 7 
 10 
1.333
 20 
2.195
 11 
1.321
 21 
2.207
 0 
LINE
 8 
0
 62 
 7 
 10 
1.321
 20 
2.207
 11 
1.298
 21 
2.207
 0 
LINE
 8 
0
 62 
 7 
 10 
1.298
 20 
2.207
 11 
1.286
 21 
2.195
 0 
LINE
 8 
0
 62 
 7 
 10 
1.286
 20 
2.195
 11 
1.286
 21 
2.149
 0 
LINE
 8 
0
 62 
 7 
 10 
1.286
 20 
2.149
 11 
1.298
 21 
2.137
 0 
LINE
 8 
0
 62 
 7 
 10 
1.298
 20 
2.137
 11 
1.333
 21 
2.137
 0 
LINE
 8 
0
 62 
 7 
 10 
1.333
 20 
2.137
 11 
1.333
 21 
2.16
 0 
LINE
 8 
0
 62 
 7 
 10 
1.333
 20 
2.16
 11 
1.321
 21 
2.16
 0 
LINE
 8 
0
 62 
 7 
 10 
1.048
 20 
2.099
 11 
1.048
 21 
2.247
 0 
LINE
 8 
0
 62 
 7 
 10 
1.048
 20 
2.247
 11 
1.393
 21 
2.247
 0 
LINE
 8 
0
 62 
 7 
 10 
1.393
 20 
2.247
 11 
1.393
 21 
2.099
 0 
LINE
 8 
0
 62 
 7 
 10 
1.068
 20 
2.237
 11 
1.068
 21 
2.109
 0 
LINE
 8 
0
 62 
 7 
 10 
1.216
 20 
2.109
 11 
1.215
 21 
2.244
 0 
LINE
 8 
0
 62 
 7 
 10 
1.216
 20 
2.227
 11 
1.078
 21 
2.227
 0 
LINE
 8 
0
 62 
 7 
 10 
1.106
 20 
2.204
 11 
1.106
 21 
2.192
 0 
LINE
 8 
0
 62 
 7 
 10 
1.106
 20 
2.192
 11 
1.129
 21 
2.169
 0 
LINE
 8 
0
 62 
 7 
 10 
1.129
 20 
2.169
 11 
1.153
 21 
2.192
 0 
LINE
 8 
0
 62 
 7 
 10 
1.153
 20 
2.192
 11 
1.153
 21 
2.204
 0 
LINE
 8 
0
 62 
 7 
 10 
1.129
 20 
2.134
 11 
1.129
 21 
2.169
 0 
LINE
 8 
0
 62 
 7 
 10 
1.206
 20 
2.227
 11 
1.206
 21 
2.119
 0 
LINE
 8 
0
 62 
 7 
 10 
1.196
 20 
2.237
 11 
1.196
 21 
2.099
 0 
LINE
 8 
0
 62 
 7 
 10 
1.058
 20 
2.109
 11 
1.216
 21 
2.109
 0 
CIRCLE
 8 
0
 62 
 7 
 10 
1.775
 20 
2.378
 40 
0.05
 0 
CIRCLE
 8 
0
 62 
 7 
 10 
1.775
 20 
2.378
 40 
0.023
 0 
CIRCLE
 8 
0
 62 
 7 
 10 
1.972
 20 
2.378
 40 
0.05
 0 
CIRCLE
 8 
0
 62 
 7 
 10 
1.972
 20 
2.378
 40 
0.023
 0 
LINE
 8 
0
 62 
 7 
 10 
1.692
 20 
2.756
 11 
1.692
 21 
2.256
 0 
LINE
 8 
0
 62 
 7 
 10 
2.055
 20 
2.756
 11 
2.055
 21 
2.256
 0 
LINE
 8 
0
 62 
 7 
 10 
1.692
 20 
2.756
 11 
2.055
 21 
2.756
 0 
LINE
 8 
0
 62 
 7 
 10 
1.692
 20 
2.256
 11 
2.055
 21 
2.256
 0 
LINE
 8 
0
 62 
 7 
 10 
1.702
 20 
2.097
 11 
2.043
 21 
2.097
 0 
LINE
 8 
0
 62 
 7 
 10 
1.981
 20 
2.858
 11 
1.969
 21 
2.87
 0 
LINE
 8 
0
 62 
 7 
 10 
1.969
 20 
2.87
 11 
1.946
 21 
2.87
 0 
LINE
 8 
0
 62 
 7 
 10 
1.946
 20 
2.87
 11 
1.934
 21 
2.858
 0 
LINE
 8 
0
 62 
 7 
 10 
1.934
 20 
2.858
 11 
1.934
 21 
2.812
 0 
LINE
 8 
0
 62 
 7 
 10 
1.934
 20 
2.812
 11 
1.946
 21 
2.8
 0 
LINE
 8 
0
 62 
 7 
 10 
1.946
 20 
2.8
 11 
1.981
 21 
2.8
 0 
LINE
 8 
0
 62 
 7 
 10 
1.981
 20 
2.8
 11 
1.981
 21 
2.823
 0 
LINE
 8 
0
 62 
 7 
 10 
1.981
 20 
2.823
 11 
1.969
 21 
2.823
 0 
LINE
 8 
0
 62 
 7 
 10 
1.696
 20 
2.762
 11 
1.696
 21 
2.91
 0 
LINE
 8 
0
 62 
 7 
 10 
1.696
 20 
2.91
 11 
2.041
 21 
2.91
 0 
LINE
 8 
0
 62 
 7 
 10 
2.041
 20 
2.91
 11 
2.041
 21 
2.762
 0 
LINE
 8 
0
 62 
 7 
 10 
1.716
 20 
2.9
 11 
1.716
 21 
2.772
 0 
LINE
 8 
0
 62 
 7 
 10 
1.706
 20 
2.772
 11 
1.864
 21 
2.772
 0 
LINE
 8 
0
 62 
 7 
 10 
1.864
 20 
2.772
 11 
1.863
 21 
2.907
 0 
LINE
 8 
0
 62 
 7 
 10 
1.864
 20 
2.89
 11 
1.726
 21 
2.89
 0 
LINE
 8 
0
 62 
 7 
 10 
1.754
 20 
2.867
 11 
1.754
 21 
2.855
 0 
LINE
 8 
0
 62 
 7 
 10 
1.754
 20 
2.855
 11 
1.777
 21 
2.832
 0 
LINE
 8 
0
 62 
 7 
 10 
1.777
 20 
2.832
 11 
1.801
 21 
2.855
 0 
LINE
 8 
0
 62 
 7 
 10 
1.801
 20 
2.855
 11 
1.801
 21 
2.867
 0 
LINE
 8 
0
 62 
 7 
 10 
1.777
 20 
2.797
 11 
1.777
 21 
2.832
 0 
LINE
 8 
0
 62 
 7 
 10 
1.854
 20 
2.89
 11 
1.854
 21 
2.782
 0 
LINE
 8 
0
 62 
 7 
 10 
1.844
 20 
2.9
 11 
1.844
 21 
2.762
 0 
LINE
 8 
0
 62 
 7 
 10 
1.983
 20 
2.195
 11 
1.971
 21 
2.207
 0 
LINE
 8 
0
 62 
 7 
 10 
1.971
 20 
2.207
 11 
1.948
 21 
2.207
 0 
LINE
 8 
0
 62 
 7 
 10 
1.948
 20 
2.207
 11 
1.936
 21 
2.195
 0 
LINE
 8 
0
 62 
 7 
 10 
1.936
 20 
2.195
 11 
1.936
 21 
2.149
 0 
LINE
 8 
0
 62 
 7 
 10 
1.936
 20 
2.149
 11 
1.948
 21 
2.137
 0 
LINE
 8 
0
 62 
 7 
 10 
1.948
 20 
2.137
 11 
1.983
 21 
2.137
 0 
LINE
 8 
0
 62 
 7 
 10 
1.983
 20 
2.137
 11 
1.983
 21 
2.16
 0 
LINE
 8 
0
 62 
 7 
 10 
1.983
 20 
2.16
 11 
1.971
 21 
2.16
 0 
LINE
 8 
0
 62 
 7 
 10 
1.698
 20 
2.099
 11 
1.698
 21 
2.247
 0 
LINE
 8 
0
 62 
 7 
 10 
1.698
 20 
2.247
 11 
2.043
 21 
2.247
 0 
LINE
 8 
0
 62 
 7 
 10 
2.043
 20 
2.247
 11 
2.043
 21 
2.099
 0 
LINE
 8 
0
 62 
 7 
 10 
1.718
 20 
2.237
 11 
1.718
 21 
2.109
 0 
LINE
 8 
0
 62 
 7 
 10 
1.866
 20 
2.109
 11 
1.865
 21 
2.244
 0 
LINE
 8 
0
 62 
 7 
 10 
1.866
 20 
2.227
 11 
1.728
 21 
2.227
 0 
LINE
 8 
0
 62 
 7 
 10 
1.756
 20 
2.204
 11 
1.756
 21 
2.192
 0 
LINE
 8 
0
 62 
 7 
 10 
1.756
 20 
2.192
 11 
1.779
 21 
2.169
 0 
LINE
 8 
0
 62 
 7 
 10 
1.779
 20 
2.169
 11 
1.803
 21 
2.192
 0 
LINE
 8 
0
 62 
 7 
 10 
1.803
 20 
2.192
 11 
1.803
 21 
2.204
 0 
LINE
 8 
0
 62 
 7 
 10 
1.779
 20 
2.134
 11 
1.779
 21 
2.169
 0 
LINE
 8 
0
 62 
 7 
 10 
1.856
 20 
2.227
 11 
1.856
 21 
2.119
 0 
LINE
 8 
0
 62 
 7 
 10 
1.846
 20 
2.237
 11 
1.846
 21 
2.099
 0 
LINE
 8 
0
 62 
 7 
 10 
1.708
 20 
2.109
 11 
1.866
 21 
2.109
 0 
CIRCLE
 8 
0
 62 
 7 
 10 
2.425
 20 
2.575
 40 
0.05
 0 
CIRCLE
 8 
0
 62 
 7 
 10 
2.425
 20 
2.575
 40 
0.023
 0 
CIRCLE
 8 
0
 62 
 7 
 10 
2.622
 20 
2.575
 40 
0.05
 0 
CIRCLE
 8 
0
 62 
 7 
 10 
2.622
 20 
2.575
 40 
0.023
 0 
CIRCLE
 8 
0
 62 
 7 
 10 
2.425
 20 
2.378
 40 
0.05
 0 
CIRCLE
 8 
0
 62 
 7 
 10 
2.425
 20 
2.378
 40 
0.023
 0 
CIRCLE
 8 
0
 62 
 7 
 10 
2.622
 20 
2.378
 40 
0.05
 0 
CIRCLE
 8 
0
 62 
 7 
 10 
2.622
 20 
2.378
 40 
0.023
 0 
LINE
 8 
0
 62 
 7 
 10 
2.342
 20 
2.756
 11 
2.342
 21 
2.256
 0 
LINE
 8 
0
 62 
 7 
 10 
2.705
 20 
2.756
 11 
2.705
 21 
2.256
 0 
LINE
 8 
0
 62 
 7 
 10 
2.342
 20 
2.756
 11 
2.705
 21 
2.756
 0 
LINE
 8 
0
 62 
 7 
 10 
2.342
 20 
2.256
 11 
2.705
 21 
2.256
 0 
LINE
 8 
0
 62 
 7 
 10 
2.352
 20 
2.097
 11 
2.693
 21 
2.097
 0 
LINE
 8 
0
 62 
 7 
 10 
2.631
 20 
2.858
 11 
2.619
 21 
2.87
 0 
LINE
 8 
0
 62 
 7 
 10 
2.619
 20 
2.87
 11 
2.596
 21 
2.87
 0 
LINE
 8 
0
 62 
 7 
 10 
2.596
 20 
2.87
 11 
2.584
 21 
2.858
 0 
LINE
 8 
0
 62 
 7 
 10 
2.584
 20 
2.858
 11 
2.584
 21 
2.812
 0 
LINE
 8 
0
 62 
 7 
 10 
2.584
 20 
2.812
 11 
2.596
 21 
2.8
 0 
LINE
 8 
0
 62 
 7 
 10 
2.596
 20 
2.8
 11 
2.631
 21 
2.8
 0 
LINE
 8 
0
 62 
 7 
 10 
2.631
 20 
2.8
 11 
2.631
 21 
2.823
 0 
LINE
 8 
0
 62 
 7 
 10 
2.631
 20 
2.823
 11 
2.619
 21 
2.823
 0 
LINE
 8 
0
 62 
 7 
 10 
2.346
 20 
2.762
 11 
2.346
 21 
2.91
 0 
LINE
 8 
0
 62 
 7 
 10 
2.346
 20 
2.91
 11 
2.691
 21 
2.91
 0 
LINE
 8 
0
 62 
 7 
 10 
2.691
 20 
2.91
 11 
2.691
 21 
2.762
 0 
LINE
 8 
0
 62 
 7 
 10 
2.366
 20 
2.9
 11 
2.366
 21 
2.772
 0 
LINE
 8 
0
 62 
 7 
 10 
2.356
 20 
2.772
 11 
2.514
 21 
2.772
 0 
LINE
 8 
0
 62 
 7 
 10 
2.514
 20 
2.772
 11 
2.513
 21 
2.907
 0 
LINE
 8 
0
 62 
 7 
 10 
2.514
 20 
2.89
 11 
2.376
 21 
2.89
 0 
LINE
 8 
0
 62 
 7 
 10 
2.404
 20 
2.867
 11 
2.404
 21 
2.855
 0 
LINE
 8 
0
 62 
 7 
 10 
2.404
 20 
2.855
 11 
2.427
 21 
2.832
 0 
LINE
 8 
0
 62 
 7 
 10 
2.427
 20 
2.832
 11 
2.451
 21 
2.855
 0 
LINE
 8 
0
 62 
 7 
 10 
2.451
 20 
2.855
 11 
2.451
 21 
2.867
 0 
LINE
 8 
0
 62 
 7 
 10 
2.427
 20 
2.797
 11 
2.427
 21 
2.832
 0 
LINE
 8 
0
 62 
 7 
 10 
2.504
 20 
2.89
 11 
2.504
 21 
2.782
 0 
LINE
 8 
0
 62 
 7 
 10 
2.494
 20 
2.9
 11 
2.494
 21 
2.762
 0 
LINE
 8 
0
 62 
 7 
 10 
2.633
 20 
2.195
 11 
2.621
 21 
2.207
 0 
LINE
 8 
0
 62 
 7 
 10 
2.621
 20 
2.207
 11 
2.598
 21 
2.207
 0 
LINE
 8 
0
 62 
 7 
 10 
2.598
 20 
2.207
 11 
2.586
 21 
2.195
 0 
LINE
 8 
0
 62 
 7 
 10 
2.586
 20 
2.195
 11 
2.586
 21 
2.149
 0 
LINE
 8 
0
 62 
 7 
 10 
2.586
 20 
2.149
 11 
2.598
 21 
2.137
 0 
LINE
 8 
0
 62 
 7 
 10 
2.598
 20 
2.137
 11 
2.633
 21 
2.137
 0 
LINE
 8 
0
 62 
 7 
 10 
2.633
 20 
2.137
 11 
2.633
 21 
2.16
 0 
LINE
 8 
0
 62 
 7 
 10 
2.633
 20 
2.16
 11 
2.621
 21 
2.16
 0 
LINE
 8 
0
 62 
 7 
 10 
2.348
 20 
2.099
 11 
2.348
 21 
2.247
 0 
LINE
 8 
0
 62 
 7 
 10 
2.348
 20 
2.247
 11 
2.693
 21 
2.247
 0 
LINE
 8 
0
 62 
 7 
 10 
2.693
 20 
2.247
 11 
2.693
 21 
2.099
 0 
LINE
 8 
0
 62 
 7 
 10 
2.368
 20 
2.237
 11 
2.368
 21 
2.109
 0 
LINE
 8 
0
 62 
 7 
 10 
2.516
 20 
2.109
 11 
2.515
 21 
2.244
 0 
LINE
 8 
0
 62 
 7 
 10 
2.516
 20 
2.227
 11 
2.378
 21 
2.227
 0 
LINE
 8 
0
 62 
 7 
 10 
2.406
 20 
2.204
 11 
2.406
 21 
2.192
 0 
LINE
 8 
0
 62 
 7 
 10 
2.406
 20 
2.192
 11 
2.429
 21 
2.169
 0 
LINE
 8 
0
 62 
 7 
 10 
2.429
 20 
2.169
 11 
2.453
 21 
2.192
 0 
LINE
 8 
0
 62 
 7 
 10 
2.453
 20 
2.192
 11 
2.453
 21 
2.204
 0 
LINE
 8 
0
 62 
 7 
 10 
2.429
 20 
2.134
 11 
2.429
 21 
2.169
 0 
LINE
 8 
0
 62 
 7 
 10 
2.506
 20 
2.227
 11 
2.506
 21 
2.119
 0 
LINE
 8 
0
 62 
 7 
 10 
2.496
 20 
2.237
 11 
2.496
 21 
2.099
 0 
LINE
 8 
0
 62 
 7 
 10 
2.358
 20 
2.109
 11 
2.516
 21 
2.109
 0 
CIRCLE
 8 
0
 62 
 7 
 10 
3.725
 20 
2.575
 40 
0.05
 0 
CIRCLE
 8 
0
 62 
 7 
 10 
3.725
 20 
2.575
 40 
0.023
 0 
CIRCLE
 8 
0
 62 
 7 
 10 
3.922
 20 
2.575
 40 
0.05
 0 
CIRCLE
 8 
0
 62 
 7 
 10 
3.922
 20 
2.575
 40 
0.023
 0 
CIRCLE
 8 
0
 62 
 7 
 10 
3.725
 20 
2.378
 40 
0.05
 0 
CIRCLE
 8 
0
 62 
 7 
 10 
3.725
 20 
2.378
 40 
0.023
 0 
CIRCLE
 8 
0
 62 
 7 
 10 
3.922
 20 
2.378
 40 
0.05
 0 
CIRCLE
 8 
0
 62 
 7 
 10 
3.922
 20 
2.378
 40 
0.023
 0 
LINE
 8 
0
 62 
 7 
 10 
3.642
 20 
2.756
 11 
3.642
 21 
2.256
 0 
LINE
 8 
0
 62 
 7 
 10 
4.005
 20 
2.756
 11 
4.005
 21 
2.256
 0 
LINE
 8 
0
 62 
 7 
 10 
3.642
 20 
2.756
 11 
4.005
 21 
2.756
 0 
LINE
 8 
0
 62 
 7 
 10 
3.642
 20 
2.256
 11 
4.005
 21 
2.256
 0 
LINE
 8 
0
 62 
 7 
 10 
3.652
 20 
2.097
 11 
3.993
 21 
2.097
 0 
LINE
 8 
0
 62 
 7 
 10 
3.931
 20 
2.858
 11 
3.919
 21 
2.87
 0 
LINE
 8 
0
 62 
 7 
 10 
3.919
 20 
2.87
 11 
3.896
 21 
2.87
 0 
LINE
 8 
0
 62 
 7 
 10 
3.896
 20 
2.87
 11 
3.884
 21 
2.858
 0 
LINE
 8 
0
 62 
 7 
 10 
3.884
 20 
2.858
 11 
3.884
 21 
2.812
 0 
LINE
 8 
0
 62 
 7 
 10 
3.884
 20 
2.812
 11 
3.896
 21 
2.8
 0 
LINE
 8 
0
 62 
 7 
 10 
3.896
 20 
2.8
 11 
3.931
 21 
2.8
 0 
LINE
 8 
0
 62 
 7 
 10 
3.931
 20 
2.8
 11 
3.931
 21 
2.823
 0 
LINE
 8 
0
 62 
 7 
 10 
3.931
 20 
2.823
 11 
3.919
 21 
2.823
 0 
LINE
 8 
0
 62 
 7 
 10 
3.646
 20 
2.762
 11 
3.646
 21 
2.91
 0 
LINE
 8 
0
 62 
 7 
 10 
3.646
 20 
2.91
 11 
3.991
 21 
2.91
 0 
LINE
 8 
0
 62 
 7 
 10 
3.991
 20 
2.91
 11 
3.991
 21 
2.762
 0 
LINE
 8 
0
 62 
 7 
 10 
3.666
 20 
2.9
 11 
3.666
 21 
2.772
 0 
LINE
 8 
0
 62 
 7 
 10 
3.656
 20 
2.772
 11 
3.814
 21 
2.772
 0 
LINE
 8 
0
 62 
 7 
 10 
3.814
 20 
2.772
 11 
3.813
 21 
2.907
 0 
LINE
 8 
0
 62 
 7 
 10 
3.814
 20 
2.89
 11 
3.676
 21 
2.89
 0 
LINE
 8 
0
 62 
 7 
 10 
3.704
 20 
2.867
 11 
3.704
 21 
2.855
 0 
LINE
 8 
0
 62 
 7 
 10 
3.704
 20 
2.855
 11 
3.727
 21 
2.832
 0 
LINE
 8 
0
 62 
 7 
 10 
3.727
 20 
2.832
 11 
3.751
 21 
2.855
 0 
LINE
 8 
0
 62 
 7 
 10 
3.751
 20 
2.855
 11 
3.751
 21 
2.867
 0 
LINE
 8 
0
 62 
 7 
 10 
3.727
 20 
2.797
 11 
3.727
 21 
2.832
 0 
LINE
 8 
0
 62 
 7 
 10 
3.804
 20 
2.89
 11 
3.804
 21 
2.782
 0 
LINE
 8 
0
 62 
 7 
 10 
3.794
 20 
2.9
 11 
3.794
 21 
2.762
 0 
LINE
 8 
0
 62 
 7 
 10 
3.933
 20 
2.195
 11 
3.921
 21 
2.207
 0 
LINE
 8 
0
 62 
 7 
 10 
3.921
 20 
2.207
 11 
3.898
 21 
2.207
 0 
LINE
 8 
0
 62 
 7 
 10 
3.898
 20 
2.207
 11 
3.886
 21 
2.195
 0 
LINE
 8 
0
 62 
 7 
 10 
3.886
 20 
2.195
 11 
3.886
 21 
2.149
 0 
LINE
 8 
0
 62 
 7 
 10 
3.886
 20 
2.149
 11 
3.898
 21 
2.137
 0 
LINE
 8 
0
 62 
 7 
 10 
3.898
 20 
2.137
 11 
3.933
 21 
2.137
 0 
LINE
 8 
0
 62 
 7 
 10 
3.933
 20 
2.137
 11 
3.933
 21 
2.16
 0 
LINE
 8 
0
 62 
 7 
 10 
3.933
 20 
2.16
 11 
3.921
 21 
2.16
 0 
LINE
 8 
0
 62 
 7 
 10 
3.648
 20 
2.099
 11 
3.648
 21 
2.247
 0 
LINE
 8 
0
 62 
 7 
 10 
3.648
 20 
2.247
 11 
3.993
 21 
2.247
 0 
LINE
 8 
0
 62 
 7 
 10 
3.993
 20 
2.247
 11 
3.993
 21 
2.099
 0 
LINE
 8 
0
 62 
 7 
 10 
3.668
 20 
2.237
 11 
3.668
 21 
2.109
 0 
LINE
 8 
0
 62 
 7 
 10 
3.816
 20 
2.109
 11 
3.815
 21 
2.244
 0 
LINE
 8 
0
 62 
 7 
 10 
3.816
 20 
2.227
 11 
3.678
 21 
2.227
 0 
LINE
 8 
0
 62 
 7 
 10 
3.706
 20 
2.204
 11 
3.706
 21 
2.192
 0 
LINE
 8 
0
 62 
 7 
 10 
3.706
 20 
2.192
 11 
3.729
 21 
2.169
 0 
LINE
 8 
0
 62 
 7 
 10 
3.729
 20 
2.169
 11 
3.753
 21 
2.192
 0 
LINE
 8 
0
 62 
 7 
 10 
3.753
 20 
2.192
 11 
3.753
 21 
2.204
 0 
LINE
 8 
0
 62 
 7 
 10 
3.729
 20 
2.134
 11 
3.729
 21 
2.169
 0 
LINE
 8 
0
 62 
 7 
 10 
3.806
 20 
2.227
 11 
3.806
 21 
2.119
 0 
LINE
 8 
0
 62 
 7 
 10 
3.796
 20 
2.237
 11 
3.796
 21 
2.099
 0 
LINE
 8 
0
 62 
 7 
 10 
3.658
 20 
2.109
 11 
3.816
 21 
2.109
 0 
CIRCLE
 8 
0
 62 
 7 
 10 
3.075
 20 
2.575
 40 
0.05
 0 
CIRCLE
 8 
0
 62 
 7 
 10 
3.075
 20 
2.575
 40 
0.023
 0 
CIRCLE
 8 
0
 62 
 7 
 10 
3.272
 20 
2.575
 40 
0.05
 0 
CIRCLE
 8 
0
 62 
 7 
 10 
3.272
 20 
2.575
 40 
0.023
 0 
CIRCLE
 8 
0
 62 
 7 
 10 
3.075
 20 
2.378
 40 
0.05
 0 
CIRCLE
 8 
0
 62 
 7 
 10 
3.075
 20 
2.378
 40 
0.023
 0 
CIRCLE
 8 
0
 62 
 7 
 10 
3.272
 20 
2.378
 40 
0.05
 0 
CIRCLE
 8 
0
 62 
 7 
 10 
3.272
 20 
2.378
 40 
0.023
 0 
LINE
 8 
0
 62 
 7 
 10 
2.992
 20 
2.756
 11 
2.992
 21 
2.256
 0 
LINE
 8 
0
 62 
 7 
 10 
3.355
 20 
2.756
 11 
3.355
 21 
2.256
 0 
LINE
 8 
0
 62 
 7 
 10 
2.992
 20 
2.756
 11 
3.355
 21 
2.756
 0 
LINE
 8 
0
 62 
 7 
 10 
2.992
 20 
2.256
 11 
3.355
 21 
2.256
 0 
LINE
 8 
0
 62 
 7 
 10 
3.002
 20 
2.097
 11 
3.343
 21 
2.097
 0 
LINE
 8 
0
 62 
 7 
 10 
3.281
 20 
2.858
 11 
3.269
 21 
2.87
 0 
LINE
 8 
0
 62 
 7 
 10 
3.269
 20 
2.87
 11 
3.246
 21 
2.87
 0 
LINE
 8 
0
 62 
 7 
 10 
3.246
 20 
2.87
 11 
3.234
 21 
2.858
 0 
LINE
 8 
0
 62 
 7 
 10 
3.234
 20 
2.858
 11 
3.234
 21 
2.812
 0 
LINE
 8 
0
 62 
 7 
 10 
3.234
 20 
2.812
 11 
3.246
 21 
2.8
 0 
LINE
 8 
0
 62 
 7 
 10 
3.246
 20 
2.8
 11 
3.281
 21 
2.8
 0 
LINE
 8 
0
 62 
 7 
 10 
3.281
 20 
2.8
 11 
3.281
 21 
2.823
 0 
LINE
 8 
0
 62 
 7 
 10 
3.281
 20 
2.823
 11 
3.269
 21 
2.823
 0 
LINE
 8 
0
 62 
 7 
 10 
2.996
 20 
2.762
 11 
2.996
 21 
2.91
 0 
LINE
 8 
0
 62 
 7 
 10 
2.996
 20 
2.91
 11 
3.341
 21 
2.91
 0 
LINE
 8 
0
 62 
 7 
 10 
3.341
 20 
2.91
 11 
3.341
 21 
2.762
 0 
LINE
 8 
0
 62 
 7 
 10 
3.016
 20 
2.9
 11 
3.016
 21 
2.772
 0 
LINE
 8 
0
 62 
 7 
 10 
3.006
 20 
2.772
 11 
3.164
 21 
2.772
 0 
LINE
 8 
0
 62 
 7 
 10 
3.164
 20 
2.772
 11 
3.163
 21 
2.907
 0 
LINE
 8 
0
 62 
 7 
 10 
3.164
 20 
2.89
 11 
3.026
 21 
2.89
 0 
LINE
 8 
0
 62 
 7 
 10 
3.054
 20 
2.867
 11 
3.054
 21 
2.855
 0 
LINE
 8 
0
 62 
 7 
 10 
3.054
 20 
2.855
 11 
3.077
 21 
2.832
 0 
LINE
 8 
0
 62 
 7 
 10 
3.077
 20 
2.832
 11 
3.101
 21 
2.855
 0 
LINE
 8 
0
 62 
 7 
 10 
3.101
 20 
2.855
 11 
3.101
 21 
2.867
 0 
LINE
 8 
0
 62 
 7 
 10 
3.077
 20 
2.797
 11 
3.077
 21 
2.832
 0 
LINE
 8 
0
 62 
 7 
 10 
3.154
 20 
2.89
 11 
3.154
 21 
2.782
 0 
LINE
 8 
0
 62 
 7 
 10 
3.144
 20 
2.9
 11 
3.144
 21 
2.762
 0 
LINE
 8 
0
 62 
 7 
 10 
3.283
 20 
2.195
 11 
3.271
 21 
2.207
 0 
LINE
 8 
0
 62 
 7 
 10 
3.271
 20 
2.207
 11 
3.248
 21 
2.207
 0 
LINE
 8 
0
 62 
 7 
 10 
3.248
 20 
2.207
 11 
3.236
 21 
2.195
 0 
LINE
 8 
0
 62 
 7 
 10 
3.236
 20 
2.195
 11 
3.236
 21 
2.149
 0 
LINE
 8 
0
 62 
 7 
 10 
3.236
 20 
2.149
 11 
3.248
 21 
2.137
 0 
LINE
 8 
0
 62 
 7 
 10 
3.248
 20 
2.137
 11 
3.283
 21 
2.137
 0 
LINE
 8 
0
 62 
 7 
 10 
3.283
 20 
2.137
 11 
3.283
 21 
2.16
 0 
LINE
 8 
0
 62 
 7 
 10 
3.283
 20 
2.16
 11 
3.271
 21 
2.16
 0 
LINE
 8 
0
 62 
 7 
 10 
2.998
 20 
2.099
 11 
2.998
 21 
2.247
 0 
LINE
 8 
0
 62 
 7 
 10 
2.998
 20 
2.247
 11 
3.343
 21 
2.247
 0 
LINE
 8 
0
 62 
 7 
 10 
3.343
 20 
2.247
 11 
3.343
 21 
2.099
 0 
LINE
 8 
0
 62 
 7 
 10 
3.018
 20 
2.237
 11 
3.018
 21 
2.109
 0 
LINE
 8 
0
 62 
 7 
 10 
3.166
 20 
2.109
 11 
3.165
 21 
2.244
 0 
LINE
 8 
0
 62 
 7 
 10 
3.166
 20 
2.227
 11 
3.028
 21 
2.227
 0 
LINE
 8 
0
 62 
 7 
 10 
3.056
 20 
2.204
 11 
3.056
 21 
2.192
 0 
LINE
 8 
0
 62 
 7 
 10 
3.056
 20 
2.192
 11 
3.079
 21 
2.169
 0 
LINE
 8 
0
 62 
 7 
 10 
3.079
 20 
2.169
 11 
3.103
 21 
2.192
 0 
LINE
 8 
0
 62 
 7 
 10 
3.103
 20 
2.192
 11 
3.103
 21 
2.204
 0 
LINE
 8 
0
 62 
 7 
 10 
3.079
 20 
2.134
 11 
3.079
 21 
2.169
 0 
LINE
 8 
0
 62 
 7 
 10 
3.156
 20 
2.227
 11 
3.156
 21 
2.119
 0 
LINE
 8 
0
 62 
 7 
 10 
3.146
 20 
2.237
 11 
3.146
 21 
2.099
 0 
LINE
 8 
0
 62 
 7 
 10 
3.008
 20 
2.109
 11 
3.166
 21 
2.109
 0 
CIRCLE
 8 
0
 62 
 7 
 10 
5.025
 20 
2.575
 40 
0.05
 0 
CIRCLE
 8 
0
 62 
 7 
 10 
5.025
 20 
2.575
 40 
0.023
 0 
CIRCLE
 8 
0
 62 
 7 
 10 
5.222
 20 
2.575
 40 
0.05
 0 
CIRCLE
 8 
0
 62 
 7 
 10 
5.222
 20 
2.575
 40 
0.023
 0 
CIRCLE
 8 
0
 62 
 7 
 10 
5.025
 20 
2.378
 40 
0.05
 0 
CIRCLE
 8 
0
 62 
 7 
 10 
5.025
 20 
2.378
 40 
0.023
 0 
CIRCLE
 8 
0
 62 
 7 
 10 
5.222
 20 
2.378
 40 
0.05
 0 
CIRCLE
 8 
0
 62 
 7 
 10 
5.222
 20 
2.378
 40 
0.023
 0 
LINE
 8 
0
 62 
 7 
 10 
4.942
 20 
2.756
 11 
4.942
 21 
2.256
 0 
LINE
 8 
0
 62 
 7 
 10 
5.305
 20 
2.756
 11 
5.305
 21 
2.256
 0 
LINE
 8 
0
 62 
 7 
 10 
4.942
 20 
2.756
 11 
5.305
 21 
2.756
 0 
LINE
 8 
0
 62 
 7 
 10 
4.942
 20 
2.256
 11 
5.305
 21 
2.256
 0 
LINE
 8 
0
 62 
 7 
 10 
4.952
 20 
2.097
 11 
5.293
 21 
2.097
 0 
LINE
 8 
0
 62 
 7 
 10 
5.231
 20 
2.858
 11 
5.219
 21 
2.87
 0 
LINE
 8 
0
 62 
 7 
 10 
5.219
 20 
2.87
 11 
5.196
 21 
2.87
 0 
LINE
 8 
0
 62 
 7 
 10 
5.196
 20 
2.87
 11 
5.184
 21 
2.858
 0 
LINE
 8 
0
 62 
 7 
 10 
5.184
 20 
2.858
 11 
5.184
 21 
2.812
 0 
LINE
 8 
0
 62 
 7 
 10 
5.184
 20 
2.812
 11 
5.196
 21 
2.8
 0 
LINE
 8 
0
 62 
 7 
 10 
5.196
 20 
2.8
 11 
5.231
 21 
2.8
 0 
LINE
 8 
0
 62 
 7 
 10 
5.231
 20 
2.8
 11 
5.231
 21 
2.823
 0 
LINE
 8 
0
 62 
 7 
 10 
5.231
 20 
2.823
 11 
5.219
 21 
2.823
 0 
LINE
 8 
0
 62 
 7 
 10 
4.946
 20 
2.762
 11 
4.946
 21 
2.91
 0 
LINE
 8 
0
 62 
 7 
 10 
4.946
 20 
2.91
 11 
5.291
 21 
2.91
 0 
LINE
 8 
0
 62 
 7 
 10 
5.291
 20 
2.91
 11 
5.291
 21 
2.762
 0 
LINE
 8 
0
 62 
 7 
 10 
4.966
 20 
2.9
 11 
4.966
 21 
2.772
 0 
LINE
 8 
0
 62 
 7 
 10 
4.956
 20 
2.772
 11 
5.114
 21 
2.772
 0 
LINE
 8 
0
 62 
 7 
 10 
5.114
 20 
2.772
 11 
5.113
 21 
2.907
 0 
LINE
 8 
0
 62 
 7 
 10 
5.114
 20 
2.89
 11 
4.976
 21 
2.89
 0 
LINE
 8 
0
 62 
 7 
 10 
5.004
 20 
2.867
 11 
5.004
 21 
2.855
 0 
LINE
 8 
0
 62 
 7 
 10 
5.004
 20 
2.855
 11 
5.027
 21 
2.832
 0 
LINE
 8 
0
 62 
 7 
 10 
5.027
 20 
2.832
 11 
5.051
 21 
2.855
 0 
LINE
 8 
0
 62 
 7 
 10 
5.051
 20 
2.855
 11 
5.051
 21 
2.867
 0 
LINE
 8 
0
 62 
 7 
 10 
5.027
 20 
2.797
 11 
5.027
 21 
2.832
 0 
LINE
 8 
0
 62 
 7 
 10 
5.104
 20 
2.89
 11 
5.104
 21 
2.782
 0 
LINE
 8 
0
 62 
 7 
 10 
5.094
 20 
2.9
 11 
5.094
 21 
2.762
 0 
LINE
 8 
0
 62 
 7 
 10 
5.233
 20 
2.195
 11 
5.221
 21 
2.207
 0 
LINE
 8 
0
 62 
 7 
 10 
5.221
 20 
2.207
 11 
5.198
 21 
2.207
 0 
LINE
 8 
0
 62 
 7 
 10 
5.198
 20 
2.207
 11 
5.186
 21 
2.195
 0 
LINE
 8 
0
 62 
 7 
 10 
5.186
 20 
2.195
 11 
5.186
 21 
2.149
 0 
LINE
 8 
0
 62 
 7 
 10 
5.186
 20 
2.149
 11 
5.198
 21 
2.137
 0 
LINE
 8 
0
 62 
 7 
 10 
5.198
 20 
2.137
 11 
5.233
 21 
2.137
 0 
LINE
 8 
0
 62 
 7 
 10 
5.233
 20 
2.137
 11 
5.233
 21 
2.16
 0 
LINE
 8 
0
 62 
 7 
 10 
5.233
 20 
2.16
 11 
5.221
 21 
2.16
 0 
LINE
 8 
0
 62 
 7 
 10 
4.948
 20 
2.099
 11 
4.948
 21 
2.247
 0 
LINE
 8 
0
 62 
 7 
 10 
4.948
 20 
2.247
 11 
5.293
 21 
2.247
 0 
LINE
 8 
0
 62 
 7 
 10 
5.293
 20 
2.247
 11 
5.293
 21 
2.099
 0 
LINE
 8 
0
 62 
 7 
 10 
4.968
 20 
2.237
 11 
4.968
 21 
2.109
 0 
LINE
 8 
0
 62 
 7 
 10 
5.116
 20 
2.109
 11 
5.115
 21 
2.244
 0 
LINE
 8 
0
 62 
 7 
 10 
5.116
 20 
2.227
 11 
4.978
 21 
2.227
 0 
LINE
 8 
0
 62 
 7 
 10 
5.006
 20 
2.204
 11 
5.006
 21 
2.192
 0 
LINE
 8 
0
 62 
 7 
 10 
5.006
 20 
2.192
 11 
5.029
 21 
2.169
 0 
LINE
 8 
0
 62 
 7 
 10 
5.029
 20 
2.169
 11 
5.053
 21 
2.192
 0 
LINE
 8 
0
 62 
 7 
 10 
5.053
 20 
2.192
 11 
5.053
 21 
2.204
 0 
LINE
 8 
0
 62 
 7 
 10 
5.029
 20 
2.134
 11 
5.029
 21 
2.169
 0 
LINE
 8 
0
 62 
 7 
 10 
5.106
 20 
2.227
 11 
5.106
 21 
2.119
 0 
LINE
 8 
0
 62 
 7 
 10 
5.096
 20 
2.237
 11 
5.096
 21 
2.099
 0 
LINE
 8 
0
 62 
 7 
 10 
4.958
 20 
2.109
 11 
5.116
 21 
2.109
 0 
CIRCLE
 8 
0
 62 
 7 
 10 
5.675
 20 
2.575
 40 
0.05
 0 
CIRCLE
 8 
0
 62 
 7 
 10 
5.675
 20 
2.575
 40 
0.023
 0 
CIRCLE
 8 
0
 62 
 7 
 10 
5.872
 20 
2.575
 40 
0.05
 0 
CIRCLE
 8 
0
 62 
 7 
 10 
5.872
 20 
2.575
 40 
0.023
 0 
CIRCLE
 8 
0
 62 
 7 
 10 
5.675
 20 
2.378
 40 
0.05
 0 
CIRCLE
 8 
0
 62 
 7 
 10 
5.675
 20 
2.378
 40 
0.023
 0 
CIRCLE
 8 
0
 62 
 7 
 10 
5.872
 20 
2.378
 40 
0.05
 0 
CIRCLE
 8 
0
 62 
 7 
 10 
5.872
 20 
2.378
 40 
0.023
 0 
LINE
 8 
0
 62 
 7 
 10 
5.592
 20 
2.756
 11 
5.592
 21 
2.256
 0 
LINE
 8 
0
 62 
 7 
 10 
5.955
 20 
2.756
 11 
5.955
 21 
2.256
 0 
LINE
 8 
0
 62 
 7 
 10 
5.592
 20 
2.756
 11 
5.955
 21 
2.756
 0 
LINE
 8 
0
 62 
 7 
 10 
5.592
 20 
2.256
 11 
5.955
 21 
2.256
 0 
LINE
 8 
0
 62 
 7 
 10 
5.602
 20 
2.097
 11 
5.943
 21 
2.097
 0 
LINE
 8 
0
 62 
 7 
 10 
5.881
 20 
2.858
 11 
5.869
 21 
2.87
 0 
LINE
 8 
0
 62 
 7 
 10 
5.869
 20 
2.87
 11 
5.846
 21 
2.87
 0 
LINE
 8 
0
 62 
 7 
 10 
5.846
 20 
2.87
 11 
5.834
 21 
2.858
 0 
LINE
 8 
0
 62 
 7 
 10 
5.834
 20 
2.858
 11 
5.834
 21 
2.812
 0 
LINE
 8 
0
 62 
 7 
 10 
5.834
 20 
2.812
 11 
5.846
 21 
2.8
 0 
LINE
 8 
0
 62 
 7 
 10 
5.846
 20 
2.8
 11 
5.881
 21 
2.8
 0 
LINE
 8 
0
 62 
 7 
 10 
5.881
 20 
2.8
 11 
5.881
 21 
2.823
 0 
LINE
 8 
0
 62 
 7 
 10 
5.881
 20 
2.823
 11 
5.869
 21 
2.823
 0 
LINE
 8 
0
 62 
 7 
 10 
5.596
 20 
2.762
 11 
5.596
 21 
2.91
 0 
LINE
 8 
0
 62 
 7 
 10 
5.596
 20 
2.91
 11 
5.941
 21 
2.91
 0 
LINE
 8 
0
 62 
 7 
 10 
5.941
 20 
2.91
 11 
5.941
 21 
2.762
 0 
LINE
 8 
0
 62 
 7 
 10 
5.616
 20 
2.9
 11 
5.616
 21 
2.772
 0 
LINE
 8 
0
 62 
 7 
 10 
5.606
 20 
2.772
 11 
5.764
 21 
2.772
 0 
LINE
 8 
0
 62 
 7 
 10 
5.764
 20 
2.772
 11 
5.763
 21 
2.907
 0 
LINE
 8 
0
 62 
 7 
 10 
5.764
 20 
2.89
 11 
5.626
 21 
2.89
 0 
LINE
 8 
0
 62 
 7 
 10 
5.654
 20 
2.867
 11 
5.654
 21 
2.855
 0 
LINE
 8 
0
 62 
 7 
 10 
5.654
 20 
2.855
 11 
5.677
 21 
2.832
 0 
LINE
 8 
0
 62 
 7 
 10 
5.677
 20 
2.832
 11 
5.701
 21 
2.855
 0 
LINE
 8 
0
 62 
 7 
 10 
5.701
 20 
2.855
 11 
5.701
 21 
2.867
 0 
LINE
 8 
0
 62 
 7 
 10 
5.677
 20 
2.797
 11 
5.677
 21 
2.832
 0 
LINE
 8 
0
 62 
 7 
 10 
5.754
 20 
2.89
 11 
5.754
 21 
2.782
 0 
LINE
 8 
0
 62 
 7 
 10 
5.744
 20 
2.9
 11 
5.744
 21 
2.762
 0 
LINE
 8 
0
 62 
 7 
 10 
5.883
 20 
2.195
 11 
5.871
 21 
2.207
 0 
LINE
 8 
0
 62 
 7 
 10 
5.871
 20 
2.207
 11 
5.848
 21 
2.207
 0 
LINE
 8 
0
 62 
 7 
 10 
5.848
 20 
2.207
 11 
5.836
 21 
2.195
 0 
LINE
 8 
0
 62 
 7 
 10 
5.836
 20 
2.195
 11 
5.836
 21 
2.149
 0 
LINE
 8 
0
 62 
 7 
 10 
5.836
 20 
2.149
 11 
5.848
 21 
2.137
 0 
LINE
 8 
0
 62 
 7 
 10 
5.848
 20 
2.137
 11 
5.883
 21 
2.137
 0 
LINE
 8 
0
 62 
 7 
 10 
5.883
 20 
2.137
 11 
5.883
 21 
2.16
 0 
LINE
 8 
0
 62 
 7 
 10 
5.883
 20 
2.16
 11 
5.871
 21 
2.16
 0 
LINE
 8 
0
 62 
 7 
 10 
5.598
 20 
2.099
 11 
5.598
 21 
2.247
 0 
LINE
 8 
0
 62 
 7 
 10 
5.598
 20 
2.247
 11 
5.943
 21 
2.247
 0 
LINE
 8 
0
 62 
 7 
 10 
5.943
 20 
2.247
 11 
5.943
 21 
2.099
 0 
LINE
 8 
0
 62 
 7 
 10 
5.618
 20 
2.237
 11 
5.618
 21 
2.109
 0 
LINE
 8 
0
 62 
 7 
 10 
5.766
 20 
2.109
 11 
5.765
 21 
2.244
 0 
LINE
 8 
0
 62 
 7 
 10 
5.766
 20 
2.227
 11 
5.628
 21 
2.227
 0 
LINE
 8 
0
 62 
 7 
 10 
5.656
 20 
2.204
 11 
5.656
 21 
2.192
 0 
LINE
 8 
0
 62 
 7 
 10 
5.656
 20 
2.192
 11 
5.679
 21 
2.169
 0 
LINE
 8 
0
 62 
 7 
 10 
5.679
 20 
2.169
 11 
5.703
 21 
2.192
 0 
LINE
 8 
0
 62 
 7 
 10 
5.703
 20 
2.192
 11 
5.703
 21 
2.204
 0 
LINE
 8 
0
 62 
 7 
 10 
5.679
 20 
2.134
 11 
5.679
 21 
2.169
 0 
LINE
 8 
0
 62 
 7 
 10 
5.756
 20 
2.227
 11 
5.756
 21 
2.119
 0 
LINE
 8 
0
 62 
 7 
 10 
5.746
 20 
2.237
 11 
5.746
 21 
2.099
 0 
LINE
 8 
0
 62 
 7 
 10 
5.608
 20 
2.109
 11 
5.766
 21 
2.109
 0 
CIRCLE
 8 
0
 62 
 7 
 10 
4.375
 20 
2.575
 40 
0.05
 0 
CIRCLE
 8 
0
 62 
 7 
 10 
4.375
 20 
2.575
 40 
0.023
 0 
CIRCLE
 8 
0
 62 
 7 
 10 
4.572
 20 
2.575
 40 
0.05
 0 
CIRCLE
 8 
0
 62 
 7 
 10 
4.572
 20 
2.575
 40 
0.023
 0 
CIRCLE
 8 
0
 62 
 7 
 10 
4.375
 20 
2.378
 40 
0.05
 0 
CIRCLE
 8 
0
 62 
 7 
 10 
4.375
 20 
2.378
 40 
0.023
 0 
CIRCLE
 8 
0
 62 
 7 
 10 
4.572
 20 
2.378
 40 
0.05
 0 
CIRCLE
 8 
0
 62 
 7 
 10 
4.572
 20 
2.378
 40 
0.023
 0 
LINE
 8 
0
 62 
 7 
 10 
4.292
 20 
2.756
 11 
4.292
 21 
2.256
 0 
LINE
 8 
0
 62 
 7 
 10 
4.655
 20 
2.756
 11 
4.655
 21 
2.256
 0 
LINE
 8 
0
 62 
 7 
 10 
4.292
 20 
2.756
 11 
4.655
 21 
2.756
 0 
LINE
 8 
0
 62 
 7 
 10 
4.292
 20 
2.256
 11 
4.655
 21 
2.256
 0 
LINE
 8 
0
 62 
 7 
 10 
4.302
 20 
2.097
 11 
4.643
 21 
2.097
 0 
LINE
 8 
0
 62 
 7 
 10 
4.581
 20 
2.858
 11 
4.569
 21 
2.87
 0 
LINE
 8 
0
 62 
 7 
 10 
4.569
 20 
2.87
 11 
4.546
 21 
2.87
 0 
LINE
 8 
0
 62 
 7 
 10 
4.546
 20 
2.87
 11 
4.534
 21 
2.858
 0 
LINE
 8 
0
 62 
 7 
 10 
4.534
 20 
2.858
 11 
4.534
 21 
2.812
 0 
LINE
 8 
0
 62 
 7 
 10 
4.534
 20 
2.812
 11 
4.546
 21 
2.8
 0 
LINE
 8 
0
 62 
 7 
 10 
4.546
 20 
2.8
 11 
4.581
 21 
2.8
 0 
LINE
 8 
0
 62 
 7 
 10 
4.581
 20 
2.8
 11 
4.581
 21 
2.823
 0 
LINE
 8 
0
 62 
 7 
 10 
4.581
 20 
2.823
 11 
4.569
 21 
2.823
 0 
LINE
 8 
0
 62 
 7 
 10 
4.296
 20 
2.762
 11 
4.296
 21 
2.91
 0 
LINE
 8 
0
 62 
 7 
 10 
4.296
 20 
2.91
 11 
4.641
 21 
2.91
 0 
LINE
 8 
0
 62 
 7 
 10 
4.641
 20 
2.91
 11 
4.641
 21 
2.762
 0 
LINE
 8 
0
 62 
 7 
 10 
4.316
 20 
2.9
 11 
4.316
 21 
2.772
 0 
LINE
 8 
0
 62 
 7 
 10 
4.306
 20 
2.772
 11 
4.464
 21 
2.772
 0 
LINE
 8 
0
 62 
 7 
 10 
4.464
 20 
2.772
 11 
4.463
 21 
2.907
 0 
LINE
 8 
0
 62 
 7 
 10 
4.464
 20 
2.89
 11 
4.326
 21 
2.89
 0 
LINE
 8 
0
 62 
 7 
 10 
4.354
 20 
2.867
 11 
4.354
 21 
2.855
 0 
LINE
 8 
0
 62 
 7 
 10 
4.354
 20 
2.855
 11 
4.377
 21 
2.832
 0 
LINE
 8 
0
 62 
 7 
 10 
4.377
 20 
2.832
 11 
4.401
 21 
2.855
 0 
LINE
 8 
0
 62 
 7 
 10 
4.401
 20 
2.855
 11 
4.401
 21 
2.867
 0 
LINE
 8 
0
 62 
 7 
 10 
4.377
 20 
2.797
 11 
4.377
 21 
2.832
 0 
LINE
 8 
0
 62 
 7 
 10 
4.454
 20 
2.89
 11 
4.454
 21 
2.782
 0 
LINE
 8 
0
 62 
 7 
 10 
4.444
 20 
2.9
 11 
4.444
 21 
2.762
 0 
LINE
 8 
0
 62 
 7 
 10 
4.583
 20 
2.195
 11 
4.571
 21 
2.207
 0 
LINE
 8 
0
 62 
 7 
 10 
4.571
 20 
2.207
 11 
4.548
 21 
2.207
 0 
LINE
 8 
0
 62 
 7 
 10 
4.548
 20 
2.207
 11 
4.536
 21 
2.195
 0 
LINE
 8 
0
 62 
 7 
 10 
4.536
 20 
2.195
 11 
4.536
 21 
2.149
 0 
LINE
 8 
0
 62 
 7 
 10 
4.536
 20 
2.149
 11 
4.548
 21 
2.137
 0 
LINE
 8 
0
 62 
 7 
 10 
4.548
 20 
2.137
 11 
4.583
 21 
2.137
 0 
LINE
 8 
0
 62 
 7 
 10 
4.583
 20 
2.137
 11 
4.583
 21 
2.16
 0 
LINE
 8 
0
 62 
 7 
 10 
4.583
 20 
2.16
 11 
4.571
 21 
2.16
 0 
LINE
 8 
0
 62 
 7 
 10 
4.298
 20 
2.099
 11 
4.298
 21 
2.247
 0 
LINE
 8 
0
 62 
 7 
 10 
4.298
 20 
2.247
 11 
4.643
 21 
2.247
 0 
LINE
 8 
0
 62 
 7 
 10 
4.643
 20 
2.247
 11 
4.643
 21 
2.099
 0 
LINE
 8 
0
 62 
 7 
 10 
4.318
 20 
2.237
 11 
4.318
 21 
2.109
 0 
LINE
 8 
0
 62 
 7 
 10 
4.466
 20 
2.109
 11 
4.465
 21 
2.244
 0 
LINE
 8 
0
 62 
 7 
 10 
4.466
 20 
2.227
 11 
4.328
 21 
2.227
 0 
LINE
 8 
0
 62 
 7 
 10 
4.356
 20 
2.204
 11 
4.356
 21 
2.192
 0 
LINE
 8 
0
 62 
 7 
 10 
4.356
 20 
2.192
 11 
4.379
 21 
2.169
 0 
LINE
 8 
0
 62 
 7 
 10 
4.379
 20 
2.169
 11 
4.403
 21 
2.192
 0 
LINE
 8 
0
 62 
 7 
 10 
4.403
 20 
2.192
 11 
4.403
 21 
2.204
 0 
LINE
 8 
0
 62 
 7 
 10 
4.379
 20 
2.134
 11 
4.379
 21 
2.169
 0 
LINE
 8 
0
 62 
 7 
 10 
4.456
 20 
2.227
 11 
4.456
 21 
2.119
 0 
LINE
 8 
0
 62 
 7 
 10 
4.446
 20 
2.237
 11 
4.446
 21 
2.099
 0 
LINE
 8 
0
 62 
 7 
 10 
4.308
 20 
2.109
 11 
4.466
 21 
2.109
 0 
CIRCLE
 8 
0
 62 
 7 
 10 
0.425
 20 
2.575
 40 
0.05
 0 
CIRCLE
 8 
0
 62 
 7 
 10 
0.425
 20 
2.575
 40 
0.023
 0 
CIRCLE
 8 
0
 62 
 7 
 10 
0.622
 20 
2.575
 40 
0.05
 0 
CIRCLE
 8 
0
 62 
 7 
 10 
0.622
 20 
2.575
 40 
0.023
 0 
CIRCLE
 8 
0
 62 
 7 
 10 
0.425
 20 
2.378
 40 
0.05
 0 
CIRCLE
 8 
0
 62 
 7 
 10 
0.425
 20 
2.378
 40 
0.023
 0 
CIRCLE
 8 
0
 62 
 7 
 10 
0.622
 20 
2.378
 40 
0.05
 0 
CIRCLE
 8 
0
 62 
 7 
 10 
0.622
 20 
2.378
 40 
0.023
 0 
LINE
 8 
0
 62 
 7 
 10 
0.342
 20 
2.756
 11 
0.342
 21 
2.256
 0 
LINE
 8 
0
 62 
 7 
 10 
0.705
 20 
2.756
 11 
0.705
 21 
2.256
 0 
LINE
 8 
0
 62 
 7 
 10 
0.342
 20 
2.756
 11 
0.705
 21 
2.756
 0 
LINE
 8 
0
 62 
 7 
 10 
0.342
 20 
2.256
 11 
0.705
 21 
2.256
 0 
LINE
 8 
0
 62 
 7 
 10 
0.352
 20 
2.097
 11 
0.693
 21 
2.097
 0 
LINE
 8 
0
 62 
 7 
 10 
0.631
 20 
2.858
 11 
0.619
 21 
2.87
 0 
LINE
 8 
0
 62 
 7 
 10 
0.619
 20 
2.87
 11 
0.596
 21 
2.87
 0 
LINE
 8 
0
 62 
 7 
 10 
0.596
 20 
2.87
 11 
0.584
 21 
2.858
 0 
LINE
 8 
0
 62 
 7 
 10 
0.584
 20 
2.858
 11 
0.584
 21 
2.812
 0 
LINE
 8 
0
 62 
 7 
 10 
0.584
 20 
2.812
 11 
0.596
 21 
2.8
 0 
LINE
 8 
0
 62 
 7 
 10 
0.596
 20 
2.8
 11 
0.631
 21 
2.8
 0 
LINE
 8 
0
 62 
 7 
 10 
0.631
 20 
2.8
 11 
0.631
 21 
2.823
 0 
LINE
 8 
0
 62 
 7 
 10 
0.631
 20 
2.823
 11 
0.619
 21 
2.823
 0 
LINE
 8 
0
 62 
 7 
 10 
0.346
 20 
2.762
 11 
0.346
 21 
2.91
 0 
LINE
 8 
0
 62 
 7 
 10 
0.346
 20 
2.91
 11 
0.691
 21 
2.91
 0 
LINE
 8 
0
 62 
 7 
 10 
0.691
 20 
2.91
 11 
0.691
 21 
2.762
 0 
LINE
 8 
0
 62 
 7 
 10 
0.366
 20 
2.9
 11 
0.366
 21 
2.772
 0 
LINE
 8 
0
 62 
 7 
 10 
0.356
 20 
2.772
 11 
0.514
 21 
2.772
 0 
LINE
 8 
0
 62 
 7 
 10 
0.514
 20 
2.772
 11 
0.513
 21 
2.907
 0 
LINE
 8 
0
 62 
 7 
 10 
0.514
 20 
2.89
 11 
0.376
 21 
2.89
 0 
LINE
 8 
0
 62 
 7 
 10 
0.404
 20 
2.867
 11 
0.404
 21 
2.855
 0 
LINE
 8 
0
 62 
 7 
 10 
0.404
 20 
2.855
 11 
0.427
 21 
2.832
 0 
LINE
 8 
0
 62 
 7 
 10 
0.427
 20 
2.832
 11 
0.451
 21 
2.855
 0 
LINE
 8 
0
 62 
 7 
 10 
0.451
 20 
2.855
 11 
0.451
 21 
2.867
 0 
LINE
 8 
0
 62 
 7 
 10 
0.427
 20 
2.797
 11 
0.427
 21 
2.832
 0 
LINE
 8 
0
 62 
 7 
 10 
0.504
 20 
2.89
 11 
0.504
 21 
2.782
 0 
LINE
 8 
0
 62 
 7 
 10 
0.494
 20 
2.9
 11 
0.494
 21 
2.762
 0 
LINE
 8 
0
 62 
 7 
 10 
0.633
 20 
2.195
 11 
0.621
 21 
2.207
 0 
LINE
 8 
0
 62 
 7 
 10 
0.621
 20 
2.207
 11 
0.598
 21 
2.207
 0 
LINE
 8 
0
 62 
 7 
 10 
0.598
 20 
2.207
 11 
0.586
 21 
2.195
 0 
LINE
 8 
0
 62 
 7 
 10 
0.586
 20 
2.195
 11 
0.586
 21 
2.149
 0 
LINE
 8 
0
 62 
 7 
 10 
0.586
 20 
2.149
 11 
0.598
 21 
2.137
 0 
LINE
 8 
0
 62 
 7 
 10 
0.598
 20 
2.137
 11 
0.633
 21 
2.137
 0 
LINE
 8 
0
 62 
 7 
 10 
0.633
 20 
2.137
 11 
0.633
 21 
2.16
 0 
LINE
 8 
0
 62 
 7 
 10 
0.633
 20 
2.16
 11 
0.621
 21 
2.16
 0 
LINE
 8 
0
 62 
 7 
 10 
0.348
 20 
2.099
 11 
0.348
 21 
2.247
 0 
LINE
 8 
0
 62 
 7 
 10 
0.348
 20 
2.247
 11 
0.693
 21 
2.247
 0 
LINE
 8 
0
 62 
 7 
 10 
0.693
 20 
2.247
 11 
0.693
 21 
2.099
 0 
LINE
 8 
0
 62 
 7 
 10 
0.368
 20 
2.237
 11 
0.368
 21 
2.109
 0 
LINE
 8 
0
 62 
 7 
 10 
0.516
 20 
2.109
 11 
0.515
 21 
2.244
 0 
LINE
 8 
0
 62 
 7 
 10 
0.516
 20 
2.227
 11 
0.378
 21 
2.227
 0 
LINE
 8 
0
 62 
 7 
 10 
0.406
 20 
2.204
 11 
0.406
 21 
2.192
 0 
LINE
 8 
0
 62 
 7 
 10 
0.406
 20 
2.192
 11 
0.429
 21 
2.169
 0 
LINE
 8 
0
 62 
 7 
 10 
0.429
 20 
2.169
 11 
0.453
 21 
2.192
 0 
LINE
 8 
0
 62 
 7 
 10 
0.453
 20 
2.192
 11 
0.453
 21 
2.204
 0 
LINE
 8 
0
 62 
 7 
 10 
0.429
 20 
2.134
 11 
0.429
 21 
2.169
 0 
LINE
 8 
0
 62 
 7 
 10 
0.506
 20 
2.227
 11 
0.506
 21 
2.119
 0 
LINE
 8 
0
 62 
 7 
 10 
0.496
 20 
2.237
 11 
0.496
 21 
2.099
 0 
LINE
 8 
0
 62 
 7 
 10 
0.358
 20 
2.109
 11 
0.516
 21 
2.109
 0 
CIRCLE
 8 
0
 62 
 7 
 10 
6.35
 20 
2.575
 40 
0.05
 0 
CIRCLE
 8 
0
 62 
 7 
 10 
6.35
 20 
2.575
 40 
0.023
 0 
CIRCLE
 8 
0
 62 
 7 
 10 
6.547
 20 
2.575
 40 
0.05
 0 
CIRCLE
 8 
0
 62 
 7 
 10 
6.547
 20 
2.575
 40 
0.023
 0 
CIRCLE
 8 
0
 62 
 7 
 10 
6.35
 20 
2.378
 40 
0.05
 0 
CIRCLE
 8 
0
 62 
 7 
 10 
6.35
 20 
2.378
 40 
0.023
 0 
CIRCLE
 8 
0
 62 
 7 
 10 
6.547
 20 
2.378
 40 
0.05
 0 
CIRCLE
 8 
0
 62 
 7 
 10 
6.547
 20 
2.378
 40 
0.023
 0 
LINE
 8 
0
 62 
 7 
 10 
6.267
 20 
2.756
 11 
6.267
 21 
2.256
 0 
LINE
 8 
0
 62 
 7 
 10 
6.63
 20 
2.756
 11 
6.63
 21 
2.256
 0 
LINE
 8 
0
 62 
 7 
 10 
6.267
 20 
2.756
 11 
6.63
 21 
2.756
 0 
LINE
 8 
0
 62 
 7 
 10 
6.267
 20 
2.256
 11 
6.63
 21 
2.256
 0 
LINE
 8 
0
 62 
 7 
 10 
6.277
 20 
2.097
 11 
6.618
 21 
2.097
 0 
LINE
 8 
0
 62 
 7 
 10 
6.556
 20 
2.858
 11 
6.544
 21 
2.87
 0 
LINE
 8 
0
 62 
 7 
 10 
6.544
 20 
2.87
 11 
6.521
 21 
2.87
 0 
LINE
 8 
0
 62 
 7 
 10 
6.521
 20 
2.87
 11 
6.509
 21 
2.858
 0 
LINE
 8 
0
 62 
 7 
 10 
6.509
 20 
2.858
 11 
6.509
 21 
2.812
 0 
LINE
 8 
0
 62 
 7 
 10 
6.509
 20 
2.812
 11 
6.521
 21 
2.8
 0 
LINE
 8 
0
 62 
 7 
 10 
6.521
 20 
2.8
 11 
6.556
 21 
2.8
 0 
LINE
 8 
0
 62 
 7 
 10 
6.556
 20 
2.8
 11 
6.556
 21 
2.823
 0 
LINE
 8 
0
 62 
 7 
 10 
6.556
 20 
2.823
 11 
6.544
 21 
2.823
 0 
LINE
 8 
0
 62 
 7 
 10 
6.271
 20 
2.762
 11 
6.271
 21 
2.91
 0 
LINE
 8 
0
 62 
 7 
 10 
6.271
 20 
2.91
 11 
6.616
 21 
2.91
 0 
LINE
 8 
0
 62 
 7 
 10 
6.616
 20 
2.91
 11 
6.616
 21 
2.762
 0 
LINE
 8 
0
 62 
 7 
 10 
6.291
 20 
2.9
 11 
6.291
 21 
2.772
 0 
LINE
 8 
0
 62 
 7 
 10 
6.281
 20 
2.772
 11 
6.439
 21 
2.772
 0 
LINE
 8 
0
 62 
 7 
 10 
6.439
 20 
2.772
 11 
6.438
 21 
2.907
 0 
LINE
 8 
0
 62 
 7 
 10 
6.439
 20 
2.89
 11 
6.301
 21 
2.89
 0 
LINE
 8 
0
 62 
 7 
 10 
6.329
 20 
2.867
 11 
6.329
 21 
2.855
 0 
LINE
 8 
0
 62 
 7 
 10 
6.329
 20 
2.855
 11 
6.352
 21 
2.832
 0 
LINE
 8 
0
 62 
 7 
 10 
6.352
 20 
2.832
 11 
6.376
 21 
2.855
 0 
LINE
 8 
0
 62 
 7 
 10 
6.376
 20 
2.855
 11 
6.376
 21 
2.867
 0 
LINE
 8 
0
 62 
 7 
 10 
6.352
 20 
2.797
 11 
6.352
 21 
2.832
 0 
LINE
 8 
0
 62 
 7 
 10 
6.429
 20 
2.89
 11 
6.429
 21 
2.782
 0 
LINE
 8 
0
 62 
 7 
 10 
6.419
 20 
2.9
 11 
6.419
 21 
2.762
 0 
LINE
 8 
0
 62 
 7 
 10 
6.558
 20 
2.195
 11 
6.546
 21 
2.207
 0 
LINE
 8 
0
 62 
 7 
 10 
6.546
 20 
2.207
 11 
6.523
 21 
2.207
 0 
LINE
 8 
0
 62 
 7 
 10 
6.523
 20 
2.207
 11 
6.511
 21 
2.195
 0 
LINE
 8 
0
 62 
 7 
 10 
6.511
 20 
2.195
 11 
6.511
 21 
2.149
 0 
LINE
 8 
0
 62 
 7 
 10 
6.511
 20 
2.149
 11 
6.523
 21 
2.137
 0 
LINE
 8 
0
 62 
 7 
 10 
6.523
 20 
2.137
 11 
6.558
 21 
2.137
 0 
LINE
 8 
0
 62 
 7 
 10 
6.558
 20 
2.137
 11 
6.558
 21 
2.16
 0 
LINE
 8 
0
 62 
 7 
 10 
6.558
 20 
2.16
 11 
6.546
 21 
2.16
 0 
LINE
 8 
0
 62 
 7 
 10 
6.273
 20 
2.099
 11 
6.273
 21 
2.247
 0 
LINE
 8 
0
 62 
 7 
 10 
6.273
 20 
2.247
 11 
6.618
 21 
2.247
 0 
LINE
 8 
0
 62 
 7 
 10 
6.618
 20 
2.247
 11 
6.618
 21 
2.099
 0 
LINE
 8 
0
 62 
 7 
 10 
6.293
 20 
2.237
 11 
6.293
 21 
2.109
 0 
LINE
 8 
0
 62 
 7 
 10 
6.441
 20 
2.109
 11 
6.44
 21 
2.244
 0 
LINE
 8 
0
 62 
 7 
 10 
6.441
 20 
2.227
 11 
6.303
 21 
2.227
 0 
LINE
 8 
0
 62 
 7 
 10 
6.331
 20 
2.204
 11 
6.331
 21 
2.192
 0 
LINE
 8 
0
 62 
 7 
 10 
6.331
 20 
2.192
 11 
6.354
 21 
2.169
 0 
LINE
 8 
0
 62 
 7 
 10 
6.354
 20 
2.169
 11 
6.378
 21 
2.192
 0 
LINE
 8 
0
 62 
 7 
 10 
6.378
 20 
2.192
 11 
6.378
 21 
2.204
 0 
LINE
 8 
0
 62 
 7 
 10 
6.354
 20 
2.134
 11 
6.354
 21 
2.169
 0 
LINE
 8 
0
 62 
 7 
 10 
6.431
 20 
2.227
 11 
6.431
 21 
2.119
 0 
LINE
 8 
0
 62 
 7 
 10 
6.421
 20 
2.237
 11 
6.421
 21 
2.099
 0 
LINE
 8 
0
 62 
 7 
 10 
6.283
 20 
2.109
 11 
6.441
 21 
2.109
 0 
CIRCLE
 8 
0
 62 
 7 
 10 
0.875
 20 
2.125
 40 
0.038
 0 
CIRCLE
 8 
0
 62 
 7 
 10 
0.875
 20 
2.125
 40 
0.02
 0 
CIRCLE
 8 
0
 62 
 7 
 10 
0.875
 20 
2.225
 40 
0.038
 0 
CIRCLE
 8 
0
 62 
 7 
 10 
0.875
 20 
2.225
 40 
0.02
 0 
CIRCLE
 8 
0
 62 
 7 
 10 
0.875
 20 
2.375
 40 
0.045
 0 
CIRCLE
 8 
0
 62 
 7 
 10 
0.875
 20 
2.375
 40 
0.022
 0 
CIRCLE
 8 
0
 62 
 7 
 10 
0.875
 20 
2.575
 40 
0.045
 0 
CIRCLE
 8 
0
 62 
 7 
 10 
0.875
 20 
2.575
 40 
0.022
 0 
CIRCLE
 8 
0
 62 
 7 
 10 
6.1
 20 
2.575
 40 
0.045
 0 
CIRCLE
 8 
0
 62 
 7 
 10 
6.1
 20 
2.575
 40 
0.022
 0 
CIRCLE
 8 
0
 62 
 7 
 10 
6.1
 20 
2.375
 40 
0.045
 0 
CIRCLE
 8 
0
 62 
 7 
 10 
6.1
 20 
2.375
 40 
0.022
 0 
CIRCLE
 8 
0
 62 
 7 
 10 
6.1
 20 
2.225
 40 
0.038
 0 
CIRCLE
 8 
0
 62 
 7 
 10 
6.1
 20 
2.225
 40 
0.02
 0 
CIRCLE
 8 
0
 62 
 7 
 10 
6.1
 20 
2.125
 40 
0.038
 0 
CIRCLE
 8 
0
 62 
 7 
 10 
6.1
 20 
2.125
 40 
0.02
 0 
CIRCLE
 8 
0
 62 
 7 
 10 
0.15
 20 
2.85
 40 
0.1
 0 
CIRCLE
 8 
0
 62 
 7 
 10 
0.15
 20 
2.85
 40 
0.075
 0 
CIRCLE
 8 
0
 62 
 7 
 10 
0.15
 20 
2.2
 40 
0.1
 0 
CIRCLE
 8 
0
 62 
 7 
 10 
0.15
 20 
2.2
 40 
0.075
 0 
LINE
 8 
0
 62 
 7 
 10 
0.85
 20 
2.65
 11 
0.85
 21 
2.697
 0 
LINE
 8 
0
 62 
 7 
 10 
0.85
 20 
2.673
 11 
0.92
 21 
2.673
 0 
LINE
 8 
0
 62 
 7 
 10 
0.897
 20 
2.72
 11 
0.897
 21 
2.767
 0 
LINE
 8 
0
 62 
 7 
 10 
0.897
 20 
2.767
 11 
0.885
 21 
2.767
 0 
LINE
 8 
0
 62 
 7 
 10 
0.885
 20 
2.767
 11 
0.873
 21 
2.755
 0 
LINE
 8 
0
 62 
 7 
 10 
0.873
 20 
2.755
 11 
0.873
 21 
2.732
 0 
LINE
 8 
0
 62 
 7 
 10 
0.873
 20 
2.732
 11 
0.885
 21 
2.72
 0 
LINE
 8 
0
 62 
 7 
 10 
0.885
 20 
2.72
 11 
0.908
 21 
2.72
 0 
LINE
 8 
0
 62 
 7 
 10 
0.908
 20 
2.72
 11 
0.92
 21 
2.732
 0 
LINE
 8 
0
 62 
 7 
 10 
0.92
 20 
2.732
 11 
0.92
 21 
2.755
 0 
LINE
 8 
0
 62 
 7 
 10 
0.873
 20 
2.79
 11 
0.92
 21 
2.79
 0 
LINE
 8 
0
 62 
 7 
 10 
0.897
 20 
2.79
 11 
0.873
 21 
2.813
 0 
LINE
 8 
0
 62 
 7 
 10 
0.873
 20 
2.813
 11 
0.873
 21 
2.825
 0 
LINE
 8 
0
 62 
 7 
 10 
0.873
 20 
2.825
 11 
0.885
 21 
2.837
 0 
LINE
 8 
0
 62 
 7 
 10 
0.873
 20 
2.86
 11 
0.92
 21 
2.86
 0 
LINE
 8 
0
 62 
 7 
 10 
0.885
 20 
2.86
 11 
0.873
 21 
2.872
 0 
LINE
 8 
0
 62 
 7 
 10 
0.873
 20 
2.872
 11 
0.885
 21 
2.883
 0 
LINE
 8 
0
 62 
 7 
 10 
0.885
 20 
2.883
 11 
0.92
 21 
2.883
 0 
LINE
 8 
0
 62 
 7 
 10 
0.885
 20 
2.883
 11 
0.873
 21 
2.895
 0 
LINE
 8 
0
 62 
 7 
 10 
0.873
 20 
2.895
 11 
0.885
 21 
2.907
 0 
LINE
 8 
0
 62 
 7 
 10 
0.885
 20 
2.907
 11 
0.92
 21 
2.907
 0 
LINE
 8 
0
 62 
 7 
 10 
6.075
 20 
2.65
 11 
6.075
 21 
2.697
 0 
LINE
 8 
0
 62 
 7 
 10 
6.075
 20 
2.673
 11 
6.145
 21 
2.673
 0 
LINE
 8 
0
 62 
 7 
 10 
6.122
 20 
2.72
 11 
6.122
 21 
2.767
 0 
LINE
 8 
0
 62 
 7 
 10 
6.122
 20 
2.767
 11 
6.11
 21 
2.767
 0 
LINE
 8 
0
 62 
 7 
 10 
6.11
 20 
2.767
 11 
6.098
 21 
2.755
 0 
LINE
 8 
0
 62 
 7 
 10 
6.098
 20 
2.755
 11 
6.098
 21 
2.732
 0 
LINE
 8 
0
 62 
 7 
 10 
6.098
 20 
2.732
 11 
6.11
 21 
2.72
 0 
LINE
 8 
0
 62 
 7 
 10 
6.11
 20 
2.72
 11 
6.133
 21 
2.72
 0 
LINE
 8 
0
 62 
 7 
 10 
6.133
 20 
2.72
 11 
6.145
 21 
2.732
 0 
LINE
 8 
0
 62 
 7 
 10 
6.145
 20 
2.732
 11 
6.145
 21 
2.755
 0 
LINE
 8 
0
 62 
 7 
 10 
6.098
 20 
2.79
 11 
6.145
 21 
2.79
 0 
LINE
 8 
0
 62 
 7 
 10 
6.122
 20 
2.79
 11 
6.098
 21 
2.813
 0 
LINE
 8 
0
 62 
 7 
 10 
6.098
 20 
2.813
 11 
6.098
 21 
2.825
 0 
LINE
 8 
0
 62 
 7 
 10 
6.098
 20 
2.825
 11 
6.11
 21 
2.837
 0 
LINE
 8 
0
 62 
 7 
 10 
6.098
 20 
2.86
 11 
6.145
 21 
2.86
 0 
LINE
 8 
0
 62 
 7 
 10 
6.11
 20 
2.86
 11 
6.098
 21 
2.872
 0 
LINE
 8 
0
 62 
 7 
 10 
6.098
 20 
2.872
 11 
6.11
 21 
2.883
 0 
LINE
 8 
0
 62 
 7 
 10 
6.11
 20 
2.883
 11 
6.145
 21 
2.883
 0 
LINE
 8 
0
 62 
 7 
 10 
6.11
 20 
2.883
 11 
6.098
 21 
2.895
 0 
LINE
 8 
0
 62 
 7 
 10 
6.098
 20 
2.895
 11 
6.11
 21 
2.907
 0 
LINE
 8 
0
 62 
 7 
 10 
6.11
 20 
2.907
 11 
6.145
 21 
2.907
 0 
CIRCLE
 8 
0
 62 
 7 
 10 
6.825
 20 
2.85
 40 
0.1
 0 
CIRCLE
 8 
0
 62 
 7 
 10 
6.825
 20 
2.85
 40 
0.075
 0 
CIRCLE
 8 
0
 62 
 7 
 10 
6.825
 20 
2.2
 40 
0.1
 0 
CIRCLE
 8 
0
 62 
 7 
 10 
6.825
 20 
2.2
 40 
0.075
 0 
CIRCLE
 8 
0
 62 
 7 
 10 
2.85
 20 
2.825
 40 
0.1
 0 
CIRCLE
 8 
0
 62 
 7 
 10 
2.85
 20 
2.825
 40 
0.075
 0 
CIRCLE
 8 
0
 62 
 7 
 10 
2.85
 20 
2.175
 40 
0.1
 0 
CIRCLE
 8 
0
 62 
 7 
 10 
2.85
 20 
2.175
 40 
0.075
 0 
CIRCLE
 8 
0
 62 
 7 
 10 
4.15
 20 
2.825
 40 
0.1
 0 
CIRCLE
 8 
0
 62 
 7 
 10 
4.15
 20 
2.825
 40 
0.075
 0 
CIRCLE
 8 
0
 62 
 7 
 10 
4.15
 20 
2.175
 40 
0.1
 0 
CIRCLE
 8 
0
 62 
 7 
 10 
4.15
 20 
2.175
 40 
0.075
 0 
CIRCLE
 8 
0
 62 
 7 
 10 
1.125
 20 
1.575
 40 
0.05
 0 
CIRCLE
 8 
0
 62 
 7 
 10 
1.125
 20 
1.575
 40 
0.023
 0 
CIRCLE
 8 
0
 62 
 7 
 10 
1.322
 20 
1.575
 40 
0.05
 0 
CIRCLE
 8 
0
 62 
 7 
 10 
1.322
 20 
1.575
 40 
0.023
 0 
CIRCLE
 8 
0
 62 
 7 
 10 
1.125
 20 
1.378
 40 
0.05
 0 
CIRCLE
 8 
0
 62 
 7 
 10 
1.125
 20 
1.378
 40 
0.023
 0 
CIRCLE
 8 
0
 62 
 7 
 10 
1.322
 20 
1.378
 40 
0.05
 0 
CIRCLE
 8 
0
 62 
 7 
 10 
1.322
 20 
1.378
 40 
0.023
 0 
CIRCLE
 8 
0
 62 
 7 
 10 
1.775
 20 
1.575
 40 
0.05
 0 
CIRCLE
 8 
0
 62 
 7 
 10 
1.775
 20 
1.575
 40 
0.023
 0 
CIRCLE
 8 
0
 62 
 7 
 10 
1.972
 20 
1.575
 40 
0.05
 0 
CIRCLE
 8 
0
 62 
 7 
 10 
1.972
 20 
1.575
 40 
0.023
 0 
CIRCLE
 8 
0
 62 
 7 
 10 
1.775
 20 
1.378
 40 
0.05
 0 
CIRCLE
 8 
0
 62 
 7 
 10 
1.775
 20 
1.378
 40 
0.023
 0 
CIRCLE
 8 
0
 62 
 7 
 10 
1.972
 20 
1.378
 40 
0.05
 0 
CIRCLE
 8 
0
 62 
 7 
 10 
1.972
 20 
1.378
 40 
0.023
 0 
CIRCLE
 8 
0
 62 
 7 
 10 
2.425
 20 
1.575
 40 
0.05
 0 
CIRCLE
 8 
0
 62 
 7 
 10 
2.425
 20 
1.575
 40 
0.023
 0 
CIRCLE
 8 
0
 62 
 7 
 10 
2.622
 20 
1.575
 40 
0.05
 0 
CIRCLE
 8 
0
 62 
 7 
 10 
2.622
 20 
1.575
 40 
0.023
 0 
CIRCLE
 8 
0
 62 
 7 
 10 
2.425
 20 
1.378
 40 
0.05
 0 
CIRCLE
 8 
0
 62 
 7 
 10 
2.425
 20 
1.378
 40 
0.023
 0 
CIRCLE
 8 
0
 62 
 7 
 10 
2.622
 20 
1.378
 40 
0.05
 0 
CIRCLE
 8 
0
 62 
 7 
 10 
2.622
 20 
1.378
 40 
0.023
 0 
CIRCLE
 8 
0
 62 
 7 
 10 
3.725
 20 
1.575
 40 
0.05
 0 
CIRCLE
 8 
0
 62 
 7 
 10 
3.725
 20 
1.575
 40 
0.023
 0 
CIRCLE
 8 
0
 62 
 7 
 10 
3.922
 20 
1.575
 40 
0.05
 0 
CIRCLE
 8 
0
 62 
 7 
 10 
3.922
 20 
1.575
 40 
0.023
 0 
CIRCLE
 8 
0
 62 
 7 
 10 
3.725
 20 
1.378
 40 
0.05
 0 
CIRCLE
 8 
0
 62 
 7 
 10 
3.725
 20 
1.378
 40 
0.023
 0 
CIRCLE
 8 
0
 62 
 7 
 10 
3.922
 20 
1.378
 40 
0.05
 0 
CIRCLE
 8 
0
 62 
 7 
 10 
3.922
 20 
1.378
 40 
0.023
 0 
CIRCLE
 8 
0
 62 
 7 
 10 
3.075
 20 
1.575
 40 
0.05
 0 
CIRCLE
 8 
0
 62 
 7 
 10 
3.075
 20 
1.575
 40 
0.023
 0 
CIRCLE
 8 
0
 62 
 7 
 10 
3.272
 20 
1.575
 40 
0.05
 0 
CIRCLE
 8 
0
 62 
 7 
 10 
3.272
 20 
1.575
 40 
0.023
 0 
CIRCLE
 8 
0
 62 
 7 
 10 
3.075
 20 
1.378
 40 
0.05
 0 
CIRCLE
 8 
0
 62 
 7 
 10 
3.075
 20 
1.378
 40 
0.023
 0 
CIRCLE
 8 
0
 62 
 7 
 10 
3.272
 20 
1.378
 40 
0.05
 0 
CIRCLE
 8 
0
 62 
 7 
 10 
3.272
 20 
1.378
 40 
0.023
 0 
CIRCLE
 8 
0
 62 
 7 
 10 
5.025
 20 
1.575
 40 
0.05
 0 
CIRCLE
 8 
0
 62 
 7 
 10 
5.025
 20 
1.575
 40 
0.023
 0 
CIRCLE
 8 
0
 62 
 7 
 10 
5.222
 20 
1.575
 40 
0.05
 0 
CIRCLE
 8 
0
 62 
 7 
 10 
5.222
 20 
1.575
 40 
0.023
 0 
CIRCLE
 8 
0
 62 
 7 
 10 
5.025
 20 
1.378
 40 
0.05
 0 
CIRCLE
 8 
0
 62 
 7 
 10 
5.025
 20 
1.378
 40 
0.023
 0 
CIRCLE
 8 
0
 62 
 7 
 10 
5.222
 20 
1.378
 40 
0.05
 0 
CIRCLE
 8 
0
 62 
 7 
 10 
5.222
 20 
1.378
 40 
0.023
 0 
CIRCLE
 8 
0
 62 
 7 
 10 
5.675
 20 
1.575
 40 
0.05
 0 
CIRCLE
 8 
0
 62 
 7 
 10 
5.675
 20 
1.575
 40 
0.023
 0 
CIRCLE
 8 
0
 62 
 7 
 10 
5.872
 20 
1.575
 40 
0.05
 0 
CIRCLE
 8 
0
 62 
 7 
 10 
5.872
 20 
1.575
 40 
0.023
 0 
CIRCLE
 8 
0
 62 
 7 
 10 
5.675
 20 
1.378
 40 
0.05
 0 
CIRCLE
 8 
0
 62 
 7 
 10 
5.675
 20 
1.378
 40 
0.023
 0 
CIRCLE
 8 
0
 62 
 7 
 10 
5.872
 20 
1.378
 40 
0.05
 0 
CIRCLE
 8 
0
 62 
 7 
 10 
5.872
 20 
1.378
 40 
0.023
 0 
CIRCLE
 8 
0
 62 
 7 
 10 
4.375
 20 
1.575
 40 
0.05
 0 
CIRCLE
 8 
0
 62 
 7 
 10 
4.375
 20 
1.575
 40 
0.023
 0 
CIRCLE
 8 
0
 62 
 7 
 10 
4.572
 20 
1.575
 40 
0.05
 0 
CIRCLE
 8 
0
 62 
 7 
 10 
4.572
 20 
1.575
 40 
0.023
 0 
CIRCLE
 8 
0
 62 
 7 
 10 
4.375
 20 
1.378
 40 
0.05
 0 
CIRCLE
 8 
0
 62 
 7 
 10 
4.375
 20 
1.378
 40 
0.023
 0 
CIRCLE
 8 
0
 62 
 7 
 10 
4.572
 20 
1.378
 40 
0.05
 0 
CIRCLE
 8 
0
 62 
 7 
 10 
4.572
 20 
1.378
 40 
0.023
 0 
CIRCLE
 8 
0
 62 
 7 
 10 
0.425
 20 
1.575
 40 
0.05
 0 
CIRCLE
 8 
0
 62 
 7 
 10 
0.425
 20 
1.575
 40 
0.023
 0 
CIRCLE
 8 
0
 62 
 7 
 10 
0.622
 20 
1.575
 40 
0.05
 0 
CIRCLE
 8 
0
 62 
 7 
 10 
0.622
 20 
1.575
 40 
0.023
 0 
CIRCLE
 8 
0
 62 
 7 
 10 
0.425
 20 
1.378
 40 
0.05
 0 
CIRCLE
 8 
0
 62 
 7 
 10 
0.425
 20 
1.378
 40 
0.023
 0 
CIRCLE
 8 
0
 62 
 7 
 10 
0.622
 20 
1.378
 40 
0.05
 0 
CIRCLE
 8 
0
 62 
 7 
 10 
0.622
 20 
1.378
 40 
0.023
 0 
CIRCLE
 8 
0
 62 
 7 
 10 
6.35
 20 
1.575
 40 
0.05
 0 
CIRCLE
 8 
0
 62 
 7 
 10 
6.35
 20 
1.575
 40 
0.023
 0 
CIRCLE
 8 
0
 62 
 7 
 10 
6.547
 20 
1.575
 40 
0.05
 0 
CIRCLE
 8 
0
 62 
 7 
 10 
6.547
 20 
1.575
 40 
0.023
 0 
CIRCLE
 8 
0
 62 
 7 
 10 
6.35
 20 
1.378
 40 
0.05
 0 
CIRCLE
 8 
0
 62 
 7 
 10 
6.35
 20 
1.378
 40 
0.023
 0 
CIRCLE
 8 
0
 62 
 7 
 10 
6.547
 20 
1.378
 40 
0.05
 0 
CIRCLE
 8 
0
 62 
 7 
 10 
6.547
 20 
1.378
 40 
0.023
 0 
CIRCLE
 8 
0
 62 
 7 
 10 
0.875
 20 
1.125
 40 
0.038
 0 
CIRCLE
 8 
0
 62 
 7 
 10 
0.875
 20 
1.125
 40 
0.02
 0 
CIRCLE
 8 
0
 62 
 7 
 10 
0.875
 20 
1.225
 40 
0.038
 0 
CIRCLE
 8 
0
 62 
 7 
 10 
0.875
 20 
1.225
 40 
0.02
 0 
CIRCLE
 8 
0
 62 
 7 
 10 
0.875
 20 
1.375
 40 
0.045
 0 
CIRCLE
 8 
0
 62 
 7 
 10 
0.875
 20 
1.375
 40 
0.022
 0 
CIRCLE
 8 
0
 62 
 7 
 10 
0.875
 20 
1.575
 40 
0.045
 0 
CIRCLE
 8 
0
 62 
 7 
 10 
0.875
 20 
1.575
 40 
0.022
 0 
CIRCLE
 8 
0
 62 
 7 
 10 
6.1
 20 
1.575
 40 
0.045
 0 
CIRCLE
 8 
0
 62 
 7 
 10 
6.1
 20 
1.575
 40 
0.022
 0 
CIRCLE
 8 
0
 62 
 7 
 10 
6.1
 20 
1.375
 40 
0.045
 0 
CIRCLE
 8 
0
 62 
 7 
 10 
6.1
 20 
1.375
 40 
0.022
 0 
CIRCLE
 8 
0
 62 
 7 
 10 
6.1
 20 
1.225
 40 
0.038
 0 
CIRCLE
 8 
0
 62 
 7 
 10 
6.1
 20 
1.225
 40 
0.02
 0 
CIRCLE
 8 
0
 62 
 7 
 10 
6.1
 20 
1.125
 40 
0.038
 0 
CIRCLE
 8 
0
 62 
 7 
 10 
6.1
 20 
1.125
 40 
0.02
 0 
CIRCLE
 8 
0
 62 
 7 
 10 
0.15
 20 
1.825
 40 
0.1
 0 
CIRCLE
 8 
0
 62 
 7 
 10 
0.15
 20 
1.825
 40 
0.075
 0 
CIRCLE
 8 
0
 62 
 7 
 10 
0.15
 20 
1.175
 40 
0.1
 0 
CIRCLE
 8 
0
 62 
 7 
 10 
0.15
 20 
1.175
 40 
0.075
 0 
CIRCLE
 8 
0
 62 
 7 
 10 
6.825
 20 
1.825
 40 
0.1
 0 
CIRCLE
 8 
0
 62 
 7 
 10 
6.825
 20 
1.825
 40 
0.075
 0 
CIRCLE
 8 
0
 62 
 7 
 10 
6.825
 20 
1.175
 40 
0.1
 0 
CIRCLE
 8 
0
 62 
 7 
 10 
6.825
 20 
1.175
 40 
0.075
 0 
CIRCLE
 8 
0
 62 
 7 
 10 
2.85
 20 
1.825
 40 
0.1
 0 
CIRCLE
 8 
0
 62 
 7 
 10 
2.85
 20 
1.825
 40 
0.075
 0 
CIRCLE
 8 
0
 62 
 7 
 10 
2.85
 20 
1.175
 40 
0.1
 0 
CIRCLE
 8 
0
 62 
 7 
 10 
2.85
 20 
1.175
 40 
0.075
 0 
CIRCLE
 8 
0
 62 
 7 
 10 
4.15
 20 
1.825
 40 
0.1
 0 
CIRCLE
 8 
0
 62 
 7 
 10 
4.15
 20 
1.825
 40 
0.075
 0 
CIRCLE
 8 
0
 62 
 7 
 10 
4.15
 20 
1.175
 40 
0.1
 0 
CIRCLE
 8 
0
 62 
 7 
 10 
4.15
 20 
1.175
 40 
0.075
 0 
LINE
 8 
0
 62 
 7 
 10 
1.042
 20 
1.756
 11 
1.042
 21 
1.256
 0 
LINE
 8 
0
 62 
 7 
 10 
1.405
 20 
1.756
 11 
1.405
 21 
1.256
 0 
LINE
 8 
0
 62 
 7 
 10 
1.042
 20 
1.756
 11 
1.405
 21 
1.756
 0 
LINE
 8 
0
 62 
 7 
 10 
1.042
 20 
1.256
 11 
1.405
 21 
1.256
 0 
LINE
 8 
0
 62 
 7 
 10 
1.052
 20 
1.097
 11 
1.393
 21 
1.097
 0 
LINE
 8 
0
 62 
 7 
 10 
1.331
 20 
1.858
 11 
1.319
 21 
1.87
 0 
LINE
 8 
0
 62 
 7 
 10 
1.319
 20 
1.87
 11 
1.296
 21 
1.87
 0 
LINE
 8 
0
 62 
 7 
 10 
1.296
 20 
1.87
 11 
1.284
 21 
1.858
 0 
LINE
 8 
0
 62 
 7 
 10 
1.284
 20 
1.858
 11 
1.284
 21 
1.812
 0 
LINE
 8 
0
 62 
 7 
 10 
1.284
 20 
1.812
 11 
1.296
 21 
1.8
 0 
LINE
 8 
0
 62 
 7 
 10 
1.296
 20 
1.8
 11 
1.331
 21 
1.8
 0 
LINE
 8 
0
 62 
 7 
 10 
1.331
 20 
1.8
 11 
1.331
 21 
1.823
 0 
LINE
 8 
0
 62 
 7 
 10 
1.331
 20 
1.823
 11 
1.319
 21 
1.823
 0 
LINE
 8 
0
 62 
 7 
 10 
1.046
 20 
1.762
 11 
1.046
 21 
1.91
 0 
LINE
 8 
0
 62 
 7 
 10 
1.046
 20 
1.91
 11 
1.391
 21 
1.91
 0 
LINE
 8 
0
 62 
 7 
 10 
1.391
 20 
1.91
 11 
1.391
 21 
1.762
 0 
LINE
 8 
0
 62 
 7 
 10 
1.066
 20 
1.9
 11 
1.066
 21 
1.772
 0 
LINE
 8 
0
 62 
 7 
 10 
1.056
 20 
1.772
 11 
1.214
 21 
1.772
 0 
LINE
 8 
0
 62 
 7 
 10 
1.214
 20 
1.772
 11 
1.213
 21 
1.907
 0 
LINE
 8 
0
 62 
 7 
 10 
1.214
 20 
1.89
 11 
1.076
 21 
1.89
 0 
LINE
 8 
0
 62 
 7 
 10 
1.104
 20 
1.867
 11 
1.104
 21 
1.855
 0 
LINE
 8 
0
 62 
 7 
 10 
1.104
 20 
1.855
 11 
1.127
 21 
1.832
 0 
LINE
 8 
0
 62 
 7 
 10 
1.127
 20 
1.832
 11 
1.151
 21 
1.855
 0 
LINE
 8 
0
 62 
 7 
 10 
1.151
 20 
1.855
 11 
1.151
 21 
1.867
 0 
LINE
 8 
0
 62 
 7 
 10 
1.127
 20 
1.797
 11 
1.127
 21 
1.832
 0 
LINE
 8 
0
 62 
 7 
 10 
1.204
 20 
1.89
 11 
1.204
 21 
1.782
 0 
LINE
 8 
0
 62 
 7 
 10 
1.194
 20 
1.9
 11 
1.194
 21 
1.762
 0 
LINE
 8 
0
 62 
 7 
 10 
1.333
 20 
1.195
 11 
1.321
 21 
1.207
 0 
LINE
 8 
0
 62 
 7 
 10 
1.321
 20 
1.207
 11 
1.298
 21 
1.207
 0 
LINE
 8 
0
 62 
 7 
 10 
1.298
 20 
1.207
 11 
1.286
 21 
1.195
 0 
LINE
 8 
0
 62 
 7 
 10 
1.286
 20 
1.195
 11 
1.286
 21 
1.149
 0 
LINE
 8 
0
 62 
 7 
 10 
1.286
 20 
1.149
 11 
1.298
 21 
1.137
 0 
LINE
 8 
0
 62 
 7 
 10 
1.298
 20 
1.137
 11 
1.333
 21 
1.137
 0 
LINE
 8 
0
 62 
 7 
 10 
1.333
 20 
1.137
 11 
1.333
 21 
1.16
 0 
LINE
 8 
0
 62 
 7 
 10 
1.333
 20 
1.16
 11 
1.321
 21 
1.16
 0 
LINE
 8 
0
 62 
 7 
 10 
1.048
 20 
1.099
 11 
1.048
 21 
1.247
 0 
LINE
 8 
0
 62 
 7 
 10 
1.048
 20 
1.247
 11 
1.393
 21 
1.247
 0 
LINE
 8 
0
 62 
 7 
 10 
1.393
 20 
1.247
 11 
1.393
 21 
1.099
 0 
LINE
 8 
0
 62 
 7 
 10 
1.068
 20 
1.237
 11 
1.068
 21 
1.109
 0 
LINE
 8 
0
 62 
 7 
 10 
1.216
 20 
1.109
 11 
1.215
 21 
1.244
 0 
LINE
 8 
0
 62 
 7 
 10 
1.216
 20 
1.227
 11 
1.078
 21 
1.227
 0 
LINE
 8 
0
 62 
 7 
 10 
1.106
 20 
1.204
 11 
1.106
 21 
1.192
 0 
LINE
 8 
0
 62 
 7 
 10 
1.106
 20 
1.192
 11 
1.129
 21 
1.169
 0 
LINE
 8 
0
 62 
 7 
 10 
1.129
 20 
1.169
 11 
1.153
 21 
1.192
 0 
LINE
 8 
0
 62 
 7 
 10 
1.153
 20 
1.192
 11 
1.153
 21 
1.204
 0 
LINE
 8 
0
 62 
 7 
 10 
1.129
 20 
1.134
 11 
1.129
 21 
1.169
 0 
LINE
 8 
0
 62 
 7 
 10 
1.206
 20 
1.227
 11 
1.206
 21 
1.119
 0 
LINE
 8 
0
 62 
 7 
 10 
1.196
 20 
1.237
 11 
1.196
 21 
1.099
 0 
LINE
 8 
0
 62 
 7 
 10 
1.058
 20 
1.109
 11 
1.216
 21 
1.109
 0 
LINE
 8 
0
 62 
 7 
 10 
1.692
 20 
1.756
 11 
1.692
 21 
1.256
 0 
LINE
 8 
0
 62 
 7 
 10 
2.055
 20 
1.756
 11 
2.055
 21 
1.256
 0 
LINE
 8 
0
 62 
 7 
 10 
1.692
 20 
1.756
 11 
2.055
 21 
1.756
 0 
LINE
 8 
0
 62 
 7 
 10 
1.692
 20 
1.256
 11 
2.055
 21 
1.256
 0 
LINE
 8 
0
 62 
 7 
 10 
1.702
 20 
1.097
 11 
2.043
 21 
1.097
 0 
LINE
 8 
0
 62 
 7 
 10 
1.981
 20 
1.858
 11 
1.969
 21 
1.87
 0 
LINE
 8 
0
 62 
 7 
 10 
1.969
 20 
1.87
 11 
1.946
 21 
1.87
 0 
LINE
 8 
0
 62 
 7 
 10 
1.946
 20 
1.87
 11 
1.934
 21 
1.858
 0 
LINE
 8 
0
 62 
 7 
 10 
1.934
 20 
1.858
 11 
1.934
 21 
1.812
 0 
LINE
 8 
0
 62 
 7 
 10 
1.934
 20 
1.812
 11 
1.946
 21 
1.8
 0 
LINE
 8 
0
 62 
 7 
 10 
1.946
 20 
1.8
 11 
1.981
 21 
1.8
 0 
LINE
 8 
0
 62 
 7 
 10 
1.981
 20 
1.8
 11 
1.981
 21 
1.823
 0 
LINE
 8 
0
 62 
 7 
 10 
1.981
 20 
1.823
 11 
1.969
 21 
1.823
 0 
LINE
 8 
0
 62 
 7 
 10 
1.696
 20 
1.762
 11 
1.696
 21 
1.91
 0 
LINE
 8 
0
 62 
 7 
 10 
1.696
 20 
1.91
 11 
2.041
 21 
1.91
 0 
LINE
 8 
0
 62 
 7 
 10 
2.041
 20 
1.91
 11 
2.041
 21 
1.762
 0 
LINE
 8 
0
 62 
 7 
 10 
1.716
 20 
1.9
 11 
1.716
 21 
1.772
 0 
LINE
 8 
0
 62 
 7 
 10 
1.706
 20 
1.772
 11 
1.864
 21 
1.772
 0 
LINE
 8 
0
 62 
 7 
 10 
1.864
 20 
1.772
 11 
1.863
 21 
1.907
 0 
LINE
 8 
0
 62 
 7 
 10 
1.864
 20 
1.89
 11 
1.726
 21 
1.89
 0 
LINE
 8 
0
 62 
 7 
 10 
1.754
 20 
1.867
 11 
1.754
 21 
1.855
 0 
LINE
 8 
0
 62 
 7 
 10 
1.754
 20 
1.855
 11 
1.777
 21 
1.832
 0 
LINE
 8 
0
 62 
 7 
 10 
1.777
 20 
1.832
 11 
1.801
 21 
1.855
 0 
LINE
 8 
0
 62 
 7 
 10 
1.801
 20 
1.855
 11 
1.801
 21 
1.867
 0 
LINE
 8 
0
 62 
 7 
 10 
1.777
 20 
1.797
 11 
1.777
 21 
1.832
 0 
LINE
 8 
0
 62 
 7 
 10 
1.854
 20 
1.89
 11 
1.854
 21 
1.782
 0 
LINE
 8 
0
 62 
 7 
 10 
1.844
 20 
1.9
 11 
1.844
 21 
1.762
 0 
LINE
 8 
0
 62 
 7 
 10 
1.983
 20 
1.195
 11 
1.971
 21 
1.207
 0 
LINE
 8 
0
 62 
 7 
 10 
1.971
 20 
1.207
 11 
1.948
 21 
1.207
 0 
LINE
 8 
0
 62 
 7 
 10 
1.948
 20 
1.207
 11 
1.936
 21 
1.195
 0 
LINE
 8 
0
 62 
 7 
 10 
1.936
 20 
1.195
 11 
1.936
 21 
1.149
 0 
LINE
 8 
0
 62 
 7 
 10 
1.936
 20 
1.149
 11 
1.948
 21 
1.137
 0 
LINE
 8 
0
 62 
 7 
 10 
1.948
 20 
1.137
 11 
1.983
 21 
1.137
 0 
LINE
 8 
0
 62 
 7 
 10 
1.983
 20 
1.137
 11 
1.983
 21 
1.16
 0 
LINE
 8 
0
 62 
 7 
 10 
1.983
 20 
1.16
 11 
1.971
 21 
1.16
 0 
LINE
 8 
0
 62 
 7 
 10 
1.698
 20 
1.099
 11 
1.698
 21 
1.247
 0 
LINE
 8 
0
 62 
 7 
 10 
1.698
 20 
1.247
 11 
2.043
 21 
1.247
 0 
LINE
 8 
0
 62 
 7 
 10 
2.043
 20 
1.247
 11 
2.043
 21 
1.099
 0 
LINE
 8 
0
 62 
 7 
 10 
1.718
 20 
1.237
 11 
1.718
 21 
1.109
 0 
LINE
 8 
0
 62 
 7 
 10 
1.866
 20 
1.109
 11 
1.865
 21 
1.244
 0 
LINE
 8 
0
 62 
 7 
 10 
1.866
 20 
1.227
 11 
1.728
 21 
1.227
 0 
LINE
 8 
0
 62 
 7 
 10 
1.756
 20 
1.204
 11 
1.756
 21 
1.192
 0 
LINE
 8 
0
 62 
 7 
 10 
1.756
 20 
1.192
 11 
1.779
 21 
1.169
 0 
LINE
 8 
0
 62 
 7 
 10 
1.779
 20 
1.169
 11 
1.803
 21 
1.192
 0 
LINE
 8 
0
 62 
 7 
 10 
1.803
 20 
1.192
 11 
1.803
 21 
1.204
 0 
LINE
 8 
0
 62 
 7 
 10 
1.779
 20 
1.134
 11 
1.779
 21 
1.169
 0 
LINE
 8 
0
 62 
 7 
 10 
1.856
 20 
1.227
 11 
1.856
 21 
1.119
 0 
LINE
 8 
0
 62 
 7 
 10 
1.846
 20 
1.237
 11 
1.846
 21 
1.099
 0 
LINE
 8 
0
 62 
 7 
 10 
1.708
 20 
1.109
 11 
1.866
 21 
1.109
 0 
LINE
 8 
0
 62 
 7 
 10 
2.342
 20 
1.756
 11 
2.342
 21 
1.256
 0 
LINE
 8 
0
 62 
 7 
 10 
2.705
 20 
1.756
 11 
2.705
 21 
1.256
 0 
LINE
 8 
0
 62 
 7 
 10 
2.342
 20 
1.756
 11 
2.705
 21 
1.756
 0 
LINE
 8 
0
 62 
 7 
 10 
2.342
 20 
1.256
 11 
2.705
 21 
1.256
 0 
LINE
 8 
0
 62 
 7 
 10 
2.352
 20 
1.097
 11 
2.693
 21 
1.097
 0 
LINE
 8 
0
 62 
 7 
 10 
2.631
 20 
1.858
 11 
2.619
 21 
1.87
 0 
LINE
 8 
0
 62 
 7 
 10 
2.619
 20 
1.87
 11 
2.596
 21 
1.87
 0 
LINE
 8 
0
 62 
 7 
 10 
2.596
 20 
1.87
 11 
2.584
 21 
1.858
 0 
LINE
 8 
0
 62 
 7 
 10 
2.584
 20 
1.858
 11 
2.584
 21 
1.812
 0 
LINE
 8 
0
 62 
 7 
 10 
2.584
 20 
1.812
 11 
2.596
 21 
1.8
 0 
LINE
 8 
0
 62 
 7 
 10 
2.596
 20 
1.8
 11 
2.631
 21 
1.8
 0 
LINE
 8 
0
 62 
 7 
 10 
2.631
 20 
1.8
 11 
2.631
 21 
1.823
 0 
LINE
 8 
0
 62 
 7 
 10 
2.631
 20 
1.823
 11 
2.619
 21 
1.823
 0 
LINE
 8 
0
 62 
 7 
 10 
2.346
 20 
1.762
 11 
2.346
 21 
1.91
 0 
LINE
 8 
0
 62 
 7 
 10 
2.346
 20 
1.91
 11 
2.691
 21 
1.91
 0 
LINE
 8 
0
 62 
 7 
 10 
2.691
 20 
1.91
 11 
2.691
 21 
1.762
 0 
LINE
 8 
0
 62 
 7 
 10 
2.366
 20 
1.9
 11 
2.366
 21 
1.772
 0 
LINE
 8 
0
 62 
 7 
 10 
2.356
 20 
1.772
 11 
2.514
 21 
1.772
 0 
LINE
 8 
0
 62 
 7 
 10 
2.514
 20 
1.772
 11 
2.513
 21 
1.907
 0 
LINE
 8 
0
 62 
 7 
 10 
2.514
 20 
1.89
 11 
2.376
 21 
1.89
 0 
LINE
 8 
0
 62 
 7 
 10 
2.404
 20 
1.867
 11 
2.404
 21 
1.855
 0 
LINE
 8 
0
 62 
 7 
 10 
2.404
 20 
1.855
 11 
2.427
 21 
1.832
 0 
LINE
 8 
0
 62 
 7 
 10 
2.427
 20 
1.832
 11 
2.451
 21 
1.855
 0 
LINE
 8 
0
 62 
 7 
 10 
2.451
 20 
1.855
 11 
2.451
 21 
1.867
 0 
LINE
 8 
0
 62 
 7 
 10 
2.427
 20 
1.797
 11 
2.427
 21 
1.832
 0 
LINE
 8 
0
 62 
 7 
 10 
2.504
 20 
1.89
 11 
2.504
 21 
1.782
 0 
LINE
 8 
0
 62 
 7 
 10 
2.494
 20 
1.9
 11 
2.494
 21 
1.762
 0 
LINE
 8 
0
 62 
 7 
 10 
2.633
 20 
1.195
 11 
2.621
 21 
1.207
 0 
LINE
 8 
0
 62 
 7 
 10 
2.621
 20 
1.207
 11 
2.598
 21 
1.207
 0 
LINE
 8 
0
 62 
 7 
 10 
2.598
 20 
1.207
 11 
2.586
 21 
1.195
 0 
LINE
 8 
0
 62 
 7 
 10 
2.586
 20 
1.195
 11 
2.586
 21 
1.149
 0 
LINE
 8 
0
 62 
 7 
 10 
2.586
 20 
1.149
 11 
2.598
 21 
1.137
 0 
LINE
 8 
0
 62 
 7 
 10 
2.598
 20 
1.137
 11 
2.633
 21 
1.137
 0 
LINE
 8 
0
 62 
 7 
 10 
2.633
 20 
1.137
 11 
2.633
 21 
1.16
 0 
LINE
 8 
0
 62 
 7 
 10 
2.633
 20 
1.16
 11 
2.621
 21 
1.16
 0 
LINE
 8 
0
 62 
 7 
 10 
2.348
 20 
1.099
 11 
2.348
 21 
1.247
 0 
LINE
 8 
0
 62 
 7 
 10 
2.348
 20 
1.247
 11 
2.693
 21 
1.247
 0 
LINE
 8 
0
 62 
 7 
 10 
2.693
 20 
1.247
 11 
2.693
 21 
1.099
 0 
LINE
 8 
0
 62 
 7 
 10 
2.368
 20 
1.237
 11 
2.368
 21 
1.109
 0 
LINE
 8 
0
 62 
 7 
 10 
2.516
 20 
1.109
 11 
2.515
 21 
1.244
 0 
LINE
 8 
0
 62 
 7 
 10 
2.516
 20 
1.227
 11 
2.378
 21 
1.227
 0 
LINE
 8 
0
 62 
 7 
 10 
2.406
 20 
1.204
 11 
2.406
 21 
1.192
 0 
LINE
 8 
0
 62 
 7 
 10 
2.406
 20 
1.192
 11 
2.429
 21 
1.169
 0 
LINE
 8 
0
 62 
 7 
 10 
2.429
 20 
1.169
 11 
2.453
 21 
1.192
 0 
LINE
 8 
0
 62 
 7 
 10 
2.453
 20 
1.192
 11 
2.453
 21 
1.204
 0 
LINE
 8 
0
 62 
 7 
 10 
2.429
 20 
1.134
 11 
2.429
 21 
1.169
 0 
LINE
 8 
0
 62 
 7 
 10 
2.506
 20 
1.227
 11 
2.506
 21 
1.119
 0 
LINE
 8 
0
 62 
 7 
 10 
2.496
 20 
1.237
 11 
2.496
 21 
1.099
 0 
LINE
 8 
0
 62 
 7 
 10 
2.358
 20 
1.109
 11 
2.516
 21 
1.109
 0 
LINE
 8 
0
 62 
 7 
 10 
3.642
 20 
1.756
 11 
3.642
 21 
1.256
 0 
LINE
 8 
0
 62 
 7 
 10 
4.005
 20 
1.756
 11 
4.005
 21 
1.256
 0 
LINE
 8 
0
 62 
 7 
 10 
3.642
 20 
1.756
 11 
4.005
 21 
1.756
 0 
LINE
 8 
0
 62 
 7 
 10 
3.642
 20 
1.256
 11 
4.005
 21 
1.256
 0 
LINE
 8 
0
 62 
 7 
 10 
3.652
 20 
1.097
 11 
3.993
 21 
1.097
 0 
LINE
 8 
0
 62 
 7 
 10 
3.931
 20 
1.858
 11 
3.919
 21 
1.87
 0 
LINE
 8 
0
 62 
 7 
 10 
3.919
 20 
1.87
 11 
3.896
 21 
1.87
 0 
LINE
 8 
0
 62 
 7 
 10 
3.896
 20 
1.87
 11 
3.884
 21 
1.858
 0 
LINE
 8 
0
 62 
 7 
 10 
3.884
 20 
1.858
 11 
3.884
 21 
1.812
 0 
LINE
 8 
0
 62 
 7 
 10 
3.884
 20 
1.812
 11 
3.896
 21 
1.8
 0 
LINE
 8 
0
 62 
 7 
 10 
3.896
 20 
1.8
 11 
3.931
 21 
1.8
 0 
LINE
 8 
0
 62 
 7 
 10 
3.931
 20 
1.8
 11 
3.931
 21 
1.823
 0 
LINE
 8 
0
 62 
 7 
 10 
3.931
 20 
1.823
 11 
3.919
 21 
1.823
 0 
LINE
 8 
0
 62 
 7 
 10 
3.646
 20 
1.762
 11 
3.646
 21 
1.91
 0 
LINE
 8 
0
 62 
 7 
 10 
3.646
 20 
1.91
 11 
3.991
 21 
1.91
 0 
LINE
 8 
0
 62 
 7 
 10 
3.991
 20 
1.91
 11 
3.991
 21 
1.762
 0 
LINE
 8 
0
 62 
 7 
 10 
3.666
 20 
1.9
 11 
3.666
 21 
1.772
 0 
LINE
 8 
0
 62 
 7 
 10 
3.656
 20 
1.772
 11 
3.814
 21 
1.772
 0 
LINE
 8 
0
 62 
 7 
 10 
3.814
 20 
1.772
 11 
3.813
 21 
1.907
 0 
LINE
 8 
0
 62 
 7 
 10 
3.814
 20 
1.89
 11 
3.676
 21 
1.89
 0 
LINE
 8 
0
 62 
 7 
 10 
3.704
 20 
1.867
 11 
3.704
 21 
1.855
 0 
LINE
 8 
0
 62 
 7 
 10 
3.704
 20 
1.855
 11 
3.727
 21 
1.832
 0 
LINE
 8 
0
 62 
 7 
 10 
3.727
 20 
1.832
 11 
3.751
 21 
1.855
 0 
LINE
 8 
0
 62 
 7 
 10 
3.751
 20 
1.855
 11 
3.751
 21 
1.867
 0 
LINE
 8 
0
 62 
 7 
 10 
3.727
 20 
1.797
 11 
3.727
 21 
1.832
 0 
LINE
 8 
0
 62 
 7 
 10 
3.804
 20 
1.89
 11 
3.804
 21 
1.782
 0 
LINE
 8 
0
 62 
 7 
 10 
3.794
 20 
1.9
 11 
3.794
 21 
1.762
 0 
LINE
 8 
0
 62 
 7 
 10 
3.933
 20 
1.195
 11 
3.921
 21 
1.207
 0 
LINE
 8 
0
 62 
 7 
 10 
3.921
 20 
1.207
 11 
3.898
 21 
1.207
 0 
LINE
 8 
0
 62 
 7 
 10 
3.898
 20 
1.207
 11 
3.886
 21 
1.195
 0 
LINE
 8 
0
 62 
 7 
 10 
3.886
 20 
1.195
 11 
3.886
 21 
1.149
 0 
LINE
 8 
0
 62 
 7 
 10 
3.886
 20 
1.149
 11 
3.898
 21 
1.137
 0 
LINE
 8 
0
 62 
 7 
 10 
3.898
 20 
1.137
 11 
3.933
 21 
1.137
 0 
LINE
 8 
0
 62 
 7 
 10 
3.933
 20 
1.137
 11 
3.933
 21 
1.16
 0 
LINE
 8 
0
 62 
 7 
 10 
3.933
 20 
1.16
 11 
3.921
 21 
1.16
 0 
LINE
 8 
0
 62 
 7 
 10 
3.648
 20 
1.099
 11 
3.648
 21 
1.247
 0 
LINE
 8 
0
 62 
 7 
 10 
3.648
 20 
1.247
 11 
3.993
 21 
1.247
 0 
LINE
 8 
0
 62 
 7 
 10 
3.993
 20 
1.247
 11 
3.993
 21 
1.099
 0 
LINE
 8 
0
 62 
 7 
 10 
3.668
 20 
1.237
 11 
3.668
 21 
1.109
 0 
LINE
 8 
0
 62 
 7 
 10 
3.816
 20 
1.109
 11 
3.815
 21 
1.244
 0 
LINE
 8 
0
 62 
 7 
 10 
3.816
 20 
1.227
 11 
3.678
 21 
1.227
 0 
LINE
 8 
0
 62 
 7 
 10 
3.706
 20 
1.204
 11 
3.706
 21 
1.192
 0 
LINE
 8 
0
 62 
 7 
 10 
3.706
 20 
1.192
 11 
3.729
 21 
1.169
 0 
LINE
 8 
0
 62 
 7 
 10 
3.729
 20 
1.169
 11 
3.753
 21 
1.192
 0 
LINE
 8 
0
 62 
 7 
 10 
3.753
 20 
1.192
 11 
3.753
 21 
1.204
 0 
LINE
 8 
0
 62 
 7 
 10 
3.729
 20 
1.134
 11 
3.729
 21 
1.169
 0 
LINE
 8 
0
 62 
 7 
 10 
3.806
 20 
1.227
 11 
3.806
 21 
1.119
 0 
LINE
 8 
0
 62 
 7 
 10 
3.796
 20 
1.237
 11 
3.796
 21 
1.099
 0 
LINE
 8 
0
 62 
 7 
 10 
3.658
 20 
1.109
 11 
3.816
 21 
1.109
 0 
LINE
 8 
0
 62 
 7 
 10 
2.992
 20 
1.756
 11 
2.992
 21 
1.256
 0 
LINE
 8 
0
 62 
 7 
 10 
3.355
 20 
1.756
 11 
3.355
 21 
1.256
 0 
LINE
 8 
0
 62 
 7 
 10 
2.992
 20 
1.756
 11 
3.355
 21 
1.756
 0 
LINE
 8 
0
 62 
 7 
 10 
2.992
 20 
1.256
 11 
3.355
 21 
1.256
 0 
LINE
 8 
0
 62 
 7 
 10 
3.002
 20 
1.097
 11 
3.343
 21 
1.097
 0 
LINE
 8 
0
 62 
 7 
 10 
3.281
 20 
1.858
 11 
3.269
 21 
1.87
 0 
LINE
 8 
0
 62 
 7 
 10 
3.269
 20 
1.87
 11 
3.246
 21 
1.87
 0 
LINE
 8 
0
 62 
 7 
 10 
3.246
 20 
1.87
 11 
3.234
 21 
1.858
 0 
LINE
 8 
0
 62 
 7 
 10 
3.234
 20 
1.858
 11 
3.234
 21 
1.812
 0 
LINE
 8 
0
 62 
 7 
 10 
3.234
 20 
1.812
 11 
3.246
 21 
1.8
 0 
LINE
 8 
0
 62 
 7 
 10 
3.246
 20 
1.8
 11 
3.281
 21 
1.8
 0 
LINE
 8 
0
 62 
 7 
 10 
3.281
 20 
1.8
 11 
3.281
 21 
1.823
 0 
LINE
 8 
0
 62 
 7 
 10 
3.281
 20 
1.823
 11 
3.269
 21 
1.823
 0 
LINE
 8 
0
 62 
 7 
 10 
2.996
 20 
1.762
 11 
2.996
 21 
1.91
 0 
LINE
 8 
0
 62 
 7 
 10 
2.996
 20 
1.91
 11 
3.341
 21 
1.91
 0 
LINE
 8 
0
 62 
 7 
 10 
3.341
 20 
1.91
 11 
3.341
 21 
1.762
 0 
LINE
 8 
0
 62 
 7 
 10 
3.016
 20 
1.9
 11 
3.016
 21 
1.772
 0 
LINE
 8 
0
 62 
 7 
 10 
3.006
 20 
1.772
 11 
3.164
 21 
1.772
 0 
LINE
 8 
0
 62 
 7 
 10 
3.164
 20 
1.772
 11 
3.163
 21 
1.907
 0 
LINE
 8 
0
 62 
 7 
 10 
3.164
 20 
1.89
 11 
3.026
 21 
1.89
 0 
LINE
 8 
0
 62 
 7 
 10 
3.054
 20 
1.867
 11 
3.054
 21 
1.855
 0 
LINE
 8 
0
 62 
 7 
 10 
3.054
 20 
1.855
 11 
3.077
 21 
1.832
 0 
LINE
 8 
0
 62 
 7 
 10 
3.077
 20 
1.832
 11 
3.101
 21 
1.855
 0 
LINE
 8 
0
 62 
 7 
 10 
3.101
 20 
1.855
 11 
3.101
 21 
1.867
 0 
LINE
 8 
0
 62 
 7 
 10 
3.077
 20 
1.797
 11 
3.077
 21 
1.832
 0 
LINE
 8 
0
 62 
 7 
 10 
3.154
 20 
1.89
 11 
3.154
 21 
1.782
 0 
LINE
 8 
0
 62 
 7 
 10 
3.144
 20 
1.9
 11 
3.144
 21 
1.762
 0 
LINE
 8 
0
 62 
 7 
 10 
3.283
 20 
1.195
 11 
3.271
 21 
1.207
 0 
LINE
 8 
0
 62 
 7 
 10 
3.271
 20 
1.207
 11 
3.248
 21 
1.207
 0 
LINE
 8 
0
 62 
 7 
 10 
3.248
 20 
1.207
 11 
3.236
 21 
1.195
 0 
LINE
 8 
0
 62 
 7 
 10 
3.236
 20 
1.195
 11 
3.236
 21 
1.149
 0 
LINE
 8 
0
 62 
 7 
 10 
3.236
 20 
1.149
 11 
3.248
 21 
1.137
 0 
LINE
 8 
0
 62 
 7 
 10 
3.248
 20 
1.137
 11 
3.283
 21 
1.137
 0 
LINE
 8 
0
 62 
 7 
 10 
3.283
 20 
1.137
 11 
3.283
 21 
1.16
 0 
LINE
 8 
0
 62 
 7 
 10 
3.283
 20 
1.16
 11 
3.271
 21 
1.16
 0 
LINE
 8 
0
 62 
 7 
 10 
2.998
 20 
1.099
 11 
2.998
 21 
1.247
 0 
LINE
 8 
0
 62 
 7 
 10 
2.998
 20 
1.247
 11 
3.343
 21 
1.247
 0 
LINE
 8 
0
 62 
 7 
 10 
3.343
 20 
1.247
 11 
3.343
 21 
1.099
 0 
LINE
 8 
0
 62 
 7 
 10 
3.018
 20 
1.237
 11 
3.018
 21 
1.109
 0 
LINE
 8 
0
 62 
 7 
 10 
3.166
 20 
1.109
 11 
3.165
 21 
1.244
 0 
LINE
 8 
0
 62 
 7 
 10 
3.166
 20 
1.227
 11 
3.028
 21 
1.227
 0 
LINE
 8 
0
 62 
 7 
 10 
3.056
 20 
1.204
 11 
3.056
 21 
1.192
 0 
LINE
 8 
0
 62 
 7 
 10 
3.056
 20 
1.192
 11 
3.079
 21 
1.169
 0 
LINE
 8 
0
 62 
 7 
 10 
3.079
 20 
1.169
 11 
3.103
 21 
1.192
 0 
LINE
 8 
0
 62 
 7 
 10 
3.103
 20 
1.192
 11 
3.103
 21 
1.204
 0 
LINE
 8 
0
 62 
 7 
 10 
3.079
 20 
1.134
 11 
3.079
 21 
1.169
 0 
LINE
 8 
0
 62 
 7 
 10 
3.156
 20 
1.227
 11 
3.156
 21 
1.119
 0 
LINE
 8 
0
 62 
 7 
 10 
3.146
 20 
1.237
 11 
3.146
 21 
1.099
 0 
LINE
 8 
0
 62 
 7 
 10 
3.008
 20 
1.109
 11 
3.166
 21 
1.109
 0 
LINE
 8 
0
 62 
 7 
 10 
4.942
 20 
1.756
 11 
4.942
 21 
1.256
 0 
LINE
 8 
0
 62 
 7 
 10 
5.305
 20 
1.756
 11 
5.305
 21 
1.256
 0 
LINE
 8 
0
 62 
 7 
 10 
4.942
 20 
1.756
 11 
5.305
 21 
1.756
 0 
LINE
 8 
0
 62 
 7 
 10 
4.942
 20 
1.256
 11 
5.305
 21 
1.256
 0 
LINE
 8 
0
 62 
 7 
 10 
4.952
 20 
1.097
 11 
5.293
 21 
1.097
 0 
LINE
 8 
0
 62 
 7 
 10 
5.231
 20 
1.858
 11 
5.219
 21 
1.87
 0 
LINE
 8 
0
 62 
 7 
 10 
5.219
 20 
1.87
 11 
5.196
 21 
1.87
 0 
LINE
 8 
0
 62 
 7 
 10 
5.196
 20 
1.87
 11 
5.184
 21 
1.858
 0 
LINE
 8 
0
 62 
 7 
 10 
5.184
 20 
1.858
 11 
5.184
 21 
1.812
 0 
LINE
 8 
0
 62 
 7 
 10 
5.184
 20 
1.812
 11 
5.196
 21 
1.8
 0 
LINE
 8 
0
 62 
 7 
 10 
5.196
 20 
1.8
 11 
5.231
 21 
1.8
 0 
LINE
 8 
0
 62 
 7 
 10 
5.231
 20 
1.8
 11 
5.231
 21 
1.823
 0 
LINE
 8 
0
 62 
 7 
 10 
5.231
 20 
1.823
 11 
5.219
 21 
1.823
 0 
LINE
 8 
0
 62 
 7 
 10 
4.946
 20 
1.762
 11 
4.946
 21 
1.91
 0 
LINE
 8 
0
 62 
 7 
 10 
4.946
 20 
1.91
 11 
5.291
 21 
1.91
 0 
LINE
 8 
0
 62 
 7 
 10 
5.291
 20 
1.91
 11 
5.291
 21 
1.762
 0 
LINE
 8 
0
 62 
 7 
 10 
4.966
 20 
1.9
 11 
4.966
 21 
1.772
 0 
LINE
 8 
0
 62 
 7 
 10 
4.956
 20 
1.772
 11 
5.114
 21 
1.772
 0 
LINE
 8 
0
 62 
 7 
 10 
5.114
 20 
1.772
 11 
5.113
 21 
1.907
 0 
LINE
 8 
0
 62 
 7 
 10 
5.114
 20 
1.89
 11 
4.976
 21 
1.89
 0 
LINE
 8 
0
 62 
 7 
 10 
5.004
 20 
1.867
 11 
5.004
 21 
1.855
 0 
LINE
 8 
0
 62 
 7 
 10 
5.004
 20 
1.855
 11 
5.027
 21 
1.832
 0 
LINE
 8 
0
 62 
 7 
 10 
5.027
 20 
1.832
 11 
5.051
 21 
1.855
 0 
LINE
 8 
0
 62 
 7 
 10 
5.051
 20 
1.855
 11 
5.051
 21 
1.867
 0 
LINE
 8 
0
 62 
 7 
 10 
5.027
 20 
1.797
 11 
5.027
 21 
1.832
 0 
LINE
 8 
0
 62 
 7 
 10 
5.104
 20 
1.89
 11 
5.104
 21 
1.782
 0 
LINE
 8 
0
 62 
 7 
 10 
5.094
 20 
1.9
 11 
5.094
 21 
1.762
 0 
LINE
 8 
0
 62 
 7 
 10 
5.233
 20 
1.195
 11 
5.221
 21 
1.207
 0 
LINE
 8 
0
 62 
 7 
 10 
5.221
 20 
1.207
 11 
5.198
 21 
1.207
 0 
LINE
 8 
0
 62 
 7 
 10 
5.198
 20 
1.207
 11 
5.186
 21 
1.195
 0 
LINE
 8 
0
 62 
 7 
 10 
5.186
 20 
1.195
 11 
5.186
 21 
1.149
 0 
LINE
 8 
0
 62 
 7 
 10 
5.186
 20 
1.149
 11 
5.198
 21 
1.137
 0 
LINE
 8 
0
 62 
 7 
 10 
5.198
 20 
1.137
 11 
5.233
 21 
1.137
 0 
LINE
 8 
0
 62 
 7 
 10 
5.233
 20 
1.137
 11 
5.233
 21 
1.16
 0 
LINE
 8 
0
 62 
 7 
 10 
5.233
 20 
1.16
 11 
5.221
 21 
1.16
 0 
LINE
 8 
0
 62 
 7 
 10 
4.948
 20 
1.099
 11 
4.948
 21 
1.247
 0 
LINE
 8 
0
 62 
 7 
 10 
4.948
 20 
1.247
 11 
5.293
 21 
1.247
 0 
LINE
 8 
0
 62 
 7 
 10 
5.293
 20 
1.247
 11 
5.293
 21 
1.099
 0 
LINE
 8 
0
 62 
 7 
 10 
4.968
 20 
1.237
 11 
4.968
 21 
1.109
 0 
LINE
 8 
0
 62 
 7 
 10 
5.116
 20 
1.109
 11 
5.115
 21 
1.244
 0 
LINE
 8 
0
 62 
 7 
 10 
5.116
 20 
1.227
 11 
4.978
 21 
1.227
 0 
LINE
 8 
0
 62 
 7 
 10 
5.006
 20 
1.204
 11 
5.006
 21 
1.192
 0 
LINE
 8 
0
 62 
 7 
 10 
5.006
 20 
1.192
 11 
5.029
 21 
1.169
 0 
LINE
 8 
0
 62 
 7 
 10 
5.029
 20 
1.169
 11 
5.053
 21 
1.192
 0 
LINE
 8 
0
 62 
 7 
 10 
5.053
 20 
1.192
 11 
5.053
 21 
1.204
 0 
LINE
 8 
0
 62 
 7 
 10 
5.029
 20 
1.134
 11 
5.029
 21 
1.169
 0 
LINE
 8 
0
 62 
 7 
 10 
5.106
 20 
1.227
 11 
5.106
 21 
1.119
 0 
LINE
 8 
0
 62 
 7 
 10 
5.096
 20 
1.237
 11 
5.096
 21 
1.099
 0 
LINE
 8 
0
 62 
 7 
 10 
4.958
 20 
1.109
 11 
5.116
 21 
1.109
 0 
LINE
 8 
0
 62 
 7 
 10 
5.592
 20 
1.756
 11 
5.592
 21 
1.256
 0 
LINE
 8 
0
 62 
 7 
 10 
5.955
 20 
1.756
 11 
5.955
 21 
1.256
 0 
LINE
 8 
0
 62 
 7 
 10 
5.592
 20 
1.756
 11 
5.955
 21 
1.756
 0 
LINE
 8 
0
 62 
 7 
 10 
5.592
 20 
1.256
 11 
5.955
 21 
1.256
 0 
LINE
 8 
0
 62 
 7 
 10 
5.602
 20 
1.097
 11 
5.943
 21 
1.097
 0 
LINE
 8 
0
 62 
 7 
 10 
5.881
 20 
1.858
 11 
5.869
 21 
1.87
 0 
LINE
 8 
0
 62 
 7 
 10 
5.869
 20 
1.87
 11 
5.846
 21 
1.87
 0 
LINE
 8 
0
 62 
 7 
 10 
5.846
 20 
1.87
 11 
5.834
 21 
1.858
 0 
LINE
 8 
0
 62 
 7 
 10 
5.834
 20 
1.858
 11 
5.834
 21 
1.812
 0 
LINE
 8 
0
 62 
 7 
 10 
5.834
 20 
1.812
 11 
5.846
 21 
1.8
 0 
LINE
 8 
0
 62 
 7 
 10 
5.846
 20 
1.8
 11 
5.881
 21 
1.8
 0 
LINE
 8 
0
 62 
 7 
 10 
5.881
 20 
1.8
 11 
5.881
 21 
1.823
 0 
LINE
 8 
0
 62 
 7 
 10 
5.881
 20 
1.823
 11 
5.869
 21 
1.823
 0 
LINE
 8 
0
 62 
 7 
 10 
5.596
 20 
1.762
 11 
5.596
 21 
1.91
 0 
LINE
 8 
0
 62 
 7 
 10 
5.596
 20 
1.91
 11 
5.941
 21 
1.91
 0 
LINE
 8 
0
 62 
 7 
 10 
5.941
 20 
1.91
 11 
5.941
 21 
1.762
 0 
LINE
 8 
0
 62 
 7 
 10 
5.616
 20 
1.9
 11 
5.616
 21 
1.772
 0 
LINE
 8 
0
 62 
 7 
 10 
5.606
 20 
1.772
 11 
5.764
 21 
1.772
 0 
LINE
 8 
0
 62 
 7 
 10 
5.764
 20 
1.772
 11 
5.763
 21 
1.907
 0 
LINE
 8 
0
 62 
 7 
 10 
5.764
 20 
1.89
 11 
5.626
 21 
1.89
 0 
LINE
 8 
0
 62 
 7 
 10 
5.654
 20 
1.867
 11 
5.654
 21 
1.855
 0 
LINE
 8 
0
 62 
 7 
 10 
5.654
 20 
1.855
 11 
5.677
 21 
1.832
 0 
LINE
 8 
0
 62 
 7 
 10 
5.677
 20 
1.832
 11 
5.701
 21 
1.855
 0 
LINE
 8 
0
 62 
 7 
 10 
5.701
 20 
1.855
 11 
5.701
 21 
1.867
 0 
LINE
 8 
0
 62 
 7 
 10 
5.677
 20 
1.797
 11 
5.677
 21 
1.832
 0 
LINE
 8 
0
 62 
 7 
 10 
5.754
 20 
1.89
 11 
5.754
 21 
1.782
 0 
LINE
 8 
0
 62 
 7 
 10 
5.744
 20 
1.9
 11 
5.744
 21 
1.762
 0 
LINE
 8 
0
 62 
 7 
 10 
5.883
 20 
1.195
 11 
5.871
 21 
1.207
 0 
LINE
 8 
0
 62 
 7 
 10 
5.871
 20 
1.207
 11 
5.848
 21 
1.207
 0 
LINE
 8 
0
 62 
 7 
 10 
5.848
 20 
1.207
 11 
5.836
 21 
1.195
 0 
LINE
 8 
0
 62 
 7 
 10 
5.836
 20 
1.195
 11 
5.836
 21 
1.149
 0 
LINE
 8 
0
 62 
 7 
 10 
5.836
 20 
1.149
 11 
5.848
 21 
1.137
 0 
LINE
 8 
0
 62 
 7 
 10 
5.848
 20 
1.137
 11 
5.883
 21 
1.137
 0 
LINE
 8 
0
 62 
 7 
 10 
5.883
 20 
1.137
 11 
5.883
 21 
1.16
 0 
LINE
 8 
0
 62 
 7 
 10 
5.883
 20 
1.16
 11 
5.871
 21 
1.16
 0 
LINE
 8 
0
 62 
 7 
 10 
5.598
 20 
1.099
 11 
5.598
 21 
1.247
 0 
LINE
 8 
0
 62 
 7 
 10 
5.598
 20 
1.247
 11 
5.943
 21 
1.247
 0 
LINE
 8 
0
 62 
 7 
 10 
5.943
 20 
1.247
 11 
5.943
 21 
1.099
 0 
LINE
 8 
0
 62 
 7 
 10 
5.618
 20 
1.237
 11 
5.618
 21 
1.109
 0 
LINE
 8 
0
 62 
 7 
 10 
5.766
 20 
1.109
 11 
5.765
 21 
1.244
 0 
LINE
 8 
0
 62 
 7 
 10 
5.766
 20 
1.227
 11 
5.628
 21 
1.227
 0 
LINE
 8 
0
 62 
 7 
 10 
5.656
 20 
1.204
 11 
5.656
 21 
1.192
 0 
LINE
 8 
0
 62 
 7 
 10 
5.656
 20 
1.192
 11 
5.679
 21 
1.169
 0 
LINE
 8 
0
 62 
 7 
 10 
5.679
 20 
1.169
 11 
5.703
 21 
1.192
 0 
LINE
 8 
0
 62 
 7 
 10 
5.703
 20 
1.192
 11 
5.703
 21 
1.204
 0 
LINE
 8 
0
 62 
 7 
 10 
5.679
 20 
1.134
 11 
5.679
 21 
1.169
 0 
LINE
 8 
0
 62 
 7 
 10 
5.756
 20 
1.227
 11 
5.756
 21 
1.119
 0 
LINE
 8 
0
 62 
 7 
 10 
5.746
 20 
1.237
 11 
5.746
 21 
1.099
 0 
LINE
 8 
0
 62 
 7 
 10 
5.608
 20 
1.109
 11 
5.766
 21 
1.109
 0 
LINE
 8 
0
 62 
 7 
 10 
4.292
 20 
1.756
 11 
4.292
 21 
1.256
 0 
LINE
 8 
0
 62 
 7 
 10 
4.655
 20 
1.756
 11 
4.655
 21 
1.256
 0 
LINE
 8 
0
 62 
 7 
 10 
4.292
 20 
1.756
 11 
4.655
 21 
1.756
 0 
LINE
 8 
0
 62 
 7 
 10 
4.292
 20 
1.256
 11 
4.655
 21 
1.256
 0 
LINE
 8 
0
 62 
 7 
 10 
4.302
 20 
1.097
 11 
4.643
 21 
1.097
 0 
LINE
 8 
0
 62 
 7 
 10 
4.581
 20 
1.858
 11 
4.569
 21 
1.87
 0 
LINE
 8 
0
 62 
 7 
 10 
4.569
 20 
1.87
 11 
4.546
 21 
1.87
 0 
LINE
 8 
0
 62 
 7 
 10 
4.546
 20 
1.87
 11 
4.534
 21 
1.858
 0 
LINE
 8 
0
 62 
 7 
 10 
4.534
 20 
1.858
 11 
4.534
 21 
1.812
 0 
LINE
 8 
0
 62 
 7 
 10 
4.534
 20 
1.812
 11 
4.546
 21 
1.8
 0 
LINE
 8 
0
 62 
 7 
 10 
4.546
 20 
1.8
 11 
4.581
 21 
1.8
 0 
LINE
 8 
0
 62 
 7 
 10 
4.581
 20 
1.8
 11 
4.581
 21 
1.823
 0 
LINE
 8 
0
 62 
 7 
 10 
4.581
 20 
1.823
 11 
4.569
 21 
1.823
 0 
LINE
 8 
0
 62 
 7 
 10 
4.296
 20 
1.762
 11 
4.296
 21 
1.91
 0 
LINE
 8 
0
 62 
 7 
 10 
4.296
 20 
1.91
 11 
4.641
 21 
1.91
 0 
LINE
 8 
0
 62 
 7 
 10 
4.641
 20 
1.91
 11 
4.641
 21 
1.762
 0 
LINE
 8 
0
 62 
 7 
 10 
4.316
 20 
1.9
 11 
4.316
 21 
1.772
 0 
LINE
 8 
0
 62 
 7 
 10 
4.306
 20 
1.772
 11 
4.464
 21 
1.772
 0 
LINE
 8 
0
 62 
 7 
 10 
4.464
 20 
1.772
 11 
4.463
 21 
1.907
 0 
LINE
 8 
0
 62 
 7 
 10 
4.464
 20 
1.89
 11 
4.326
 21 
1.89
 0 
LINE
 8 
0
 62 
 7 
 10 
4.354
 20 
1.867
 11 
4.354
 21 
1.855
 0 
LINE
 8 
0
 62 
 7 
 10 
4.354
 20 
1.855
 11 
4.377
 21 
1.832
 0 
LINE
 8 
0
 62 
 7 
 10 
4.377
 20 
1.832
 11 
4.401
 21 
1.855
 0 
LINE
 8 
0
 62 
 7 
 10 
4.401
 20 
1.855
 11 
4.401
 21 
1.867
 0 
LINE
 8 
0
 62 
 7 
 10 
4.377
 20 
1.797
 11 
4.377
 21 
1.832
 0 
LINE
 8 
0
 62 
 7 
 10 
4.454
 20 
1.89
 11 
4.454
 21 
1.782
 0 
LINE
 8 
0
 62 
 7 
 10 
4.444
 20 
1.9
 11 
4.444
 21 
1.762
 0 
LINE
 8 
0
 62 
 7 
 10 
4.583
 20 
1.195
 11 
4.571
 21 
1.207
 0 
LINE
 8 
0
 62 
 7 
 10 
4.571
 20 
1.207
 11 
4.548
 21 
1.207
 0 
LINE
 8 
0
 62 
 7 
 10 
4.548
 20 
1.207
 11 
4.536
 21 
1.195
 0 
LINE
 8 
0
 62 
 7 
 10 
4.536
 20 
1.195
 11 
4.536
 21 
1.149
 0 
LINE
 8 
0
 62 
 7 
 10 
4.536
 20 
1.149
 11 
4.548
 21 
1.137
 0 
LINE
 8 
0
 62 
 7 
 10 
4.548
 20 
1.137
 11 
4.583
 21 
1.137
 0 
LINE
 8 
0
 62 
 7 
 10 
4.583
 20 
1.137
 11 
4.583
 21 
1.16
 0 
LINE
 8 
0
 62 
 7 
 10 
4.583
 20 
1.16
 11 
4.571
 21 
1.16
 0 
LINE
 8 
0
 62 
 7 
 10 
4.298
 20 
1.099
 11 
4.298
 21 
1.247
 0 
LINE
 8 
0
 62 
 7 
 10 
4.298
 20 
1.247
 11 
4.643
 21 
1.247
 0 
LINE
 8 
0
 62 
 7 
 10 
4.643
 20 
1.247
 11 
4.643
 21 
1.099
 0 
LINE
 8 
0
 62 
 7 
 10 
4.318
 20 
1.237
 11 
4.318
 21 
1.109
 0 
LINE
 8 
0
 62 
 7 
 10 
4.466
 20 
1.109
 11 
4.465
 21 
1.244
 0 
LINE
 8 
0
 62 
 7 
 10 
4.466
 20 
1.227
 11 
4.328
 21 
1.227
 0 
LINE
 8 
0
 62 
 7 
 10 
4.356
 20 
1.204
 11 
4.356
 21 
1.192
 0 
LINE
 8 
0
 62 
 7 
 10 
4.356
 20 
1.192
 11 
4.379
 21 
1.169
 0 
LINE
 8 
0
 62 
 7 
 10 
4.379
 20 
1.169
 11 
4.403
 21 
1.192
 0 
LINE
 8 
0
 62 
 7 
 10 
4.403
 20 
1.192
 11 
4.403
 21 
1.204
 0 
LINE
 8 
0
 62 
 7 
 10 
4.379
 20 
1.134
 11 
4.379
 21 
1.169
 0 
LINE
 8 
0
 62 
 7 
 10 
4.456
 20 
1.227
 11 
4.456
 21 
1.119
 0 
LINE
 8 
0
 62 
 7 
 10 
4.446
 20 
1.237
 11 
4.446
 21 
1.099
 0 
LINE
 8 
0
 62 
 7 
 10 
4.308
 20 
1.109
 11 
4.466
 21 
1.109
 0 
LINE
 8 
0
 62 
 7 
 10 
0.342
 20 
1.756
 11 
0.342
 21 
1.256
 0 
LINE
 8 
0
 62 
 7 
 10 
0.705
 20 
1.756
 11 
0.705
 21 
1.256
 0 
LINE
 8 
0
 62 
 7 
 10 
0.342
 20 
1.756
 11 
0.705
 21 
1.756
 0 
LINE
 8 
0
 62 
 7 
 10 
0.342
 20 
1.256
 11 
0.705
 21 
1.256
 0 
LINE
 8 
0
 62 
 7 
 10 
0.352
 20 
1.097
 11 
0.693
 21 
1.097
 0 
LINE
 8 
0
 62 
 7 
 10 
0.631
 20 
1.858
 11 
0.619
 21 
1.87
 0 
LINE
 8 
0
 62 
 7 
 10 
0.619
 20 
1.87
 11 
0.596
 21 
1.87
 0 
LINE
 8 
0
 62 
 7 
 10 
0.596
 20 
1.87
 11 
0.584
 21 
1.858
 0 
LINE
 8 
0
 62 
 7 
 10 
0.584
 20 
1.858
 11 
0.584
 21 
1.812
 0 
LINE
 8 
0
 62 
 7 
 10 
0.584
 20 
1.812
 11 
0.596
 21 
1.8
 0 
LINE
 8 
0
 62 
 7 
 10 
0.596
 20 
1.8
 11 
0.631
 21 
1.8
 0 
LINE
 8 
0
 62 
 7 
 10 
0.631
 20 
1.8
 11 
0.631
 21 
1.823
 0 
LINE
 8 
0
 62 
 7 
 10 
0.631
 20 
1.823
 11 
0.619
 21 
1.823
 0 
LINE
 8 
0
 62 
 7 
 10 
0.346
 20 
1.762
 11 
0.346
 21 
1.91
 0 
LINE
 8 
0
 62 
 7 
 10 
0.346
 20 
1.91
 11 
0.691
 21 
1.91
 0 
LINE
 8 
0
 62 
 7 
 10 
0.691
 20 
1.91
 11 
0.691
 21 
1.762
 0 
LINE
 8 
0
 62 
 7 
 10 
0.366
 20 
1.9
 11 
0.366
 21 
1.772
 0 
LINE
 8 
0
 62 
 7 
 10 
0.356
 20 
1.772
 11 
0.514
 21 
1.772
 0 
LINE
 8 
0
 62 
 7 
 10 
0.514
 20 
1.772
 11 
0.513
 21 
1.907
 0 
LINE
 8 
0
 62 
 7 
 10 
0.514
 20 
1.89
 11 
0.376
 21 
1.89
 0 
LINE
 8 
0
 62 
 7 
 10 
0.404
 20 
1.867
 11 
0.404
 21 
1.855
 0 
LINE
 8 
0
 62 
 7 
 10 
0.404
 20 
1.855
 11 
0.427
 21 
1.832
 0 
LINE
 8 
0
 62 
 7 
 10 
0.427
 20 
1.832
 11 
0.451
 21 
1.855
 0 
LINE
 8 
0
 62 
 7 
 10 
0.451
 20 
1.855
 11 
0.451
 21 
1.867
 0 
LINE
 8 
0
 62 
 7 
 10 
0.427
 20 
1.797
 11 
0.427
 21 
1.832
 0 
LINE
 8 
0
 62 
 7 
 10 
0.504
 20 
1.89
 11 
0.504
 21 
1.782
 0 
LINE
 8 
0
 62 
 7 
 10 
0.494
 20 
1.9
 11 
0.494
 21 
1.762
 0 
LINE
 8 
0
 62 
 7 
 10 
0.633
 20 
1.195
 11 
0.621
 21 
1.207
 0 
LINE
 8 
0
 62 
 7 
 10 
0.621
 20 
1.207
 11 
0.598
 21 
1.207
 0 
LINE
 8 
0
 62 
 7 
 10 
0.598
 20 
1.207
 11 
0.586
 21 
1.195
 0 
LINE
 8 
0
 62 
 7 
 10 
0.586
 20 
1.195
 11 
0.586
 21 
1.149
 0 
LINE
 8 
0
 62 
 7 
 10 
0.586
 20 
1.149
 11 
0.598
 21 
1.137
 0 
LINE
 8 
0
 62 
 7 
 10 
0.598
 20 
1.137
 11 
0.633
 21 
1.137
 0 
LINE
 8 
0
 62 
 7 
 10 
0.633
 20 
1.137
 11 
0.633
 21 
1.16
 0 
LINE
 8 
0
 62 
 7 
 10 
0.633
 20 
1.16
 11 
0.621
 21 
1.16
 0 
LINE
 8 
0
 62 
 7 
 10 
0.348
 20 
1.099
 11 
0.348
 21 
1.247
 0 
LINE
 8 
0
 62 
 7 
 10 
0.348
 20 
1.247
 11 
0.693
 21 
1.247
 0 
LINE
 8 
0
 62 
 7 
 10 
0.693
 20 
1.247
 11 
0.693
 21 
1.099
 0 
LINE
 8 
0
 62 
 7 
 10 
0.368
 20 
1.237
 11 
0.368
 21 
1.109
 0 
LINE
 8 
0
 62 
 7 
 10 
0.516
 20 
1.109
 11 
0.515
 21 
1.244
 0 
LINE
 8 
0
 62 
 7 
 10 
0.516
 20 
1.227
 11 
0.378
 21 
1.227
 0 
LINE
 8 
0
 62 
 7 
 10 
0.406
 20 
1.204
 11 
0.406
 21 
1.192
 0 
LINE
 8 
0
 62 
 7 
 10 
0.406
 20 
1.192
 11 
0.429
 21 
1.169
 0 
LINE
 8 
0
 62 
 7 
 10 
0.429
 20 
1.169
 11 
0.453
 21 
1.192
 0 
LINE
 8 
0
 62 
 7 
 10 
0.453
 20 
1.192
 11 
0.453
 21 
1.204
 0 
LINE
 8 
0
 62 
 7 
 10 
0.429
 20 
1.134
 11 
0.429
 21 
1.169
 0 
LINE
 8 
0
 62 
 7 
 10 
0.506
 20 
1.227
 11 
0.506
 21 
1.119
 0 
LINE
 8 
0
 62 
 7 
 10 
0.496
 20 
1.237
 11 
0.496
 21 
1.099
 0 
LINE
 8 
0
 62 
 7 
 10 
0.358
 20 
1.109
 11 
0.516
 21 
1.109
 0 
LINE
 8 
0
 62 
 7 
 10 
6.267
 20 
1.756
 11 
6.267
 21 
1.256
 0 
LINE
 8 
0
 62 
 7 
 10 
6.63
 20 
1.756
 11 
6.63
 21 
1.256
 0 
LINE
 8 
0
 62 
 7 
 10 
6.267
 20 
1.756
 11 
6.63
 21 
1.756
 0 
LINE
 8 
0
 62 
 7 
 10 
6.267
 20 
1.256
 11 
6.63
 21 
1.256
 0 
LINE
 8 
0
 62 
 7 
 10 
6.277
 20 
1.097
 11 
6.618
 21 
1.097
 0 
LINE
 8 
0
 62 
 7 
 10 
6.556
 20 
1.858
 11 
6.544
 21 
1.87
 0 
LINE
 8 
0
 62 
 7 
 10 
6.544
 20 
1.87
 11 
6.521
 21 
1.87
 0 
LINE
 8 
0
 62 
 7 
 10 
6.521
 20 
1.87
 11 
6.509
 21 
1.858
 0 
LINE
 8 
0
 62 
 7 
 10 
6.509
 20 
1.858
 11 
6.509
 21 
1.812
 0 
LINE
 8 
0
 62 
 7 
 10 
6.509
 20 
1.812
 11 
6.521
 21 
1.8
 0 
LINE
 8 
0
 62 
 7 
 10 
6.521
 20 
1.8
 11 
6.556
 21 
1.8
 0 
LINE
 8 
0
 62 
 7 
 10 
6.556
 20 
1.8
 11 
6.556
 21 
1.823
 0 
LINE
 8 
0
 62 
 7 
 10 
6.556
 20 
1.823
 11 
6.544
 21 
1.823
 0 
LINE
 8 
0
 62 
 7 
 10 
6.271
 20 
1.762
 11 
6.271
 21 
1.91
 0 
LINE
 8 
0
 62 
 7 
 10 
6.271
 20 
1.91
 11 
6.616
 21 
1.91
 0 
LINE
 8 
0
 62 
 7 
 10 
6.616
 20 
1.91
 11 
6.616
 21 
1.762
 0 
LINE
 8 
0
 62 
 7 
 10 
6.291
 20 
1.9
 11 
6.291
 21 
1.772
 0 
LINE
 8 
0
 62 
 7 
 10 
6.281
 20 
1.772
 11 
6.439
 21 
1.772
 0 
LINE
 8 
0
 62 
 7 
 10 
6.439
 20 
1.772
 11 
6.438
 21 
1.907
 0 
LINE
 8 
0
 62 
 7 
 10 
6.439
 20 
1.89
 11 
6.301
 21 
1.89
 0 
LINE
 8 
0
 62 
 7 
 10 
6.329
 20 
1.867
 11 
6.329
 21 
1.855
 0 
LINE
 8 
0
 62 
 7 
 10 
6.329
 20 
1.855
 11 
6.352
 21 
1.832
 0 
LINE
 8 
0
 62 
 7 
 10 
6.352
 20 
1.832
 11 
6.376
 21 
1.855
 0 
LINE
 8 
0
 62 
 7 
 10 
6.376
 20 
1.855
 11 
6.376
 21 
1.867
 0 
LINE
 8 
0
 62 
 7 
 10 
6.352
 20 
1.797
 11 
6.352
 21 
1.832
 0 
LINE
 8 
0
 62 
 7 
 10 
6.429
 20 
1.89
 11 
6.429
 21 
1.782
 0 
LINE
 8 
0
 62 
 7 
 10 
6.419
 20 
1.9
 11 
6.419
 21 
1.762
 0 
LINE
 8 
0
 62 
 7 
 10 
6.558
 20 
1.195
 11 
6.546
 21 
1.207
 0 
LINE
 8 
0
 62 
 7 
 10 
6.546
 20 
1.207
 11 
6.523
 21 
1.207
 0 
LINE
 8 
0
 62 
 7 
 10 
6.523
 20 
1.207
 11 
6.511
 21 
1.195
 0 
LINE
 8 
0
 62 
 7 
 10 
6.511
 20 
1.195
 11 
6.511
 21 
1.149
 0 
LINE
 8 
0
 62 
 7 
 10 
6.511
 20 
1.149
 11 
6.523
 21 
1.137
 0 
LINE
 8 
0
 62 
 7 
 10 
6.523
 20 
1.137
 11 
6.558
 21 
1.137
 0 
LINE
 8 
0
 62 
 7 
 10 
6.558
 20 
1.137
 11 
6.558
 21 
1.16
 0 
LINE
 8 
0
 62 
 7 
 10 
6.558
 20 
1.16
 11 
6.546
 21 
1.16
 0 
LINE
 8 
0
 62 
 7 
 10 
6.273
 20 
1.099
 11 
6.273
 21 
1.247
 0 
LINE
 8 
0
 62 
 7 
 10 
6.273
 20 
1.247
 11 
6.618
 21 
1.247
 0 
LINE
 8 
0
 62 
 7 
 10 
6.618
 20 
1.247
 11 
6.618
 21 
1.099
 0 
LINE
 8 
0
 62 
 7 
 10 
6.293
 20 
1.237
 11 
6.293
 21 
1.109
 0 
LINE
 8 
0
 62 
 7 
 10 
6.441
 20 
1.109
 11 
6.44
 21 
1.244
 0 
LINE
 8 
0
 62 
 7 
 10 
6.441
 20 
1.227
 11 
6.303
 21 
1.227
 0 
LINE
 8 
0
 62 
 7 
 10 
6.331
 20 
1.204
 11 
6.331
 21 
1.192
 0 
LINE
 8 
0
 62 
 7 
 10 
6.331
 20 
1.192
 11 
6.354
 21 
1.169
 0 
LINE
 8 
0
 62 
 7 
 10 
6.354
 20 
1.169
 11 
6.378
 21 
1.192
 0 
LINE
 8 
0
 62 
 7 
 10 
6.378
 20 
1.192
 11 
6.378
 21 
1.204
 0 
LINE
 8 
0
 62 
 7 
 10 
6.354
 20 
1.134
 11 
6.354
 21 
1.169
 0 
LINE
 8 
0
 62 
 7 
 10 
6.431
 20 
1.227
 11 
6.431
 21 
1.119
 0 
LINE
 8 
0
 62 
 7 
 10 
6.421
 20 
1.237
 11 
6.421
 21 
1.099
 0 
LINE
 8 
0
 62 
 7 
 10 
6.283
 20 
1.109
 11 
6.441
 21 
1.109
 0 
LINE
 8 
0
 62 
 7 
 10 
0.85
 20 
1.65
 11 
0.85
 21 
1.697
 0 
LINE
 8 
0
 62 
 7 
 10 
0.85
 20 
1.673
 11 
0.92
 21 
1.673
 0 
LINE
 8 
0
 62 
 7 
 10 
0.897
 20 
1.72
 11 
0.897
 21 
1.767
 0 
LINE
 8 
0
 62 
 7 
 10 
0.897
 20 
1.767
 11 
0.885
 21 
1.767
 0 
LINE
 8 
0
 62 
 7 
 10 
0.885
 20 
1.767
 11 
0.873
 21 
1.755
 0 
LINE
 8 
0
 62 
 7 
 10 
0.873
 20 
1.755
 11 
0.873
 21 
1.732
 0 
LINE
 8 
0
 62 
 7 
 10 
0.873
 20 
1.732
 11 
0.885
 21 
1.72
 0 
LINE
 8 
0
 62 
 7 
 10 
0.885
 20 
1.72
 11 
0.908
 21 
1.72
 0 
LINE
 8 
0
 62 
 7 
 10 
0.908
 20 
1.72
 11 
0.92
 21 
1.732
 0 
LINE
 8 
0
 62 
 7 
 10 
0.92
 20 
1.732
 11 
0.92
 21 
1.755
 0 
LINE
 8 
0
 62 
 7 
 10 
0.873
 20 
1.79
 11 
0.92
 21 
1.79
 0 
LINE
 8 
0
 62 
 7 
 10 
0.897
 20 
1.79
 11 
0.873
 21 
1.813
 0 
LINE
 8 
0
 62 
 7 
 10 
0.873
 20 
1.813
 11 
0.873
 21 
1.825
 0 
LINE
 8 
0
 62 
 7 
 10 
0.873
 20 
1.825
 11 
0.885
 21 
1.837
 0 
LINE
 8 
0
 62 
 7 
 10 
0.873
 20 
1.86
 11 
0.92
 21 
1.86
 0 
LINE
 8 
0
 62 
 7 
 10 
0.885
 20 
1.86
 11 
0.873
 21 
1.872
 0 
LINE
 8 
0
 62 
 7 
 10 
0.873
 20 
1.872
 11 
0.885
 21 
1.883
 0 
LINE
 8 
0
 62 
 7 
 10 
0.885
 20 
1.883
 11 
0.92
 21 
1.883
 0 
LINE
 8 
0
 62 
 7 
 10 
0.885
 20 
1.883
 11 
0.873
 21 
1.895
 0 
LINE
 8 
0
 62 
 7 
 10 
0.873
 20 
1.895
 11 
0.885
 21 
1.907
 0 
LINE
 8 
0
 62 
 7 
 10 
0.885
 20 
1.907
 11 
0.92
 21 
1.907
 0 
LINE
 8 
0
 62 
 7 
 10 
6.075
 20 
1.65
 11 
6.075
 21 
1.697
 0 
LINE
 8 
0
 62 
 7 
 10 
6.075
 20 
1.673
 11 
6.145
 21 
1.673
 0 
LINE
 8 
0
 62 
 7 
 10 
6.122
 20 
1.72
 11 
6.122
 21 
1.767
 0 
LINE
 8 
0
 62 
 7 
 10 
6.122
 20 
1.767
 11 
6.11
 21 
1.767
 0 
LINE
 8 
0
 62 
 7 
 10 
6.11
 20 
1.767
 11 
6.098
 21 
1.755
 0 
LINE
 8 
0
 62 
 7 
 10 
6.098
 20 
1.755
 11 
6.098
 21 
1.732
 0 
LINE
 8 
0
 62 
 7 
 10 
6.098
 20 
1.732
 11 
6.11
 21 
1.72
 0 
LINE
 8 
0
 62 
 7 
 10 
6.11
 20 
1.72
 11 
6.133
 21 
1.72
 0 
LINE
 8 
0
 62 
 7 
 10 
6.133
 20 
1.72
 11 
6.145
 21 
1.732
 0 
LINE
 8 
0
 62 
 7 
 10 
6.145
 20 
1.732
 11 
6.145
 21 
1.755
 0 
LINE
 8 
0
 62 
 7 
 10 
6.098
 20 
1.79
 11 
6.145
 21 
1.79
 0 
LINE
 8 
0
 62 
 7 
 10 
6.122
 20 
1.79
 11 
6.098
 21 
1.813
 0 
LINE
 8 
0
 62 
 7 
 10 
6.098
 20 
1.813
 11 
6.098
 21 
1.825
 0 
LINE
 8 
0
 62 
 7 
 10 
6.098
 20 
1.825
 11 
6.11
 21 
1.837
 0 
LINE
 8 
0
 62 
 7 
 10 
6.098
 20 
1.86
 11 
6.145
 21 
1.86
 0 
LINE
 8 
0
 62 
 7 
 10 
6.11
 20 
1.86
 11 
6.098
 21 
1.872
 0 
LINE
 8 
0
 62 
 7 
 10 
6.098
 20 
1.872
 11 
6.11
 21 
1.883
 0 
LINE
 8 
0
 62 
 7 
 10 
6.11
 20 
1.883
 11 
6.145
 21 
1.883
 0 
LINE
 8 
0
 62 
 7 
 10 
6.11
 20 
1.883
 11 
6.098
 21 
1.895
 0 
LINE
 8 
0
 62 
 7 
 10 
6.098
 20 
1.895
 11 
6.11
 21 
1.907
 0 
LINE
 8 
0
 62 
 7 
 10 
6.11
 20 
1.907
 11 
6.145
 21 
1.907
 0 
LINE
 8 
0
 62 
 7 
 10 
0.15
 20 
2.0
 11 
6.825
 21 
2.0
 0 
LINE
 8 
0
 62 
 7 
 10 
0.15
 20 
1.0
 11 
6.825
 21 
1.0
 0 
CIRCLE
 8 
0
 62 
 7 
 10 
1.125
 20 
0.575
 40 
0.05
 0 
CIRCLE
 8 
0
 62 
 7 
 10 
1.125
 20 
0.575
 40 
0.023
 0 
CIRCLE
 8 
0
 62 
 7 
 10 
1.322
 20 
0.575
 40 
0.05
 0 
CIRCLE
 8 
0
 62 
 7 
 10 
1.322
 20 
0.575
 40 
0.023
 0 
CIRCLE
 8 
0
 62 
 7 
 10 
1.125
 20 
0.378
 40 
0.05
 0 
CIRCLE
 8 
0
 62 
 7 
 10 
1.125
 20 
0.378
 40 
0.023
 0 
CIRCLE
 8 
0
 62 
 7 
 10 
1.322
 20 
0.378
 40 
0.05
 0 
CIRCLE
 8 
0
 62 
 7 
 10 
1.322
 20 
0.378
 40 
0.023
 0 
CIRCLE
 8 
0
 62 
 7 
 10 
1.775
 20 
0.575
 40 
0.05
 0 
CIRCLE
 8 
0
 62 
 7 
 10 
1.775
 20 
0.575
 40 
0.023
 0 
CIRCLE
 8 
0
 62 
 7 
 10 
1.972
 20 
0.575
 40 
0.05
 0 
CIRCLE
 8 
0
 62 
 7 
 10 
1.972
 20 
0.575
 40 
0.023
 0 
CIRCLE
 8 
0
 62 
 7 
 10 
1.775
 20 
0.378
 40 
0.05
 0 
CIRCLE
 8 
0
 62 
 7 
 10 
1.775
 20 
0.378
 40 
0.023
 0 
CIRCLE
 8 
0
 62 
 7 
 10 
1.972
 20 
0.378
 40 
0.05
 0 
CIRCLE
 8 
0
 62 
 7 
 10 
1.972
 20 
0.378
 40 
0.023
 0 
CIRCLE
 8 
0
 62 
 7 
 10 
2.425
 20 
0.575
 40 
0.05
 0 
CIRCLE
 8 
0
 62 
 7 
 10 
2.425
 20 
0.575
 40 
0.023
 0 
CIRCLE
 8 
0
 62 
 7 
 10 
2.622
 20 
0.575
 40 
0.05
 0 
CIRCLE
 8 
0
 62 
 7 
 10 
2.622
 20 
0.575
 40 
0.023
 0 
CIRCLE
 8 
0
 62 
 7 
 10 
2.425
 20 
0.378
 40 
0.05
 0 
CIRCLE
 8 
0
 62 
 7 
 10 
2.425
 20 
0.378
 40 
0.023
 0 
CIRCLE
 8 
0
 62 
 7 
 10 
2.622
 20 
0.378
 40 
0.05
 0 
CIRCLE
 8 
0
 62 
 7 
 10 
2.622
 20 
0.378
 40 
0.023
 0 
CIRCLE
 8 
0
 62 
 7 
 10 
3.725
 20 
0.575
 40 
0.05
 0 
CIRCLE
 8 
0
 62 
 7 
 10 
3.725
 20 
0.575
 40 
0.023
 0 
CIRCLE
 8 
0
 62 
 7 
 10 
3.922
 20 
0.575
 40 
0.05
 0 
CIRCLE
 8 
0
 62 
 7 
 10 
3.922
 20 
0.575
 40 
0.023
 0 
CIRCLE
 8 
0
 62 
 7 
 10 
3.725
 20 
0.378
 40 
0.05
 0 
CIRCLE
 8 
0
 62 
 7 
 10 
3.725
 20 
0.378
 40 
0.023
 0 
CIRCLE
 8 
0
 62 
 7 
 10 
3.922
 20 
0.378
 40 
0.05
 0 
CIRCLE
 8 
0
 62 
 7 
 10 
3.922
 20 
0.378
 40 
0.023
 0 
CIRCLE
 8 
0
 62 
 7 
 10 
3.075
 20 
0.575
 40 
0.05
 0 
CIRCLE
 8 
0
 62 
 7 
 10 
3.075
 20 
0.575
 40 
0.023
 0 
CIRCLE
 8 
0
 62 
 7 
 10 
3.272
 20 
0.575
 40 
0.05
 0 
CIRCLE
 8 
0
 62 
 7 
 10 
3.272
 20 
0.575
 40 
0.023
 0 
CIRCLE
 8 
0
 62 
 7 
 10 
3.075
 20 
0.378
 40 
0.05
 0 
CIRCLE
 8 
0
 62 
 7 
 10 
3.075
 20 
0.378
 40 
0.023
 0 
CIRCLE
 8 
0
 62 
 7 
 10 
3.272
 20 
0.378
 40 
0.05
 0 
CIRCLE
 8 
0
 62 
 7 
 10 
3.272
 20 
0.378
 40 
0.023
 0 
CIRCLE
 8 
0
 62 
 7 
 10 
5.025
 20 
0.575
 40 
0.05
 0 
CIRCLE
 8 
0
 62 
 7 
 10 
5.025
 20 
0.575
 40 
0.023
 0 
CIRCLE
 8 
0
 62 
 7 
 10 
5.222
 20 
0.575
 40 
0.05
 0 
CIRCLE
 8 
0
 62 
 7 
 10 
5.222
 20 
0.575
 40 
0.023
 0 
CIRCLE
 8 
0
 62 
 7 
 10 
5.025
 20 
0.378
 40 
0.05
 0 
CIRCLE
 8 
0
 62 
 7 
 10 
5.025
 20 
0.378
 40 
0.023
 0 
CIRCLE
 8 
0
 62 
 7 
 10 
5.222
 20 
0.378
 40 
0.05
 0 
CIRCLE
 8 
0
 62 
 7 
 10 
5.222
 20 
0.378
 40 
0.023
 0 
CIRCLE
 8 
0
 62 
 7 
 10 
5.675
 20 
0.575
 40 
0.05
 0 
CIRCLE
 8 
0
 62 
 7 
 10 
5.675
 20 
0.575
 40 
0.023
 0 
CIRCLE
 8 
0
 62 
 7 
 10 
5.872
 20 
0.575
 40 
0.05
 0 
CIRCLE
 8 
0
 62 
 7 
 10 
5.872
 20 
0.575
 40 
0.023
 0 
CIRCLE
 8 
0
 62 
 7 
 10 
5.675
 20 
0.378
 40 
0.05
 0 
CIRCLE
 8 
0
 62 
 7 
 10 
5.675
 20 
0.378
 40 
0.023
 0 
CIRCLE
 8 
0
 62 
 7 
 10 
5.872
 20 
0.378
 40 
0.05
 0 
CIRCLE
 8 
0
 62 
 7 
 10 
5.872
 20 
0.378
 40 
0.023
 0 
CIRCLE
 8 
0
 62 
 7 
 10 
4.375
 20 
0.575
 40 
0.05
 0 
CIRCLE
 8 
0
 62 
 7 
 10 
4.375
 20 
0.575
 40 
0.023
 0 
CIRCLE
 8 
0
 62 
 7 
 10 
4.572
 20 
0.575
 40 
0.05
 0 
CIRCLE
 8 
0
 62 
 7 
 10 
4.572
 20 
0.575
 40 
0.023
 0 
CIRCLE
 8 
0
 62 
 7 
 10 
4.375
 20 
0.378
 40 
0.05
 0 
CIRCLE
 8 
0
 62 
 7 
 10 
4.375
 20 
0.378
 40 
0.023
 0 
CIRCLE
 8 
0
 62 
 7 
 10 
4.572
 20 
0.378
 40 
0.05
 0 
CIRCLE
 8 
0
 62 
 7 
 10 
4.572
 20 
0.378
 40 
0.023
 0 
CIRCLE
 8 
0
 62 
 7 
 10 
0.425
 20 
0.575
 40 
0.05
 0 
CIRCLE
 8 
0
 62 
 7 
 10 
0.425
 20 
0.575
 40 
0.023
 0 
CIRCLE
 8 
0
 62 
 7 
 10 
0.622
 20 
0.575
 40 
0.05
 0 
CIRCLE
 8 
0
 62 
 7 
 10 
0.622
 20 
0.575
 40 
0.023
 0 
CIRCLE
 8 
0
 62 
 7 
 10 
0.425
 20 
0.378
 40 
0.05
 0 
CIRCLE
 8 
0
 62 
 7 
 10 
0.425
 20 
0.378
 40 
0.023
 0 
CIRCLE
 8 
0
 62 
 7 
 10 
0.622
 20 
0.378
 40 
0.05
 0 
CIRCLE
 8 
0
 62 
 7 
 10 
0.622
 20 
0.378
 40 
0.023
 0 
CIRCLE
 8 
0
 62 
 7 
 10 
6.35
 20 
0.575
 40 
0.05
 0 
CIRCLE
 8 
0
 62 
 7 
 10 
6.35
 20 
0.575
 40 
0.023
 0 
CIRCLE
 8 
0
 62 
 7 
 10 
6.547
 20 
0.575
 40 
0.05
 0 
CIRCLE
 8 
0
 62 
 7 
 10 
6.547
 20 
0.575
 40 
0.023
 0 
CIRCLE
 8 
0
 62 
 7 
 10 
6.35
 20 
0.378
 40 
0.05
 0 
CIRCLE
 8 
0
 62 
 7 
 10 
6.35
 20 
0.378
 40 
0.023
 0 
CIRCLE
 8 
0
 62 
 7 
 10 
6.547
 20 
0.378
 40 
0.05
 0 
CIRCLE
 8 
0
 62 
 7 
 10 
6.547
 20 
0.378
 40 
0.023
 0 
CIRCLE
 8 
0
 62 
 7 
 10 
0.875
 20 
0.125
 40 
0.038
 0 
CIRCLE
 8 
0
 62 
 7 
 10 
0.875
 20 
0.125
 40 
0.02
 0 
CIRCLE
 8 
0
 62 
 7 
 10 
0.875
 20 
0.225
 40 
0.038
 0 
CIRCLE
 8 
0
 62 
 7 
 10 
0.875
 20 
0.225
 40 
0.02
 0 
CIRCLE
 8 
0
 62 
 7 
 10 
0.875
 20 
0.575
 40 
0.045
 0 
CIRCLE
 8 
0
 62 
 7 
 10 
0.875
 20 
0.575
 40 
0.022
 0 
CIRCLE
 8 
0
 62 
 7 
 10 
0.875
 20 
0.375
 40 
0.045
 0 
CIRCLE
 8 
0
 62 
 7 
 10 
0.875
 20 
0.375
 40 
0.022
 0 
CIRCLE
 8 
0
 62 
 7 
 10 
6.1
 20 
0.575
 40 
0.045
 0 
CIRCLE
 8 
0
 62 
 7 
 10 
6.1
 20 
0.575
 40 
0.022
 0 
CIRCLE
 8 
0
 62 
 7 
 10 
6.1
 20 
0.375
 40 
0.045
 0 
CIRCLE
 8 
0
 62 
 7 
 10 
6.1
 20 
0.375
 40 
0.022
 0 
CIRCLE
 8 
0
 62 
 7 
 10 
6.1
 20 
0.225
 40 
0.038
 0 
CIRCLE
 8 
0
 62 
 7 
 10 
6.1
 20 
0.225
 40 
0.02
 0 
CIRCLE
 8 
0
 62 
 7 
 10 
6.1
 20 
0.125
 40 
0.038
 0 
CIRCLE
 8 
0
 62 
 7 
 10 
6.1
 20 
0.125
 40 
0.02
 0 
CIRCLE
 8 
0
 62 
 7 
 10 
0.15
 20 
0.825
 40 
0.1
 0 
CIRCLE
 8 
0
 62 
 7 
 10 
0.15
 20 
0.825
 40 
0.075
 0 
CIRCLE
 8 
0
 62 
 7 
 10 
0.15
 20 
0.175
 40 
0.1
 0 
CIRCLE
 8 
0
 62 
 7 
 10 
0.15
 20 
0.175
 40 
0.075
 0 
CIRCLE
 8 
0
 62 
 7 
 10 
6.825
 20 
0.825
 40 
0.1
 0 
CIRCLE
 8 
0
 62 
 7 
 10 
6.825
 20 
0.825
 40 
0.075
 0 
CIRCLE
 8 
0
 62 
 7 
 10 
6.825
 20 
0.175
 40 
0.1
 0 
CIRCLE
 8 
0
 62 
 7 
 10 
6.825
 20 
0.175
 40 
0.075
 0 
CIRCLE
 8 
0
 62 
 7 
 10 
2.85
 20 
0.825
 40 
0.1
 0 
CIRCLE
 8 
0
 62 
 7 
 10 
2.85
 20 
0.825
 40 
0.075
 0 
CIRCLE
 8 
0
 62 
 7 
 10 
2.85
 20 
0.175
 40 
0.1
 0 
CIRCLE
 8 
0
 62 
 7 
 10 
2.85
 20 
0.175
 40 
0.075
 0 
CIRCLE
 8 
0
 62 
 7 
 10 
4.15
 20 
0.825
 40 
0.1
 0 
CIRCLE
 8 
0
 62 
 7 
 10 
4.15
 20 
0.825
 40 
0.075
 0 
CIRCLE
 8 
0
 62 
 7 
 10 
4.15
 20 
0.175
 40 
0.1
 0 
CIRCLE
 8 
0
 62 
 7 
 10 
4.15
 20 
0.175
 40 
0.075
 0 
LINE
 8 
0
 62 
 7 
 10 
1.042
 20 
0.756
 11 
1.042
 21 
0.256
 0 
LINE
 8 
0
 62 
 7 
 10 
1.405
 20 
0.756
 11 
1.405
 21 
0.256
 0 
LINE
 8 
0
 62 
 7 
 10 
1.042
 20 
0.756
 11 
1.405
 21 
0.756
 0 
LINE
 8 
0
 62 
 7 
 10 
1.042
 20 
0.256
 11 
1.405
 21 
0.256
 0 
LINE
 8 
0
 62 
 7 
 10 
1.052
 20 
0.097
 11 
1.393
 21 
0.097
 0 
LINE
 8 
0
 62 
 7 
 10 
1.331
 20 
0.858
 11 
1.319
 21 
0.87
 0 
LINE
 8 
0
 62 
 7 
 10 
1.319
 20 
0.87
 11 
1.296
 21 
0.87
 0 
LINE
 8 
0
 62 
 7 
 10 
1.296
 20 
0.87
 11 
1.284
 21 
0.858
 0 
LINE
 8 
0
 62 
 7 
 10 
1.284
 20 
0.858
 11 
1.284
 21 
0.812
 0 
LINE
 8 
0
 62 
 7 
 10 
1.284
 20 
0.812
 11 
1.296
 21 
0.8
 0 
LINE
 8 
0
 62 
 7 
 10 
1.296
 20 
0.8
 11 
1.331
 21 
0.8
 0 
LINE
 8 
0
 62 
 7 
 10 
1.331
 20 
0.8
 11 
1.331
 21 
0.823
 0 
LINE
 8 
0
 62 
 7 
 10 
1.331
 20 
0.823
 11 
1.319
 21 
0.823
 0 
LINE
 8 
0
 62 
 7 
 10 
1.046
 20 
0.762
 11 
1.046
 21 
0.91
 0 
LINE
 8 
0
 62 
 7 
 10 
1.046
 20 
0.91
 11 
1.391
 21 
0.91
 0 
LINE
 8 
0
 62 
 7 
 10 
1.391
 20 
0.91
 11 
1.391
 21 
0.762
 0 
LINE
 8 
0
 62 
 7 
 10 
1.066
 20 
0.9
 11 
1.066
 21 
0.772
 0 
LINE
 8 
0
 62 
 7 
 10 
1.056
 20 
0.772
 11 
1.214
 21 
0.772
 0 
LINE
 8 
0
 62 
 7 
 10 
1.214
 20 
0.772
 11 
1.213
 21 
0.907
 0 
LINE
 8 
0
 62 
 7 
 10 
1.214
 20 
0.89
 11 
1.076
 21 
0.89
 0 
LINE
 8 
0
 62 
 7 
 10 
1.104
 20 
0.867
 11 
1.104
 21 
0.855
 0 
LINE
 8 
0
 62 
 7 
 10 
1.104
 20 
0.855
 11 
1.127
 21 
0.832
 0 
LINE
 8 
0
 62 
 7 
 10 
1.127
 20 
0.832
 11 
1.151
 21 
0.855
 0 
LINE
 8 
0
 62 
 7 
 10 
1.151
 20 
0.855
 11 
1.151
 21 
0.867
 0 
LINE
 8 
0
 62 
 7 
 10 
1.127
 20 
0.797
 11 
1.127
 21 
0.832
 0 
LINE
 8 
0
 62 
 7 
 10 
1.204
 20 
0.89
 11 
1.204
 21 
0.782
 0 
LINE
 8 
0
 62 
 7 
 10 
1.194
 20 
0.9
 11 
1.194
 21 
0.762
 0 
LINE
 8 
0
 62 
 7 
 10 
1.333
 20 
0.195
 11 
1.321
 21 
0.207
 0 
LINE
 8 
0
 62 
 7 
 10 
1.321
 20 
0.207
 11 
1.298
 21 
0.207
 0 
LINE
 8 
0
 62 
 7 
 10 
1.298
 20 
0.207
 11 
1.286
 21 
0.195
 0 
LINE
 8 
0
 62 
 7 
 10 
1.286
 20 
0.195
 11 
1.286
 21 
0.149
 0 
LINE
 8 
0
 62 
 7 
 10 
1.286
 20 
0.149
 11 
1.298
 21 
0.137
 0 
LINE
 8 
0
 62 
 7 
 10 
1.298
 20 
0.137
 11 
1.333
 21 
0.137
 0 
LINE
 8 
0
 62 
 7 
 10 
1.333
 20 
0.137
 11 
1.333
 21 
0.16
 0 
LINE
 8 
0
 62 
 7 
 10 
1.333
 20 
0.16
 11 
1.321
 21 
0.16
 0 
LINE
 8 
0
 62 
 7 
 10 
1.048
 20 
0.099
 11 
1.048
 21 
0.247
 0 
LINE
 8 
0
 62 
 7 
 10 
1.048
 20 
0.247
 11 
1.393
 21 
0.247
 0 
LINE
 8 
0
 62 
 7 
 10 
1.393
 20 
0.247
 11 
1.393
 21 
0.099
 0 
LINE
 8 
0
 62 
 7 
 10 
1.068
 20 
0.237
 11 
1.068
 21 
0.109
 0 
LINE
 8 
0
 62 
 7 
 10 
1.216
 20 
0.109
 11 
1.215
 21 
0.244
 0 
LINE
 8 
0
 62 
 7 
 10 
1.216
 20 
0.227
 11 
1.078
 21 
0.227
 0 
LINE
 8 
0
 62 
 7 
 10 
1.106
 20 
0.204
 11 
1.106
 21 
0.192
 0 
LINE
 8 
0
 62 
 7 
 10 
1.106
 20 
0.192
 11 
1.129
 21 
0.169
 0 
LINE
 8 
0
 62 
 7 
 10 
1.129
 20 
0.169
 11 
1.153
 21 
0.192
 0 
LINE
 8 
0
 62 
 7 
 10 
1.153
 20 
0.192
 11 
1.153
 21 
0.204
 0 
LINE
 8 
0
 62 
 7 
 10 
1.129
 20 
0.134
 11 
1.129
 21 
0.169
 0 
LINE
 8 
0
 62 
 7 
 10 
1.206
 20 
0.227
 11 
1.206
 21 
0.119
 0 
LINE
 8 
0
 62 
 7 
 10 
1.196
 20 
0.237
 11 
1.196
 21 
0.099
 0 
LINE
 8 
0
 62 
 7 
 10 
1.058
 20 
0.109
 11 
1.216
 21 
0.109
 0 
LINE
 8 
0
 62 
 7 
 10 
1.692
 20 
0.756
 11 
1.692
 21 
0.256
 0 
LINE
 8 
0
 62 
 7 
 10 
2.055
 20 
0.756
 11 
2.055
 21 
0.256
 0 
LINE
 8 
0
 62 
 7 
 10 
1.692
 20 
0.756
 11 
2.055
 21 
0.756
 0 
LINE
 8 
0
 62 
 7 
 10 
1.692
 20 
0.256
 11 
2.055
 21 
0.256
 0 
LINE
 8 
0
 62 
 7 
 10 
1.702
 20 
0.097
 11 
2.043
 21 
0.097
 0 
LINE
 8 
0
 62 
 7 
 10 
1.981
 20 
0.858
 11 
1.969
 21 
0.87
 0 
LINE
 8 
0
 62 
 7 
 10 
1.969
 20 
0.87
 11 
1.946
 21 
0.87
 0 
LINE
 8 
0
 62 
 7 
 10 
1.946
 20 
0.87
 11 
1.934
 21 
0.858
 0 
LINE
 8 
0
 62 
 7 
 10 
1.934
 20 
0.858
 11 
1.934
 21 
0.812
 0 
LINE
 8 
0
 62 
 7 
 10 
1.934
 20 
0.812
 11 
1.946
 21 
0.8
 0 
LINE
 8 
0
 62 
 7 
 10 
1.946
 20 
0.8
 11 
1.981
 21 
0.8
 0 
LINE
 8 
0
 62 
 7 
 10 
1.981
 20 
0.8
 11 
1.981
 21 
0.823
 0 
LINE
 8 
0
 62 
 7 
 10 
1.981
 20 
0.823
 11 
1.969
 21 
0.823
 0 
LINE
 8 
0
 62 
 7 
 10 
1.696
 20 
0.762
 11 
1.696
 21 
0.91
 0 
LINE
 8 
0
 62 
 7 
 10 
1.696
 20 
0.91
 11 
2.041
 21 
0.91
 0 
LINE
 8 
0
 62 
 7 
 10 
2.041
 20 
0.91
 11 
2.041
 21 
0.762
 0 
LINE
 8 
0
 62 
 7 
 10 
1.716
 20 
0.9
 11 
1.716
 21 
0.772
 0 
LINE
 8 
0
 62 
 7 
 10 
1.706
 20 
0.772
 11 
1.864
 21 
0.772
 0 
LINE
 8 
0
 62 
 7 
 10 
1.864
 20 
0.772
 11 
1.863
 21 
0.907
 0 
LINE
 8 
0
 62 
 7 
 10 
1.864
 20 
0.89
 11 
1.726
 21 
0.89
 0 
LINE
 8 
0
 62 
 7 
 10 
1.754
 20 
0.867
 11 
1.754
 21 
0.855
 0 
LINE
 8 
0
 62 
 7 
 10 
1.754
 20 
0.855
 11 
1.777
 21 
0.832
 0 
LINE
 8 
0
 62 
 7 
 10 
1.777
 20 
0.832
 11 
1.801
 21 
0.855
 0 
LINE
 8 
0
 62 
 7 
 10 
1.801
 20 
0.855
 11 
1.801
 21 
0.867
 0 
LINE
 8 
0
 62 
 7 
 10 
1.777
 20 
0.797
 11 
1.777
 21 
0.832
 0 
LINE
 8 
0
 62 
 7 
 10 
1.854
 20 
0.89
 11 
1.854
 21 
0.782
 0 
LINE
 8 
0
 62 
 7 
 10 
1.844
 20 
0.9
 11 
1.844
 21 
0.762
 0 
LINE
 8 
0
 62 
 7 
 10 
1.983
 20 
0.195
 11 
1.971
 21 
0.207
 0 
LINE
 8 
0
 62 
 7 
 10 
1.971
 20 
0.207
 11 
1.948
 21 
0.207
 0 
LINE
 8 
0
 62 
 7 
 10 
1.948
 20 
0.207
 11 
1.936
 21 
0.195
 0 
LINE
 8 
0
 62 
 7 
 10 
1.936
 20 
0.195
 11 
1.936
 21 
0.149
 0 
LINE
 8 
0
 62 
 7 
 10 
1.936
 20 
0.149
 11 
1.948
 21 
0.137
 0 
LINE
 8 
0
 62 
 7 
 10 
1.948
 20 
0.137
 11 
1.983
 21 
0.137
 0 
LINE
 8 
0
 62 
 7 
 10 
1.983
 20 
0.137
 11 
1.983
 21 
0.16
 0 
LINE
 8 
0
 62 
 7 
 10 
1.983
 20 
0.16
 11 
1.971
 21 
0.16
 0 
LINE
 8 
0
 62 
 7 
 10 
1.698
 20 
0.099
 11 
1.698
 21 
0.247
 0 
LINE
 8 
0
 62 
 7 
 10 
1.698
 20 
0.247
 11 
2.043
 21 
0.247
 0 
LINE
 8 
0
 62 
 7 
 10 
2.043
 20 
0.247
 11 
2.043
 21 
0.099
 0 
LINE
 8 
0
 62 
 7 
 10 
1.718
 20 
0.237
 11 
1.718
 21 
0.109
 0 
LINE
 8 
0
 62 
 7 
 10 
1.866
 20 
0.109
 11 
1.865
 21 
0.244
 0 
LINE
 8 
0
 62 
 7 
 10 
1.866
 20 
0.227
 11 
1.728
 21 
0.227
 0 
LINE
 8 
0
 62 
 7 
 10 
1.756
 20 
0.204
 11 
1.756
 21 
0.192
 0 
LINE
 8 
0
 62 
 7 
 10 
1.756
 20 
0.192
 11 
1.779
 21 
0.169
 0 
LINE
 8 
0
 62 
 7 
 10 
1.779
 20 
0.169
 11 
1.803
 21 
0.192
 0 
LINE
 8 
0
 62 
 7 
 10 
1.803
 20 
0.192
 11 
1.803
 21 
0.204
 0 
LINE
 8 
0
 62 
 7 
 10 
1.779
 20 
0.134
 11 
1.779
 21 
0.169
 0 
LINE
 8 
0
 62 
 7 
 10 
1.856
 20 
0.227
 11 
1.856
 21 
0.119
 0 
LINE
 8 
0
 62 
 7 
 10 
1.846
 20 
0.237
 11 
1.846
 21 
0.099
 0 
LINE
 8 
0
 62 
 7 
 10 
1.708
 20 
0.109
 11 
1.866
 21 
0.109
 0 
LINE
 8 
0
 62 
 7 
 10 
2.342
 20 
0.756
 11 
2.342
 21 
0.256
 0 
LINE
 8 
0
 62 
 7 
 10 
2.705
 20 
0.756
 11 
2.705
 21 
0.256
 0 
LINE
 8 
0
 62 
 7 
 10 
2.342
 20 
0.756
 11 
2.705
 21 
0.756
 0 
LINE
 8 
0
 62 
 7 
 10 
2.342
 20 
0.256
 11 
2.705
 21 
0.256
 0 
LINE
 8 
0
 62 
 7 
 10 
2.352
 20 
0.097
 11 
2.693
 21 
0.097
 0 
LINE
 8 
0
 62 
 7 
 10 
2.631
 20 
0.858
 11 
2.619
 21 
0.87
 0 
LINE
 8 
0
 62 
 7 
 10 
2.619
 20 
0.87
 11 
2.596
 21 
0.87
 0 
LINE
 8 
0
 62 
 7 
 10 
2.596
 20 
0.87
 11 
2.584
 21 
0.858
 0 
LINE
 8 
0
 62 
 7 
 10 
2.584
 20 
0.858
 11 
2.584
 21 
0.812
 0 
LINE
 8 
0
 62 
 7 
 10 
2.584
 20 
0.812
 11 
2.596
 21 
0.8
 0 
LINE
 8 
0
 62 
 7 
 10 
2.596
 20 
0.8
 11 
2.631
 21 
0.8
 0 
LINE
 8 
0
 62 
 7 
 10 
2.631
 20 
0.8
 11 
2.631
 21 
0.823
 0 
LINE
 8 
0
 62 
 7 
 10 
2.631
 20 
0.823
 11 
2.619
 21 
0.823
 0 
LINE
 8 
0
 62 
 7 
 10 
2.346
 20 
0.762
 11 
2.346
 21 
0.91
 0 
LINE
 8 
0
 62 
 7 
 10 
2.346
 20 
0.91
 11 
2.691
 21 
0.91
 0 
LINE
 8 
0
 62 
 7 
 10 
2.691
 20 
0.91
 11 
2.691
 21 
0.762
 0 
LINE
 8 
0
 62 
 7 
 10 
2.366
 20 
0.9
 11 
2.366
 21 
0.772
 0 
LINE
 8 
0
 62 
 7 
 10 
2.356
 20 
0.772
 11 
2.514
 21 
0.772
 0 
LINE
 8 
0
 62 
 7 
 10 
2.514
 20 
0.772
 11 
2.513
 21 
0.907
 0 
LINE
 8 
0
 62 
 7 
 10 
2.514
 20 
0.89
 11 
2.376
 21 
0.89
 0 
LINE
 8 
0
 62 
 7 
 10 
2.404
 20 
0.867
 11 
2.404
 21 
0.855
 0 
LINE
 8 
0
 62 
 7 
 10 
2.404
 20 
0.855
 11 
2.427
 21 
0.832
 0 
LINE
 8 
0
 62 
 7 
 10 
2.427
 20 
0.832
 11 
2.451
 21 
0.855
 0 
LINE
 8 
0
 62 
 7 
 10 
2.451
 20 
0.855
 11 
2.451
 21 
0.867
 0 
LINE
 8 
0
 62 
 7 
 10 
2.427
 20 
0.797
 11 
2.427
 21 
0.832
 0 
LINE
 8 
0
 62 
 7 
 10 
2.504
 20 
0.89
 11 
2.504
 21 
0.782
 0 
LINE
 8 
0
 62 
 7 
 10 
2.494
 20 
0.9
 11 
2.494
 21 
0.762
 0 
LINE
 8 
0
 62 
 7 
 10 
2.633
 20 
0.195
 11 
2.621
 21 
0.207
 0 
LINE
 8 
0
 62 
 7 
 10 
2.621
 20 
0.207
 11 
2.598
 21 
0.207
 0 
LINE
 8 
0
 62 
 7 
 10 
2.598
 20 
0.207
 11 
2.586
 21 
0.195
 0 
LINE
 8 
0
 62 
 7 
 10 
2.586
 20 
0.195
 11 
2.586
 21 
0.149
 0 
LINE
 8 
0
 62 
 7 
 10 
2.586
 20 
0.149
 11 
2.598
 21 
0.137
 0 
LINE
 8 
0
 62 
 7 
 10 
2.598
 20 
0.137
 11 
2.633
 21 
0.137
 0 
LINE
 8 
0
 62 
 7 
 10 
2.633
 20 
0.137
 11 
2.633
 21 
0.16
 0 
LINE
 8 
0
 62 
 7 
 10 
2.633
 20 
0.16
 11 
2.621
 21 
0.16
 0 
LINE
 8 
0
 62 
 7 
 10 
2.348
 20 
0.099
 11 
2.348
 21 
0.247
 0 
LINE
 8 
0
 62 
 7 
 10 
2.348
 20 
0.247
 11 
2.693
 21 
0.247
 0 
LINE
 8 
0
 62 
 7 
 10 
2.693
 20 
0.247
 11 
2.693
 21 
0.099
 0 
LINE
 8 
0
 62 
 7 
 10 
2.368
 20 
0.237
 11 
2.368
 21 
0.109
 0 
LINE
 8 
0
 62 
 7 
 10 
2.516
 20 
0.109
 11 
2.515
 21 
0.244
 0 
LINE
 8 
0
 62 
 7 
 10 
2.516
 20 
0.227
 11 
2.378
 21 
0.227
 0 
LINE
 8 
0
 62 
 7 
 10 
2.406
 20 
0.204
 11 
2.406
 21 
0.192
 0 
LINE
 8 
0
 62 
 7 
 10 
2.406
 20 
0.192
 11 
2.429
 21 
0.169
 0 
LINE
 8 
0
 62 
 7 
 10 
2.429
 20 
0.169
 11 
2.453
 21 
0.192
 0 
LINE
 8 
0
 62 
 7 
 10 
2.453
 20 
0.192
 11 
2.453
 21 
0.204
 0 
LINE
 8 
0
 62 
 7 
 10 
2.429
 20 
0.134
 11 
2.429
 21 
0.169
 0 
LINE
 8 
0
 62 
 7 
 10 
2.506
 20 
0.227
 11 
2.506
 21 
0.119
 0 
LINE
 8 
0
 62 
 7 
 10 
2.496
 20 
0.237
 11 
2.496
 21 
0.099
 0 
LINE
 8 
0
 62 
 7 
 10 
2.358
 20 
0.109
 11 
2.516
 21 
0.109
 0 
LINE
 8 
0
 62 
 7 
 10 
3.642
 20 
0.756
 11 
3.642
 21 
0.256
 0 
LINE
 8 
0
 62 
 7 
 10 
4.005
 20 
0.756
 11 
4.005
 21 
0.256
 0 
LINE
 8 
0
 62 
 7 
 10 
3.642
 20 
0.756
 11 
4.005
 21 
0.756
 0 
LINE
 8 
0
 62 
 7 
 10 
3.642
 20 
0.256
 11 
4.005
 21 
0.256
 0 
LINE
 8 
0
 62 
 7 
 10 
3.652
 20 
0.097
 11 
3.993
 21 
0.097
 0 
LINE
 8 
0
 62 
 7 
 10 
3.931
 20 
0.858
 11 
3.919
 21 
0.87
 0 
LINE
 8 
0
 62 
 7 
 10 
3.919
 20 
0.87
 11 
3.896
 21 
0.87
 0 
LINE
 8 
0
 62 
 7 
 10 
3.896
 20 
0.87
 11 
3.884
 21 
0.858
 0 
LINE
 8 
0
 62 
 7 
 10 
3.884
 20 
0.858
 11 
3.884
 21 
0.812
 0 
LINE
 8 
0
 62 
 7 
 10 
3.884
 20 
0.812
 11 
3.896
 21 
0.8
 0 
LINE
 8 
0
 62 
 7 
 10 
3.896
 20 
0.8
 11 
3.931
 21 
0.8
 0 
LINE
 8 
0
 62 
 7 
 10 
3.931
 20 
0.8
 11 
3.931
 21 
0.823
 0 
LINE
 8 
0
 62 
 7 
 10 
3.931
 20 
0.823
 11 
3.919
 21 
0.823
 0 
LINE
 8 
0
 62 
 7 
 10 
3.646
 20 
0.762
 11 
3.646
 21 
0.91
 0 
LINE
 8 
0
 62 
 7 
 10 
3.646
 20 
0.91
 11 
3.991
 21 
0.91
 0 
LINE
 8 
0
 62 
 7 
 10 
3.991
 20 
0.91
 11 
3.991
 21 
0.762
 0 
LINE
 8 
0
 62 
 7 
 10 
3.666
 20 
0.9
 11 
3.666
 21 
0.772
 0 
LINE
 8 
0
 62 
 7 
 10 
3.656
 20 
0.772
 11 
3.814
 21 
0.772
 0 
LINE
 8 
0
 62 
 7 
 10 
3.814
 20 
0.772
 11 
3.813
 21 
0.907
 0 
LINE
 8 
0
 62 
 7 
 10 
3.814
 20 
0.89
 11 
3.676
 21 
0.89
 0 
LINE
 8 
0
 62 
 7 
 10 
3.704
 20 
0.867
 11 
3.704
 21 
0.855
 0 
LINE
 8 
0
 62 
 7 
 10 
3.704
 20 
0.855
 11 
3.727
 21 
0.832
 0 
LINE
 8 
0
 62 
 7 
 10 
3.727
 20 
0.832
 11 
3.751
 21 
0.855
 0 
LINE
 8 
0
 62 
 7 
 10 
3.751
 20 
0.855
 11 
3.751
 21 
0.867
 0 
LINE
 8 
0
 62 
 7 
 10 
3.727
 20 
0.797
 11 
3.727
 21 
0.832
 0 
LINE
 8 
0
 62 
 7 
 10 
3.804
 20 
0.89
 11 
3.804
 21 
0.782
 0 
LINE
 8 
0
 62 
 7 
 10 
3.794
 20 
0.9
 11 
3.794
 21 
0.762
 0 
LINE
 8 
0
 62 
 7 
 10 
3.933
 20 
0.195
 11 
3.921
 21 
0.207
 0 
LINE
 8 
0
 62 
 7 
 10 
3.921
 20 
0.207
 11 
3.898
 21 
0.207
 0 
LINE
 8 
0
 62 
 7 
 10 
3.898
 20 
0.207
 11 
3.886
 21 
0.195
 0 
LINE
 8 
0
 62 
 7 
 10 
3.886
 20 
0.195
 11 
3.886
 21 
0.149
 0 
LINE
 8 
0
 62 
 7 
 10 
3.886
 20 
0.149
 11 
3.898
 21 
0.137
 0 
LINE
 8 
0
 62 
 7 
 10 
3.898
 20 
0.137
 11 
3.933
 21 
0.137
 0 
LINE
 8 
0
 62 
 7 
 10 
3.933
 20 
0.137
 11 
3.933
 21 
0.16
 0 
LINE
 8 
0
 62 
 7 
 10 
3.933
 20 
0.16
 11 
3.921
 21 
0.16
 0 
LINE
 8 
0
 62 
 7 
 10 
3.648
 20 
0.099
 11 
3.648
 21 
0.247
 0 
LINE
 8 
0
 62 
 7 
 10 
3.648
 20 
0.247
 11 
3.993
 21 
0.247
 0 
LINE
 8 
0
 62 
 7 
 10 
3.993
 20 
0.247
 11 
3.993
 21 
0.099
 0 
LINE
 8 
0
 62 
 7 
 10 
3.668
 20 
0.237
 11 
3.668
 21 
0.109
 0 
LINE
 8 
0
 62 
 7 
 10 
3.816
 20 
0.109
 11 
3.815
 21 
0.244
 0 
LINE
 8 
0
 62 
 7 
 10 
3.816
 20 
0.227
 11 
3.678
 21 
0.227
 0 
LINE
 8 
0
 62 
 7 
 10 
3.706
 20 
0.204
 11 
3.706
 21 
0.192
 0 
LINE
 8 
0
 62 
 7 
 10 
3.706
 20 
0.192
 11 
3.729
 21 
0.169
 0 
LINE
 8 
0
 62 
 7 
 10 
3.729
 20 
0.169
 11 
3.753
 21 
0.192
 0 
LINE
 8 
0
 62 
 7 
 10 
3.753
 20 
0.192
 11 
3.753
 21 
0.204
 0 
LINE
 8 
0
 62 
 7 
 10 
3.729
 20 
0.134
 11 
3.729
 21 
0.169
 0 
LINE
 8 
0
 62 
 7 
 10 
3.806
 20 
0.227
 11 
3.806
 21 
0.119
 0 
LINE
 8 
0
 62 
 7 
 10 
3.796
 20 
0.237
 11 
3.796
 21 
0.099
 0 
LINE
 8 
0
 62 
 7 
 10 
3.658
 20 
0.109
 11 
3.816
 21 
0.109
 0 
LINE
 8 
0
 62 
 7 
 10 
2.992
 20 
0.756
 11 
2.992
 21 
0.256
 0 
LINE
 8 
0
 62 
 7 
 10 
3.355
 20 
0.756
 11 
3.355
 21 
0.256
 0 
LINE
 8 
0
 62 
 7 
 10 
2.992
 20 
0.756
 11 
3.355
 21 
0.756
 0 
LINE
 8 
0
 62 
 7 
 10 
2.992
 20 
0.256
 11 
3.355
 21 
0.256
 0 
LINE
 8 
0
 62 
 7 
 10 
3.002
 20 
0.097
 11 
3.343
 21 
0.097
 0 
LINE
 8 
0
 62 
 7 
 10 
3.281
 20 
0.858
 11 
3.269
 21 
0.87
 0 
LINE
 8 
0
 62 
 7 
 10 
3.269
 20 
0.87
 11 
3.246
 21 
0.87
 0 
LINE
 8 
0
 62 
 7 
 10 
3.246
 20 
0.87
 11 
3.234
 21 
0.858
 0 
LINE
 8 
0
 62 
 7 
 10 
3.234
 20 
0.858
 11 
3.234
 21 
0.812
 0 
LINE
 8 
0
 62 
 7 
 10 
3.234
 20 
0.812
 11 
3.246
 21 
0.8
 0 
LINE
 8 
0
 62 
 7 
 10 
3.246
 20 
0.8
 11 
3.281
 21 
0.8
 0 
LINE
 8 
0
 62 
 7 
 10 
3.281
 20 
0.8
 11 
3.281
 21 
0.823
 0 
LINE
 8 
0
 62 
 7 
 10 
3.281
 20 
0.823
 11 
3.269
 21 
0.823
 0 
LINE
 8 
0
 62 
 7 
 10 
2.996
 20 
0.762
 11 
2.996
 21 
0.91
 0 
LINE
 8 
0
 62 
 7 
 10 
2.996
 20 
0.91
 11 
3.341
 21 
0.91
 0 
LINE
 8 
0
 62 
 7 
 10 
3.341
 20 
0.91
 11 
3.341
 21 
0.762
 0 
LINE
 8 
0
 62 
 7 
 10 
3.016
 20 
0.9
 11 
3.016
 21 
0.772
 0 
LINE
 8 
0
 62 
 7 
 10 
3.006
 20 
0.772
 11 
3.164
 21 
0.772
 0 
LINE
 8 
0
 62 
 7 
 10 
3.164
 20 
0.772
 11 
3.163
 21 
0.907
 0 
LINE
 8 
0
 62 
 7 
 10 
3.164
 20 
0.89
 11 
3.026
 21 
0.89
 0 
LINE
 8 
0
 62 
 7 
 10 
3.054
 20 
0.867
 11 
3.054
 21 
0.855
 0 
LINE
 8 
0
 62 
 7 
 10 
3.054
 20 
0.855
 11 
3.077
 21 
0.832
 0 
LINE
 8 
0
 62 
 7 
 10 
3.077
 20 
0.832
 11 
3.101
 21 
0.855
 0 
LINE
 8 
0
 62 
 7 
 10 
3.101
 20 
0.855
 11 
3.101
 21 
0.867
 0 
LINE
 8 
0
 62 
 7 
 10 
3.077
 20 
0.797
 11 
3.077
 21 
0.832
 0 
LINE
 8 
0
 62 
 7 
 10 
3.154
 20 
0.89
 11 
3.154
 21 
0.782
 0 
LINE
 8 
0
 62 
 7 
 10 
3.144
 20 
0.9
 11 
3.144
 21 
0.762
 0 
LINE
 8 
0
 62 
 7 
 10 
3.283
 20 
0.195
 11 
3.271
 21 
0.207
 0 
LINE
 8 
0
 62 
 7 
 10 
3.271
 20 
0.207
 11 
3.248
 21 
0.207
 0 
LINE
 8 
0
 62 
 7 
 10 
3.248
 20 
0.207
 11 
3.236
 21 
0.195
 0 
LINE
 8 
0
 62 
 7 
 10 
3.236
 20 
0.195
 11 
3.236
 21 
0.149
 0 
LINE
 8 
0
 62 
 7 
 10 
3.236
 20 
0.149
 11 
3.248
 21 
0.137
 0 
LINE
 8 
0
 62 
 7 
 10 
3.248
 20 
0.137
 11 
3.283
 21 
0.137
 0 
LINE
 8 
0
 62 
 7 
 10 
3.283
 20 
0.137
 11 
3.283
 21 
0.16
 0 
LINE
 8 
0
 62 
 7 
 10 
3.283
 20 
0.16
 11 
3.271
 21 
0.16
 0 
LINE
 8 
0
 62 
 7 
 10 
2.998
 20 
0.099
 11 
2.998
 21 
0.247
 0 
LINE
 8 
0
 62 
 7 
 10 
2.998
 20 
0.247
 11 
3.343
 21 
0.247
 0 
LINE
 8 
0
 62 
 7 
 10 
3.343
 20 
0.247
 11 
3.343
 21 
0.099
 0 
LINE
 8 
0
 62 
 7 
 10 
3.018
 20 
0.237
 11 
3.018
 21 
0.109
 0 
LINE
 8 
0
 62 
 7 
 10 
3.166
 20 
0.109
 11 
3.165
 21 
0.244
 0 
LINE
 8 
0
 62 
 7 
 10 
3.166
 20 
0.227
 11 
3.028
 21 
0.227
 0 
LINE
 8 
0
 62 
 7 
 10 
3.056
 20 
0.204
 11 
3.056
 21 
0.192
 0 
LINE
 8 
0
 62 
 7 
 10 
3.056
 20 
0.192
 11 
3.079
 21 
0.169
 0 
LINE
 8 
0
 62 
 7 
 10 
3.079
 20 
0.169
 11 
3.103
 21 
0.192
 0 
LINE
 8 
0
 62 
 7 
 10 
3.103
 20 
0.192
 11 
3.103
 21 
0.204
 0 
LINE
 8 
0
 62 
 7 
 10 
3.079
 20 
0.134
 11 
3.079
 21 
0.169
 0 
LINE
 8 
0
 62 
 7 
 10 
3.156
 20 
0.227
 11 
3.156
 21 
0.119
 0 
LINE
 8 
0
 62 
 7 
 10 
3.146
 20 
0.237
 11 
3.146
 21 
0.099
 0 
LINE
 8 
0
 62 
 7 
 10 
3.008
 20 
0.109
 11 
3.166
 21 
0.109
 0 
LINE
 8 
0
 62 
 7 
 10 
4.942
 20 
0.756
 11 
4.942
 21 
0.256
 0 
LINE
 8 
0
 62 
 7 
 10 
5.305
 20 
0.756
 11 
5.305
 21 
0.256
 0 
LINE
 8 
0
 62 
 7 
 10 
4.942
 20 
0.756
 11 
5.305
 21 
0.756
 0 
LINE
 8 
0
 62 
 7 
 10 
4.942
 20 
0.256
 11 
5.305
 21 
0.256
 0 
LINE
 8 
0
 62 
 7 
 10 
4.952
 20 
0.097
 11 
5.293
 21 
0.097
 0 
LINE
 8 
0
 62 
 7 
 10 
5.231
 20 
0.858
 11 
5.219
 21 
0.87
 0 
LINE
 8 
0
 62 
 7 
 10 
5.219
 20 
0.87
 11 
5.196
 21 
0.87
 0 
LINE
 8 
0
 62 
 7 
 10 
5.196
 20 
0.87
 11 
5.184
 21 
0.858
 0 
LINE
 8 
0
 62 
 7 
 10 
5.184
 20 
0.858
 11 
5.184
 21 
0.812
 0 
LINE
 8 
0
 62 
 7 
 10 
5.184
 20 
0.812
 11 
5.196
 21 
0.8
 0 
LINE
 8 
0
 62 
 7 
 10 
5.196
 20 
0.8
 11 
5.231
 21 
0.8
 0 
LINE
 8 
0
 62 
 7 
 10 
5.231
 20 
0.8
 11 
5.231
 21 
0.823
 0 
LINE
 8 
0
 62 
 7 
 10 
5.231
 20 
0.823
 11 
5.219
 21 
0.823
 0 
LINE
 8 
0
 62 
 7 
 10 
4.946
 20 
0.762
 11 
4.946
 21 
0.91
 0 
LINE
 8 
0
 62 
 7 
 10 
4.946
 20 
0.91
 11 
5.291
 21 
0.91
 0 
LINE
 8 
0
 62 
 7 
 10 
5.291
 20 
0.91
 11 
5.291
 21 
0.762
 0 
LINE
 8 
0
 62 
 7 
 10 
4.966
 20 
0.9
 11 
4.966
 21 
0.772
 0 
LINE
 8 
0
 62 
 7 
 10 
4.956
 20 
0.772
 11 
5.114
 21 
0.772
 0 
LINE
 8 
0
 62 
 7 
 10 
5.114
 20 
0.772
 11 
5.113
 21 
0.907
 0 
LINE
 8 
0
 62 
 7 
 10 
5.114
 20 
0.89
 11 
4.976
 21 
0.89
 0 
LINE
 8 
0
 62 
 7 
 10 
5.004
 20 
0.867
 11 
5.004
 21 
0.855
 0 
LINE
 8 
0
 62 
 7 
 10 
5.004
 20 
0.855
 11 
5.027
 21 
0.832
 0 
LINE
 8 
0
 62 
 7 
 10 
5.027
 20 
0.832
 11 
5.051
 21 
0.855
 0 
LINE
 8 
0
 62 
 7 
 10 
5.051
 20 
0.855
 11 
5.051
 21 
0.867
 0 
LINE
 8 
0
 62 
 7 
 10 
5.027
 20 
0.797
 11 
5.027
 21 
0.832
 0 
LINE
 8 
0
 62 
 7 
 10 
5.104
 20 
0.89
 11 
5.104
 21 
0.782
 0 
LINE
 8 
0
 62 
 7 
 10 
5.094
 20 
0.9
 11 
5.094
 21 
0.762
 0 
LINE
 8 
0
 62 
 7 
 10 
5.233
 20 
0.195
 11 
5.221
 21 
0.207
 0 
LINE
 8 
0
 62 
 7 
 10 
5.221
 20 
0.207
 11 
5.198
 21 
0.207
 0 
LINE
 8 
0
 62 
 7 
 10 
5.198
 20 
0.207
 11 
5.186
 21 
0.195
 0 
LINE
 8 
0
 62 
 7 
 10 
5.186
 20 
0.195
 11 
5.186
 21 
0.149
 0 
LINE
 8 
0
 62 
 7 
 10 
5.186
 20 
0.149
 11 
5.198
 21 
0.137
 0 
LINE
 8 
0
 62 
 7 
 10 
5.198
 20 
0.137
 11 
5.233
 21 
0.137
 0 
LINE
 8 
0
 62 
 7 
 10 
5.233
 20 
0.137
 11 
5.233
 21 
0.16
 0 
LINE
 8 
0
 62 
 7 
 10 
5.233
 20 
0.16
 11 
5.221
 21 
0.16
 0 
LINE
 8 
0
 62 
 7 
 10 
4.948
 20 
0.099
 11 
4.948
 21 
0.247
 0 
LINE
 8 
0
 62 
 7 
 10 
4.948
 20 
0.247
 11 
5.293
 21 
0.247
 0 
LINE
 8 
0
 62 
 7 
 10 
5.293
 20 
0.247
 11 
5.293
 21 
0.099
 0 
LINE
 8 
0
 62 
 7 
 10 
4.968
 20 
0.237
 11 
4.968
 21 
0.109
 0 
LINE
 8 
0
 62 
 7 
 10 
5.116
 20 
0.109
 11 
5.115
 21 
0.244
 0 
LINE
 8 
0
 62 
 7 
 10 
5.116
 20 
0.227
 11 
4.978
 21 
0.227
 0 
LINE
 8 
0
 62 
 7 
 10 
5.006
 20 
0.204
 11 
5.006
 21 
0.192
 0 
LINE
 8 
0
 62 
 7 
 10 
5.006
 20 
0.192
 11 
5.029
 21 
0.169
 0 
LINE
 8 
0
 62 
 7 
 10 
5.029
 20 
0.169
 11 
5.053
 21 
0.192
 0 
LINE
 8 
0
 62 
 7 
 10 
5.053
 20 
0.192
 11 
5.053
 21 
0.204
 0 
LINE
 8 
0
 62 
 7 
 10 
5.029
 20 
0.134
 11 
5.029
 21 
0.169
 0 
LINE
 8 
0
 62 
 7 
 10 
5.106
 20 
0.227
 11 
5.106
 21 
0.119
 0 
LINE
 8 
0
 62 
 7 
 10 
5.096
 20 
0.237
 11 
5.096
 21 
0.099
 0 
LINE
 8 
0
 62 
 7 
 10 
4.958
 20 
0.109
 11 
5.116
 21 
0.109
 0 
LINE
 8 
0
 62 
 7 
 10 
5.592
 20 
0.756
 11 
5.592
 21 
0.256
 0 
LINE
 8 
0
 62 
 7 
 10 
5.955
 20 
0.756
 11 
5.955
 21 
0.256
 0 
LINE
 8 
0
 62 
 7 
 10 
5.592
 20 
0.756
 11 
5.955
 21 
0.756
 0 
LINE
 8 
0
 62 
 7 
 10 
5.592
 20 
0.256
 11 
5.955
 21 
0.256
 0 
LINE
 8 
0
 62 
 7 
 10 
5.602
 20 
0.097
 11 
5.943
 21 
0.097
 0 
LINE
 8 
0
 62 
 7 
 10 
5.881
 20 
0.858
 11 
5.869
 21 
0.87
 0 
LINE
 8 
0
 62 
 7 
 10 
5.869
 20 
0.87
 11 
5.846
 21 
0.87
 0 
LINE
 8 
0
 62 
 7 
 10 
5.846
 20 
0.87
 11 
5.834
 21 
0.858
 0 
LINE
 8 
0
 62 
 7 
 10 
5.834
 20 
0.858
 11 
5.834
 21 
0.812
 0 
LINE
 8 
0
 62 
 7 
 10 
5.834
 20 
0.812
 11 
5.846
 21 
0.8
 0 
LINE
 8 
0
 62 
 7 
 10 
5.846
 20 
0.8
 11 
5.881
 21 
0.8
 0 
LINE
 8 
0
 62 
 7 
 10 
5.881
 20 
0.8
 11 
5.881
 21 
0.823
 0 
LINE
 8 
0
 62 
 7 
 10 
5.881
 20 
0.823
 11 
5.869
 21 
0.823
 0 
LINE
 8 
0
 62 
 7 
 10 
5.596
 20 
0.762
 11 
5.596
 21 
0.91
 0 
LINE
 8 
0
 62 
 7 
 10 
5.596
 20 
0.91
 11 
5.941
 21 
0.91
 0 
LINE
 8 
0
 62 
 7 
 10 
5.941
 20 
0.91
 11 
5.941
 21 
0.762
 0 
LINE
 8 
0
 62 
 7 
 10 
5.616
 20 
0.9
 11 
5.616
 21 
0.772
 0 
LINE
 8 
0
 62 
 7 
 10 
5.606
 20 
0.772
 11 
5.764
 21 
0.772
 0 
LINE
 8 
0
 62 
 7 
 10 
5.764
 20 
0.772
 11 
5.763
 21 
0.907
 0 
LINE
 8 
0
 62 
 7 
 10 
5.764
 20 
0.89
 11 
5.626
 21 
0.89
 0 
LINE
 8 
0
 62 
 7 
 10 
5.654
 20 
0.867
 11 
5.654
 21 
0.855
 0 
LINE
 8 
0
 62 
 7 
 10 
5.654
 20 
0.855
 11 
5.677
 21 
0.832
 0 
LINE
 8 
0
 62 
 7 
 10 
5.677
 20 
0.832
 11 
5.701
 21 
0.855
 0 
LINE
 8 
0
 62 
 7 
 10 
5.701
 20 
0.855
 11 
5.701
 21 
0.867
 0 
LINE
 8 
0
 62 
 7 
 10 
5.677
 20 
0.797
 11 
5.677
 21 
0.832
 0 
LINE
 8 
0
 62 
 7 
 10 
5.754
 20 
0.89
 11 
5.754
 21 
0.782
 0 
LINE
 8 
0
 62 
 7 
 10 
5.744
 20 
0.9
 11 
5.744
 21 
0.762
 0 
LINE
 8 
0
 62 
 7 
 10 
5.883
 20 
0.195
 11 
5.871
 21 
0.207
 0 
LINE
 8 
0
 62 
 7 
 10 
5.871
 20 
0.207
 11 
5.848
 21 
0.207
 0 
LINE
 8 
0
 62 
 7 
 10 
5.848
 20 
0.207
 11 
5.836
 21 
0.195
 0 
LINE
 8 
0
 62 
 7 
 10 
5.836
 20 
0.195
 11 
5.836
 21 
0.149
 0 
LINE
 8 
0
 62 
 7 
 10 
5.836
 20 
0.149
 11 
5.848
 21 
0.137
 0 
LINE
 8 
0
 62 
 7 
 10 
5.848
 20 
0.137
 11 
5.883
 21 
0.137
 0 
LINE
 8 
0
 62 
 7 
 10 
5.883
 20 
0.137
 11 
5.883
 21 
0.16
 0 
LINE
 8 
0
 62 
 7 
 10 
5.883
 20 
0.16
 11 
5.871
 21 
0.16
 0 
LINE
 8 
0
 62 
 7 
 10 
5.598
 20 
0.099
 11 
5.598
 21 
0.247
 0 
LINE
 8 
0
 62 
 7 
 10 
5.598
 20 
0.247
 11 
5.943
 21 
0.247
 0 
LINE
 8 
0
 62 
 7 
 10 
5.943
 20 
0.247
 11 
5.943
 21 
0.099
 0 
LINE
 8 
0
 62 
 7 
 10 
5.618
 20 
0.237
 11 
5.618
 21 
0.109
 0 
LINE
 8 
0
 62 
 7 
 10 
5.766
 20 
0.109
 11 
5.765
 21 
0.244
 0 
LINE
 8 
0
 62 
 7 
 10 
5.766
 20 
0.227
 11 
5.628
 21 
0.227
 0 
LINE
 8 
0
 62 
 7 
 10 
5.656
 20 
0.204
 11 
5.656
 21 
0.192
 0 
LINE
 8 
0
 62 
 7 
 10 
5.656
 20 
0.192
 11 
5.679
 21 
0.169
 0 
LINE
 8 
0
 62 
 7 
 10 
5.679
 20 
0.169
 11 
5.703
 21 
0.192
 0 
LINE
 8 
0
 62 
 7 
 10 
5.703
 20 
0.192
 11 
5.703
 21 
0.204
 0 
LINE
 8 
0
 62 
 7 
 10 
5.679
 20 
0.134
 11 
5.679
 21 
0.169
 0 
LINE
 8 
0
 62 
 7 
 10 
5.756
 20 
0.227
 11 
5.756
 21 
0.119
 0 
LINE
 8 
0
 62 
 7 
 10 
5.746
 20 
0.237
 11 
5.746
 21 
0.099
 0 
LINE
 8 
0
 62 
 7 
 10 
5.608
 20 
0.109
 11 
5.766
 21 
0.109
 0 
LINE
 8 
0
 62 
 7 
 10 
4.292
 20 
0.756
 11 
4.292
 21 
0.256
 0 
LINE
 8 
0
 62 
 7 
 10 
4.655
 20 
0.756
 11 
4.655
 21 
0.256
 0 
LINE
 8 
0
 62 
 7 
 10 
4.292
 20 
0.756
 11 
4.655
 21 
0.756
 0 
LINE
 8 
0
 62 
 7 
 10 
4.292
 20 
0.256
 11 
4.655
 21 
0.256
 0 
LINE
 8 
0
 62 
 7 
 10 
4.302
 20 
0.097
 11 
4.643
 21 
0.097
 0 
LINE
 8 
0
 62 
 7 
 10 
4.581
 20 
0.858
 11 
4.569
 21 
0.87
 0 
LINE
 8 
0
 62 
 7 
 10 
4.569
 20 
0.87
 11 
4.546
 21 
0.87
 0 
LINE
 8 
0
 62 
 7 
 10 
4.546
 20 
0.87
 11 
4.534
 21 
0.858
 0 
LINE
 8 
0
 62 
 7 
 10 
4.534
 20 
0.858
 11 
4.534
 21 
0.812
 0 
LINE
 8 
0
 62 
 7 
 10 
4.534
 20 
0.812
 11 
4.546
 21 
0.8
 0 
LINE
 8 
0
 62 
 7 
 10 
4.546
 20 
0.8
 11 
4.581
 21 
0.8
 0 
LINE
 8 
0
 62 
 7 
 10 
4.581
 20 
0.8
 11 
4.581
 21 
0.823
 0 
LINE
 8 
0
 62 
 7 
 10 
4.581
 20 
0.823
 11 
4.569
 21 
0.823
 0 
LINE
 8 
0
 62 
 7 
 10 
4.296
 20 
0.762
 11 
4.296
 21 
0.91
 0 
LINE
 8 
0
 62 
 7 
 10 
4.296
 20 
0.91
 11 
4.641
 21 
0.91
 0 
LINE
 8 
0
 62 
 7 
 10 
4.641
 20 
0.91
 11 
4.641
 21 
0.762
 0 
LINE
 8 
0
 62 
 7 
 10 
4.316
 20 
0.9
 11 
4.316
 21 
0.772
 0 
LINE
 8 
0
 62 
 7 
 10 
4.306
 20 
0.772
 11 
4.464
 21 
0.772
 0 
LINE
 8 
0
 62 
 7 
 10 
4.464
 20 
0.772
 11 
4.463
 21 
0.907
 0 
LINE
 8 
0
 62 
 7 
 10 
4.464
 20 
0.89
 11 
4.326
 21 
0.89
 0 
LINE
 8 
0
 62 
 7 
 10 
4.354
 20 
0.867
 11 
4.354
 21 
0.855
 0 
LINE
 8 
0
 62 
 7 
 10 
4.354
 20 
0.855
 11 
4.377
 21 
0.832
 0 
LINE
 8 
0
 62 
 7 
 10 
4.377
 20 
0.832
 11 
4.401
 21 
0.855
 0 
LINE
 8 
0
 62 
 7 
 10 
4.401
 20 
0.855
 11 
4.401
 21 
0.867
 0 
LINE
 8 
0
 62 
 7 
 10 
4.377
 20 
0.797
 11 
4.377
 21 
0.832
 0 
LINE
 8 
0
 62 
 7 
 10 
4.454
 20 
0.89
 11 
4.454
 21 
0.782
 0 
LINE
 8 
0
 62 
 7 
 10 
4.444
 20 
0.9
 11 
4.444
 21 
0.762
 0 
LINE
 8 
0
 62 
 7 
 10 
4.583
 20 
0.195
 11 
4.571
 21 
0.207
 0 
LINE
 8 
0
 62 
 7 
 10 
4.571
 20 
0.207
 11 
4.548
 21 
0.207
 0 
LINE
 8 
0
 62 
 7 
 10 
4.548
 20 
0.207
 11 
4.536
 21 
0.195
 0 
LINE
 8 
0
 62 
 7 
 10 
4.536
 20 
0.195
 11 
4.536
 21 
0.149
 0 
LINE
 8 
0
 62 
 7 
 10 
4.536
 20 
0.149
 11 
4.548
 21 
0.137
 0 
LINE
 8 
0
 62 
 7 
 10 
4.548
 20 
0.137
 11 
4.583
 21 
0.137
 0 
LINE
 8 
0
 62 
 7 
 10 
4.583
 20 
0.137
 11 
4.583
 21 
0.16
 0 
LINE
 8 
0
 62 
 7 
 10 
4.583
 20 
0.16
 11 
4.571
 21 
0.16
 0 
LINE
 8 
0
 62 
 7 
 10 
4.298
 20 
0.099
 11 
4.298
 21 
0.247
 0 
LINE
 8 
0
 62 
 7 
 10 
4.298
 20 
0.247
 11 
4.643
 21 
0.247
 0 
LINE
 8 
0
 62 
 7 
 10 
4.643
 20 
0.247
 11 
4.643
 21 
0.099
 0 
LINE
 8 
0
 62 
 7 
 10 
4.318
 20 
0.237
 11 
4.318
 21 
0.109
 0 
LINE
 8 
0
 62 
 7 
 10 
4.466
 20 
0.109
 11 
4.465
 21 
0.244
 0 
LINE
 8 
0
 62 
 7 
 10 
4.466
 20 
0.227
 11 
4.328
 21 
0.227
 0 
LINE
 8 
0
 62 
 7 
 10 
4.356
 20 
0.204
 11 
4.356
 21 
0.192
 0 
LINE
 8 
0
 62 
 7 
 10 
4.356
 20 
0.192
 11 
4.379
 21 
0.169
 0 
LINE
 8 
0
 62 
 7 
 10 
4.379
 20 
0.169
 11 
4.403
 21 
0.192
 0 
LINE
 8 
0
 62 
 7 
 10 
4.403
 20 
0.192
 11 
4.403
 21 
0.204
 0 
LINE
 8 
0
 62 
 7 
 10 
4.379
 20 
0.134
 11 
4.379
 21 
0.169
 0 
LINE
 8 
0
 62 
 7 
 10 
4.456
 20 
0.227
 11 
4.456
 21 
0.119
 0 
LINE
 8 
0
 62 
 7 
 10 
4.446
 20 
0.237
 11 
4.446
 21 
0.099
 0 
LINE
 8 
0
 62 
 7 
 10 
4.308
 20 
0.109
 11 
4.466
 21 
0.109
 0 
LINE
 8 
0
 62 
 7 
 10 
0.342
 20 
0.756
 11 
0.342
 21 
0.256
 0 
LINE
 8 
0
 62 
 7 
 10 
0.705
 20 
0.756
 11 
0.705
 21 
0.256
 0 
LINE
 8 
0
 62 
 7 
 10 
0.342
 20 
0.756
 11 
0.705
 21 
0.756
 0 
LINE
 8 
0
 62 
 7 
 10 
0.342
 20 
0.256
 11 
0.705
 21 
0.256
 0 
LINE
 8 
0
 62 
 7 
 10 
0.352
 20 
0.097
 11 
0.693
 21 
0.097
 0 
LINE
 8 
0
 62 
 7 
 10 
0.631
 20 
0.858
 11 
0.619
 21 
0.87
 0 
LINE
 8 
0
 62 
 7 
 10 
0.619
 20 
0.87
 11 
0.596
 21 
0.87
 0 
LINE
 8 
0
 62 
 7 
 10 
0.596
 20 
0.87
 11 
0.584
 21 
0.858
 0 
LINE
 8 
0
 62 
 7 
 10 
0.584
 20 
0.858
 11 
0.584
 21 
0.812
 0 
LINE
 8 
0
 62 
 7 
 10 
0.584
 20 
0.812
 11 
0.596
 21 
0.8
 0 
LINE
 8 
0
 62 
 7 
 10 
0.596
 20 
0.8
 11 
0.631
 21 
0.8
 0 
LINE
 8 
0
 62 
 7 
 10 
0.631
 20 
0.8
 11 
0.631
 21 
0.823
 0 
LINE
 8 
0
 62 
 7 
 10 
0.631
 20 
0.823
 11 
0.619
 21 
0.823
 0 
LINE
 8 
0
 62 
 7 
 10 
0.346
 20 
0.762
 11 
0.346
 21 
0.91
 0 
LINE
 8 
0
 62 
 7 
 10 
0.346
 20 
0.91
 11 
0.691
 21 
0.91
 0 
LINE
 8 
0
 62 
 7 
 10 
0.691
 20 
0.91
 11 
0.691
 21 
0.762
 0 
LINE
 8 
0
 62 
 7 
 10 
0.366
 20 
0.9
 11 
0.366
 21 
0.772
 0 
LINE
 8 
0
 62 
 7 
 10 
0.356
 20 
0.772
 11 
0.514
 21 
0.772
 0 
LINE
 8 
0
 62 
 7 
 10 
0.514
 20 
0.772
 11 
0.513
 21 
0.907
 0 
LINE
 8 
0
 62 
 7 
 10 
0.514
 20 
0.89
 11 
0.376
 21 
0.89
 0 
LINE
 8 
0
 62 
 7 
 10 
0.404
 20 
0.867
 11 
0.404
 21 
0.855
 0 
LINE
 8 
0
 62 
 7 
 10 
0.404
 20 
0.855
 11 
0.427
 21 
0.832
 0 
LINE
 8 
0
 62 
 7 
 10 
0.427
 20 
0.832
 11 
0.451
 21 
0.855
 0 
LINE
 8 
0
 62 
 7 
 10 
0.451
 20 
0.855
 11 
0.451
 21 
0.867
 0 
LINE
 8 
0
 62 
 7 
 10 
0.427
 20 
0.797
 11 
0.427
 21 
0.832
 0 
LINE
 8 
0
 62 
 7 
 10 
0.504
 20 
0.89
 11 
0.504
 21 
0.782
 0 
LINE
 8 
0
 62 
 7 
 10 
0.494
 20 
0.9
 11 
0.494
 21 
0.762
 0 
LINE
 8 
0
 62 
 7 
 10 
0.633
 20 
0.195
 11 
0.621
 21 
0.207
 0 
LINE
 8 
0
 62 
 7 
 10 
0.621
 20 
0.207
 11 
0.598
 21 
0.207
 0 
LINE
 8 
0
 62 
 7 
 10 
0.598
 20 
0.207
 11 
0.586
 21 
0.195
 0 
LINE
 8 
0
 62 
 7 
 10 
0.586
 20 
0.195
 11 
0.586
 21 
0.149
 0 
LINE
 8 
0
 62 
 7 
 10 
0.586
 20 
0.149
 11 
0.598
 21 
0.137
 0 
LINE
 8 
0
 62 
 7 
 10 
0.598
 20 
0.137
 11 
0.633
 21 
0.137
 0 
LINE
 8 
0
 62 
 7 
 10 
0.633
 20 
0.137
 11 
0.633
 21 
0.16
 0 
LINE
 8 
0
 62 
 7 
 10 
0.633
 20 
0.16
 11 
0.621
 21 
0.16
 0 
LINE
 8 
0
 62 
 7 
 10 
0.348
 20 
0.099
 11 
0.348
 21 
0.247
 0 
LINE
 8 
0
 62 
 7 
 10 
0.348
 20 
0.247
 11 
0.693
 21 
0.247
 0 
LINE
 8 
0
 62 
 7 
 10 
0.693
 20 
0.247
 11 
0.693
 21 
0.099
 0 
LINE
 8 
0
 62 
 7 
 10 
0.368
 20 
0.237
 11 
0.368
 21 
0.109
 0 
LINE
 8 
0
 62 
 7 
 10 
0.516
 20 
0.109
 11 
0.515
 21 
0.244
 0 
LINE
 8 
0
 62 
 7 
 10 
0.516
 20 
0.227
 11 
0.378
 21 
0.227
 0 
LINE
 8 
0
 62 
 7 
 10 
0.406
 20 
0.204
 11 
0.406
 21 
0.192
 0 
LINE
 8 
0
 62 
 7 
 10 
0.406
 20 
0.192
 11 
0.429
 21 
0.169
 0 
LINE
 8 
0
 62 
 7 
 10 
0.429
 20 
0.169
 11 
0.453
 21 
0.192
 0 
LINE
 8 
0
 62 
 7 
 10 
0.453
 20 
0.192
 11 
0.453
 21 
0.204
 0 
LINE
 8 
0
 62 
 7 
 10 
0.429
 20 
0.134
 11 
0.429
 21 
0.169
 0 
LINE
 8 
0
 62 
 7 
 10 
0.506
 20 
0.227
 11 
0.506
 21 
0.119
 0 
LINE
 8 
0
 62 
 7 
 10 
0.496
 20 
0.237
 11 
0.496
 21 
0.099
 0 
LINE
 8 
0
 62 
 7 
 10 
0.358
 20 
0.109
 11 
0.516
 21 
0.109
 0 
LINE
 8 
0
 62 
 7 
 10 
6.267
 20 
0.756
 11 
6.267
 21 
0.256
 0 
LINE
 8 
0
 62 
 7 
 10 
6.63
 20 
0.756
 11 
6.63
 21 
0.256
 0 
LINE
 8 
0
 62 
 7 
 10 
6.267
 20 
0.756
 11 
6.63
 21 
0.756
 0 
LINE
 8 
0
 62 
 7 
 10 
6.267
 20 
0.256
 11 
6.63
 21 
0.256
 0 
LINE
 8 
0
 62 
 7 
 10 
6.277
 20 
0.097
 11 
6.618
 21 
0.097
 0 
LINE
 8 
0
 62 
 7 
 10 
6.556
 20 
0.858
 11 
6.544
 21 
0.87
 0 
LINE
 8 
0
 62 
 7 
 10 
6.544
 20 
0.87
 11 
6.521
 21 
0.87
 0 
LINE
 8 
0
 62 
 7 
 10 
6.521
 20 
0.87
 11 
6.509
 21 
0.858
 0 
LINE
 8 
0
 62 
 7 
 10 
6.509
 20 
0.858
 11 
6.509
 21 
0.812
 0 
LINE
 8 
0
 62 
 7 
 10 
6.509
 20 
0.812
 11 
6.521
 21 
0.8
 0 
LINE
 8 
0
 62 
 7 
 10 
6.521
 20 
0.8
 11 
6.556
 21 
0.8
 0 
LINE
 8 
0
 62 
 7 
 10 
6.556
 20 
0.8
 11 
6.556
 21 
0.823
 0 
LINE
 8 
0
 62 
 7 
 10 
6.556
 20 
0.823
 11 
6.544
 21 
0.823
 0 
LINE
 8 
0
 62 
 7 
 10 
6.271
 20 
0.762
 11 
6.271
 21 
0.91
 0 
LINE
 8 
0
 62 
 7 
 10 
6.271
 20 
0.91
 11 
6.616
 21 
0.91
 0 
LINE
 8 
0
 62 
 7 
 10 
6.616
 20 
0.91
 11 
6.616
 21 
0.762
 0 
LINE
 8 
0
 62 
 7 
 10 
6.291
 20 
0.9
 11 
6.291
 21 
0.772
 0 
LINE
 8 
0
 62 
 7 
 10 
6.281
 20 
0.772
 11 
6.439
 21 
0.772
 0 
LINE
 8 
0
 62 
 7 
 10 
6.439
 20 
0.772
 11 
6.438
 21 
0.907
 0 
LINE
 8 
0
 62 
 7 
 10 
6.439
 20 
0.89
 11 
6.301
 21 
0.89
 0 
LINE
 8 
0
 62 
 7 
 10 
6.329
 20 
0.867
 11 
6.329
 21 
0.855
 0 
LINE
 8 
0
 62 
 7 
 10 
6.329
 20 
0.855
 11 
6.352
 21 
0.832
 0 
LINE
 8 
0
 62 
 7 
 10 
6.352
 20 
0.832
 11 
6.376
 21 
0.855
 0 
LINE
 8 
0
 62 
 7 
 10 
6.376
 20 
0.855
 11 
6.376
 21 
0.867
 0 
LINE
 8 
0
 62 
 7 
 10 
6.352
 20 
0.797
 11 
6.352
 21 
0.832
 0 
LINE
 8 
0
 62 
 7 
 10 
6.429
 20 
0.89
 11 
6.429
 21 
0.782
 0 
LINE
 8 
0
 62 
 7 
 10 
6.419
 20 
0.9
 11 
6.419
 21 
0.762
 0 
LINE
 8 
0
 62 
 7 
 10 
6.558
 20 
0.195
 11 
6.546
 21 
0.207
 0 
LINE
 8 
0
 62 
 7 
 10 
6.546
 20 
0.207
 11 
6.523
 21 
0.207
 0 
LINE
 8 
0
 62 
 7 
 10 
6.523
 20 
0.207
 11 
6.511
 21 
0.195
 0 
LINE
 8 
0
 62 
 7 
 10 
6.511
 20 
0.195
 11 
6.511
 21 
0.149
 0 
LINE
 8 
0
 62 
 7 
 10 
6.511
 20 
0.149
 11 
6.523
 21 
0.137
 0 
LINE
 8 
0
 62 
 7 
 10 
6.523
 20 
0.137
 11 
6.558
 21 
0.137
 0 
LINE
 8 
0
 62 
 7 
 10 
6.558
 20 
0.137
 11 
6.558
 21 
0.16
 0 
LINE
 8 
0
 62 
 7 
 10 
6.558
 20 
0.16
 11 
6.546
 21 
0.16
 0 
LINE
 8 
0
 62 
 7 
 10 
6.273
 20 
0.099
 11 
6.273
 21 
0.247
 0 
LINE
 8 
0
 62 
 7 
 10 
6.273
 20 
0.247
 11 
6.618
 21 
0.247
 0 
LINE
 8 
0
 62 
 7 
 10 
6.618
 20 
0.247
 11 
6.618
 21 
0.099
 0 
LINE
 8 
0
 62 
 7 
 10 
6.293
 20 
0.237
 11 
6.293
 21 
0.109
 0 
LINE
 8 
0
 62 
 7 
 10 
6.441
 20 
0.109
 11 
6.44
 21 
0.244
 0 
LINE
 8 
0
 62 
 7 
 10 
6.441
 20 
0.227
 11 
6.303
 21 
0.227
 0 
LINE
 8 
0
 62 
 7 
 10 
6.331
 20 
0.204
 11 
6.331
 21 
0.192
 0 
LINE
 8 
0
 62 
 7 
 10 
6.331
 20 
0.192
 11 
6.354
 21 
0.169
 0 
LINE
 8 
0
 62 
 7 
 10 
6.354
 20 
0.169
 11 
6.378
 21 
0.192
 0 
LINE
 8 
0
 62 
 7 
 10 
6.378
 20 
0.192
 11 
6.378
 21 
0.204
 0 
LINE
 8 
0
 62 
 7 
 10 
6.354
 20 
0.134
 11 
6.354
 21 
0.169
 0 
LINE
 8 
0
 62 
 7 
 10 
6.431
 20 
0.227
 11 
6.431
 21 
0.119
 0 
LINE
 8 
0
 62 
 7 
 10 
6.421
 20 
0.237
 11 
6.421
 21 
0.099
 0 
LINE
 8 
0
 62 
 7 
 10 
6.283
 20 
0.109
 11 
6.441
 21 
0.109
 0 
LINE
 8 
0
 62 
 7 
 10 
0.85
 20 
0.65
 11 
0.85
 21 
0.697
 0 
LINE
 8 
0
 62 
 7 
 10 
0.85
 20 
0.673
 11 
0.92
 21 
0.673
 0 
LINE
 8 
0
 62 
 7 
 10 
0.897
 20 
0.72
 11 
0.897
 21 
0.767
 0 
LINE
 8 
0
 62 
 7 
 10 
0.897
 20 
0.767
 11 
0.885
 21 
0.767
 0 
LINE
 8 
0
 62 
 7 
 10 
0.885
 20 
0.767
 11 
0.873
 21 
0.755
 0 
LINE
 8 
0
 62 
 7 
 10 
0.873
 20 
0.755
 11 
0.873
 21 
0.732
 0 
LINE
 8 
0
 62 
 7 
 10 
0.873
 20 
0.732
 11 
0.885
 21 
0.72
 0 
LINE
 8 
0
 62 
 7 
 10 
0.885
 20 
0.72
 11 
0.908
 21 
0.72
 0 
LINE
 8 
0
 62 
 7 
 10 
0.908
 20 
0.72
 11 
0.92
 21 
0.732
 0 
LINE
 8 
0
 62 
 7 
 10 
0.92
 20 
0.732
 11 
0.92
 21 
0.755
 0 
LINE
 8 
0
 62 
 7 
 10 
0.873
 20 
0.79
 11 
0.92
 21 
0.79
 0 
LINE
 8 
0
 62 
 7 
 10 
0.897
 20 
0.79
 11 
0.873
 21 
0.813
 0 
LINE
 8 
0
 62 
 7 
 10 
0.873
 20 
0.813
 11 
0.873
 21 
0.825
 0 
LINE
 8 
0
 62 
 7 
 10 
0.873
 20 
0.825
 11 
0.885
 21 
0.837
 0 
LINE
 8 
0
 62 
 7 
 10 
0.873
 20 
0.86
 11 
0.92
 21 
0.86
 0 
LINE
 8 
0
 62 
 7 
 10 
0.885
 20 
0.86
 11 
0.873
 21 
0.872
 0 
LINE
 8 
0
 62 
 7 
 10 
0.873
 20 
0.872
 11 
0.885
 21 
0.883
 0 
LINE
 8 
0
 62 
 7 
 10 
0.885
 20 
0.883
 11 
0.92
 21 
0.883
 0 
LINE
 8 
0
 62 
 7 
 10 
0.885
 20 
0.883
 11 
0.873
 21 
0.895
 0 
LINE
 8 
0
 62 
 7 
 10 
0.873
 20 
0.895
 11 
0.885
 21 
0.907
 0 
LINE
 8 
0
 62 
 7 
 10 
0.885
 20 
0.907
 11 
0.92
 21 
0.907
 0 
LINE
 8 
0
 62 
 7 
 10 
6.075
 20 
0.65
 11 
6.075
 21 
0.697
 0 
LINE
 8 
0
 62 
 7 
 10 
6.075
 20 
0.673
 11 
6.145
 21 
0.673
 0 
LINE
 8 
0
 62 
 7 
 10 
6.122
 20 
0.72
 11 
6.122
 21 
0.767
 0 
LINE
 8 
0
 62 
 7 
 10 
6.122
 20 
0.767
 11 
6.11
 21 
0.767
 0 
LINE
 8 
0
 62 
 7 
 10 
6.11
 20 
0.767
 11 
6.098
 21 
0.755
 0 
LINE
 8 
0
 62 
 7 
 10 
6.098
 20 
0.755
 11 
6.098
 21 
0.732
 0 
LINE
 8 
0
 62 
 7 
 10 
6.098
 20 
0.732
 11 
6.11
 21 
0.72
 0 
LINE
 8 
0
 62 
 7 
 10 
6.11
 20 
0.72
 11 
6.133
 21 
0.72
 0 
LINE
 8 
0
 62 
 7 
 10 
6.133
 20 
0.72
 11 
6.145
 21 
0.732
 0 
LINE
 8 
0
 62 
 7 
 10 
6.145
 20 
0.732
 11 
6.145
 21 
0.755
 0 
LINE
 8 
0
 62 
 7 
 10 
6.098
 20 
0.79
 11 
6.145
 21 
0.79
 0 
LINE
 8 
0
 62 
 7 
 10 
6.122
 20 
0.79
 11 
6.098
 21 
0.813
 0 
LINE
 8 
0
 62 
 7 
 10 
6.098
 20 
0.813
 11 
6.098
 21 
0.825
 0 
LINE
 8 
0
 62 
 7 
 10 
6.098
 20 
0.825
 11 
6.11
 21 
0.837
 0 
LINE
 8 
0
 62 
 7 
 10 
6.098
 20 
0.86
 11 
6.145
 21 
0.86
 0 
LINE
 8 
0
 62 
 7 
 10 
6.11
 20 
0.86
 11 
6.098
 21 
0.872
 0 
LINE
 8 
0
 62 
 7 
 10 
6.098
 20 
0.872
 11 
6.11
 21 
0.883
 0 
LINE
 8 
0
 62 
 7 
 10 
6.11
 20 
0.883
 11 
6.145
 21 
0.883
 0 
LINE
 8 
0
 62 
 7 
 10 
6.11
 20 
0.883
 11 
6.098
 21 
0.895
 0 
LINE
 8 
0
 62 
 7 
 10 
6.098
 20 
0.895
 11 
6.11
 21 
0.907
 0 
LINE
 8 
0
 62 
 7 
 10 
6.11
 20 
0.907
 11 
6.145
 21 
0.907
 0 
LINE
 8 
0
 62 
 7 
 10 
1.5
 20 
2.242
 11 
1.5
 21 
2.292
 0 
LINE
 8 
0
 62 
 7 
 10 
1.5
 20 
2.292
 11 
1.583
 21 
2.292
 0 
LINE
 8 
0
 62 
 7 
 10 
1.583
 20 
2.292
 11 
1.6
 21 
2.275
 0 
LINE
 8 
0
 62 
 7 
 10 
1.6
 20 
2.275
 11 
1.6
 21 
2.242
 0 
LINE
 8 
0
 62 
 7 
 10 
1.6
 20 
2.242
 11 
1.583
 21 
2.225
 0 
LINE
 8 
0
 62 
 7 
 10 
1.55
 20 
2.392
 11 
1.533
 21 
2.375
 0 
LINE
 8 
0
 62 
 7 
 10 
1.533
 20 
2.375
 11 
1.533
 21 
2.342
 0 
LINE
 8 
0
 62 
 7 
 10 
1.533
 20 
2.342
 11 
1.55
 21 
2.325
 0 
LINE
 8 
0
 62 
 7 
 10 
1.55
 20 
2.325
 11 
1.583
 21 
2.325
 0 
LINE
 8 
0
 62 
 7 
 10 
1.583
 20 
2.325
 11 
1.6
 21 
2.342
 0 
LINE
 8 
0
 62 
 7 
 10 
1.6
 20 
2.342
 11 
1.6
 21 
2.375
 0 
LINE
 8 
0
 62 
 7 
 10 
1.6
 20 
2.375
 11 
1.583
 21 
2.392
 0 
LINE
 8 
0
 62 
 7 
 10 
1.583
 20 
2.392
 11 
1.55
 21 
2.392
 0 
LINE
 8 
0
 62 
 7 
 10 
1.5
 20 
2.442
 11 
1.5
 21 
2.458
 0 
LINE
 8 
0
 62 
 7 
 10 
1.5
 20 
2.458
 11 
1.6
 21 
2.458
 0 
LINE
 8 
0
 62 
 7 
 10 
1.6
 20 
2.442
 11 
1.6
 21 
2.475
 0 
LINE
 8 
0
 62 
 7 
 10 
1.5
 20 
2.558
 11 
1.517
 21 
2.558
 0 
LINE
 8 
0
 62 
 7 
 10 
1.6
 20 
2.542
 11 
1.6
 21 
2.575
 0 
LINE
 8 
0
 62 
 7 
 10 
1.55
 20 
2.542
 11 
1.55
 21 
2.558
 0 
LINE
 8 
0
 62 
 7 
 10 
1.55
 20 
2.558
 11 
1.6
 21 
2.558
 0 
LINE
 8 
0
 62 
 7 
 10 
1.567
 20 
2.625
 11 
1.567
 21 
2.692
 0 
LINE
 8 
0
 62 
 7 
 10 
1.567
 20 
2.692
 11 
1.55
 21 
2.692
 0 
LINE
 8 
0
 62 
 7 
 10 
1.55
 20 
2.692
 11 
1.533
 21 
2.675
 0 
LINE
 8 
0
 62 
 7 
 10 
1.533
 20 
2.675
 11 
1.533
 21 
2.642
 0 
LINE
 8 
0
 62 
 7 
 10 
1.533
 20 
2.642
 11 
1.55
 21 
2.625
 0 
LINE
 8 
0
 62 
 7 
 10 
1.55
 20 
2.625
 11 
1.583
 21 
2.625
 0 
LINE
 8 
0
 62 
 7 
 10 
1.583
 20 
2.625
 11 
1.6
 21 
2.642
 0 
LINE
 8 
0
 62 
 7 
 10 
1.6
 20 
2.642
 11 
1.6
 21 
2.675
 0 
LINE
 8 
0
 62 
 7 
 10 
1.5
 20 
2.742
 11 
1.583
 21 
2.742
 0 
LINE
 8 
0
 62 
 7 
 10 
1.583
 20 
2.742
 11 
1.6
 21 
2.758
 0 
LINE
 8 
0
 62 
 7 
 10 
1.6
 20 
2.758
 11 
1.6
 21 
2.775
 0 
LINE
 8 
0
 62 
 7 
 10 
1.6
 20 
2.775
 11 
1.583
 21 
2.792
 0 
LINE
 8 
0
 62 
 7 
 10 
1.533
 20 
2.725
 11 
1.533
 21 
2.775
 0 
LINE
 8 
0
 62 
 7 
 10 
1.5
 20 
0.242
 11 
1.5
 21 
0.292
 0 
LINE
 8 
0
 62 
 7 
 10 
1.5
 20 
0.292
 11 
1.583
 21 
0.292
 0 
LINE
 8 
0
 62 
 7 
 10 
1.583
 20 
0.292
 11 
1.6
 21 
0.275
 0 
LINE
 8 
0
 62 
 7 
 10 
1.6
 20 
0.275
 11 
1.6
 21 
0.242
 0 
LINE
 8 
0
 62 
 7 
 10 
1.6
 20 
0.242
 11 
1.583
 21 
0.225
 0 
LINE
 8 
0
 62 
 7 
 10 
1.55
 20 
0.392
 11 
1.533
 21 
0.375
 0 
LINE
 8 
0
 62 
 7 
 10 
1.533
 20 
0.375
 11 
1.533
 21 
0.342
 0 
LINE
 8 
0
 62 
 7 
 10 
1.533
 20 
0.342
 11 
1.55
 21 
0.325
 0 
LINE
 8 
0
 62 
 7 
 10 
1.55
 20 
0.325
 11 
1.583
 21 
0.325
 0 
LINE
 8 
0
 62 
 7 
 10 
1.583
 20 
0.325
 11 
1.6
 21 
0.342
 0 
LINE
 8 
0
 62 
 7 
 10 
1.6
 20 
0.342
 11 
1.6
 21 
0.375
 0 
LINE
 8 
0
 62 
 7 
 10 
1.6
 20 
0.375
 11 
1.583
 21 
0.392
 0 
LINE
 8 
0
 62 
 7 
 10 
1.583
 20 
0.392
 11 
1.55
 21 
0.392
 0 
LINE
 8 
0
 62 
 7 
 10 
1.5
 20 
0.442
 11 
1.5
 21 
0.458
 0 
LINE
 8 
0
 62 
 7 
 10 
1.5
 20 
0.458
 11 
1.6
 21 
0.458
 0 
LINE
 8 
0
 62 
 7 
 10 
1.6
 20 
0.442
 11 
1.6
 21 
0.475
 0 
LINE
 8 
0
 62 
 7 
 10 
1.5
 20 
0.558
 11 
1.517
 21 
0.558
 0 
LINE
 8 
0
 62 
 7 
 10 
1.6
 20 
0.542
 11 
1.6
 21 
0.575
 0 
LINE
 8 
0
 62 
 7 
 10 
1.55
 20 
0.542
 11 
1.55
 21 
0.558
 0 
LINE
 8 
0
 62 
 7 
 10 
1.55
 20 
0.558
 11 
1.6
 21 
0.558
 0 
LINE
 8 
0
 62 
 7 
 10 
1.567
 20 
0.625
 11 
1.567
 21 
0.692
 0 
LINE
 8 
0
 62 
 7 
 10 
1.567
 20 
0.692
 11 
1.55
 21 
0.692
 0 
LINE
 8 
0
 62 
 7 
 10 
1.55
 20 
0.692
 11 
1.533
 21 
0.675
 0 
LINE
 8 
0
 62 
 7 
 10 
1.533
 20 
0.675
 11 
1.533
 21 
0.642
 0 
LINE
 8 
0
 62 
 7 
 10 
1.533
 20 
0.642
 11 
1.55
 21 
0.625
 0 
LINE
 8 
0
 62 
 7 
 10 
1.55
 20 
0.625
 11 
1.583
 21 
0.625
 0 
LINE
 8 
0
 62 
 7 
 10 
1.583
 20 
0.625
 11 
1.6
 21 
0.642
 0 
LINE
 8 
0
 62 
 7 
 10 
1.6
 20 
0.642
 11 
1.6
 21 
0.675
 0 
LINE
 8 
0
 62 
 7 
 10 
1.5
 20 
0.742
 11 
1.583
 21 
0.742
 0 
LINE
 8 
0
 62 
 7 
 10 
1.583
 20 
0.742
 11 
1.6
 21 
0.758
 0 
LINE
 8 
0
 62 
 7 
 10 
1.6
 20 
0.758
 11 
1.6
 21 
0.775
 0 
LINE
 8 
0
 62 
 7 
 10 
1.6
 20 
0.775
 11 
1.583
 21 
0.792
 0 
LINE
 8 
0
 62 
 7 
 10 
1.533
 20 
0.725
 11 
1.533
 21 
0.775
 0 
LINE
 8 
0
 62 
 7 
 10 
1.5
 20 
1.242
 11 
1.5
 21 
1.292
 0 
LINE
 8 
0
 62 
 7 
 10 
1.5
 20 
1.292
 11 
1.583
 21 
1.292
 0 
LINE
 8 
0
 62 
 7 
 10 
1.583
 20 
1.292
 11 
1.6
 21 
1.275
 0 
LINE
 8 
0
 62 
 7 
 10 
1.6
 20 
1.275
 11 
1.6
 21 
1.242
 0 
LINE
 8 
0
 62 
 7 
 10 
1.6
 20 
1.242
 11 
1.583
 21 
1.225
 0 
LINE
 8 
0
 62 
 7 
 10 
1.55
 20 
1.392
 11 
1.533
 21 
1.375
 0 
LINE
 8 
0
 62 
 7 
 10 
1.533
 20 
1.375
 11 
1.533
 21 
1.342
 0 
LINE
 8 
0
 62 
 7 
 10 
1.533
 20 
1.342
 11 
1.55
 21 
1.325
 0 
LINE
 8 
0
 62 
 7 
 10 
1.55
 20 
1.325
 11 
1.583
 21 
1.325
 0 
LINE
 8 
0
 62 
 7 
 10 
1.583
 20 
1.325
 11 
1.6
 21 
1.342
 0 
LINE
 8 
0
 62 
 7 
 10 
1.6
 20 
1.342
 11 
1.6
 21 
1.375
 0 
LINE
 8 
0
 62 
 7 
 10 
1.6
 20 
1.375
 11 
1.583
 21 
1.392
 0 
LINE
 8 
0
 62 
 7 
 10 
1.583
 20 
1.392
 11 
1.55
 21 
1.392
 0 
LINE
 8 
0
 62 
 7 
 10 
1.5
 20 
1.442
 11 
1.5
 21 
1.458
 0 
LINE
 8 
0
 62 
 7 
 10 
1.5
 20 
1.458
 11 
1.6
 21 
1.458
 0 
LINE
 8 
0
 62 
 7 
 10 
1.6
 20 
1.442
 11 
1.6
 21 
1.475
 0 
LINE
 8 
0
 62 
 7 
 10 
1.5
 20 
1.558
 11 
1.517
 21 
1.558
 0 
LINE
 8 
0
 62 
 7 
 10 
1.6
 20 
1.542
 11 
1.6
 21 
1.575
 0 
LINE
 8 
0
 62 
 7 
 10 
1.55
 20 
1.542
 11 
1.55
 21 
1.558
 0 
LINE
 8 
0
 62 
 7 
 10 
1.55
 20 
1.558
 11 
1.6
 21 
1.558
 0 
LINE
 8 
0
 62 
 7 
 10 
1.567
 20 
1.625
 11 
1.567
 21 
1.692
 0 
LINE
 8 
0
 62 
 7 
 10 
1.567
 20 
1.692
 11 
1.55
 21 
1.692
 0 
LINE
 8 
0
 62 
 7 
 10 
1.55
 20 
1.692
 11 
1.533
 21 
1.675
 0 
LINE
 8 
0
 62 
 7 
 10 
1.533
 20 
1.675
 11 
1.533
 21 
1.642
 0 
LINE
 8 
0
 62 
 7 
 10 
1.533
 20 
1.642
 11 
1.55
 21 
1.625
 0 
LINE
 8 
0
 62 
 7 
 10 
1.55
 20 
1.625
 11 
1.583
 21 
1.625
 0 
LINE
 8 
0
 62 
 7 
 10 
1.583
 20 
1.625
 11 
1.6
 21 
1.642
 0 
LINE
 8 
0
 62 
 7 
 10 
1.6
 20 
1.642
 11 
1.6
 21 
1.675
 0 
LINE
 8 
0
 62 
 7 
 10 
1.5
 20 
1.742
 11 
1.583
 21 
1.742
 0 
LINE
 8 
0
 62 
 7 
 10 
1.583
 20 
1.742
 11 
1.6
 21 
1.758
 0 
LINE
 8 
0
 62 
 7 
 10 
1.6
 20 
1.758
 11 
1.6
 21 
1.775
 0 
LINE
 8 
0
 62 
 7 
 10 
1.6
 20 
1.775
 11 
1.583
 21 
1.792
 0 
LINE
 8 
0
 62 
 7 
 10 
1.533
 20 
1.725
 11 
1.533
 21 
1.775
 0 
LINE
 8 
0
 62 
 7 
 10 
2.167
 20 
1.217
 11 
2.15
 21 
1.2
 0 
LINE
 8 
0
 62 
 7 
 10 
2.15
 20 
1.2
 11 
2.15
 21 
1.167
 0 
LINE
 8 
0
 62 
 7 
 10 
2.15
 20 
1.167
 11 
2.167
 21 
1.15
 0 
LINE
 8 
0
 62 
 7 
 10 
2.167
 20 
1.15
 11 
2.233
 21 
1.15
 0 
LINE
 8 
0
 62 
 7 
 10 
2.233
 20 
1.15
 11 
2.25
 21 
1.167
 0 
LINE
 8 
0
 62 
 7 
 10 
2.25
 20 
1.167
 11 
2.25
 21 
1.2
 0 
LINE
 8 
0
 62 
 7 
 10 
2.25
 20 
1.2
 11 
2.233
 21 
1.217
 0 
LINE
 8 
0
 62 
 7 
 10 
2.183
 20 
1.25
 11 
2.233
 21 
1.25
 0 
LINE
 8 
0
 62 
 7 
 10 
2.233
 20 
1.25
 11 
2.25
 21 
1.267
 0 
LINE
 8 
0
 62 
 7 
 10 
2.25
 20 
1.267
 11 
2.25
 21 
1.283
 0 
LINE
 8 
0
 62 
 7 
 10 
2.25
 20 
1.283
 11 
2.217
 21 
1.317
 0 
LINE
 8 
0
 62 
 7 
 10 
2.183
 20 
1.317
 11 
2.267
 21 
1.317
 0 
LINE
 8 
0
 62 
 7 
 10 
2.267
 20 
1.317
 11 
2.283
 21 
1.3
 0 
LINE
 8 
0
 62 
 7 
 10 
2.283
 20 
1.3
 11 
2.283
 21 
1.25
 0 
LINE
 8 
0
 62 
 7 
 10 
2.15
 20 
1.35
 11 
2.25
 21 
1.35
 0 
LINE
 8 
0
 62 
 7 
 10 
2.217
 20 
1.35
 11 
2.183
 21 
1.383
 0 
LINE
 8 
0
 62 
 7 
 10 
2.183
 20 
1.383
 11 
2.183
 21 
1.4
 0 
LINE
 8 
0
 62 
 7 
 10 
2.183
 20 
1.4
 11 
2.2
 21 
1.417
 0 
LINE
 8 
0
 62 
 7 
 10 
2.2
 20 
1.417
 11 
2.233
 21 
1.417
 0 
LINE
 8 
0
 62 
 7 
 10 
2.233
 20 
1.417
 11 
2.25
 21 
1.4
 0 
LINE
 8 
0
 62 
 7 
 10 
2.25
 20 
1.4
 11 
2.25
 21 
1.367
 0 
LINE
 8 
0
 62 
 7 
 10 
2.25
 20 
1.367
 11 
2.233
 21 
1.35
 0 
LINE
 8 
0
 62 
 7 
 10 
2.2
 20 
1.517
 11 
2.183
 21 
1.5
 0 
LINE
 8 
0
 62 
 7 
 10 
2.183
 20 
1.5
 11 
2.183
 21 
1.467
 0 
LINE
 8 
0
 62 
 7 
 10 
2.183
 20 
1.467
 11 
2.2
 21 
1.45
 0 
LINE
 8 
0
 62 
 7 
 10 
2.2
 20 
1.45
 11 
2.233
 21 
1.45
 0 
LINE
 8 
0
 62 
 7 
 10 
2.233
 20 
1.45
 11 
2.25
 21 
1.467
 0 
LINE
 8 
0
 62 
 7 
 10 
2.25
 20 
1.467
 11 
2.25
 21 
1.5
 0 
LINE
 8 
0
 62 
 7 
 10 
2.25
 20 
1.5
 11 
2.233
 21 
1.517
 0 
LINE
 8 
0
 62 
 7 
 10 
2.233
 20 
1.517
 11 
2.2
 21 
1.517
 0 
LINE
 8 
0
 62 
 7 
 10 
2.183
 20 
1.55
 11 
2.25
 21 
1.55
 0 
LINE
 8 
0
 62 
 7 
 10 
2.217
 20 
1.55
 11 
2.183
 21 
1.583
 0 
LINE
 8 
0
 62 
 7 
 10 
2.183
 20 
1.583
 11 
2.183
 21 
1.6
 0 
LINE
 8 
0
 62 
 7 
 10 
2.183
 20 
1.6
 11 
2.2
 21 
1.617
 0 
LINE
 8 
0
 62 
 7 
 10 
2.2
 20 
1.717
 11 
2.183
 21 
1.7
 0 
LINE
 8 
0
 62 
 7 
 10 
2.183
 20 
1.7
 11 
2.183
 21 
1.667
 0 
LINE
 8 
0
 62 
 7 
 10 
2.183
 20 
1.667
 11 
2.2
 21 
1.65
 0 
LINE
 8 
0
 62 
 7 
 10 
2.2
 20 
1.65
 11 
2.233
 21 
1.65
 0 
LINE
 8 
0
 62 
 7 
 10 
2.233
 20 
1.65
 11 
2.25
 21 
1.667
 0 
LINE
 8 
0
 62 
 7 
 10 
2.25
 20 
1.667
 11 
2.25
 21 
1.683
 0 
LINE
 8 
0
 62 
 7 
 10 
2.25
 20 
1.683
 11 
2.217
 21 
1.717
 0 
LINE
 8 
0
 62 
 7 
 10 
2.183
 20 
1.717
 11 
2.267
 21 
1.717
 0 
LINE
 8 
0
 62 
 7 
 10 
2.267
 20 
1.717
 11 
2.283
 21 
1.7
 0 
LINE
 8 
0
 62 
 7 
 10 
2.283
 20 
1.7
 11 
2.283
 21 
1.65
 0 
LINE
 8 
0
 62 
 7 
 10 
2.183
 20 
1.817
 11 
2.183
 21 
1.767
 0 
LINE
 8 
0
 62 
 7 
 10 
2.183
 20 
1.767
 11 
2.2
 21 
1.75
 0 
LINE
 8 
0
 62 
 7 
 10 
2.2
 20 
1.75
 11 
2.217
 21 
1.767
 0 
LINE
 8 
0
 62 
 7 
 10 
2.217
 20 
1.767
 11 
2.217
 21 
1.8
 0 
LINE
 8 
0
 62 
 7 
 10 
2.217
 20 
1.8
 11 
2.233
 21 
1.817
 0 
LINE
 8 
0
 62 
 7 
 10 
2.233
 20 
1.817
 11 
2.25
 21 
1.8
 0 
LINE
 8 
0
 62 
 7 
 10 
2.25
 20 
1.8
 11 
2.25
 21 
1.75
 0 
LINE
 8 
0
 62 
 7 
 10 
2.167
 20 
0.217
 11 
2.15
 21 
0.2
 0 
LINE
 8 
0
 62 
 7 
 10 
2.15
 20 
0.2
 11 
2.15
 21 
0.167
 0 
LINE
 8 
0
 62 
 7 
 10 
2.15
 20 
0.167
 11 
2.167
 21 
0.15
 0 
LINE
 8 
0
 62 
 7 
 10 
2.167
 20 
0.15
 11 
2.233
 21 
0.15
 0 
LINE
 8 
0
 62 
 7 
 10 
2.233
 20 
0.15
 11 
2.25
 21 
0.167
 0 
LINE
 8 
0
 62 
 7 
 10 
2.25
 20 
0.167
 11 
2.25
 21 
0.2
 0 
LINE
 8 
0
 62 
 7 
 10 
2.25
 20 
0.2
 11 
2.233
 21 
0.217
 0 
LINE
 8 
0
 62 
 7 
 10 
2.183
 20 
0.25
 11 
2.233
 21 
0.25
 0 
LINE
 8 
0
 62 
 7 
 10 
2.233
 20 
0.25
 11 
2.25
 21 
0.267
 0 
LINE
 8 
0
 62 
 7 
 10 
2.25
 20 
0.267
 11 
2.25
 21 
0.283
 0 
LINE
 8 
0
 62 
 7 
 10 
2.25
 20 
0.283
 11 
2.217
 21 
0.317
 0 
LINE
 8 
0
 62 
 7 
 10 
2.183
 20 
0.317
 11 
2.267
 21 
0.317
 0 
LINE
 8 
0
 62 
 7 
 10 
2.267
 20 
0.317
 11 
2.283
 21 
0.3
 0 
LINE
 8 
0
 62 
 7 
 10 
2.283
 20 
0.3
 11 
2.283
 21 
0.25
 0 
LINE
 8 
0
 62 
 7 
 10 
2.15
 20 
0.35
 11 
2.25
 21 
0.35
 0 
LINE
 8 
0
 62 
 7 
 10 
2.217
 20 
0.35
 11 
2.183
 21 
0.383
 0 
LINE
 8 
0
 62 
 7 
 10 
2.183
 20 
0.383
 11 
2.183
 21 
0.4
 0 
LINE
 8 
0
 62 
 7 
 10 
2.183
 20 
0.4
 11 
2.2
 21 
0.417
 0 
LINE
 8 
0
 62 
 7 
 10 
2.2
 20 
0.417
 11 
2.233
 21 
0.417
 0 
LINE
 8 
0
 62 
 7 
 10 
2.233
 20 
0.417
 11 
2.25
 21 
0.4
 0 
LINE
 8 
0
 62 
 7 
 10 
2.25
 20 
0.4
 11 
2.25
 21 
0.367
 0 
LINE
 8 
0
 62 
 7 
 10 
2.25
 20 
0.367
 11 
2.233
 21 
0.35
 0 
LINE
 8 
0
 62 
 7 
 10 
2.2
 20 
0.517
 11 
2.183
 21 
0.5
 0 
LINE
 8 
0
 62 
 7 
 10 
2.183
 20 
0.5
 11 
2.183
 21 
0.467
 0 
LINE
 8 
0
 62 
 7 
 10 
2.183
 20 
0.467
 11 
2.2
 21 
0.45
 0 
LINE
 8 
0
 62 
 7 
 10 
2.2
 20 
0.45
 11 
2.233
 21 
0.45
 0 
LINE
 8 
0
 62 
 7 
 10 
2.233
 20 
0.45
 11 
2.25
 21 
0.467
 0 
LINE
 8 
0
 62 
 7 
 10 
2.25
 20 
0.467
 11 
2.25
 21 
0.5
 0 
LINE
 8 
0
 62 
 7 
 10 
2.25
 20 
0.5
 11 
2.233
 21 
0.517
 0 
LINE
 8 
0
 62 
 7 
 10 
2.233
 20 
0.517
 11 
2.2
 21 
0.517
 0 
LINE
 8 
0
 62 
 7 
 10 
2.183
 20 
0.55
 11 
2.25
 21 
0.55
 0 
LINE
 8 
0
 62 
 7 
 10 
2.217
 20 
0.55
 11 
2.183
 21 
0.583
 0 
LINE
 8 
0
 62 
 7 
 10 
2.183
 20 
0.583
 11 
2.183
 21 
0.6
 0 
LINE
 8 
0
 62 
 7 
 10 
2.183
 20 
0.6
 11 
2.2
 21 
0.617
 0 
LINE
 8 
0
 62 
 7 
 10 
2.2
 20 
0.717
 11 
2.183
 21 
0.7
 0 
LINE
 8 
0
 62 
 7 
 10 
2.183
 20 
0.7
 11 
2.183
 21 
0.667
 0 
LINE
 8 
0
 62 
 7 
 10 
2.183
 20 
0.667
 11 
2.2
 21 
0.65
 0 
LINE
 8 
0
 62 
 7 
 10 
2.2
 20 
0.65
 11 
2.233
 21 
0.65
 0 
LINE
 8 
0
 62 
 7 
 10 
2.233
 20 
0.65
 11 
2.25
 21 
0.667
 0 
LINE
 8 
0
 62 
 7 
 10 
2.25
 20 
0.667
 11 
2.25
 21 
0.683
 0 
LINE
 8 
0
 62 
 7 
 10 
2.25
 20 
0.683
 11 
2.217
 21 
0.717
 0 
LINE
 8 
0
 62 
 7 
 10 
2.183
 20 
0.717
 11 
2.267
 21 
0.717
 0 
LINE
 8 
0
 62 
 7 
 10 
2.267
 20 
0.717
 11 
2.283
 21 
0.7
 0 
LINE
 8 
0
 62 
 7 
 10 
2.283
 20 
0.7
 11 
2.283
 21 
0.65
 0 
LINE
 8 
0
 62 
 7 
 10 
2.183
 20 
0.817
 11 
2.183
 21 
0.767
 0 
LINE
 8 
0
 62 
 7 
 10 
2.183
 20 
0.767
 11 
2.2
 21 
0.75
 0 
LINE
 8 
0
 62 
 7 
 10 
2.2
 20 
0.75
 11 
2.217
 21 
0.767
 0 
LINE
 8 
0
 62 
 7 
 10 
2.217
 20 
0.767
 11 
2.217
 21 
0.8
 0 
LINE
 8 
0
 62 
 7 
 10 
2.217
 20 
0.8
 11 
2.233
 21 
0.817
 0 
LINE
 8 
0
 62 
 7 
 10 
2.233
 20 
0.817
 11 
2.25
 21 
0.8
 0 
LINE
 8 
0
 62 
 7 
 10 
2.25
 20 
0.8
 11 
2.25
 21 
0.75
 0 
LINE
 8 
0
 62 
 7 
 10 
2.167
 20 
2.217
 11 
2.15
 21 
2.2
 0 
LINE
 8 
0
 62 
 7 
 10 
2.15
 20 
2.2
 11 
2.15
 21 
2.167
 0 
LINE
 8 
0
 62 
 7 
 10 
2.15
 20 
2.167
 11 
2.167
 21 
2.15
 0 
LINE
 8 
0
 62 
 7 
 10 
2.167
 20 
2.15
 11 
2.233
 21 
2.15
 0 
LINE
 8 
0
 62 
 7 
 10 
2.233
 20 
2.15
 11 
2.25
 21 
2.167
 0 
LINE
 8 
0
 62 
 7 
 10 
2.25
 20 
2.167
 11 
2.25
 21 
2.2
 0 
LINE
 8 
0
 62 
 7 
 10 
2.25
 20 
2.2
 11 
2.233
 21 
2.217
 0 
LINE
 8 
0
 62 
 7 
 10 
2.183
 20 
2.25
 11 
2.233
 21 
2.25
 0 
LINE
 8 
0
 62 
 7 
 10 
2.233
 20 
2.25
 11 
2.25
 21 
2.267
 0 
LINE
 8 
0
 62 
 7 
 10 
2.25
 20 
2.267
 11 
2.25
 21 
2.283
 0 
LINE
 8 
0
 62 
 7 
 10 
2.25
 20 
2.283
 11 
2.217
 21 
2.317
 0 
LINE
 8 
0
 62 
 7 
 10 
2.183
 20 
2.317
 11 
2.267
 21 
2.317
 0 
LINE
 8 
0
 62 
 7 
 10 
2.267
 20 
2.317
 11 
2.283
 21 
2.3
 0 
LINE
 8 
0
 62 
 7 
 10 
2.283
 20 
2.3
 11 
2.283
 21 
2.25
 0 
LINE
 8 
0
 62 
 7 
 10 
2.15
 20 
2.35
 11 
2.25
 21 
2.35
 0 
LINE
 8 
0
 62 
 7 
 10 
2.217
 20 
2.35
 11 
2.183
 21 
2.383
 0 
LINE
 8 
0
 62 
 7 
 10 
2.183
 20 
2.383
 11 
2.183
 21 
2.4
 0 
LINE
 8 
0
 62 
 7 
 10 
2.183
 20 
2.4
 11 
2.2
 21 
2.417
 0 
LINE
 8 
0
 62 
 7 
 10 
2.2
 20 
2.417
 11 
2.233
 21 
2.417
 0 
LINE
 8 
0
 62 
 7 
 10 
2.233
 20 
2.417
 11 
2.25
 21 
2.4
 0 
LINE
 8 
0
 62 
 7 
 10 
2.25
 20 
2.4
 11 
2.25
 21 
2.367
 0 
LINE
 8 
0
 62 
 7 
 10 
2.25
 20 
2.367
 11 
2.233
 21 
2.35
 0 
LINE
 8 
0
 62 
 7 
 10 
2.2
 20 
2.517
 11 
2.183
 21 
2.5
 0 
LINE
 8 
0
 62 
 7 
 10 
2.183
 20 
2.5
 11 
2.183
 21 
2.467
 0 
LINE
 8 
0
 62 
 7 
 10 
2.183
 20 
2.467
 11 
2.2
 21 
2.45
 0 
LINE
 8 
0
 62 
 7 
 10 
2.2
 20 
2.45
 11 
2.233
 21 
2.45
 0 
LINE
 8 
0
 62 
 7 
 10 
2.233
 20 
2.45
 11 
2.25
 21 
2.467
 0 
LINE
 8 
0
 62 
 7 
 10 
2.25
 20 
2.467
 11 
2.25
 21 
2.5
 0 
LINE
 8 
0
 62 
 7 
 10 
2.25
 20 
2.5
 11 
2.233
 21 
2.517
 0 
LINE
 8 
0
 62 
 7 
 10 
2.233
 20 
2.517
 11 
2.2
 21 
2.517
 0 
LINE
 8 
0
 62 
 7 
 10 
2.183
 20 
2.55
 11 
2.25
 21 
2.55
 0 
LINE
 8 
0
 62 
 7 
 10 
2.217
 20 
2.55
 11 
2.183
 21 
2.583
 0 
LINE
 8 
0
 62 
 7 
 10 
2.183
 20 
2.583
 11 
2.183
 21 
2.6
 0 
LINE
 8 
0
 62 
 7 
 10 
2.183
 20 
2.6
 11 
2.2
 21 
2.617
 0 
LINE
 8 
0
 62 
 7 
 10 
2.2
 20 
2.717
 11 
2.183
 21 
2.7
 0 
LINE
 8 
0
 62 
 7 
 10 
2.183
 20 
2.7
 11 
2.183
 21 
2.667
 0 
LINE
 8 
0
 62 
 7 
 10 
2.183
 20 
2.667
 11 
2.2
 21 
2.65
 0 
LINE
 8 
0
 62 
 7 
 10 
2.2
 20 
2.65
 11 
2.233
 21 
2.65
 0 
LINE
 8 
0
 62 
 7 
 10 
2.233
 20 
2.65
 11 
2.25
 21 
2.667
 0 
LINE
 8 
0
 62 
 7 
 10 
2.25
 20 
2.667
 11 
2.25
 21 
2.683
 0 
LINE
 8 
0
 62 
 7 
 10 
2.25
 20 
2.683
 11 
2.217
 21 
2.717
 0 
LINE
 8 
0
 62 
 7 
 10 
2.183
 20 
2.717
 11 
2.267
 21 
2.717
 0 
LINE
 8 
0
 62 
 7 
 10 
2.267
 20 
2.717
 11 
2.283
 21 
2.7
 0 
LINE
 8 
0
 62 
 7 
 10 
2.283
 20 
2.7
 11 
2.283
 21 
2.65
 0 
LINE
 8 
0
 62 
 7 
 10 
2.183
 20 
2.817
 11 
2.183
 21 
2.767
 0 
LINE
 8 
0
 62 
 7 
 10 
2.183
 20 
2.767
 11 
2.2
 21 
2.75
 0 
LINE
 8 
0
 62 
 7 
 10 
2.2
 20 
2.75
 11 
2.217
 21 
2.767
 0 
LINE
 8 
0
 62 
 7 
 10 
2.217
 20 
2.767
 11 
2.217
 21 
2.8
 0 
LINE
 8 
0
 62 
 7 
 10 
2.217
 20 
2.8
 11 
2.233
 21 
2.817
 0 
LINE
 8 
0
 62 
 7 
 10 
2.233
 20 
2.817
 11 
2.25
 21 
2.8
 0 
LINE
 8 
0
 62 
 7 
 10 
2.25
 20 
2.8
 11 
2.25
 21 
2.75
 0 
LINE
 8 
0
 62 
 7 
 10 
3.525
 20 
2.35
 11 
3.525
 21 
2.25
 0 
LINE
 8 
0
 62 
 7 
 10 
3.525
 20 
2.25
 11 
3.5
 21 
2.25
 0 
LINE
 8 
0
 62 
 7 
 10 
3.5
 20 
2.25
 11 
3.425
 21 
2.325
 0 
LINE
 8 
0
 62 
 7 
 10 
3.425
 20 
2.325
 11 
3.575
 21 
2.325
 0 
LINE
 8 
0
 62 
 7 
 10 
3.45
 20 
2.4
 11 
3.425
 21 
2.425
 0 
LINE
 8 
0
 62 
 7 
 10 
3.425
 20 
2.425
 11 
3.425
 21 
2.475
 0 
LINE
 8 
0
 62 
 7 
 10 
3.425
 20 
2.475
 11 
3.45
 21 
2.5
 0 
LINE
 8 
0
 62 
 7 
 10 
3.45
 20 
2.5
 11 
3.475
 21 
2.5
 0 
LINE
 8 
0
 62 
 7 
 10 
3.475
 20 
2.5
 11 
3.5
 21 
2.475
 0 
LINE
 8 
0
 62 
 7 
 10 
3.5
 20 
2.475
 11 
3.5
 21 
2.425
 0 
LINE
 8 
0
 62 
 7 
 10 
3.5
 20 
2.425
 11 
3.525
 21 
2.4
 0 
LINE
 8 
0
 62 
 7 
 10 
3.525
 20 
2.4
 11 
3.575
 21 
2.4
 0 
LINE
 8 
0
 62 
 7 
 10 
3.575
 20 
2.4
 11 
3.575
 21 
2.5
 0 
LINE
 8 
0
 62 
 7 
 10 
3.525
 20 
2.65
 11 
3.525
 21 
2.55
 0 
LINE
 8 
0
 62 
 7 
 10 
3.525
 20 
2.55
 11 
3.5
 21 
2.55
 0 
LINE
 8 
0
 62 
 7 
 10 
3.5
 20 
2.55
 11 
3.425
 21 
2.625
 0 
LINE
 8 
0
 62 
 7 
 10 
3.425
 20 
2.625
 11 
3.575
 21 
2.625
 0 
LINE
 8 
0
 62 
 7 
 10 
3.45
 20 
2.725
 11 
3.425
 21 
2.75
 0 
LINE
 8 
0
 62 
 7 
 10 
3.425
 20 
2.75
 11 
3.575
 21 
2.75
 0 
LINE
 8 
0
 62 
 7 
 10 
3.575
 20 
2.725
 11 
3.575
 21 
2.775
 0 
LINE
 8 
0
 62 
 7 
 10 
3.525
 20 
1.35
 11 
3.525
 21 
1.25
 0 
LINE
 8 
0
 62 
 7 
 10 
3.525
 20 
1.25
 11 
3.5
 21 
1.25
 0 
LINE
 8 
0
 62 
 7 
 10 
3.5
 20 
1.25
 11 
3.425
 21 
1.325
 0 
LINE
 8 
0
 62 
 7 
 10 
3.425
 20 
1.325
 11 
3.575
 21 
1.325
 0 
LINE
 8 
0
 62 
 7 
 10 
3.45
 20 
1.4
 11 
3.425
 21 
1.425
 0 
LINE
 8 
0
 62 
 7 
 10 
3.425
 20 
1.425
 11 
3.425
 21 
1.475
 0 
LINE
 8 
0
 62 
 7 
 10 
3.425
 20 
1.475
 11 
3.45
 21 
1.5
 0 
LINE
 8 
0
 62 
 7 
 10 
3.45
 20 
1.5
 11 
3.475
 21 
1.5
 0 
LINE
 8 
0
 62 
 7 
 10 
3.475
 20 
1.5
 11 
3.5
 21 
1.475
 0 
LINE
 8 
0
 62 
 7 
 10 
3.5
 20 
1.475
 11 
3.5
 21 
1.425
 0 
LINE
 8 
0
 62 
 7 
 10 
3.5
 20 
1.425
 11 
3.525
 21 
1.4
 0 
LINE
 8 
0
 62 
 7 
 10 
3.525
 20 
1.4
 11 
3.575
 21 
1.4
 0 
LINE
 8 
0
 62 
 7 
 10 
3.575
 20 
1.4
 11 
3.575
 21 
1.5
 0 
LINE
 8 
0
 62 
 7 
 10 
3.525
 20 
1.65
 11 
3.525
 21 
1.55
 0 
LINE
 8 
0
 62 
 7 
 10 
3.525
 20 
1.55
 11 
3.5
 21 
1.55
 0 
LINE
 8 
0
 62 
 7 
 10 
3.5
 20 
1.55
 11 
3.425
 21 
1.625
 0 
LINE
 8 
0
 62 
 7 
 10 
3.425
 20 
1.625
 11 
3.575
 21 
1.625
 0 
LINE
 8 
0
 62 
 7 
 10 
3.45
 20 
1.725
 11 
3.425
 21 
1.75
 0 
LINE
 8 
0
 62 
 7 
 10 
3.425
 20 
1.75
 11 
3.575
 21 
1.75
 0 
LINE
 8 
0
 62 
 7 
 10 
3.575
 20 
1.725
 11 
3.575
 21 
1.775
 0 
LINE
 8 
0
 62 
 7 
 10 
3.525
 20 
0.35
 11 
3.525
 21 
0.25
 0 
LINE
 8 
0
 62 
 7 
 10 
3.525
 20 
0.25
 11 
3.5
 21 
0.25
 0 
LINE
 8 
0
 62 
 7 
 10 
3.5
 20 
0.25
 11 
3.425
 21 
0.325
 0 
LINE
 8 
0
 62 
 7 
 10 
3.425
 20 
0.325
 11 
3.575
 21 
0.325
 0 
LINE
 8 
0
 62 
 7 
 10 
3.45
 20 
0.4
 11 
3.425
 21 
0.425
 0 
LINE
 8 
0
 62 
 7 
 10 
3.425
 20 
0.425
 11 
3.425
 21 
0.475
 0 
LINE
 8 
0
 62 
 7 
 10 
3.425
 20 
0.475
 11 
3.45
 21 
0.5
 0 
LINE
 8 
0
 62 
 7 
 10 
3.45
 20 
0.5
 11 
3.475
 21 
0.5
 0 
LINE
 8 
0
 62 
 7 
 10 
3.475
 20 
0.5
 11 
3.5
 21 
0.475
 0 
LINE
 8 
0
 62 
 7 
 10 
3.5
 20 
0.475
 11 
3.5
 21 
0.425
 0 
LINE
 8 
0
 62 
 7 
 10 
3.5
 20 
0.425
 11 
3.525
 21 
0.4
 0 
LINE
 8 
0
 62 
 7 
 10 
3.525
 20 
0.4
 11 
3.575
 21 
0.4
 0 
LINE
 8 
0
 62 
 7 
 10 
3.575
 20 
0.4
 11 
3.575
 21 
0.5
 0 
LINE
 8 
0
 62 
 7 
 10 
3.525
 20 
0.65
 11 
3.525
 21 
0.55
 0 
LINE
 8 
0
 62 
 7 
 10 
3.525
 20 
0.55
 11 
3.5
 21 
0.55
 0 
LINE
 8 
0
 62 
 7 
 10 
3.5
 20 
0.55
 11 
3.425
 21 
0.625
 0 
LINE
 8 
0
 62 
 7 
 10 
3.425
 20 
0.625
 11 
3.575
 21 
0.625
 0 
LINE
 8 
0
 62 
 7 
 10 
3.45
 20 
0.725
 11 
3.425
 21 
0.75
 0 
LINE
 8 
0
 62 
 7 
 10 
3.425
 20 
0.75
 11 
3.575
 21 
0.75
 0 
LINE
 8 
0
 62 
 7 
 10 
3.575
 20 
0.725
 11 
3.575
 21 
0.775
 0 
LINE
 8 
0
 62 
 7 
 10 
4.767
 20 
0.217
 11 
4.75
 21 
0.2
 0 
LINE
 8 
0
 62 
 7 
 10 
4.75
 20 
0.2
 11 
4.75
 21 
0.167
 0 
LINE
 8 
0
 62 
 7 
 10 
4.75
 20 
0.167
 11 
4.767
 21 
0.15
 0 
LINE
 8 
0
 62 
 7 
 10 
4.767
 20 
0.15
 11 
4.833
 21 
0.15
 0 
LINE
 8 
0
 62 
 7 
 10 
4.833
 20 
0.15
 11 
4.85
 21 
0.167
 0 
LINE
 8 
0
 62 
 7 
 10 
4.85
 20 
0.167
 11 
4.85
 21 
0.2
 0 
LINE
 8 
0
 62 
 7 
 10 
4.85
 20 
0.2
 11 
4.833
 21 
0.217
 0 
LINE
 8 
0
 62 
 7 
 10 
4.85
 20 
0.25
 11 
4.783
 21 
0.25
 0 
LINE
 8 
0
 62 
 7 
 10 
4.783
 20 
0.25
 11 
4.75
 21 
0.283
 0 
LINE
 8 
0
 62 
 7 
 10 
4.75
 20 
0.283
 11 
4.783
 21 
0.317
 0 
LINE
 8 
0
 62 
 7 
 10 
4.783
 20 
0.317
 11 
4.85
 21 
0.317
 0 
LINE
 8 
0
 62 
 7 
 10 
4.817
 20 
0.25
 11 
4.817
 21 
0.317
 0 
LINE
 8 
0
 62 
 7 
 10 
4.85
 20 
0.35
 11 
4.75
 21 
0.35
 0 
LINE
 8 
0
 62 
 7 
 10 
4.75
 20 
0.35
 11 
4.817
 21 
0.417
 0 
LINE
 8 
0
 62 
 7 
 10 
4.75
 20 
0.417
 11 
4.85
 21 
0.417
 0 
LINE
 8 
0
 62 
 7 
 10 
4.75
 20 
0.55
 11 
4.75
 21 
0.6
 0 
LINE
 8 
0
 62 
 7 
 10 
4.75
 20 
0.6
 11 
4.767
 21 
0.617
 0 
LINE
 8 
0
 62 
 7 
 10 
4.767
 20 
0.617
 11 
4.783
 21 
0.617
 0 
LINE
 8 
0
 62 
 7 
 10 
4.783
 20 
0.617
 11 
4.8
 21 
0.6
 0 
LINE
 8 
0
 62 
 7 
 10 
4.8
 20 
0.6
 11 
4.817
 21 
0.617
 0 
LINE
 8 
0
 62 
 7 
 10 
4.817
 20 
0.617
 11 
4.833
 21 
0.617
 0 
LINE
 8 
0
 62 
 7 
 10 
4.833
 20 
0.617
 11 
4.85
 21 
0.6
 0 
LINE
 8 
0
 62 
 7 
 10 
4.85
 20 
0.6
 11 
4.85
 21 
0.55
 0 
LINE
 8 
0
 62 
 7 
 10 
4.75
 20 
0.567
 11 
4.85
 21 
0.567
 0 
LINE
 8 
0
 62 
 7 
 10 
4.8
 20 
0.567
 11 
4.8
 21 
0.6
 0 
LINE
 8 
0
 62 
 7 
 10 
4.783
 20 
0.65
 11 
4.833
 21 
0.65
 0 
LINE
 8 
0
 62 
 7 
 10 
4.833
 20 
0.65
 11 
4.85
 21 
0.667
 0 
LINE
 8 
0
 62 
 7 
 10 
4.85
 20 
0.667
 11 
4.85
 21 
0.683
 0 
LINE
 8 
0
 62 
 7 
 10 
4.85
 20 
0.683
 11 
4.817
 21 
0.717
 0 
LINE
 8 
0
 62 
 7 
 10 
4.783
 20 
0.717
 11 
4.85
 21 
0.717
 0 
LINE
 8 
0
 62 
 7 
 10 
4.783
 20 
0.817
 11 
4.783
 21 
0.767
 0 
LINE
 8 
0
 62 
 7 
 10 
4.783
 20 
0.767
 11 
4.8
 21 
0.75
 0 
LINE
 8 
0
 62 
 7 
 10 
4.8
 20 
0.75
 11 
4.817
 21 
0.767
 0 
LINE
 8 
0
 62 
 7 
 10 
4.817
 20 
0.767
 11 
4.817
 21 
0.8
 0 
LINE
 8 
0
 62 
 7 
 10 
4.817
 20 
0.8
 11 
4.833
 21 
0.817
 0 
LINE
 8 
0
 62 
 7 
 10 
4.833
 20 
0.817
 11 
4.85
 21 
0.8
 0 
LINE
 8 
0
 62 
 7 
 10 
4.85
 20 
0.8
 11 
4.85
 21 
0.75
 0 
LINE
 8 
0
 62 
 7 
 10 
4.767
 20 
1.217
 11 
4.75
 21 
1.2
 0 
LINE
 8 
0
 62 
 7 
 10 
4.75
 20 
1.2
 11 
4.75
 21 
1.167
 0 
LINE
 8 
0
 62 
 7 
 10 
4.75
 20 
1.167
 11 
4.767
 21 
1.15
 0 
LINE
 8 
0
 62 
 7 
 10 
4.767
 20 
1.15
 11 
4.833
 21 
1.15
 0 
LINE
 8 
0
 62 
 7 
 10 
4.833
 20 
1.15
 11 
4.85
 21 
1.167
 0 
LINE
 8 
0
 62 
 7 
 10 
4.85
 20 
1.167
 11 
4.85
 21 
1.2
 0 
LINE
 8 
0
 62 
 7 
 10 
4.85
 20 
1.2
 11 
4.833
 21 
1.217
 0 
LINE
 8 
0
 62 
 7 
 10 
4.85
 20 
1.25
 11 
4.783
 21 
1.25
 0 
LINE
 8 
0
 62 
 7 
 10 
4.783
 20 
1.25
 11 
4.75
 21 
1.283
 0 
LINE
 8 
0
 62 
 7 
 10 
4.75
 20 
1.283
 11 
4.783
 21 
1.317
 0 
LINE
 8 
0
 62 
 7 
 10 
4.783
 20 
1.317
 11 
4.85
 21 
1.317
 0 
LINE
 8 
0
 62 
 7 
 10 
4.817
 20 
1.25
 11 
4.817
 21 
1.317
 0 
LINE
 8 
0
 62 
 7 
 10 
4.85
 20 
1.35
 11 
4.75
 21 
1.35
 0 
LINE
 8 
0
 62 
 7 
 10 
4.75
 20 
1.35
 11 
4.817
 21 
1.417
 0 
LINE
 8 
0
 62 
 7 
 10 
4.75
 20 
1.417
 11 
4.85
 21 
1.417
 0 
LINE
 8 
0
 62 
 7 
 10 
4.75
 20 
1.55
 11 
4.75
 21 
1.6
 0 
LINE
 8 
0
 62 
 7 
 10 
4.75
 20 
1.6
 11 
4.767
 21 
1.617
 0 
LINE
 8 
0
 62 
 7 
 10 
4.767
 20 
1.617
 11 
4.783
 21 
1.617
 0 
LINE
 8 
0
 62 
 7 
 10 
4.783
 20 
1.617
 11 
4.8
 21 
1.6
 0 
LINE
 8 
0
 62 
 7 
 10 
4.8
 20 
1.6
 11 
4.817
 21 
1.617
 0 
LINE
 8 
0
 62 
 7 
 10 
4.817
 20 
1.617
 11 
4.833
 21 
1.617
 0 
LINE
 8 
0
 62 
 7 
 10 
4.833
 20 
1.617
 11 
4.85
 21 
1.6
 0 
LINE
 8 
0
 62 
 7 
 10 
4.85
 20 
1.6
 11 
4.85
 21 
1.55
 0 
LINE
 8 
0
 62 
 7 
 10 
4.75
 20 
1.567
 11 
4.85
 21 
1.567
 0 
LINE
 8 
0
 62 
 7 
 10 
4.8
 20 
1.567
 11 
4.8
 21 
1.6
 0 
LINE
 8 
0
 62 
 7 
 10 
4.783
 20 
1.65
 11 
4.833
 21 
1.65
 0 
LINE
 8 
0
 62 
 7 
 10 
4.833
 20 
1.65
 11 
4.85
 21 
1.667
 0 
LINE
 8 
0
 62 
 7 
 10 
4.85
 20 
1.667
 11 
4.85
 21 
1.683
 0 
LINE
 8 
0
 62 
 7 
 10 
4.85
 20 
1.683
 11 
4.817
 21 
1.717
 0 
LINE
 8 
0
 62 
 7 
 10 
4.783
 20 
1.717
 11 
4.85
 21 
1.717
 0 
LINE
 8 
0
 62 
 7 
 10 
4.783
 20 
1.817
 11 
4.783
 21 
1.767
 0 
LINE
 8 
0
 62 
 7 
 10 
4.783
 20 
1.767
 11 
4.8
 21 
1.75
 0 
LINE
 8 
0
 62 
 7 
 10 
4.8
 20 
1.75
 11 
4.817
 21 
1.767
 0 
LINE
 8 
0
 62 
 7 
 10 
4.817
 20 
1.767
 11 
4.817
 21 
1.8
 0 
LINE
 8 
0
 62 
 7 
 10 
4.817
 20 
1.8
 11 
4.833
 21 
1.817
 0 
LINE
 8 
0
 62 
 7 
 10 
4.833
 20 
1.817
 11 
4.85
 21 
1.8
 0 
LINE
 8 
0
 62 
 7 
 10 
4.85
 20 
1.8
 11 
4.85
 21 
1.75
 0 
LINE
 8 
0
 62 
 7 
 10 
4.767
 20 
2.217
 11 
4.75
 21 
2.2
 0 
LINE
 8 
0
 62 
 7 
 10 
4.75
 20 
2.2
 11 
4.75
 21 
2.167
 0 
LINE
 8 
0
 62 
 7 
 10 
4.75
 20 
2.167
 11 
4.767
 21 
2.15
 0 
LINE
 8 
0
 62 
 7 
 10 
4.767
 20 
2.15
 11 
4.833
 21 
2.15
 0 
LINE
 8 
0
 62 
 7 
 10 
4.833
 20 
2.15
 11 
4.85
 21 
2.167
 0 
LINE
 8 
0
 62 
 7 
 10 
4.85
 20 
2.167
 11 
4.85
 21 
2.2
 0 
LINE
 8 
0
 62 
 7 
 10 
4.85
 20 
2.2
 11 
4.833
 21 
2.217
 0 
LINE
 8 
0
 62 
 7 
 10 
4.85
 20 
2.25
 11 
4.783
 21 
2.25
 0 
LINE
 8 
0
 62 
 7 
 10 
4.783
 20 
2.25
 11 
4.75
 21 
2.283
 0 
LINE
 8 
0
 62 
 7 
 10 
4.75
 20 
2.283
 11 
4.783
 21 
2.317
 0 
LINE
 8 
0
 62 
 7 
 10 
4.783
 20 
2.317
 11 
4.85
 21 
2.317
 0 
LINE
 8 
0
 62 
 7 
 10 
4.817
 20 
2.25
 11 
4.817
 21 
2.317
 0 
LINE
 8 
0
 62 
 7 
 10 
4.85
 20 
2.35
 11 
4.75
 21 
2.35
 0 
LINE
 8 
0
 62 
 7 
 10 
4.75
 20 
2.35
 11 
4.817
 21 
2.417
 0 
LINE
 8 
0
 62 
 7 
 10 
4.75
 20 
2.417
 11 
4.85
 21 
2.417
 0 
LINE
 8 
0
 62 
 7 
 10 
4.75
 20 
2.55
 11 
4.75
 21 
2.6
 0 
LINE
 8 
0
 62 
 7 
 10 
4.75
 20 
2.6
 11 
4.767
 21 
2.617
 0 
LINE
 8 
0
 62 
 7 
 10 
4.767
 20 
2.617
 11 
4.783
 21 
2.617
 0 
LINE
 8 
0
 62 
 7 
 10 
4.783
 20 
2.617
 11 
4.8
 21 
2.6
 0 
LINE
 8 
0
 62 
 7 
 10 
4.8
 20 
2.6
 11 
4.817
 21 
2.617
 0 
LINE
 8 
0
 62 
 7 
 10 
4.817
 20 
2.617
 11 
4.833
 21 
2.617
 0 
LINE
 8 
0
 62 
 7 
 10 
4.833
 20 
2.617
 11 
4.85
 21 
2.6
 0 
LINE
 8 
0
 62 
 7 
 10 
4.85
 20 
2.6
 11 
4.85
 21 
2.55
 0 
LINE
 8 
0
 62 
 7 
 10 
4.75
 20 
2.567
 11 
4.85
 21 
2.567
 0 
LINE
 8 
0
 62 
 7 
 10 
4.8
 20 
2.567
 11 
4.8
 21 
2.6
 0 
LINE
 8 
0
 62 
 7 
 10 
4.783
 20 
2.65
 11 
4.833
 21 
2.65
 0 
LINE
 8 
0
 62 
 7 
 10 
4.833
 20 
2.65
 11 
4.85
 21 
2.667
 0 
LINE
 8 
0
 62 
 7 
 10 
4.85
 20 
2.667
 11 
4.85
 21 
2.683
 0 
LINE
 8 
0
 62 
 7 
 10 
4.85
 20 
2.683
 11 
4.817
 21 
2.717
 0 
LINE
 8 
0
 62 
 7 
 10 
4.783
 20 
2.717
 11 
4.85
 21 
2.717
 0 
LINE
 8 
0
 62 
 7 
 10 
4.783
 20 
2.817
 11 
4.783
 21 
2.767
 0 
LINE
 8 
0
 62 
 7 
 10 
4.783
 20 
2.767
 11 
4.8
 21 
2.75
 0 
LINE
 8 
0
 62 
 7 
 10 
4.8
 20 
2.75
 11 
4.817
 21 
2.767
 0 
LINE
 8 
0
 62 
 7 
 10 
4.817
 20 
2.767
 11 
4.817
 21 
2.8
 0 
LINE
 8 
0
 62 
 7 
 10 
4.817
 20 
2.8
 11 
4.833
 21 
2.817
 0 
LINE
 8 
0
 62 
 7 
 10 
4.833
 20 
2.817
 11 
4.85
 21 
2.8
 0 
LINE
 8 
0
 62 
 7 
 10 
4.85
 20 
2.8
 11 
4.85
 21 
2.75
 0 
LINE
 8 
0
 62 
 7 
 10 
5.417
 20 
1.342
 11 
5.4
 21 
1.325
 0 
LINE
 8 
0
 62 
 7 
 10 
5.4
 20 
1.325
 11 
5.4
 21 
1.292
 0 
LINE
 8 
0
 62 
 7 
 10 
5.4
 20 
1.292
 11 
5.417
 21 
1.275
 0 
LINE
 8 
0
 62 
 7 
 10 
5.417
 20 
1.275
 11 
5.433
 21 
1.275
 0 
LINE
 8 
0
 62 
 7 
 10 
5.433
 20 
1.275
 11 
5.45
 21 
1.292
 0 
LINE
 8 
0
 62 
 7 
 10 
5.45
 20 
1.292
 11 
5.45
 21 
1.325
 0 
LINE
 8 
0
 62 
 7 
 10 
5.45
 20 
1.325
 11 
5.467
 21 
1.342
 0 
LINE
 8 
0
 62 
 7 
 10 
5.467
 20 
1.342
 11 
5.483
 21 
1.342
 0 
LINE
 8 
0
 62 
 7 
 10 
5.483
 20 
1.342
 11 
5.5
 21 
1.325
 0 
LINE
 8 
0
 62 
 7 
 10 
5.5
 20 
1.325
 11 
5.5
 21 
1.292
 0 
LINE
 8 
0
 62 
 7 
 10 
5.5
 20 
1.292
 11 
5.483
 21 
1.275
 0 
LINE
 8 
0
 62 
 7 
 10 
5.4
 20 
1.392
 11 
5.483
 21 
1.392
 0 
LINE
 8 
0
 62 
 7 
 10 
5.483
 20 
1.392
 11 
5.5
 21 
1.408
 0 
LINE
 8 
0
 62 
 7 
 10 
5.5
 20 
1.408
 11 
5.5
 21 
1.425
 0 
LINE
 8 
0
 62 
 7 
 10 
5.5
 20 
1.425
 11 
5.483
 21 
1.442
 0 
LINE
 8 
0
 62 
 7 
 10 
5.433
 20 
1.375
 11 
5.433
 21 
1.425
 0 
LINE
 8 
0
 62 
 7 
 10 
5.433
 20 
1.475
 11 
5.5
 21 
1.475
 0 
LINE
 8 
0
 62 
 7 
 10 
5.467
 20 
1.475
 11 
5.433
 21 
1.508
 0 
LINE
 8 
0
 62 
 7 
 10 
5.433
 20 
1.508
 11 
5.433
 21 
1.525
 0 
LINE
 8 
0
 62 
 7 
 10 
5.433
 20 
1.525
 11 
5.45
 21 
1.542
 0 
LINE
 8 
0
 62 
 7 
 10 
5.4
 20 
1.608
 11 
5.417
 21 
1.608
 0 
LINE
 8 
0
 62 
 7 
 10 
5.5
 20 
1.592
 11 
5.5
 21 
1.625
 0 
LINE
 8 
0
 62 
 7 
 10 
5.45
 20 
1.592
 11 
5.45
 21 
1.608
 0 
LINE
 8 
0
 62 
 7 
 10 
5.45
 20 
1.608
 11 
5.5
 21 
1.608
 0 
LINE
 8 
0
 62 
 7 
 10 
5.433
 20 
1.675
 11 
5.533
 21 
1.675
 0 
LINE
 8 
0
 62 
 7 
 10 
5.45
 20 
1.675
 11 
5.433
 21 
1.692
 0 
LINE
 8 
0
 62 
 7 
 10 
5.433
 20 
1.692
 11 
5.433
 21 
1.725
 0 
LINE
 8 
0
 62 
 7 
 10 
5.433
 20 
1.725
 11 
5.45
 21 
1.742
 0 
LINE
 8 
0
 62 
 7 
 10 
5.45
 20 
1.742
 11 
5.483
 21 
1.742
 0 
LINE
 8 
0
 62 
 7 
 10 
5.483
 20 
1.742
 11 
5.5
 21 
1.725
 0 
LINE
 8 
0
 62 
 7 
 10 
5.5
 20 
1.725
 11 
5.5
 21 
1.708
 0 
LINE
 8 
0
 62 
 7 
 10 
5.5
 20 
1.708
 11 
5.467
 21 
1.675
 0 
LINE
 8 
0
 62 
 7 
 10 
5.417
 20 
0.317
 11 
5.4
 21 
0.3
 0 
LINE
 8 
0
 62 
 7 
 10 
5.4
 20 
0.3
 11 
5.4
 21 
0.267
 0 
LINE
 8 
0
 62 
 7 
 10 
5.4
 20 
0.267
 11 
5.417
 21 
0.25
 0 
LINE
 8 
0
 62 
 7 
 10 
5.417
 20 
0.25
 11 
5.433
 21 
0.25
 0 
LINE
 8 
0
 62 
 7 
 10 
5.433
 20 
0.25
 11 
5.45
 21 
0.267
 0 
LINE
 8 
0
 62 
 7 
 10 
5.45
 20 
0.267
 11 
5.45
 21 
0.3
 0 
LINE
 8 
0
 62 
 7 
 10 
5.45
 20 
0.3
 11 
5.467
 21 
0.317
 0 
LINE
 8 
0
 62 
 7 
 10 
5.467
 20 
0.317
 11 
5.483
 21 
0.317
 0 
LINE
 8 
0
 62 
 7 
 10 
5.483
 20 
0.317
 11 
5.5
 21 
0.3
 0 
LINE
 8 
0
 62 
 7 
 10 
5.5
 20 
0.3
 11 
5.5
 21 
0.267
 0 
LINE
 8 
0
 62 
 7 
 10 
5.5
 20 
0.267
 11 
5.483
 21 
0.25
 0 
LINE
 8 
0
 62 
 7 
 10 
5.4
 20 
0.367
 11 
5.483
 21 
0.367
 0 
LINE
 8 
0
 62 
 7 
 10 
5.483
 20 
0.367
 11 
5.5
 21 
0.383
 0 
LINE
 8 
0
 62 
 7 
 10 
5.5
 20 
0.383
 11 
5.5
 21 
0.4
 0 
LINE
 8 
0
 62 
 7 
 10 
5.5
 20 
0.4
 11 
5.483
 21 
0.417
 0 
LINE
 8 
0
 62 
 7 
 10 
5.433
 20 
0.35
 11 
5.433
 21 
0.4
 0 
LINE
 8 
0
 62 
 7 
 10 
5.433
 20 
0.45
 11 
5.5
 21 
0.45
 0 
LINE
 8 
0
 62 
 7 
 10 
5.467
 20 
0.45
 11 
5.433
 21 
0.483
 0 
LINE
 8 
0
 62 
 7 
 10 
5.433
 20 
0.483
 11 
5.433
 21 
0.5
 0 
LINE
 8 
0
 62 
 7 
 10 
5.433
 20 
0.5
 11 
5.45
 21 
0.517
 0 
LINE
 8 
0
 62 
 7 
 10 
5.4
 20 
0.583
 11 
5.417
 21 
0.583
 0 
LINE
 8 
0
 62 
 7 
 10 
5.5
 20 
0.567
 11 
5.5
 21 
0.6
 0 
LINE
 8 
0
 62 
 7 
 10 
5.45
 20 
0.567
 11 
5.45
 21 
0.583
 0 
LINE
 8 
0
 62 
 7 
 10 
5.45
 20 
0.583
 11 
5.5
 21 
0.583
 0 
LINE
 8 
0
 62 
 7 
 10 
5.433
 20 
0.65
 11 
5.533
 21 
0.65
 0 
LINE
 8 
0
 62 
 7 
 10 
5.45
 20 
0.65
 11 
5.433
 21 
0.667
 0 
LINE
 8 
0
 62 
 7 
 10 
5.433
 20 
0.667
 11 
5.433
 21 
0.7
 0 
LINE
 8 
0
 62 
 7 
 10 
5.433
 20 
0.7
 11 
5.45
 21 
0.717
 0 
LINE
 8 
0
 62 
 7 
 10 
5.45
 20 
0.717
 11 
5.483
 21 
0.717
 0 
LINE
 8 
0
 62 
 7 
 10 
5.483
 20 
0.717
 11 
5.5
 21 
0.7
 0 
LINE
 8 
0
 62 
 7 
 10 
5.5
 20 
0.7
 11 
5.5
 21 
0.683
 0 
LINE
 8 
0
 62 
 7 
 10 
5.5
 20 
0.683
 11 
5.467
 21 
0.65
 0 
LINE
 8 
0
 62 
 7 
 10 
5.417
 20 
2.317
 11 
5.4
 21 
2.3
 0 
LINE
 8 
0
 62 
 7 
 10 
5.4
 20 
2.3
 11 
5.4
 21 
2.267
 0 
LINE
 8 
0
 62 
 7 
 10 
5.4
 20 
2.267
 11 
5.417
 21 
2.25
 0 
LINE
 8 
0
 62 
 7 
 10 
5.417
 20 
2.25
 11 
5.433
 21 
2.25
 0 
LINE
 8 
0
 62 
 7 
 10 
5.433
 20 
2.25
 11 
5.45
 21 
2.267
 0 
LINE
 8 
0
 62 
 7 
 10 
5.45
 20 
2.267
 11 
5.45
 21 
2.3
 0 
LINE
 8 
0
 62 
 7 
 10 
5.45
 20 
2.3
 11 
5.467
 21 
2.317
 0 
LINE
 8 
0
 62 
 7 
 10 
5.467
 20 
2.317
 11 
5.483
 21 
2.317
 0 
LINE
 8 
0
 62 
 7 
 10 
5.483
 20 
2.317
 11 
5.5
 21 
2.3
 0 
LINE
 8 
0
 62 
 7 
 10 
5.5
 20 
2.3
 11 
5.5
 21 
2.267
 0 
LINE
 8 
0
 62 
 7 
 10 
5.5
 20 
2.267
 11 
5.483
 21 
2.25
 0 
LINE
 8 
0
 62 
 7 
 10 
5.4
 20 
2.367
 11 
5.483
 21 
2.367
 0 
LINE
 8 
0
 62 
 7 
 10 
5.483
 20 
2.367
 11 
5.5
 21 
2.383
 0 
LINE
 8 
0
 62 
 7 
 10 
5.5
 20 
2.383
 11 
5.5
 21 
2.4
 0 
LINE
 8 
0
 62 
 7 
 10 
5.5
 20 
2.4
 11 
5.483
 21 
2.417
 0 
LINE
 8 
0
 62 
 7 
 10 
5.433
 20 
2.35
 11 
5.433
 21 
2.4
 0 
LINE
 8 
0
 62 
 7 
 10 
5.433
 20 
2.45
 11 
5.5
 21 
2.45
 0 
LINE
 8 
0
 62 
 7 
 10 
5.467
 20 
2.45
 11 
5.433
 21 
2.483
 0 
LINE
 8 
0
 62 
 7 
 10 
5.433
 20 
2.483
 11 
5.433
 21 
2.5
 0 
LINE
 8 
0
 62 
 7 
 10 
5.433
 20 
2.5
 11 
5.45
 21 
2.517
 0 
LINE
 8 
0
 62 
 7 
 10 
5.4
 20 
2.583
 11 
5.417
 21 
2.583
 0 
LINE
 8 
0
 62 
 7 
 10 
5.5
 20 
2.567
 11 
5.5
 21 
2.6
 0 
LINE
 8 
0
 62 
 7 
 10 
5.45
 20 
2.567
 11 
5.45
 21 
2.583
 0 
LINE
 8 
0
 62 
 7 
 10 
5.45
 20 
2.583
 11 
5.5
 21 
2.583
 0 
LINE
 8 
0
 62 
 7 
 10 
5.433
 20 
2.65
 11 
5.533
 21 
2.65
 0 
LINE
 8 
0
 62 
 7 
 10 
5.45
 20 
2.65
 11 
5.433
 21 
2.667
 0 
LINE
 8 
0
 62 
 7 
 10 
5.433
 20 
2.667
 11 
5.433
 21 
2.7
 0 
LINE
 8 
0
 62 
 7 
 10 
5.433
 20 
2.7
 11 
5.45
 21 
2.717
 0 
LINE
 8 
0
 62 
 7 
 10 
5.45
 20 
2.717
 11 
5.483
 21 
2.717
 0 
LINE
 8 
0
 62 
 7 
 10 
5.483
 20 
2.717
 11 
5.5
 21 
2.7
 0 
LINE
 8 
0
 62 
 7 
 10 
5.5
 20 
2.7
 11 
5.5
 21 
2.683
 0 
LINE
 8 
0
 62 
 7 
 10 
5.5
 20 
2.683
 11 
5.467
 21 
2.65
 0 
ENDSEC
 0 
EOF
