 0 
SECTION
 2 
HEADER
 9 
$ACADVER
 1 
AC1004
 9 
$EXTMIN
 10 
0.0
 20 
0.0
 9 
$EXTMAX
 10 
3.6
 20 
1.907
 9 
$LIMMIN
 10 
0.0
 20 
0.0
 9 
$LIMMAX
 10 
3.6
 20 
1.907
 9 
$INSBASE
 10 
0.0
 20 
0.0
 9 
$VIEWCTR
 10 
1.8
 20 
0.946
 9 
$VIEWSIZE
 40 
1.907
 9 
$ORTHOMODE
 70 
 0 
 9 
$REGENMODE
 70 
 1 
 9 
$FILLMODE
 70 
 1 
 9 
$QTEXTMODE
 70 
 0 
 9 
$DRAGMODE
 70 
 2 
 9 
$LTSCALE
 40 
1.0
 9 
$OSMODE
 70 
 0 
 9 
$ATTMODE
 70 
 1 
 9 
$TEXTSIZE
 40 
0.2
 9 
$TRACEWID
 40 
0.05
 9 
$TEXTSTYLE
 7 
STANDARD
 9 
$CLAYER
 8 
0
 9 
$CELTYPE
 6 
BYLAYER
 9 
$CECOLOR
 62 
 256 
 9 
$DIMSCALE
 40 
1.0
 9 
$DIMLFAC
 40 
1.0
 9 
$LUNITS
 70 
 2 
 9 
$LUPREC
 70 
 4 
 9 
$AXISMODE
 70 
 0 
 9 
$AXISUNIT
 10 
0.0
 20 
0.0
 9 
$SKETCHINC
 40 
0.1
 9 
$MENU
 1 
acad
 9 
$ELEVATION
 40 
0.0
 9 
$THICKNESS
 40 
0.0
 9 
$VIEWDIR
 10 
0.0
 20 
0.0
 30 
1.0
 9 
$LIMCHECK
 70 
 0 
 9 
$BLIPMODE
 70 
 1 
 9 
$FASTZOOM
 70 
 1 
 9 
$SKPOLY
 70 
 0 
 9 
$ANGBASE
 50 
0.0
 9 
$ANGDIR
 70 
 0 
 9 
$PDMODE
 70 
 0 
 9 
$PDSIZE
 40 
0.0
 9 
$PLINEWID
 40 
0.0
 9 
$COORDS
 70 
 0 
 9 
$ATTDIA
 70 
 0 
 9 
$ATTREQ
 70 
 1 
 0 
ENDSEC
 0 
SECTION
 2 
TABLES
 0 
TABLE
 2 
LTYPE
 70 
 10 
 0 
LTYPE
 2 
CONTINUOUS
 70 
 64 
 3 
Solid line
 72 
 65 
 73 
 0 
 40 
0.0
 0 
ENDTAB
 0 
TABLE
 2 
LAYER
 70 
 153 
 0 
LAYER
 2 
0
 70 
 64 
 62 
 7 
 6 
CONTINUOUS
 0 
ENDTAB
 0 
ENDSEC
 0 
SECTION
 2 
BLOCKS
 0 
ENDSEC
 0 
SECTION
 2 
ENTITIES
 0 
LINE
 8 
0
 62 
 7 
 10 
0.0
 20 
1.9
 11 
3.6
 21 
1.9
 0 
LINE
 8 
0
 62 
 7 
 10 
3.6
 20 
1.9
 11 
3.6
 21 
0.0
 0 
LINE
 8 
0
 62 
 7 
 10 
3.6
 20 
0.0
 11 
0.0
 21 
0.0
 0 
LINE
 8 
0
 62 
 7 
 10 
0.0
 20 
0.0
 11 
0.0
 21 
1.9
 0 
LINE
 8 
0
 62 
 7 
 10 
1.85
 20 
1.775
 11 
1.85
 21 
0.99
 0 
LINE
 8 
0
 62 
 7 
 10 
1.85
 20 
0.99
 11 
2.725
 21 
0.99
 0 
LINE
 8 
0
 62 
 7 
 10 
2.725
 20 
0.99
 11 
2.725
 21 
1.775
 0 
LINE
 8 
0
 62 
 7 
 10 
2.725
 20 
1.775
 11 
1.85
 21 
1.775
 0 
CIRCLE
 8 
0
 62 
 7 
 10 
1.95
 20 
1.675
 40 
0.08
 0 
CIRCLE
 8 
0
 62 
 7 
 10 
1.95
 20 
1.675
 40 
0.062
 0 
CIRCLE
 8 
0
 62 
 7 
 10 
2.605
 20 
1.155
 40 
0.08
 0 
CIRCLE
 8 
0
 62 
 7 
 10 
2.605
 20 
1.155
 40 
0.062
 0 
CIRCLE
 8 
0
 62 
 7 
 10 
1.9
 20 
1.04
 40 
0.038
 0 
CIRCLE
 8 
0
 62 
 7 
 10 
1.9
 20 
1.04
 40 
0.02
 0 
CIRCLE
 8 
0
 62 
 7 
 10 
2.1
 20 
1.04
 40 
0.038
 0 
CIRCLE
 8 
0
 62 
 7 
 10 
2.1
 20 
1.04
 40 
0.02
 0 
CIRCLE
 8 
0
 62 
 7 
 10 
2.2
 20 
1.04
 40 
0.038
 0 
CIRCLE
 8 
0
 62 
 7 
 10 
2.2
 20 
1.04
 40 
0.02
 0 
CIRCLE
 8 
0
 62 
 7 
 10 
2.3
 20 
1.04
 40 
0.038
 0 
CIRCLE
 8 
0
 62 
 7 
 10 
2.3
 20 
1.04
 40 
0.02
 0 
CIRCLE
 8 
0
 62 
 7 
 10 
2.4
 20 
1.04
 40 
0.038
 0 
CIRCLE
 8 
0
 62 
 7 
 10 
2.4
 20 
1.04
 40 
0.02
 0 
LINE
 8 
0
 62 
 7 
 10 
0.525
 20 
0.337
 11 
0.525
 21 
0.318
 0 
LINE
 8 
0
 62 
 7 
 10 
0.525
 20 
0.318
 11 
0.538
 21 
0.305
 0 
LINE
 8 
0
 62 
 7 
 10 
0.538
 20 
0.305
 11 
0.55
 21 
0.318
 0 
LINE
 8 
0
 62 
 7 
 10 
0.55
 20 
0.318
 11 
0.55
 21 
0.337
 0 
LINE
 8 
0
 62 
 7 
 10 
0.538
 20 
0.305
 11 
0.538
 21 
0.299
 0 
LINE
 8 
0
 62 
 7 
 10 
0.569
 20 
0.337
 11 
0.582
 21 
0.337
 0 
LINE
 8 
0
 62 
 7 
 10 
0.569
 20 
0.299
 11 
0.582
 21 
0.299
 0 
LINE
 8 
0
 62 
 7 
 10 
0.576
 20 
0.337
 11 
0.576
 21 
0.299
 0 
LINE
 8 
0
 62 
 7 
 10 
0.601
 20 
0.299
 11 
0.601
 21 
0.337
 0 
LINE
 8 
0
 62 
 7 
 10 
0.601
 20 
0.337
 11 
0.626
 21 
0.312
 0 
LINE
 8 
0
 62 
 7 
 10 
0.626
 20 
0.337
 11 
0.626
 21 
0.299
 0 
CIRCLE
 8 
0
 62 
 7 
 10 
0.475
 20 
0.325
 40 
0.038
 0 
CIRCLE
 8 
0
 62 
 7 
 10 
0.475
 20 
0.325
 40 
0.02
 0 
CIRCLE
 8 
0
 62 
 7 
 10 
1.075
 20 
0.325
 40 
0.038
 0 
CIRCLE
 8 
0
 62 
 7 
 10 
1.075
 20 
0.325
 40 
0.02
 0 
CIRCLE
 8 
0
 62 
 7 
 10 
1.075
 20 
0.425
 40 
0.038
 0 
CIRCLE
 8 
0
 62 
 7 
 10 
1.075
 20 
0.425
 40 
0.02
 0 
CIRCLE
 8 
0
 62 
 7 
 10 
1.075
 20 
1.425
 40 
0.038
 0 
CIRCLE
 8 
0
 62 
 7 
 10 
1.075
 20 
1.425
 40 
0.02
 0 
CIRCLE
 8 
0
 62 
 7 
 10 
1.075
 20 
0.525
 40 
0.038
 0 
CIRCLE
 8 
0
 62 
 7 
 10 
1.075
 20 
0.525
 40 
0.02
 0 
CIRCLE
 8 
0
 62 
 7 
 10 
1.075
 20 
0.625
 40 
0.038
 0 
CIRCLE
 8 
0
 62 
 7 
 10 
1.075
 20 
0.625
 40 
0.02
 0 
CIRCLE
 8 
0
 62 
 7 
 10 
1.075
 20 
0.725
 40 
0.038
 0 
CIRCLE
 8 
0
 62 
 7 
 10 
1.075
 20 
0.725
 40 
0.02
 0 
CIRCLE
 8 
0
 62 
 7 
 10 
1.075
 20 
0.825
 40 
0.038
 0 
CIRCLE
 8 
0
 62 
 7 
 10 
1.075
 20 
0.825
 40 
0.02
 0 
CIRCLE
 8 
0
 62 
 7 
 10 
1.075
 20 
0.925
 40 
0.038
 0 
CIRCLE
 8 
0
 62 
 7 
 10 
1.075
 20 
0.925
 40 
0.02
 0 
CIRCLE
 8 
0
 62 
 7 
 10 
1.075
 20 
1.025
 40 
0.038
 0 
CIRCLE
 8 
0
 62 
 7 
 10 
1.075
 20 
1.025
 40 
0.02
 0 
CIRCLE
 8 
0
 62 
 7 
 10 
1.075
 20 
1.125
 40 
0.038
 0 
CIRCLE
 8 
0
 62 
 7 
 10 
1.075
 20 
1.125
 40 
0.02
 0 
CIRCLE
 8 
0
 62 
 7 
 10 
1.075
 20 
1.225
 40 
0.038
 0 
CIRCLE
 8 
0
 62 
 7 
 10 
1.075
 20 
1.225
 40 
0.02
 0 
CIRCLE
 8 
0
 62 
 7 
 10 
1.075
 20 
1.325
 40 
0.038
 0 
CIRCLE
 8 
0
 62 
 7 
 10 
1.075
 20 
1.325
 40 
0.02
 0 
CIRCLE
 8 
0
 62 
 7 
 10 
1.075
 20 
1.525
 40 
0.038
 0 
CIRCLE
 8 
0
 62 
 7 
 10 
1.075
 20 
1.525
 40 
0.02
 0 
CIRCLE
 8 
0
 62 
 7 
 10 
1.075
 20 
1.625
 40 
0.038
 0 
CIRCLE
 8 
0
 62 
 7 
 10 
1.075
 20 
1.625
 40 
0.02
 0 
CIRCLE
 8 
0
 62 
 7 
 10 
1.075
 20 
1.725
 40 
0.038
 0 
CIRCLE
 8 
0
 62 
 7 
 10 
1.075
 20 
1.725
 40 
0.02
 0 
CIRCLE
 8 
0
 62 
 7 
 10 
0.475
 20 
1.725
 40 
0.038
 0 
CIRCLE
 8 
0
 62 
 7 
 10 
0.475
 20 
1.725
 40 
0.02
 0 
CIRCLE
 8 
0
 62 
 7 
 10 
0.475
 20 
1.625
 40 
0.038
 0 
CIRCLE
 8 
0
 62 
 7 
 10 
0.475
 20 
1.625
 40 
0.02
 0 
CIRCLE
 8 
0
 62 
 7 
 10 
0.475
 20 
1.525
 40 
0.038
 0 
CIRCLE
 8 
0
 62 
 7 
 10 
0.475
 20 
1.525
 40 
0.02
 0 
CIRCLE
 8 
0
 62 
 7 
 10 
0.475
 20 
1.425
 40 
0.038
 0 
CIRCLE
 8 
0
 62 
 7 
 10 
0.475
 20 
1.425
 40 
0.02
 0 
CIRCLE
 8 
0
 62 
 7 
 10 
0.475
 20 
1.325
 40 
0.038
 0 
CIRCLE
 8 
0
 62 
 7 
 10 
0.475
 20 
1.325
 40 
0.02
 0 
CIRCLE
 8 
0
 62 
 7 
 10 
0.475
 20 
1.225
 40 
0.038
 0 
CIRCLE
 8 
0
 62 
 7 
 10 
0.475
 20 
1.225
 40 
0.02
 0 
CIRCLE
 8 
0
 62 
 7 
 10 
0.475
 20 
1.125
 40 
0.038
 0 
CIRCLE
 8 
0
 62 
 7 
 10 
0.475
 20 
1.125
 40 
0.02
 0 
CIRCLE
 8 
0
 62 
 7 
 10 
0.475
 20 
1.025
 40 
0.038
 0 
CIRCLE
 8 
0
 62 
 7 
 10 
0.475
 20 
1.025
 40 
0.02
 0 
CIRCLE
 8 
0
 62 
 7 
 10 
0.475
 20 
0.925
 40 
0.038
 0 
CIRCLE
 8 
0
 62 
 7 
 10 
0.475
 20 
0.925
 40 
0.02
 0 
CIRCLE
 8 
0
 62 
 7 
 10 
0.475
 20 
0.825
 40 
0.038
 0 
CIRCLE
 8 
0
 62 
 7 
 10 
0.475
 20 
0.825
 40 
0.02
 0 
CIRCLE
 8 
0
 62 
 7 
 10 
0.475
 20 
0.725
 40 
0.038
 0 
CIRCLE
 8 
0
 62 
 7 
 10 
0.475
 20 
0.725
 40 
0.02
 0 
CIRCLE
 8 
0
 62 
 7 
 10 
0.475
 20 
0.625
 40 
0.038
 0 
CIRCLE
 8 
0
 62 
 7 
 10 
0.475
 20 
0.625
 40 
0.02
 0 
CIRCLE
 8 
0
 62 
 7 
 10 
0.475
 20 
0.525
 40 
0.038
 0 
CIRCLE
 8 
0
 62 
 7 
 10 
0.475
 20 
0.525
 40 
0.02
 0 
CIRCLE
 8 
0
 62 
 7 
 10 
0.475
 20 
0.425
 40 
0.038
 0 
CIRCLE
 8 
0
 62 
 7 
 10 
0.475
 20 
0.425
 40 
0.02
 0 
LINE
 8 
0
 62 
 7 
 10 
0.925
 20 
0.337
 11 
0.95
 21 
0.337
 0 
LINE
 8 
0
 62 
 7 
 10 
0.938
 20 
0.337
 11 
0.938
 21 
0.299
 0 
LINE
 8 
0
 62 
 7 
 10 
0.963
 20 
0.337
 11 
0.963
 21 
0.331
 0 
LINE
 8 
0
 62 
 7 
 10 
0.963
 20 
0.331
 11 
0.988
 21 
0.305
 0 
LINE
 8 
0
 62 
 7 
 10 
0.988
 20 
0.305
 11 
0.988
 21 
0.299
 0 
LINE
 8 
0
 62 
 7 
 10 
0.988
 20 
0.337
 11 
0.988
 21 
0.331
 0 
LINE
 8 
0
 62 
 7 
 10 
0.988
 20 
0.331
 11 
0.963
 21 
0.305
 0 
LINE
 8 
0
 62 
 7 
 10 
0.963
 20 
0.305
 11 
0.963
 21 
0.299
 0 
LINE
 8 
0
 62 
 7 
 10 
1.007
 20 
0.331
 11 
1.014
 21 
0.337
 0 
LINE
 8 
0
 62 
 7 
 10 
1.014
 20 
0.337
 11 
1.014
 21 
0.299
 0 
LINE
 8 
0
 62 
 7 
 10 
1.007
 20 
0.299
 11 
1.02
 21 
0.299
 0 
LINE
 8 
0
 62 
 7 
 10 
0.561
 20 
0.431
 11 
0.555
 21 
0.437
 0 
LINE
 8 
0
 62 
 7 
 10 
0.555
 20 
0.437
 11 
0.542
 21 
0.437
 0 
LINE
 8 
0
 62 
 7 
 10 
0.542
 20 
0.437
 11 
0.536
 21 
0.431
 0 
LINE
 8 
0
 62 
 7 
 10 
0.536
 20 
0.431
 11 
0.536
 21 
0.405
 0 
LINE
 8 
0
 62 
 7 
 10 
0.536
 20 
0.405
 11 
0.542
 21 
0.399
 0 
LINE
 8 
0
 62 
 7 
 10 
0.542
 20 
0.399
 11 
0.561
 21 
0.399
 0 
LINE
 8 
0
 62 
 7 
 10 
0.561
 20 
0.399
 11 
0.561
 21 
0.412
 0 
LINE
 8 
0
 62 
 7 
 10 
0.561
 20 
0.412
 11 
0.555
 21 
0.412
 0 
LINE
 8 
0
 62 
 7 
 10 
0.574
 20 
0.399
 11 
0.574
 21 
0.437
 0 
LINE
 8 
0
 62 
 7 
 10 
0.574
 20 
0.437
 11 
0.599
 21 
0.412
 0 
LINE
 8 
0
 62 
 7 
 10 
0.599
 20 
0.437
 11 
0.599
 21 
0.399
 0 
LINE
 8 
0
 62 
 7 
 10 
0.612
 20 
0.437
 11 
0.631
 21 
0.437
 0 
LINE
 8 
0
 62 
 7 
 10 
0.631
 20 
0.437
 11 
0.637
 21 
0.431
 0 
LINE
 8 
0
 62 
 7 
 10 
0.637
 20 
0.431
 11 
0.637
 21 
0.405
 0 
LINE
 8 
0
 62 
 7 
 10 
0.637
 20 
0.405
 11 
0.631
 21 
0.399
 0 
LINE
 8 
0
 62 
 7 
 10 
0.631
 20 
0.399
 11 
0.612
 21 
0.399
 0 
LINE
 8 
0
 62 
 7 
 10 
0.618
 20 
0.437
 11 
0.618
 21 
0.399
 0 
LINE
 8 
0
 62 
 7 
 10 
0.536
 20 
0.499
 11 
0.536
 21 
0.537
 0 
LINE
 8 
0
 62 
 7 
 10 
0.536
 20 
0.537
 11 
0.555
 21 
0.537
 0 
LINE
 8 
0
 62 
 7 
 10 
0.555
 20 
0.537
 11 
0.561
 21 
0.531
 0 
LINE
 8 
0
 62 
 7 
 10 
0.561
 20 
0.531
 11 
0.561
 21 
0.524
 0 
LINE
 8 
0
 62 
 7 
 10 
0.561
 20 
0.524
 11 
0.555
 21 
0.518
 0 
LINE
 8 
0
 62 
 7 
 10 
0.555
 20 
0.518
 11 
0.536
 21 
0.518
 0 
LINE
 8 
0
 62 
 7 
 10 
0.542
 20 
0.518
 11 
0.561
 21 
0.499
 0 
LINE
 8 
0
 62 
 7 
 10 
0.599
 20 
0.531
 11 
0.593
 21 
0.537
 0 
LINE
 8 
0
 62 
 7 
 10 
0.593
 20 
0.537
 11 
0.58
 21 
0.537
 0 
LINE
 8 
0
 62 
 7 
 10 
0.58
 20 
0.537
 11 
0.574
 21 
0.531
 0 
LINE
 8 
0
 62 
 7 
 10 
0.574
 20 
0.531
 11 
0.574
 21 
0.524
 0 
LINE
 8 
0
 62 
 7 
 10 
0.574
 20 
0.524
 11 
0.58
 21 
0.518
 0 
LINE
 8 
0
 62 
 7 
 10 
0.58
 20 
0.518
 11 
0.593
 21 
0.518
 0 
LINE
 8 
0
 62 
 7 
 10 
0.593
 20 
0.518
 11 
0.599
 21 
0.512
 0 
LINE
 8 
0
 62 
 7 
 10 
0.599
 20 
0.512
 11 
0.599
 21 
0.505
 0 
LINE
 8 
0
 62 
 7 
 10 
0.599
 20 
0.505
 11 
0.593
 21 
0.499
 0 
LINE
 8 
0
 62 
 7 
 10 
0.593
 20 
0.499
 11 
0.58
 21 
0.499
 0 
LINE
 8 
0
 62 
 7 
 10 
0.58
 20 
0.499
 11 
0.574
 21 
0.505
 0 
LINE
 8 
0
 62 
 7 
 10 
0.612
 20 
0.537
 11 
0.637
 21 
0.537
 0 
LINE
 8 
0
 62 
 7 
 10 
0.625
 20 
0.537
 11 
0.625
 21 
0.499
 0 
LINE
 8 
0
 62 
 7 
 10 
0.561
 20 
0.639
 11 
0.536
 21 
0.639
 0 
LINE
 8 
0
 62 
 7 
 10 
0.536
 20 
0.639
 11 
0.536
 21 
0.626
 0 
LINE
 8 
0
 62 
 7 
 10 
0.536
 20 
0.626
 11 
0.555
 21 
0.626
 0 
LINE
 8 
0
 62 
 7 
 10 
0.555
 20 
0.626
 11 
0.561
 21 
0.62
 0 
LINE
 8 
0
 62 
 7 
 10 
0.561
 20 
0.62
 11 
0.561
 21 
0.607
 0 
LINE
 8 
0
 62 
 7 
 10 
0.561
 20 
0.607
 11 
0.555
 21 
0.601
 0 
LINE
 8 
0
 62 
 7 
 10 
0.555
 20 
0.601
 11 
0.542
 21 
0.601
 0 
LINE
 8 
0
 62 
 7 
 10 
0.542
 20 
0.601
 11 
0.536
 21 
0.607
 0 
LINE
 8 
0
 62 
 7 
 10 
0.574
 20 
0.639
 11 
0.574
 21 
0.62
 0 
LINE
 8 
0
 62 
 7 
 10 
0.574
 20 
0.62
 11 
0.587
 21 
0.607
 0 
LINE
 8 
0
 62 
 7 
 10 
0.587
 20 
0.607
 11 
0.599
 21 
0.62
 0 
LINE
 8 
0
 62 
 7 
 10 
0.599
 20 
0.62
 11 
0.599
 21 
0.639
 0 
LINE
 8 
0
 62 
 7 
 10 
0.587
 20 
0.607
 11 
0.587
 21 
0.601
 0 
LINE
 8 
0
 62 
 7 
 10 
0.536
 20 
0.701
 11 
0.536
 21 
0.726
 0 
LINE
 8 
0
 62 
 7 
 10 
0.536
 20 
0.726
 11 
0.549
 21 
0.739
 0 
LINE
 8 
0
 62 
 7 
 10 
0.549
 20 
0.739
 11 
0.561
 21 
0.726
 0 
LINE
 8 
0
 62 
 7 
 10 
0.561
 20 
0.726
 11 
0.561
 21 
0.701
 0 
LINE
 8 
0
 62 
 7 
 10 
0.536
 20 
0.714
 11 
0.561
 21 
0.714
 0 
LINE
 8 
0
 62 
 7 
 10 
0.574
 20 
0.707
 11 
0.574
 21 
0.733
 0 
LINE
 8 
0
 62 
 7 
 10 
0.574
 20 
0.733
 11 
0.58
 21 
0.739
 0 
LINE
 8 
0
 62 
 7 
 10 
0.58
 20 
0.739
 11 
0.593
 21 
0.739
 0 
LINE
 8 
0
 62 
 7 
 10 
0.593
 20 
0.739
 11 
0.599
 21 
0.733
 0 
LINE
 8 
0
 62 
 7 
 10 
0.599
 20 
0.733
 11 
0.599
 21 
0.707
 0 
LINE
 8 
0
 62 
 7 
 10 
0.599
 20 
0.707
 11 
0.593
 21 
0.701
 0 
LINE
 8 
0
 62 
 7 
 10 
0.593
 20 
0.701
 11 
0.58
 21 
0.701
 0 
LINE
 8 
0
 62 
 7 
 10 
0.58
 20 
0.701
 11 
0.574
 21 
0.707
 0 
LINE
 8 
0
 62 
 7 
 10 
0.574
 20 
0.707
 11 
0.599
 21 
0.733
 0 
LINE
 8 
0
 62 
 7 
 10 
0.536
 20 
0.801
 11 
0.536
 21 
0.826
 0 
LINE
 8 
0
 62 
 7 
 10 
0.536
 20 
0.826
 11 
0.549
 21 
0.839
 0 
LINE
 8 
0
 62 
 7 
 10 
0.549
 20 
0.839
 11 
0.561
 21 
0.826
 0 
LINE
 8 
0
 62 
 7 
 10 
0.561
 20 
0.826
 11 
0.561
 21 
0.801
 0 
LINE
 8 
0
 62 
 7 
 10 
0.536
 20 
0.814
 11 
0.561
 21 
0.814
 0 
LINE
 8 
0
 62 
 7 
 10 
0.58
 20 
0.833
 11 
0.587
 21 
0.839
 0 
LINE
 8 
0
 62 
 7 
 10 
0.587
 20 
0.839
 11 
0.587
 21 
0.801
 0 
LINE
 8 
0
 62 
 7 
 10 
0.58
 20 
0.801
 11 
0.593
 21 
0.801
 0 
LINE
 8 
0
 62 
 7 
 10 
0.536
 20 
0.901
 11 
0.536
 21 
0.926
 0 
LINE
 8 
0
 62 
 7 
 10 
0.536
 20 
0.926
 11 
0.549
 21 
0.939
 0 
LINE
 8 
0
 62 
 7 
 10 
0.549
 20 
0.939
 11 
0.561
 21 
0.926
 0 
LINE
 8 
0
 62 
 7 
 10 
0.561
 20 
0.926
 11 
0.561
 21 
0.901
 0 
LINE
 8 
0
 62 
 7 
 10 
0.536
 20 
0.914
 11 
0.561
 21 
0.914
 0 
LINE
 8 
0
 62 
 7 
 10 
0.574
 20 
0.933
 11 
0.58
 21 
0.939
 0 
LINE
 8 
0
 62 
 7 
 10 
0.58
 20 
0.939
 11 
0.593
 21 
0.939
 0 
LINE
 8 
0
 62 
 7 
 10 
0.593
 20 
0.939
 11 
0.599
 21 
0.933
 0 
LINE
 8 
0
 62 
 7 
 10 
0.599
 20 
0.933
 11 
0.599
 21 
0.926
 0 
LINE
 8 
0
 62 
 7 
 10 
0.599
 20 
0.926
 11 
0.593
 21 
0.92
 0 
LINE
 8 
0
 62 
 7 
 10 
0.593
 20 
0.92
 11 
0.58
 21 
0.92
 0 
LINE
 8 
0
 62 
 7 
 10 
0.58
 20 
0.92
 11 
0.574
 21 
0.914
 0 
LINE
 8 
0
 62 
 7 
 10 
0.574
 20 
0.914
 11 
0.574
 21 
0.901
 0 
LINE
 8 
0
 62 
 7 
 10 
0.574
 20 
0.901
 11 
0.599
 21 
0.901
 0 
LINE
 8 
0
 62 
 7 
 10 
0.536
 20 
1.001
 11 
0.536
 21 
1.026
 0 
LINE
 8 
0
 62 
 7 
 10 
0.536
 20 
1.026
 11 
0.549
 21 
1.039
 0 
LINE
 8 
0
 62 
 7 
 10 
0.549
 20 
1.039
 11 
0.561
 21 
1.026
 0 
LINE
 8 
0
 62 
 7 
 10 
0.561
 20 
1.026
 11 
0.561
 21 
1.001
 0 
LINE
 8 
0
 62 
 7 
 10 
0.536
 20 
1.014
 11 
0.561
 21 
1.014
 0 
LINE
 8 
0
 62 
 7 
 10 
0.574
 20 
1.033
 11 
0.58
 21 
1.039
 0 
LINE
 8 
0
 62 
 7 
 10 
0.58
 20 
1.039
 11 
0.593
 21 
1.039
 0 
LINE
 8 
0
 62 
 7 
 10 
0.593
 20 
1.039
 11 
0.599
 21 
1.033
 0 
LINE
 8 
0
 62 
 7 
 10 
0.599
 20 
1.033
 11 
0.599
 21 
1.026
 0 
LINE
 8 
0
 62 
 7 
 10 
0.599
 20 
1.026
 11 
0.593
 21 
1.02
 0 
LINE
 8 
0
 62 
 7 
 10 
0.593
 20 
1.02
 11 
0.587
 21 
1.02
 0 
LINE
 8 
0
 62 
 7 
 10 
0.593
 20 
1.02
 11 
0.599
 21 
1.014
 0 
LINE
 8 
0
 62 
 7 
 10 
0.599
 20 
1.014
 11 
0.599
 21 
1.007
 0 
LINE
 8 
0
 62 
 7 
 10 
0.599
 20 
1.007
 11 
0.593
 21 
1.001
 0 
LINE
 8 
0
 62 
 7 
 10 
0.593
 20 
1.001
 11 
0.58
 21 
1.001
 0 
LINE
 8 
0
 62 
 7 
 10 
0.58
 20 
1.001
 11 
0.574
 21 
1.007
 0 
LINE
 8 
0
 62 
 7 
 10 
0.536
 20 
1.101
 11 
0.536
 21 
1.126
 0 
LINE
 8 
0
 62 
 7 
 10 
0.536
 20 
1.126
 11 
0.549
 21 
1.139
 0 
LINE
 8 
0
 62 
 7 
 10 
0.549
 20 
1.139
 11 
0.561
 21 
1.126
 0 
LINE
 8 
0
 62 
 7 
 10 
0.561
 20 
1.126
 11 
0.561
 21 
1.101
 0 
LINE
 8 
0
 62 
 7 
 10 
0.536
 20 
1.114
 11 
0.561
 21 
1.114
 0 
LINE
 8 
0
 62 
 7 
 10 
0.599
 20 
1.114
 11 
0.574
 21 
1.114
 0 
LINE
 8 
0
 62 
 7 
 10 
0.574
 20 
1.114
 11 
0.574
 21 
1.12
 0 
LINE
 8 
0
 62 
 7 
 10 
0.574
 20 
1.12
 11 
0.593
 21 
1.139
 0 
LINE
 8 
0
 62 
 7 
 10 
0.593
 20 
1.139
 11 
0.593
 21 
1.101
 0 
LINE
 8 
0
 62 
 7 
 10 
0.536
 20 
1.201
 11 
0.536
 21 
1.226
 0 
LINE
 8 
0
 62 
 7 
 10 
0.536
 20 
1.226
 11 
0.549
 21 
1.239
 0 
LINE
 8 
0
 62 
 7 
 10 
0.549
 20 
1.239
 11 
0.561
 21 
1.226
 0 
LINE
 8 
0
 62 
 7 
 10 
0.561
 20 
1.226
 11 
0.561
 21 
1.201
 0 
LINE
 8 
0
 62 
 7 
 10 
0.536
 20 
1.214
 11 
0.561
 21 
1.214
 0 
LINE
 8 
0
 62 
 7 
 10 
0.599
 20 
1.239
 11 
0.574
 21 
1.239
 0 
LINE
 8 
0
 62 
 7 
 10 
0.574
 20 
1.239
 11 
0.574
 21 
1.226
 0 
LINE
 8 
0
 62 
 7 
 10 
0.574
 20 
1.226
 11 
0.593
 21 
1.226
 0 
LINE
 8 
0
 62 
 7 
 10 
0.593
 20 
1.226
 11 
0.599
 21 
1.22
 0 
LINE
 8 
0
 62 
 7 
 10 
0.599
 20 
1.22
 11 
0.599
 21 
1.207
 0 
LINE
 8 
0
 62 
 7 
 10 
0.599
 20 
1.207
 11 
0.593
 21 
1.201
 0 
LINE
 8 
0
 62 
 7 
 10 
0.593
 20 
1.201
 11 
0.58
 21 
1.201
 0 
LINE
 8 
0
 62 
 7 
 10 
0.58
 20 
1.201
 11 
0.574
 21 
1.207
 0 
LINE
 8 
0
 62 
 7 
 10 
0.536
 20 
1.301
 11 
0.536
 21 
1.326
 0 
LINE
 8 
0
 62 
 7 
 10 
0.536
 20 
1.326
 11 
0.549
 21 
1.339
 0 
LINE
 8 
0
 62 
 7 
 10 
0.549
 20 
1.339
 11 
0.561
 21 
1.326
 0 
LINE
 8 
0
 62 
 7 
 10 
0.561
 20 
1.326
 11 
0.561
 21 
1.301
 0 
LINE
 8 
0
 62 
 7 
 10 
0.536
 20 
1.314
 11 
0.561
 21 
1.314
 0 
LINE
 8 
0
 62 
 7 
 10 
0.593
 20 
1.339
 11 
0.587
 21 
1.339
 0 
LINE
 8 
0
 62 
 7 
 10 
0.587
 20 
1.339
 11 
0.574
 21 
1.326
 0 
LINE
 8 
0
 62 
 7 
 10 
0.574
 20 
1.326
 11 
0.574
 21 
1.307
 0 
LINE
 8 
0
 62 
 7 
 10 
0.574
 20 
1.307
 11 
0.58
 21 
1.301
 0 
LINE
 8 
0
 62 
 7 
 10 
0.58
 20 
1.301
 11 
0.593
 21 
1.301
 0 
LINE
 8 
0
 62 
 7 
 10 
0.593
 20 
1.301
 11 
0.599
 21 
1.307
 0 
LINE
 8 
0
 62 
 7 
 10 
0.599
 20 
1.307
 11 
0.599
 21 
1.314
 0 
LINE
 8 
0
 62 
 7 
 10 
0.599
 20 
1.314
 11 
0.593
 21 
1.32
 0 
LINE
 8 
0
 62 
 7 
 10 
0.593
 20 
1.32
 11 
0.58
 21 
1.32
 0 
LINE
 8 
0
 62 
 7 
 10 
0.58
 20 
1.32
 11 
0.574
 21 
1.314
 0 
LINE
 8 
0
 62 
 7 
 10 
0.536
 20 
1.401
 11 
0.536
 21 
1.426
 0 
LINE
 8 
0
 62 
 7 
 10 
0.536
 20 
1.426
 11 
0.549
 21 
1.439
 0 
LINE
 8 
0
 62 
 7 
 10 
0.549
 20 
1.439
 11 
0.561
 21 
1.426
 0 
LINE
 8 
0
 62 
 7 
 10 
0.561
 20 
1.426
 11 
0.561
 21 
1.401
 0 
LINE
 8 
0
 62 
 7 
 10 
0.536
 20 
1.414
 11 
0.561
 21 
1.414
 0 
LINE
 8 
0
 62 
 7 
 10 
0.574
 20 
1.433
 11 
0.574
 21 
1.439
 0 
LINE
 8 
0
 62 
 7 
 10 
0.574
 20 
1.439
 11 
0.599
 21 
1.439
 0 
LINE
 8 
0
 62 
 7 
 10 
0.599
 20 
1.439
 11 
0.599
 21 
1.433
 0 
LINE
 8 
0
 62 
 7 
 10 
0.599
 20 
1.433
 11 
0.58
 21 
1.414
 0 
LINE
 8 
0
 62 
 7 
 10 
0.58
 20 
1.414
 11 
0.58
 21 
1.401
 0 
LINE
 8 
0
 62 
 7 
 10 
0.536
 20 
1.501
 11 
0.536
 21 
1.526
 0 
LINE
 8 
0
 62 
 7 
 10 
0.536
 20 
1.526
 11 
0.549
 21 
1.539
 0 
LINE
 8 
0
 62 
 7 
 10 
0.549
 20 
1.539
 11 
0.561
 21 
1.526
 0 
LINE
 8 
0
 62 
 7 
 10 
0.561
 20 
1.526
 11 
0.561
 21 
1.501
 0 
LINE
 8 
0
 62 
 7 
 10 
0.536
 20 
1.514
 11 
0.561
 21 
1.514
 0 
LINE
 8 
0
 62 
 7 
 10 
0.574
 20 
1.501
 11 
0.574
 21 
1.539
 0 
LINE
 8 
0
 62 
 7 
 10 
0.574
 20 
1.539
 11 
0.593
 21 
1.539
 0 
LINE
 8 
0
 62 
 7 
 10 
0.593
 20 
1.539
 11 
0.599
 21 
1.533
 0 
LINE
 8 
0
 62 
 7 
 10 
0.599
 20 
1.533
 11 
0.599
 21 
1.526
 0 
LINE
 8 
0
 62 
 7 
 10 
0.599
 20 
1.526
 11 
0.593
 21 
1.52
 0 
LINE
 8 
0
 62 
 7 
 10 
0.593
 20 
1.52
 11 
0.574
 21 
1.52
 0 
LINE
 8 
0
 62 
 7 
 10 
0.58
 20 
1.52
 11 
0.599
 21 
1.501
 0 
LINE
 8 
0
 62 
 7 
 10 
0.637
 20 
1.539
 11 
0.612
 21 
1.539
 0 
LINE
 8 
0
 62 
 7 
 10 
0.612
 20 
1.539
 11 
0.612
 21 
1.501
 0 
LINE
 8 
0
 62 
 7 
 10 
0.612
 20 
1.501
 11 
0.637
 21 
1.501
 0 
LINE
 8 
0
 62 
 7 
 10 
0.612
 20 
1.52
 11 
0.631
 21 
1.52
 0 
LINE
 8 
0
 62 
 7 
 10 
0.675
 20 
1.539
 11 
0.65
 21 
1.539
 0 
LINE
 8 
0
 62 
 7 
 10 
0.65
 20 
1.539
 11 
0.65
 21 
1.501
 0 
LINE
 8 
0
 62 
 7 
 10 
0.65
 20 
1.52
 11 
0.669
 21 
1.52
 0 
LINE
 8 
0
 62 
 7 
 10 
0.536
 20 
1.631
 11 
0.542
 21 
1.637
 0 
LINE
 8 
0
 62 
 7 
 10 
0.542
 20 
1.637
 11 
0.555
 21 
1.637
 0 
LINE
 8 
0
 62 
 7 
 10 
0.555
 20 
1.637
 11 
0.561
 21 
1.631
 0 
LINE
 8 
0
 62 
 7 
 10 
0.561
 20 
1.631
 11 
0.561
 21 
1.624
 0 
LINE
 8 
0
 62 
 7 
 10 
0.561
 20 
1.624
 11 
0.555
 21 
1.618
 0 
LINE
 8 
0
 62 
 7 
 10 
0.555
 20 
1.618
 11 
0.549
 21 
1.618
 0 
LINE
 8 
0
 62 
 7 
 10 
0.555
 20 
1.618
 11 
0.561
 21 
1.612
 0 
LINE
 8 
0
 62 
 7 
 10 
0.561
 20 
1.612
 11 
0.561
 21 
1.605
 0 
LINE
 8 
0
 62 
 7 
 10 
0.561
 20 
1.605
 11 
0.555
 21 
1.599
 0 
LINE
 8 
0
 62 
 7 
 10 
0.555
 20 
1.599
 11 
0.542
 21 
1.599
 0 
LINE
 8 
0
 62 
 7 
 10 
0.542
 20 
1.599
 11 
0.536
 21 
1.605
 0 
LINE
 8 
0
 62 
 7 
 10 
0.574
 20 
1.637
 11 
0.574
 21 
1.618
 0 
LINE
 8 
0
 62 
 7 
 10 
0.574
 20 
1.618
 11 
0.587
 21 
1.605
 0 
LINE
 8 
0
 62 
 7 
 10 
0.587
 20 
1.605
 11 
0.599
 21 
1.618
 0 
LINE
 8 
0
 62 
 7 
 10 
0.599
 20 
1.618
 11 
0.599
 21 
1.637
 0 
LINE
 8 
0
 62 
 7 
 10 
0.587
 20 
1.605
 11 
0.587
 21 
1.599
 0 
LINE
 8 
0
 62 
 7 
 10 
0.612
 20 
1.631
 11 
0.618
 21 
1.637
 0 
LINE
 8 
0
 62 
 7 
 10 
0.618
 20 
1.637
 11 
0.631
 21 
1.637
 0 
LINE
 8 
0
 62 
 7 
 10 
0.631
 20 
1.637
 11 
0.637
 21 
1.631
 0 
LINE
 8 
0
 62 
 7 
 10 
0.637
 20 
1.631
 11 
0.637
 21 
1.624
 0 
LINE
 8 
0
 62 
 7 
 10 
0.637
 20 
1.624
 11 
0.631
 21 
1.618
 0 
LINE
 8 
0
 62 
 7 
 10 
0.631
 20 
1.618
 11 
0.625
 21 
1.618
 0 
LINE
 8 
0
 62 
 7 
 10 
0.631
 20 
1.618
 11 
0.637
 21 
1.612
 0 
LINE
 8 
0
 62 
 7 
 10 
0.637
 20 
1.612
 11 
0.637
 21 
1.605
 0 
LINE
 8 
0
 62 
 7 
 10 
0.637
 20 
1.605
 11 
0.631
 21 
1.599
 0 
LINE
 8 
0
 62 
 7 
 10 
0.631
 20 
1.599
 11 
0.618
 21 
1.599
 0 
LINE
 8 
0
 62 
 7 
 10 
0.618
 20 
1.599
 11 
0.612
 21 
1.605
 0 
LINE
 8 
0
 62 
 7 
 10 
0.536
 20 
1.737
 11 
0.555
 21 
1.737
 0 
LINE
 8 
0
 62 
 7 
 10 
0.555
 20 
1.737
 11 
0.561
 21 
1.731
 0 
LINE
 8 
0
 62 
 7 
 10 
0.561
 20 
1.731
 11 
0.561
 21 
1.705
 0 
LINE
 8 
0
 62 
 7 
 10 
0.561
 20 
1.705
 11 
0.555
 21 
1.699
 0 
LINE
 8 
0
 62 
 7 
 10 
0.555
 20 
1.699
 11 
0.536
 21 
1.699
 0 
LINE
 8 
0
 62 
 7 
 10 
0.542
 20 
1.737
 11 
0.542
 21 
1.699
 0 
LINE
 8 
0
 62 
 7 
 10 
0.58
 20 
1.731
 11 
0.587
 21 
1.737
 0 
LINE
 8 
0
 62 
 7 
 10 
0.587
 20 
1.737
 11 
0.587
 21 
1.699
 0 
LINE
 8 
0
 62 
 7 
 10 
0.58
 20 
1.699
 11 
0.593
 21 
1.699
 0 
LINE
 8 
0
 62 
 7 
 10 
0.612
 20 
1.731
 11 
0.618
 21 
1.737
 0 
LINE
 8 
0
 62 
 7 
 10 
0.618
 20 
1.737
 11 
0.631
 21 
1.737
 0 
LINE
 8 
0
 62 
 7 
 10 
0.631
 20 
1.737
 11 
0.637
 21 
1.731
 0 
LINE
 8 
0
 62 
 7 
 10 
0.637
 20 
1.731
 11 
0.637
 21 
1.724
 0 
LINE
 8 
0
 62 
 7 
 10 
0.637
 20 
1.724
 11 
0.631
 21 
1.718
 0 
LINE
 8 
0
 62 
 7 
 10 
0.631
 20 
1.718
 11 
0.625
 21 
1.718
 0 
LINE
 8 
0
 62 
 7 
 10 
0.631
 20 
1.718
 11 
0.637
 21 
1.712
 0 
LINE
 8 
0
 62 
 7 
 10 
0.637
 20 
1.712
 11 
0.637
 21 
1.705
 0 
LINE
 8 
0
 62 
 7 
 10 
0.637
 20 
1.705
 11 
0.631
 21 
1.699
 0 
LINE
 8 
0
 62 
 7 
 10 
0.631
 20 
1.699
 11 
0.618
 21 
1.699
 0 
LINE
 8 
0
 62 
 7 
 10 
0.618
 20 
1.699
 11 
0.612
 21 
1.705
 0 
LINE
 8 
0
 62 
 7 
 10 
0.924
 20 
1.737
 11 
0.943
 21 
1.737
 0 
LINE
 8 
0
 62 
 7 
 10 
0.943
 20 
1.737
 11 
0.949
 21 
1.731
 0 
LINE
 8 
0
 62 
 7 
 10 
0.949
 20 
1.731
 11 
0.949
 21 
1.705
 0 
LINE
 8 
0
 62 
 7 
 10 
0.949
 20 
1.705
 11 
0.943
 21 
1.699
 0 
LINE
 8 
0
 62 
 7 
 10 
0.943
 20 
1.699
 11 
0.924
 21 
1.699
 0 
LINE
 8 
0
 62 
 7 
 10 
0.93
 20 
1.737
 11 
0.93
 21 
1.699
 0 
LINE
 8 
0
 62 
 7 
 10 
0.968
 20 
1.731
 11 
0.975
 21 
1.737
 0 
LINE
 8 
0
 62 
 7 
 10 
0.975
 20 
1.737
 11 
0.975
 21 
1.699
 0 
LINE
 8 
0
 62 
 7 
 10 
0.968
 20 
1.699
 11 
0.981
 21 
1.699
 0 
LINE
 8 
0
 62 
 7 
 10 
1.0
 20 
1.731
 11 
1.006
 21 
1.737
 0 
LINE
 8 
0
 62 
 7 
 10 
1.006
 20 
1.737
 11 
1.019
 21 
1.737
 0 
LINE
 8 
0
 62 
 7 
 10 
1.019
 20 
1.737
 11 
1.025
 21 
1.731
 0 
LINE
 8 
0
 62 
 7 
 10 
1.025
 20 
1.731
 11 
1.025
 21 
1.724
 0 
LINE
 8 
0
 62 
 7 
 10 
1.025
 20 
1.724
 11 
1.019
 21 
1.718
 0 
LINE
 8 
0
 62 
 7 
 10 
1.019
 20 
1.718
 11 
1.006
 21 
1.718
 0 
LINE
 8 
0
 62 
 7 
 10 
1.006
 20 
1.718
 11 
1.0
 21 
1.712
 0 
LINE
 8 
0
 62 
 7 
 10 
1.0
 20 
1.712
 11 
1.0
 21 
1.699
 0 
LINE
 8 
0
 62 
 7 
 10 
1.0
 20 
1.699
 11 
1.025
 21 
1.699
 0 
LINE
 8 
0
 62 
 7 
 10 
0.924
 20 
1.637
 11 
0.943
 21 
1.637
 0 
LINE
 8 
0
 62 
 7 
 10 
0.943
 20 
1.637
 11 
0.949
 21 
1.631
 0 
LINE
 8 
0
 62 
 7 
 10 
0.949
 20 
1.631
 11 
0.949
 21 
1.605
 0 
LINE
 8 
0
 62 
 7 
 10 
0.949
 20 
1.605
 11 
0.943
 21 
1.599
 0 
LINE
 8 
0
 62 
 7 
 10 
0.943
 20 
1.599
 11 
0.924
 21 
1.599
 0 
LINE
 8 
0
 62 
 7 
 10 
0.93
 20 
1.637
 11 
0.93
 21 
1.599
 0 
LINE
 8 
0
 62 
 7 
 10 
0.968
 20 
1.631
 11 
0.975
 21 
1.637
 0 
LINE
 8 
0
 62 
 7 
 10 
0.975
 20 
1.637
 11 
0.975
 21 
1.599
 0 
LINE
 8 
0
 62 
 7 
 10 
0.968
 20 
1.599
 11 
0.981
 21 
1.599
 0 
LINE
 8 
0
 62 
 7 
 10 
1.006
 20 
1.631
 11 
1.013
 21 
1.637
 0 
LINE
 8 
0
 62 
 7 
 10 
1.013
 20 
1.637
 11 
1.013
 21 
1.599
 0 
LINE
 8 
0
 62 
 7 
 10 
1.006
 20 
1.599
 11 
1.019
 21 
1.599
 0 
LINE
 8 
0
 62 
 7 
 10 
0.924
 20 
1.537
 11 
0.943
 21 
1.537
 0 
LINE
 8 
0
 62 
 7 
 10 
0.943
 20 
1.537
 11 
0.949
 21 
1.531
 0 
LINE
 8 
0
 62 
 7 
 10 
0.949
 20 
1.531
 11 
0.949
 21 
1.505
 0 
LINE
 8 
0
 62 
 7 
 10 
0.949
 20 
1.505
 11 
0.943
 21 
1.499
 0 
LINE
 8 
0
 62 
 7 
 10 
0.943
 20 
1.499
 11 
0.924
 21 
1.499
 0 
LINE
 8 
0
 62 
 7 
 10 
0.93
 20 
1.537
 11 
0.93
 21 
1.499
 0 
LINE
 8 
0
 62 
 7 
 10 
0.968
 20 
1.531
 11 
0.975
 21 
1.537
 0 
LINE
 8 
0
 62 
 7 
 10 
0.975
 20 
1.537
 11 
0.975
 21 
1.499
 0 
LINE
 8 
0
 62 
 7 
 10 
0.968
 20 
1.499
 11 
0.981
 21 
1.499
 0 
LINE
 8 
0
 62 
 7 
 10 
1.0
 20 
1.505
 11 
1.0
 21 
1.531
 0 
LINE
 8 
0
 62 
 7 
 10 
1.0
 20 
1.531
 11 
1.006
 21 
1.537
 0 
LINE
 8 
0
 62 
 7 
 10 
1.006
 20 
1.537
 11 
1.019
 21 
1.537
 0 
LINE
 8 
0
 62 
 7 
 10 
1.019
 20 
1.537
 11 
1.025
 21 
1.531
 0 
LINE
 8 
0
 62 
 7 
 10 
1.025
 20 
1.531
 11 
1.025
 21 
1.505
 0 
LINE
 8 
0
 62 
 7 
 10 
1.025
 20 
1.505
 11 
1.019
 21 
1.499
 0 
LINE
 8 
0
 62 
 7 
 10 
1.019
 20 
1.499
 11 
1.006
 21 
1.499
 0 
LINE
 8 
0
 62 
 7 
 10 
1.006
 20 
1.499
 11 
1.0
 21 
1.505
 0 
LINE
 8 
0
 62 
 7 
 10 
1.0
 20 
1.505
 11 
1.025
 21 
1.531
 0 
LINE
 8 
0
 62 
 7 
 10 
0.962
 20 
1.439
 11 
0.981
 21 
1.439
 0 
LINE
 8 
0
 62 
 7 
 10 
0.981
 20 
1.439
 11 
0.987
 21 
1.433
 0 
LINE
 8 
0
 62 
 7 
 10 
0.987
 20 
1.433
 11 
0.987
 21 
1.407
 0 
LINE
 8 
0
 62 
 7 
 10 
0.987
 20 
1.407
 11 
0.981
 21 
1.401
 0 
LINE
 8 
0
 62 
 7 
 10 
0.981
 20 
1.401
 11 
0.962
 21 
1.401
 0 
LINE
 8 
0
 62 
 7 
 10 
0.968
 20 
1.439
 11 
0.968
 21 
1.401
 0 
LINE
 8 
0
 62 
 7 
 10 
1.025
 20 
1.426
 11 
1.019
 21 
1.42
 0 
LINE
 8 
0
 62 
 7 
 10 
1.019
 20 
1.42
 11 
1.006
 21 
1.42
 0 
LINE
 8 
0
 62 
 7 
 10 
1.006
 20 
1.42
 11 
1.0
 21 
1.426
 0 
LINE
 8 
0
 62 
 7 
 10 
1.0
 20 
1.426
 11 
1.0
 21 
1.433
 0 
LINE
 8 
0
 62 
 7 
 10 
1.0
 20 
1.433
 11 
1.006
 21 
1.439
 0 
LINE
 8 
0
 62 
 7 
 10 
1.006
 20 
1.439
 11 
1.019
 21 
1.439
 0 
LINE
 8 
0
 62 
 7 
 10 
1.019
 20 
1.439
 11 
1.025
 21 
1.433
 0 
LINE
 8 
0
 62 
 7 
 10 
1.025
 20 
1.433
 11 
1.025
 21 
1.414
 0 
LINE
 8 
0
 62 
 7 
 10 
1.025
 20 
1.414
 11 
1.013
 21 
1.401
 0 
LINE
 8 
0
 62 
 7 
 10 
1.013
 20 
1.401
 11 
1.006
 21 
1.401
 0 
LINE
 8 
0
 62 
 7 
 10 
0.962
 20 
1.339
 11 
0.981
 21 
1.339
 0 
LINE
 8 
0
 62 
 7 
 10 
0.981
 20 
1.339
 11 
0.987
 21 
1.333
 0 
LINE
 8 
0
 62 
 7 
 10 
0.987
 20 
1.333
 11 
0.987
 21 
1.307
 0 
LINE
 8 
0
 62 
 7 
 10 
0.987
 20 
1.307
 11 
0.981
 21 
1.301
 0 
LINE
 8 
0
 62 
 7 
 10 
0.981
 20 
1.301
 11 
0.962
 21 
1.301
 0 
LINE
 8 
0
 62 
 7 
 10 
0.968
 20 
1.339
 11 
0.968
 21 
1.301
 0 
LINE
 8 
0
 62 
 7 
 10 
1.006
 20 
1.32
 11 
1.0
 21 
1.326
 0 
LINE
 8 
0
 62 
 7 
 10 
1.0
 20 
1.326
 11 
1.0
 21 
1.333
 0 
LINE
 8 
0
 62 
 7 
 10 
1.0
 20 
1.333
 11 
1.006
 21 
1.339
 0 
LINE
 8 
0
 62 
 7 
 10 
1.006
 20 
1.339
 11 
1.019
 21 
1.339
 0 
LINE
 8 
0
 62 
 7 
 10 
1.019
 20 
1.339
 11 
1.025
 21 
1.333
 0 
LINE
 8 
0
 62 
 7 
 10 
1.025
 20 
1.333
 11 
1.025
 21 
1.326
 0 
LINE
 8 
0
 62 
 7 
 10 
1.025
 20 
1.326
 11 
1.019
 21 
1.32
 0 
LINE
 8 
0
 62 
 7 
 10 
1.019
 20 
1.32
 11 
1.006
 21 
1.32
 0 
LINE
 8 
0
 62 
 7 
 10 
1.006
 20 
1.32
 11 
1.0
 21 
1.314
 0 
LINE
 8 
0
 62 
 7 
 10 
1.0
 20 
1.314
 11 
1.0
 21 
1.307
 0 
LINE
 8 
0
 62 
 7 
 10 
1.0
 20 
1.307
 11 
1.006
 21 
1.301
 0 
LINE
 8 
0
 62 
 7 
 10 
1.006
 20 
1.301
 11 
1.019
 21 
1.301
 0 
LINE
 8 
0
 62 
 7 
 10 
1.019
 20 
1.301
 11 
1.025
 21 
1.307
 0 
LINE
 8 
0
 62 
 7 
 10 
1.025
 20 
1.307
 11 
1.025
 21 
1.314
 0 
LINE
 8 
0
 62 
 7 
 10 
1.025
 20 
1.314
 11 
1.019
 21 
1.32
 0 
LINE
 8 
0
 62 
 7 
 10 
0.962
 20 
1.239
 11 
0.981
 21 
1.239
 0 
LINE
 8 
0
 62 
 7 
 10 
0.981
 20 
1.239
 11 
0.987
 21 
1.233
 0 
LINE
 8 
0
 62 
 7 
 10 
0.987
 20 
1.233
 11 
0.987
 21 
1.207
 0 
LINE
 8 
0
 62 
 7 
 10 
0.987
 20 
1.207
 11 
0.981
 21 
1.201
 0 
LINE
 8 
0
 62 
 7 
 10 
0.981
 20 
1.201
 11 
0.962
 21 
1.201
 0 
LINE
 8 
0
 62 
 7 
 10 
0.968
 20 
1.239
 11 
0.968
 21 
1.201
 0 
LINE
 8 
0
 62 
 7 
 10 
1.0
 20 
1.233
 11 
1.0
 21 
1.239
 0 
LINE
 8 
0
 62 
 7 
 10 
1.0
 20 
1.239
 11 
1.025
 21 
1.239
 0 
LINE
 8 
0
 62 
 7 
 10 
1.025
 20 
1.239
 11 
1.025
 21 
1.233
 0 
LINE
 8 
0
 62 
 7 
 10 
1.025
 20 
1.233
 11 
1.006
 21 
1.214
 0 
LINE
 8 
0
 62 
 7 
 10 
1.006
 20 
1.214
 11 
1.006
 21 
1.201
 0 
LINE
 8 
0
 62 
 7 
 10 
0.962
 20 
1.139
 11 
0.981
 21 
1.139
 0 
LINE
 8 
0
 62 
 7 
 10 
0.981
 20 
1.139
 11 
0.987
 21 
1.133
 0 
LINE
 8 
0
 62 
 7 
 10 
0.987
 20 
1.133
 11 
0.987
 21 
1.107
 0 
LINE
 8 
0
 62 
 7 
 10 
0.987
 20 
1.107
 11 
0.981
 21 
1.101
 0 
LINE
 8 
0
 62 
 7 
 10 
0.981
 20 
1.101
 11 
0.962
 21 
1.101
 0 
LINE
 8 
0
 62 
 7 
 10 
0.968
 20 
1.139
 11 
0.968
 21 
1.101
 0 
LINE
 8 
0
 62 
 7 
 10 
1.019
 20 
1.139
 11 
1.013
 21 
1.139
 0 
LINE
 8 
0
 62 
 7 
 10 
1.013
 20 
1.139
 11 
1.0
 21 
1.126
 0 
LINE
 8 
0
 62 
 7 
 10 
1.0
 20 
1.126
 11 
1.0
 21 
1.107
 0 
LINE
 8 
0
 62 
 7 
 10 
1.0
 20 
1.107
 11 
1.006
 21 
1.101
 0 
LINE
 8 
0
 62 
 7 
 10 
1.006
 20 
1.101
 11 
1.019
 21 
1.101
 0 
LINE
 8 
0
 62 
 7 
 10 
1.019
 20 
1.101
 11 
1.025
 21 
1.107
 0 
LINE
 8 
0
 62 
 7 
 10 
1.025
 20 
1.107
 11 
1.025
 21 
1.114
 0 
LINE
 8 
0
 62 
 7 
 10 
1.025
 20 
1.114
 11 
1.019
 21 
1.12
 0 
LINE
 8 
0
 62 
 7 
 10 
1.019
 20 
1.12
 11 
1.006
 21 
1.12
 0 
LINE
 8 
0
 62 
 7 
 10 
1.006
 20 
1.12
 11 
1.0
 21 
1.114
 0 
LINE
 8 
0
 62 
 7 
 10 
0.962
 20 
1.039
 11 
0.981
 21 
1.039
 0 
LINE
 8 
0
 62 
 7 
 10 
0.981
 20 
1.039
 11 
0.987
 21 
1.033
 0 
LINE
 8 
0
 62 
 7 
 10 
0.987
 20 
1.033
 11 
0.987
 21 
1.007
 0 
LINE
 8 
0
 62 
 7 
 10 
0.987
 20 
1.007
 11 
0.981
 21 
1.001
 0 
LINE
 8 
0
 62 
 7 
 10 
0.981
 20 
1.001
 11 
0.962
 21 
1.001
 0 
LINE
 8 
0
 62 
 7 
 10 
0.968
 20 
1.039
 11 
0.968
 21 
1.001
 0 
LINE
 8 
0
 62 
 7 
 10 
1.025
 20 
1.039
 11 
1.0
 21 
1.039
 0 
LINE
 8 
0
 62 
 7 
 10 
1.0
 20 
1.039
 11 
1.0
 21 
1.026
 0 
LINE
 8 
0
 62 
 7 
 10 
1.0
 20 
1.026
 11 
1.019
 21 
1.026
 0 
LINE
 8 
0
 62 
 7 
 10 
1.019
 20 
1.026
 11 
1.025
 21 
1.02
 0 
LINE
 8 
0
 62 
 7 
 10 
1.025
 20 
1.02
 11 
1.025
 21 
1.007
 0 
LINE
 8 
0
 62 
 7 
 10 
1.025
 20 
1.007
 11 
1.019
 21 
1.001
 0 
LINE
 8 
0
 62 
 7 
 10 
1.019
 20 
1.001
 11 
1.006
 21 
1.001
 0 
LINE
 8 
0
 62 
 7 
 10 
1.006
 20 
1.001
 11 
1.0
 21 
1.007
 0 
LINE
 8 
0
 62 
 7 
 10 
0.962
 20 
0.939
 11 
0.981
 21 
0.939
 0 
LINE
 8 
0
 62 
 7 
 10 
0.981
 20 
0.939
 11 
0.987
 21 
0.933
 0 
LINE
 8 
0
 62 
 7 
 10 
0.987
 20 
0.933
 11 
0.987
 21 
0.907
 0 
LINE
 8 
0
 62 
 7 
 10 
0.987
 20 
0.907
 11 
0.981
 21 
0.901
 0 
LINE
 8 
0
 62 
 7 
 10 
0.981
 20 
0.901
 11 
0.962
 21 
0.901
 0 
LINE
 8 
0
 62 
 7 
 10 
0.968
 20 
0.939
 11 
0.968
 21 
0.901
 0 
LINE
 8 
0
 62 
 7 
 10 
1.025
 20 
0.914
 11 
1.0
 21 
0.914
 0 
LINE
 8 
0
 62 
 7 
 10 
1.0
 20 
0.914
 11 
1.0
 21 
0.92
 0 
LINE
 8 
0
 62 
 7 
 10 
1.0
 20 
0.92
 11 
1.019
 21 
0.939
 0 
LINE
 8 
0
 62 
 7 
 10 
1.019
 20 
0.939
 11 
1.019
 21 
0.901
 0 
LINE
 8 
0
 62 
 7 
 10 
0.962
 20 
0.839
 11 
0.981
 21 
0.839
 0 
LINE
 8 
0
 62 
 7 
 10 
0.981
 20 
0.839
 11 
0.987
 21 
0.833
 0 
LINE
 8 
0
 62 
 7 
 10 
0.987
 20 
0.833
 11 
0.987
 21 
0.807
 0 
LINE
 8 
0
 62 
 7 
 10 
0.987
 20 
0.807
 11 
0.981
 21 
0.801
 0 
LINE
 8 
0
 62 
 7 
 10 
0.981
 20 
0.801
 11 
0.962
 21 
0.801
 0 
LINE
 8 
0
 62 
 7 
 10 
0.968
 20 
0.839
 11 
0.968
 21 
0.801
 0 
LINE
 8 
0
 62 
 7 
 10 
1.0
 20 
0.833
 11 
1.006
 21 
0.839
 0 
LINE
 8 
0
 62 
 7 
 10 
1.006
 20 
0.839
 11 
1.019
 21 
0.839
 0 
LINE
 8 
0
 62 
 7 
 10 
1.019
 20 
0.839
 11 
1.025
 21 
0.833
 0 
LINE
 8 
0
 62 
 7 
 10 
1.025
 20 
0.833
 11 
1.025
 21 
0.826
 0 
LINE
 8 
0
 62 
 7 
 10 
1.025
 20 
0.826
 11 
1.019
 21 
0.82
 0 
LINE
 8 
0
 62 
 7 
 10 
1.019
 20 
0.82
 11 
1.013
 21 
0.82
 0 
LINE
 8 
0
 62 
 7 
 10 
1.019
 20 
0.82
 11 
1.025
 21 
0.814
 0 
LINE
 8 
0
 62 
 7 
 10 
1.025
 20 
0.814
 11 
1.025
 21 
0.807
 0 
LINE
 8 
0
 62 
 7 
 10 
1.025
 20 
0.807
 11 
1.019
 21 
0.801
 0 
LINE
 8 
0
 62 
 7 
 10 
1.019
 20 
0.801
 11 
1.006
 21 
0.801
 0 
LINE
 8 
0
 62 
 7 
 10 
1.006
 20 
0.801
 11 
1.0
 21 
0.807
 0 
LINE
 8 
0
 62 
 7 
 10 
0.962
 20 
0.739
 11 
0.981
 21 
0.739
 0 
LINE
 8 
0
 62 
 7 
 10 
0.981
 20 
0.739
 11 
0.987
 21 
0.733
 0 
LINE
 8 
0
 62 
 7 
 10 
0.987
 20 
0.733
 11 
0.987
 21 
0.707
 0 
LINE
 8 
0
 62 
 7 
 10 
0.987
 20 
0.707
 11 
0.981
 21 
0.701
 0 
LINE
 8 
0
 62 
 7 
 10 
0.981
 20 
0.701
 11 
0.962
 21 
0.701
 0 
LINE
 8 
0
 62 
 7 
 10 
0.968
 20 
0.739
 11 
0.968
 21 
0.701
 0 
LINE
 8 
0
 62 
 7 
 10 
1.0
 20 
0.733
 11 
1.006
 21 
0.739
 0 
LINE
 8 
0
 62 
 7 
 10 
1.006
 20 
0.739
 11 
1.019
 21 
0.739
 0 
LINE
 8 
0
 62 
 7 
 10 
1.019
 20 
0.739
 11 
1.025
 21 
0.733
 0 
LINE
 8 
0
 62 
 7 
 10 
1.025
 20 
0.733
 11 
1.025
 21 
0.726
 0 
LINE
 8 
0
 62 
 7 
 10 
1.025
 20 
0.726
 11 
1.019
 21 
0.72
 0 
LINE
 8 
0
 62 
 7 
 10 
1.019
 20 
0.72
 11 
1.006
 21 
0.72
 0 
LINE
 8 
0
 62 
 7 
 10 
1.006
 20 
0.72
 11 
1.0
 21 
0.714
 0 
LINE
 8 
0
 62 
 7 
 10 
1.0
 20 
0.714
 11 
1.0
 21 
0.701
 0 
LINE
 8 
0
 62 
 7 
 10 
1.0
 20 
0.701
 11 
1.025
 21 
0.701
 0 
LINE
 8 
0
 62 
 7 
 10 
0.924
 20 
0.499
 11 
0.924
 21 
0.537
 0 
LINE
 8 
0
 62 
 7 
 10 
0.924
 20 
0.537
 11 
0.943
 21 
0.537
 0 
LINE
 8 
0
 62 
 7 
 10 
0.943
 20 
0.537
 11 
0.949
 21 
0.531
 0 
LINE
 8 
0
 62 
 7 
 10 
0.949
 20 
0.531
 11 
0.949
 21 
0.524
 0 
LINE
 8 
0
 62 
 7 
 10 
0.949
 20 
0.524
 11 
0.943
 21 
0.518
 0 
LINE
 8 
0
 62 
 7 
 10 
0.943
 20 
0.518
 11 
0.924
 21 
0.518
 0 
LINE
 8 
0
 62 
 7 
 10 
0.93
 20 
0.518
 11 
0.949
 21 
0.499
 0 
LINE
 8 
0
 62 
 7 
 10 
0.987
 20 
0.531
 11 
0.981
 21 
0.537
 0 
LINE
 8 
0
 62 
 7 
 10 
0.981
 20 
0.537
 11 
0.968
 21 
0.537
 0 
LINE
 8 
0
 62 
 7 
 10 
0.968
 20 
0.537
 11 
0.962
 21 
0.531
 0 
LINE
 8 
0
 62 
 7 
 10 
0.962
 20 
0.531
 11 
0.962
 21 
0.524
 0 
LINE
 8 
0
 62 
 7 
 10 
0.962
 20 
0.524
 11 
0.968
 21 
0.518
 0 
LINE
 8 
0
 62 
 7 
 10 
0.968
 20 
0.518
 11 
0.981
 21 
0.518
 0 
LINE
 8 
0
 62 
 7 
 10 
0.981
 20 
0.518
 11 
0.987
 21 
0.512
 0 
LINE
 8 
0
 62 
 7 
 10 
0.987
 20 
0.512
 11 
0.987
 21 
0.505
 0 
LINE
 8 
0
 62 
 7 
 10 
0.987
 20 
0.505
 11 
0.981
 21 
0.499
 0 
LINE
 8 
0
 62 
 7 
 10 
0.981
 20 
0.499
 11 
0.968
 21 
0.499
 0 
LINE
 8 
0
 62 
 7 
 10 
0.968
 20 
0.499
 11 
0.962
 21 
0.505
 0 
LINE
 8 
0
 62 
 7 
 10 
1.0
 20 
0.537
 11 
1.025
 21 
0.537
 0 
LINE
 8 
0
 62 
 7 
 10 
1.013
 20 
0.537
 11 
1.013
 21 
0.499
 0 
LINE
 8 
0
 62 
 7 
 10 
0.924
 20 
0.399
 11 
0.924
 21 
0.437
 0 
LINE
 8 
0
 62 
 7 
 10 
0.924
 20 
0.437
 11 
0.943
 21 
0.437
 0 
LINE
 8 
0
 62 
 7 
 10 
0.943
 20 
0.437
 11 
0.949
 21 
0.431
 0 
LINE
 8 
0
 62 
 7 
 10 
0.949
 20 
0.431
 11 
0.949
 21 
0.424
 0 
LINE
 8 
0
 62 
 7 
 10 
0.949
 20 
0.424
 11 
0.943
 21 
0.418
 0 
LINE
 8 
0
 62 
 7 
 10 
0.943
 20 
0.418
 11 
0.924
 21 
0.418
 0 
LINE
 8 
0
 62 
 7 
 10 
0.93
 20 
0.418
 11 
0.949
 21 
0.399
 0 
LINE
 8 
0
 62 
 7 
 10 
0.962
 20 
0.437
 11 
0.962
 21 
0.431
 0 
LINE
 8 
0
 62 
 7 
 10 
0.962
 20 
0.431
 11 
0.987
 21 
0.405
 0 
LINE
 8 
0
 62 
 7 
 10 
0.987
 20 
0.405
 11 
0.987
 21 
0.399
 0 
LINE
 8 
0
 62 
 7 
 10 
0.987
 20 
0.437
 11 
0.987
 21 
0.431
 0 
LINE
 8 
0
 62 
 7 
 10 
0.987
 20 
0.431
 11 
0.962
 21 
0.405
 0 
LINE
 8 
0
 62 
 7 
 10 
0.962
 20 
0.405
 11 
0.962
 21 
0.399
 0 
LINE
 8 
0
 62 
 7 
 10 
1.0
 20 
0.405
 11 
1.0
 21 
0.431
 0 
LINE
 8 
0
 62 
 7 
 10 
1.0
 20 
0.431
 11 
1.006
 21 
0.437
 0 
LINE
 8 
0
 62 
 7 
 10 
1.006
 20 
0.437
 11 
1.019
 21 
0.437
 0 
LINE
 8 
0
 62 
 7 
 10 
1.019
 20 
0.437
 11 
1.025
 21 
0.431
 0 
LINE
 8 
0
 62 
 7 
 10 
1.025
 20 
0.431
 11 
1.025
 21 
0.405
 0 
LINE
 8 
0
 62 
 7 
 10 
1.025
 20 
0.405
 11 
1.019
 21 
0.399
 0 
LINE
 8 
0
 62 
 7 
 10 
1.019
 20 
0.399
 11 
1.006
 21 
0.399
 0 
LINE
 8 
0
 62 
 7 
 10 
1.006
 20 
0.399
 11 
1.0
 21 
0.405
 0 
LINE
 8 
0
 62 
 7 
 10 
1.0
 20 
0.405
 11 
1.025
 21 
0.431
 0 
LINE
 8 
0
 62 
 7 
 10 
0.949
 20 
0.631
 11 
0.943
 21 
0.637
 0 
LINE
 8 
0
 62 
 7 
 10 
0.943
 20 
0.637
 11 
0.93
 21 
0.637
 0 
LINE
 8 
0
 62 
 7 
 10 
0.93
 20 
0.637
 11 
0.924
 21 
0.631
 0 
LINE
 8 
0
 62 
 7 
 10 
0.924
 20 
0.631
 11 
0.924
 21 
0.605
 0 
LINE
 8 
0
 62 
 7 
 10 
0.924
 20 
0.605
 11 
0.93
 21 
0.599
 0 
LINE
 8 
0
 62 
 7 
 10 
0.93
 20 
0.599
 11 
0.949
 21 
0.599
 0 
LINE
 8 
0
 62 
 7 
 10 
0.949
 20 
0.599
 11 
0.949
 21 
0.612
 0 
LINE
 8 
0
 62 
 7 
 10 
0.949
 20 
0.612
 11 
0.943
 21 
0.612
 0 
LINE
 8 
0
 62 
 7 
 10 
0.962
 20 
0.599
 11 
0.962
 21 
0.637
 0 
LINE
 8 
0
 62 
 7 
 10 
0.962
 20 
0.637
 11 
0.987
 21 
0.612
 0 
LINE
 8 
0
 62 
 7 
 10 
0.987
 20 
0.637
 11 
0.987
 21 
0.599
 0 
LINE
 8 
0
 62 
 7 
 10 
1.0
 20 
0.637
 11 
1.019
 21 
0.637
 0 
LINE
 8 
0
 62 
 7 
 10 
1.019
 20 
0.637
 11 
1.025
 21 
0.631
 0 
LINE
 8 
0
 62 
 7 
 10 
1.025
 20 
0.631
 11 
1.025
 21 
0.605
 0 
LINE
 8 
0
 62 
 7 
 10 
1.025
 20 
0.605
 11 
1.019
 21 
0.599
 0 
LINE
 8 
0
 62 
 7 
 10 
1.019
 20 
0.599
 11 
1.0
 21 
0.599
 0 
LINE
 8 
0
 62 
 7 
 10 
1.006
 20 
0.637
 11 
1.006
 21 
0.599
 0 
LINE
 8 
0
 62 
 7 
 10 
1.15
 20 
0.15
 11 
1.15
 21 
1.9
 0 
LINE
 8 
0
 62 
 7 
 10 
0.4
 20 
0.15
 11 
1.15
 21 
0.15
 0 
LINE
 8 
0
 62 
 7 
 10 
0.4
 20 
1.9
 11 
0.4
 21 
0.15
 0 
LINE
 8 
0
 62 
 7 
 10 
1.15
 20 
1.9
 11 
0.4
 21 
1.9
 0 
CIRCLE
 8 
0
 62 
 7 
 10 
0.675
 20 
0.325
 40 
0.038
 0 
CIRCLE
 8 
0
 62 
 7 
 10 
0.675
 20 
0.325
 40 
0.02
 0 
LINE
 8 
0
 62 
 7 
 10 
1.918
 20 
0.858
 11 
1.983
 21 
0.858
 0 
LINE
 8 
0
 62 
 7 
 10 
1.983
 20 
0.858
 11 
1.983
 21 
0.793
 0 
LINE
 8 
0
 62 
 7 
 10 
1.983
 20 
0.793
 11 
1.918
 21 
0.793
 0 
LINE
 8 
0
 62 
 7 
 10 
1.918
 20 
0.793
 11 
1.918
 21 
0.858
 0 
CIRCLE
 8 
0
 62 
 7 
 10 
1.95
 20 
0.825
 40 
0.018
 0 
CIRCLE
 8 
0
 62 
 7 
 10 
1.95
 20 
0.525
 40 
0.032
 0 
CIRCLE
 8 
0
 62 
 7 
 10 
1.95
 20 
0.525
 40 
0.018
 0 
CIRCLE
 8 
0
 62 
 7 
 10 
2.05
 20 
0.825
 40 
0.032
 0 
CIRCLE
 8 
0
 62 
 7 
 10 
2.05
 20 
0.825
 40 
0.018
 0 
CIRCLE
 8 
0
 62 
 7 
 10 
2.05
 20 
0.525
 40 
0.032
 0 
CIRCLE
 8 
0
 62 
 7 
 10 
2.05
 20 
0.525
 40 
0.018
 0 
CIRCLE
 8 
0
 62 
 7 
 10 
2.15
 20 
0.825
 40 
0.032
 0 
CIRCLE
 8 
0
 62 
 7 
 10 
2.15
 20 
0.825
 40 
0.018
 0 
CIRCLE
 8 
0
 62 
 7 
 10 
2.15
 20 
0.525
 40 
0.032
 0 
CIRCLE
 8 
0
 62 
 7 
 10 
2.15
 20 
0.525
 40 
0.018
 0 
LINE
 8 
0
 62 
 7 
 10 
1.8
 20 
0.925
 11 
1.8
 21 
0.45
 0 
LINE
 8 
0
 62 
 7 
 10 
2.8
 20 
0.45
 11 
1.8
 21 
0.45
 0 
LINE
 8 
0
 62 
 7 
 10 
2.8
 20 
0.45
 11 
2.8
 21 
0.925
 0 
LINE
 8 
0
 62 
 7 
 10 
1.8
 20 
0.925
 11 
2.8
 21 
0.925
 0 
CIRCLE
 8 
0
 62 
 7 
 10 
2.25
 20 
0.525
 40 
0.032
 0 
CIRCLE
 8 
0
 62 
 7 
 10 
2.25
 20 
0.525
 40 
0.018
 0 
CIRCLE
 8 
0
 62 
 7 
 10 
2.35
 20 
0.825
 40 
0.032
 0 
CIRCLE
 8 
0
 62 
 7 
 10 
2.35
 20 
0.825
 40 
0.018
 0 
CIRCLE
 8 
0
 62 
 7 
 10 
2.45
 20 
0.825
 40 
0.032
 0 
CIRCLE
 8 
0
 62 
 7 
 10 
2.45
 20 
0.825
 40 
0.018
 0 
CIRCLE
 8 
0
 62 
 7 
 10 
2.55
 20 
0.825
 40 
0.032
 0 
CIRCLE
 8 
0
 62 
 7 
 10 
2.55
 20 
0.825
 40 
0.018
 0 
CIRCLE
 8 
0
 62 
 7 
 10 
2.65
 20 
0.825
 40 
0.032
 0 
CIRCLE
 8 
0
 62 
 7 
 10 
2.65
 20 
0.825
 40 
0.018
 0 
CIRCLE
 8 
0
 62 
 7 
 10 
2.35
 20 
0.525
 40 
0.032
 0 
CIRCLE
 8 
0
 62 
 7 
 10 
2.35
 20 
0.525
 40 
0.018
 0 
CIRCLE
 8 
0
 62 
 7 
 10 
2.45
 20 
0.525
 40 
0.032
 0 
CIRCLE
 8 
0
 62 
 7 
 10 
2.45
 20 
0.525
 40 
0.018
 0 
CIRCLE
 8 
0
 62 
 7 
 10 
2.55
 20 
0.525
 40 
0.032
 0 
CIRCLE
 8 
0
 62 
 7 
 10 
2.55
 20 
0.525
 40 
0.018
 0 
CIRCLE
 8 
0
 62 
 7 
 10 
2.65
 20 
0.525
 40 
0.032
 0 
CIRCLE
 8 
0
 62 
 7 
 10 
2.65
 20 
0.525
 40 
0.018
 0 
CIRCLE
 8 
0
 62 
 7 
 10 
2.25
 20 
0.825
 40 
0.032
 0 
CIRCLE
 8 
0
 62 
 7 
 10 
2.25
 20 
0.825
 40 
0.018
 0 
CIRCLE
 8 
0
 62 
 7 
 10 
0.2
 20 
1.7
 40 
0.125
 0 
CIRCLE
 8 
0
 62 
 7 
 10 
0.2
 20 
1.7
 40 
0.075
 0 
CIRCLE
 8 
0
 62 
 7 
 10 
3.4
 20 
1.7
 40 
0.125
 0 
CIRCLE
 8 
0
 62 
 7 
 10 
3.4
 20 
1.7
 40 
0.075
 0 
CIRCLE
 8 
0
 62 
 7 
 10 
0.2
 20 
0.2
 40 
0.125
 0 
CIRCLE
 8 
0
 62 
 7 
 10 
0.2
 20 
0.2
 40 
0.075
 0 
CIRCLE
 8 
0
 62 
 7 
 10 
3.4
 20 
0.175
 40 
0.125
 0 
CIRCLE
 8 
0
 62 
 7 
 10 
3.4
 20 
0.175
 40 
0.075
 0 
LINE
 8 
0
 62 
 7 
 10 
0.075
 20 
0.438
 11 
0.075
 21 
0.478
 0 
LINE
 8 
0
 62 
 7 
 10 
0.075
 20 
0.478
 11 
0.142
 21 
0.478
 0 
LINE
 8 
0
 62 
 7 
 10 
0.142
 20 
0.478
 11 
0.155
 21 
0.465
 0 
LINE
 8 
0
 62 
 7 
 10 
0.155
 20 
0.465
 11 
0.155
 21 
0.438
 0 
LINE
 8 
0
 62 
 7 
 10 
0.155
 20 
0.438
 11 
0.142
 21 
0.425
 0 
LINE
 8 
0
 62 
 7 
 10 
0.115
 20 
0.558
 11 
0.102
 21 
0.545
 0 
LINE
 8 
0
 62 
 7 
 10 
0.102
 20 
0.545
 11 
0.102
 21 
0.518
 0 
LINE
 8 
0
 62 
 7 
 10 
0.102
 20 
0.518
 11 
0.115
 21 
0.505
 0 
LINE
 8 
0
 62 
 7 
 10 
0.115
 20 
0.505
 11 
0.142
 21 
0.505
 0 
LINE
 8 
0
 62 
 7 
 10 
0.142
 20 
0.505
 11 
0.155
 21 
0.518
 0 
LINE
 8 
0
 62 
 7 
 10 
0.155
 20 
0.518
 11 
0.155
 21 
0.545
 0 
LINE
 8 
0
 62 
 7 
 10 
0.155
 20 
0.545
 11 
0.142
 21 
0.558
 0 
LINE
 8 
0
 62 
 7 
 10 
0.142
 20 
0.558
 11 
0.115
 21 
0.558
 0 
LINE
 8 
0
 62 
 7 
 10 
0.075
 20 
0.598
 11 
0.075
 21 
0.612
 0 
LINE
 8 
0
 62 
 7 
 10 
0.075
 20 
0.612
 11 
0.155
 21 
0.612
 0 
LINE
 8 
0
 62 
 7 
 10 
0.155
 20 
0.598
 11 
0.155
 21 
0.625
 0 
LINE
 8 
0
 62 
 7 
 10 
0.075
 20 
0.692
 11 
0.088
 21 
0.692
 0 
LINE
 8 
0
 62 
 7 
 10 
0.155
 20 
0.678
 11 
0.155
 21 
0.705
 0 
LINE
 8 
0
 62 
 7 
 10 
0.115
 20 
0.678
 11 
0.115
 21 
0.692
 0 
LINE
 8 
0
 62 
 7 
 10 
0.115
 20 
0.692
 11 
0.155
 21 
0.692
 0 
LINE
 8 
0
 62 
 7 
 10 
0.128
 20 
0.745
 11 
0.128
 21 
0.798
 0 
LINE
 8 
0
 62 
 7 
 10 
0.128
 20 
0.798
 11 
0.115
 21 
0.798
 0 
LINE
 8 
0
 62 
 7 
 10 
0.115
 20 
0.798
 11 
0.102
 21 
0.785
 0 
LINE
 8 
0
 62 
 7 
 10 
0.102
 20 
0.785
 11 
0.102
 21 
0.758
 0 
LINE
 8 
0
 62 
 7 
 10 
0.102
 20 
0.758
 11 
0.115
 21 
0.745
 0 
LINE
 8 
0
 62 
 7 
 10 
0.115
 20 
0.745
 11 
0.142
 21 
0.745
 0 
LINE
 8 
0
 62 
 7 
 10 
0.142
 20 
0.745
 11 
0.155
 21 
0.758
 0 
LINE
 8 
0
 62 
 7 
 10 
0.155
 20 
0.758
 11 
0.155
 21 
0.785
 0 
LINE
 8 
0
 62 
 7 
 10 
0.075
 20 
0.838
 11 
0.142
 21 
0.838
 0 
LINE
 8 
0
 62 
 7 
 10 
0.142
 20 
0.838
 11 
0.155
 21 
0.852
 0 
LINE
 8 
0
 62 
 7 
 10 
0.155
 20 
0.852
 11 
0.155
 21 
0.865
 0 
LINE
 8 
0
 62 
 7 
 10 
0.155
 20 
0.865
 11 
0.142
 21 
0.878
 0 
LINE
 8 
0
 62 
 7 
 10 
0.102
 20 
0.825
 11 
0.102
 21 
0.865
 0 
LINE
 8 
0
 62 
 7 
 10 
0.088
 20 
1.038
 11 
0.075
 21 
1.025
 0 
LINE
 8 
0
 62 
 7 
 10 
0.075
 20 
1.025
 11 
0.075
 21 
0.998
 0 
LINE
 8 
0
 62 
 7 
 10 
0.075
 20 
0.998
 11 
0.088
 21 
0.985
 0 
LINE
 8 
0
 62 
 7 
 10 
0.088
 20 
0.985
 11 
0.142
 21 
0.985
 0 
LINE
 8 
0
 62 
 7 
 10 
0.142
 20 
0.985
 11 
0.155
 21 
0.998
 0 
LINE
 8 
0
 62 
 7 
 10 
0.155
 20 
0.998
 11 
0.155
 21 
1.025
 0 
LINE
 8 
0
 62 
 7 
 10 
0.155
 20 
1.025
 11 
0.142
 21 
1.038
 0 
LINE
 8 
0
 62 
 7 
 10 
0.102
 20 
1.065
 11 
0.142
 21 
1.065
 0 
LINE
 8 
0
 62 
 7 
 10 
0.142
 20 
1.065
 11 
0.155
 21 
1.078
 0 
LINE
 8 
0
 62 
 7 
 10 
0.155
 20 
1.078
 11 
0.155
 21 
1.092
 0 
LINE
 8 
0
 62 
 7 
 10 
0.155
 20 
1.092
 11 
0.128
 21 
1.118
 0 
LINE
 8 
0
 62 
 7 
 10 
0.102
 20 
1.118
 11 
0.168
 21 
1.118
 0 
LINE
 8 
0
 62 
 7 
 10 
0.168
 20 
1.118
 11 
0.182
 21 
1.105
 0 
LINE
 8 
0
 62 
 7 
 10 
0.182
 20 
1.105
 11 
0.182
 21 
1.065
 0 
LINE
 8 
0
 62 
 7 
 10 
0.075
 20 
1.145
 11 
0.155
 21 
1.145
 0 
LINE
 8 
0
 62 
 7 
 10 
0.128
 20 
1.145
 11 
0.102
 21 
1.172
 0 
LINE
 8 
0
 62 
 7 
 10 
0.102
 20 
1.172
 11 
0.102
 21 
1.185
 0 
LINE
 8 
0
 62 
 7 
 10 
0.102
 20 
1.185
 11 
0.115
 21 
1.198
 0 
LINE
 8 
0
 62 
 7 
 10 
0.115
 20 
1.198
 11 
0.142
 21 
1.198
 0 
LINE
 8 
0
 62 
 7 
 10 
0.142
 20 
1.198
 11 
0.155
 21 
1.185
 0 
LINE
 8 
0
 62 
 7 
 10 
0.155
 20 
1.185
 11 
0.155
 21 
1.158
 0 
LINE
 8 
0
 62 
 7 
 10 
0.155
 20 
1.158
 11 
0.142
 21 
1.145
 0 
LINE
 8 
0
 62 
 7 
 10 
0.115
 20 
1.278
 11 
0.102
 21 
1.265
 0 
LINE
 8 
0
 62 
 7 
 10 
0.102
 20 
1.265
 11 
0.102
 21 
1.238
 0 
LINE
 8 
0
 62 
 7 
 10 
0.102
 20 
1.238
 11 
0.115
 21 
1.225
 0 
LINE
 8 
0
 62 
 7 
 10 
0.115
 20 
1.225
 11 
0.142
 21 
1.225
 0 
LINE
 8 
0
 62 
 7 
 10 
0.142
 20 
1.225
 11 
0.155
 21 
1.238
 0 
LINE
 8 
0
 62 
 7 
 10 
0.155
 20 
1.238
 11 
0.155
 21 
1.265
 0 
LINE
 8 
0
 62 
 7 
 10 
0.155
 20 
1.265
 11 
0.142
 21 
1.278
 0 
LINE
 8 
0
 62 
 7 
 10 
0.142
 20 
1.278
 11 
0.115
 21 
1.278
 0 
LINE
 8 
0
 62 
 7 
 10 
0.102
 20 
1.305
 11 
0.155
 21 
1.305
 0 
LINE
 8 
0
 62 
 7 
 10 
0.128
 20 
1.305
 11 
0.102
 21 
1.332
 0 
LINE
 8 
0
 62 
 7 
 10 
0.102
 20 
1.332
 11 
0.102
 21 
1.345
 0 
LINE
 8 
0
 62 
 7 
 10 
0.102
 20 
1.345
 11 
0.115
 21 
1.358
 0 
LINE
 8 
0
 62 
 7 
 10 
0.115
 20 
1.438
 11 
0.102
 21 
1.425
 0 
LINE
 8 
0
 62 
 7 
 10 
0.102
 20 
1.425
 11 
0.102
 21 
1.398
 0 
LINE
 8 
0
 62 
 7 
 10 
0.102
 20 
1.398
 11 
0.115
 21 
1.385
 0 
LINE
 8 
0
 62 
 7 
 10 
0.115
 20 
1.385
 11 
0.142
 21 
1.385
 0 
LINE
 8 
0
 62 
 7 
 10 
0.142
 20 
1.385
 11 
0.155
 21 
1.398
 0 
LINE
 8 
0
 62 
 7 
 10 
0.155
 20 
1.398
 11 
0.155
 21 
1.412
 0 
LINE
 8 
0
 62 
 7 
 10 
0.155
 20 
1.412
 11 
0.128
 21 
1.438
 0 
LINE
 8 
0
 62 
 7 
 10 
0.102
 20 
1.438
 11 
0.168
 21 
1.438
 0 
LINE
 8 
0
 62 
 7 
 10 
0.168
 20 
1.438
 11 
0.182
 21 
1.425
 0 
LINE
 8 
0
 62 
 7 
 10 
0.182
 20 
1.425
 11 
0.182
 21 
1.385
 0 
LINE
 8 
0
 62 
 7 
 10 
0.102
 20 
1.518
 11 
0.102
 21 
1.478
 0 
LINE
 8 
0
 62 
 7 
 10 
0.102
 20 
1.478
 11 
0.115
 21 
1.465
 0 
LINE
 8 
0
 62 
 7 
 10 
0.115
 20 
1.465
 11 
0.128
 21 
1.478
 0 
LINE
 8 
0
 62 
 7 
 10 
0.128
 20 
1.478
 11 
0.128
 21 
1.505
 0 
LINE
 8 
0
 62 
 7 
 10 
0.128
 20 
1.505
 11 
0.142
 21 
1.518
 0 
LINE
 8 
0
 62 
 7 
 10 
0.142
 20 
1.518
 11 
0.155
 21 
1.505
 0 
LINE
 8 
0
 62 
 7 
 10 
0.155
 20 
1.505
 11 
0.155
 21 
1.465
 0 
LINE
 8 
0
 62 
 7 
 10 
0.25
 20 
0.717
 11 
0.35
 21 
0.717
 0 
LINE
 8 
0
 62 
 7 
 10 
0.25
 20 
0.75
 11 
0.35
 21 
0.75
 0 
LINE
 8 
0
 62 
 7 
 10 
0.283
 20 
0.7
 11 
0.283
 21 
0.767
 0 
LINE
 8 
0
 62 
 7 
 10 
0.317
 20 
0.7
 11 
0.317
 21 
0.767
 0 
LINE
 8 
0
 62 
 7 
 10 
0.317
 20 
0.867
 11 
0.317
 21 
0.8
 0 
LINE
 8 
0
 62 
 7 
 10 
0.317
 20 
0.8
 11 
0.3
 21 
0.8
 0 
LINE
 8 
0
 62 
 7 
 10 
0.3
 20 
0.8
 11 
0.25
 21 
0.85
 0 
LINE
 8 
0
 62 
 7 
 10 
0.25
 20 
0.85
 11 
0.35
 21 
0.85
 0 
LINE
 8 
0
 62 
 7 
 10 
0.267
 20 
0.9
 11 
0.25
 21 
0.917
 0 
LINE
 8 
0
 62 
 7 
 10 
0.25
 20 
0.917
 11 
0.25
 21 
0.95
 0 
LINE
 8 
0
 62 
 7 
 10 
0.25
 20 
0.95
 11 
0.267
 21 
0.967
 0 
LINE
 8 
0
 62 
 7 
 10 
0.267
 20 
0.967
 11 
0.283
 21 
0.967
 0 
LINE
 8 
0
 62 
 7 
 10 
0.283
 20 
0.967
 11 
0.3
 21 
0.95
 0 
LINE
 8 
0
 62 
 7 
 10 
0.3
 20 
0.95
 11 
0.3
 21 
0.917
 0 
LINE
 8 
0
 62 
 7 
 10 
0.3
 20 
0.917
 11 
0.317
 21 
0.9
 0 
LINE
 8 
0
 62 
 7 
 10 
0.317
 20 
0.9
 11 
0.35
 21 
0.9
 0 
LINE
 8 
0
 62 
 7 
 10 
0.35
 20 
0.9
 11 
0.35
 21 
0.967
 0 
LINE
 8 
0
 62 
 7 
 10 
0.317
 20 
1.067
 11 
0.317
 21 
1.0
 0 
LINE
 8 
0
 62 
 7 
 10 
0.317
 20 
1.0
 11 
0.3
 21 
1.0
 0 
LINE
 8 
0
 62 
 7 
 10 
0.3
 20 
1.0
 11 
0.25
 21 
1.05
 0 
LINE
 8 
0
 62 
 7 
 10 
0.25
 20 
1.05
 11 
0.35
 21 
1.05
 0 
LINE
 8 
0
 62 
 7 
 10 
0.267
 20 
1.117
 11 
0.25
 21 
1.133
 0 
LINE
 8 
0
 62 
 7 
 10 
0.25
 20 
1.133
 11 
0.35
 21 
1.133
 0 
LINE
 8 
0
 62 
 7 
 10 
0.35
 20 
1.117
 11 
0.35
 21 
1.15
 0 
CIRCLE
 8 
0
 62 
 7 
 10 
2.5
 20 
1.04
 40 
0.038
 0 
CIRCLE
 8 
0
 62 
 7 
 10 
2.5
 20 
1.04
 40 
0.02
 0 
LINE
 8 
0
 62 
 7 
 10 
2.19
 20 
0.45
 11 
2.19
 21 
0.2
 0 
LINE
 8 
0
 62 
 7 
 10 
3.35
 20 
0.375
 11 
3.408
 21 
0.375
 0 
LINE
 8 
0
 62 
 7 
 10 
3.408
 20 
0.375
 11 
3.42
 21 
0.387
 0 
LINE
 8 
0
 62 
 7 
 10 
3.42
 20 
0.387
 11 
3.42
 21 
0.41
 0 
LINE
 8 
0
 62 
 7 
 10 
3.42
 20 
0.41
 11 
3.408
 21 
0.422
 0 
LINE
 8 
0
 62 
 7 
 10 
3.408
 20 
0.422
 11 
3.35
 21 
0.422
 0 
LINE
 8 
0
 62 
 7 
 10 
3.35
 20 
0.457
 11 
3.35
 21 
0.468
 0 
LINE
 8 
0
 62 
 7 
 10 
3.35
 20 
0.468
 11 
3.42
 21 
0.468
 0 
LINE
 8 
0
 62 
 7 
 10 
3.42
 20 
0.457
 11 
3.42
 21 
0.48
 0 
LINE
 8 
0
 62 
 7 
 10 
3.35
 20 
0.527
 11 
3.408
 21 
0.527
 0 
LINE
 8 
0
 62 
 7 
 10 
3.408
 20 
0.527
 11 
3.42
 21 
0.538
 0 
LINE
 8 
0
 62 
 7 
 10 
3.42
 20 
0.538
 11 
3.42
 21 
0.55
 0 
LINE
 8 
0
 62 
 7 
 10 
3.42
 20 
0.55
 11 
3.408
 21 
0.562
 0 
LINE
 8 
0
 62 
 7 
 10 
3.373
 20 
0.515
 11 
3.373
 21 
0.55
 0 
LINE
 8 
0
 62 
 7 
 10 
3.373
 20 
0.585
 11 
3.42
 21 
0.585
 0 
LINE
 8 
0
 62 
 7 
 10 
3.397
 20 
0.585
 11 
3.373
 21 
0.608
 0 
LINE
 8 
0
 62 
 7 
 10 
3.373
 20 
0.608
 11 
3.373
 21 
0.62
 0 
LINE
 8 
0
 62 
 7 
 10 
3.373
 20 
0.62
 11 
3.385
 21 
0.632
 0 
LINE
 8 
0
 62 
 7 
 10 
3.373
 20 
0.667
 11 
3.373
 21 
0.69
 0 
LINE
 8 
0
 62 
 7 
 10 
3.373
 20 
0.69
 11 
3.385
 21 
0.702
 0 
LINE
 8 
0
 62 
 7 
 10 
3.385
 20 
0.702
 11 
3.42
 21 
0.702
 0 
LINE
 8 
0
 62 
 7 
 10 
3.397
 20 
0.702
 11 
3.397
 21 
0.667
 0 
LINE
 8 
0
 62 
 7 
 10 
3.397
 20 
0.667
 11 
3.408
 21 
0.655
 0 
LINE
 8 
0
 62 
 7 
 10 
3.408
 20 
0.655
 11 
3.42
 21 
0.667
 0 
LINE
 8 
0
 62 
 7 
 10 
3.42
 20 
0.667
 11 
3.42
 21 
0.69
 0 
LINE
 8 
0
 62 
 7 
 10 
3.42
 20 
0.69
 11 
3.408
 21 
0.702
 0 
LINE
 8 
0
 62 
 7 
 10 
3.373
 20 
0.772
 11 
3.373
 21 
0.737
 0 
LINE
 8 
0
 62 
 7 
 10 
3.373
 20 
0.737
 11 
3.385
 21 
0.725
 0 
LINE
 8 
0
 62 
 7 
 10 
3.385
 20 
0.725
 11 
3.397
 21 
0.737
 0 
LINE
 8 
0
 62 
 7 
 10 
3.397
 20 
0.737
 11 
3.397
 21 
0.76
 0 
LINE
 8 
0
 62 
 7 
 10 
3.397
 20 
0.76
 11 
3.408
 21 
0.772
 0 
LINE
 8 
0
 62 
 7 
 10 
3.408
 20 
0.772
 11 
3.42
 21 
0.76
 0 
LINE
 8 
0
 62 
 7 
 10 
3.42
 20 
0.76
 11 
3.42
 21 
0.725
 0 
LINE
 8 
0
 62 
 7 
 10 
3.385
 20 
0.842
 11 
3.373
 21 
0.83
 0 
LINE
 8 
0
 62 
 7 
 10 
3.373
 20 
0.83
 11 
3.373
 21 
0.807
 0 
LINE
 8 
0
 62 
 7 
 10 
3.373
 20 
0.807
 11 
3.385
 21 
0.795
 0 
LINE
 8 
0
 62 
 7 
 10 
3.385
 20 
0.795
 11 
3.408
 21 
0.795
 0 
LINE
 8 
0
 62 
 7 
 10 
3.408
 20 
0.795
 11 
3.42
 21 
0.807
 0 
LINE
 8 
0
 62 
 7 
 10 
3.42
 20 
0.807
 11 
3.42
 21 
0.83
 0 
LINE
 8 
0
 62 
 7 
 10 
3.42
 20 
0.83
 11 
3.408
 21 
0.842
 0 
LINE
 8 
0
 62 
 7 
 10 
3.408
 20 
0.842
 11 
3.385
 21 
0.842
 0 
LINE
 8 
0
 62 
 7 
 10 
3.373
 20 
0.865
 11 
3.42
 21 
0.865
 0 
LINE
 8 
0
 62 
 7 
 10 
3.397
 20 
0.865
 11 
3.373
 21 
0.888
 0 
LINE
 8 
0
 62 
 7 
 10 
3.373
 20 
0.888
 11 
3.373
 21 
0.9
 0 
LINE
 8 
0
 62 
 7 
 10 
3.373
 20 
0.9
 11 
3.385
 21 
0.912
 0 
LINE
 8 
0
 62 
 7 
 10 
3.385
 20 
0.912
 11 
3.42
 21 
0.912
 0 
LINE
 8 
0
 62 
 7 
 10 
3.35
 20 
0.958
 11 
3.362
 21 
0.958
 0 
LINE
 8 
0
 62 
 7 
 10 
3.42
 20 
0.947
 11 
3.42
 21 
0.97
 0 
LINE
 8 
0
 62 
 7 
 10 
3.385
 20 
0.947
 11 
3.385
 21 
0.958
 0 
LINE
 8 
0
 62 
 7 
 10 
3.385
 20 
0.958
 11 
3.42
 21 
0.958
 0 
LINE
 8 
0
 62 
 7 
 10 
3.385
 20 
1.052
 11 
3.373
 21 
1.04
 0 
LINE
 8 
0
 62 
 7 
 10 
3.373
 20 
1.04
 11 
3.373
 21 
1.017
 0 
LINE
 8 
0
 62 
 7 
 10 
3.373
 20 
1.017
 11 
3.385
 21 
1.005
 0 
LINE
 8 
0
 62 
 7 
 10 
3.385
 20 
1.005
 11 
3.408
 21 
1.005
 0 
LINE
 8 
0
 62 
 7 
 10 
3.408
 20 
1.005
 11 
3.42
 21 
1.017
 0 
LINE
 8 
0
 62 
 7 
 10 
3.42
 20 
1.017
 11 
3.42
 21 
1.04
 0 
LINE
 8 
0
 62 
 7 
 10 
3.42
 20 
1.04
 11 
3.408
 21 
1.052
 0 
LINE
 8 
0
 62 
 7 
 10 
3.42
 20 
1.145
 11 
3.35
 21 
1.145
 0 
LINE
 8 
0
 62 
 7 
 10 
3.35
 20 
1.145
 11 
3.35
 21 
1.18
 0 
LINE
 8 
0
 62 
 7 
 10 
3.35
 20 
1.18
 11 
3.362
 21 
1.192
 0 
LINE
 8 
0
 62 
 7 
 10 
3.362
 20 
1.192
 11 
3.373
 21 
1.192
 0 
LINE
 8 
0
 62 
 7 
 10 
3.373
 20 
1.192
 11 
3.385
 21 
1.18
 0 
LINE
 8 
0
 62 
 7 
 10 
3.385
 20 
1.18
 11 
3.385
 21 
1.145
 0 
LINE
 8 
0
 62 
 7 
 10 
3.385
 20 
1.157
 11 
3.42
 21 
1.192
 0 
LINE
 8 
0
 62 
 7 
 10 
3.373
 20 
1.227
 11 
3.373
 21 
1.25
 0 
LINE
 8 
0
 62 
 7 
 10 
3.373
 20 
1.25
 11 
3.385
 21 
1.262
 0 
LINE
 8 
0
 62 
 7 
 10 
3.385
 20 
1.262
 11 
3.42
 21 
1.262
 0 
LINE
 8 
0
 62 
 7 
 10 
3.397
 20 
1.262
 11 
3.397
 21 
1.227
 0 
LINE
 8 
0
 62 
 7 
 10 
3.397
 20 
1.227
 11 
3.408
 21 
1.215
 0 
LINE
 8 
0
 62 
 7 
 10 
3.408
 20 
1.215
 11 
3.42
 21 
1.227
 0 
LINE
 8 
0
 62 
 7 
 10 
3.42
 20 
1.227
 11 
3.42
 21 
1.25
 0 
LINE
 8 
0
 62 
 7 
 10 
3.42
 20 
1.25
 11 
3.408
 21 
1.262
 0 
LINE
 8 
0
 62 
 7 
 10 
3.373
 20 
1.285
 11 
3.42
 21 
1.285
 0 
LINE
 8 
0
 62 
 7 
 10 
3.397
 20 
1.285
 11 
3.373
 21 
1.308
 0 
LINE
 8 
0
 62 
 7 
 10 
3.373
 20 
1.308
 11 
3.373
 21 
1.32
 0 
LINE
 8 
0
 62 
 7 
 10 
3.373
 20 
1.32
 11 
3.385
 21 
1.332
 0 
LINE
 8 
0
 62 
 7 
 10 
3.385
 20 
1.332
 11 
3.42
 21 
1.332
 0 
LINE
 8 
0
 62 
 7 
 10 
3.385
 20 
1.402
 11 
3.373
 21 
1.39
 0 
LINE
 8 
0
 62 
 7 
 10 
3.373
 20 
1.39
 11 
3.373
 21 
1.367
 0 
LINE
 8 
0
 62 
 7 
 10 
3.373
 20 
1.367
 11 
3.385
 21 
1.355
 0 
LINE
 8 
0
 62 
 7 
 10 
3.385
 20 
1.355
 11 
3.408
 21 
1.355
 0 
LINE
 8 
0
 62 
 7 
 10 
3.408
 20 
1.355
 11 
3.42
 21 
1.367
 0 
LINE
 8 
0
 62 
 7 
 10 
3.42
 20 
1.367
 11 
3.42
 21 
1.378
 0 
LINE
 8 
0
 62 
 7 
 10 
3.42
 20 
1.378
 11 
3.397
 21 
1.402
 0 
LINE
 8 
0
 62 
 7 
 10 
3.373
 20 
1.402
 11 
3.432
 21 
1.402
 0 
LINE
 8 
0
 62 
 7 
 10 
3.432
 20 
1.402
 11 
3.443
 21 
1.39
 0 
LINE
 8 
0
 62 
 7 
 10 
3.443
 20 
1.39
 11 
3.443
 21 
1.355
 0 
LINE
 8 
0
 62 
 7 
 10 
3.397
 20 
1.425
 11 
3.397
 21 
1.472
 0 
LINE
 8 
0
 62 
 7 
 10 
3.397
 20 
1.472
 11 
3.385
 21 
1.472
 0 
LINE
 8 
0
 62 
 7 
 10 
3.385
 20 
1.472
 11 
3.373
 21 
1.46
 0 
LINE
 8 
0
 62 
 7 
 10 
3.373
 20 
1.46
 11 
3.373
 21 
1.437
 0 
LINE
 8 
0
 62 
 7 
 10 
3.373
 20 
1.437
 11 
3.385
 21 
1.425
 0 
LINE
 8 
0
 62 
 7 
 10 
3.385
 20 
1.425
 11 
3.408
 21 
1.425
 0 
LINE
 8 
0
 62 
 7 
 10 
3.408
 20 
1.425
 11 
3.42
 21 
1.437
 0 
LINE
 8 
0
 62 
 7 
 10 
3.42
 20 
1.437
 11 
3.42
 21 
1.46
 0 
LINE
 8 
0
 62 
 7 
 10 
3.373
 20 
1.495
 11 
3.42
 21 
1.495
 0 
LINE
 8 
0
 62 
 7 
 10 
3.397
 20 
1.495
 11 
3.373
 21 
1.518
 0 
LINE
 8 
0
 62 
 7 
 10 
3.373
 20 
1.518
 11 
3.373
 21 
1.53
 0 
LINE
 8 
0
 62 
 7 
 10 
3.373
 20 
1.53
 11 
3.385
 21 
1.542
 0 
LINE
 8 
0
 62 
 7 
 10 
1.958
 20 
0.367
 11 
1.925
 21 
0.367
 0 
LINE
 8 
0
 62 
 7 
 10 
1.925
 20 
0.367
 11 
1.925
 21 
0.375
 0 
LINE
 8 
0
 62 
 7 
 10 
1.925
 20 
0.375
 11 
1.95
 21 
0.4
 0 
LINE
 8 
0
 62 
 7 
 10 
1.95
 20 
0.4
 11 
1.95
 21 
0.35
 0 
LINE
 8 
0
 62 
 7 
 10 
2.025
 20 
0.392
 11 
2.033
 21 
0.4
 0 
LINE
 8 
0
 62 
 7 
 10 
2.033
 20 
0.4
 11 
2.05
 21 
0.4
 0 
LINE
 8 
0
 62 
 7 
 10 
2.05
 20 
0.4
 11 
2.058
 21 
0.392
 0 
LINE
 8 
0
 62 
 7 
 10 
2.058
 20 
0.392
 11 
2.058
 21 
0.383
 0 
LINE
 8 
0
 62 
 7 
 10 
2.058
 20 
0.383
 11 
2.05
 21 
0.375
 0 
LINE
 8 
0
 62 
 7 
 10 
2.05
 20 
0.375
 11 
2.033
 21 
0.375
 0 
LINE
 8 
0
 62 
 7 
 10 
2.033
 20 
0.375
 11 
2.025
 21 
0.367
 0 
LINE
 8 
0
 62 
 7 
 10 
2.025
 20 
0.367
 11 
2.025
 21 
0.35
 0 
LINE
 8 
0
 62 
 7 
 10 
2.025
 20 
0.35
 11 
2.058
 21 
0.35
 0 
LINE
 8 
0
 62 
 7 
 10 
2.133
 20 
0.392
 11 
2.142
 21 
0.4
 0 
LINE
 8 
0
 62 
 7 
 10 
2.142
 20 
0.4
 11 
2.142
 21 
0.35
 0 
LINE
 8 
0
 62 
 7 
 10 
2.133
 20 
0.35
 11 
2.15
 21 
0.35
 0 
LINE
 8 
0
 62 
 7 
 10 
2.233
 20 
0.392
 11 
2.242
 21 
0.4
 0 
LINE
 8 
0
 62 
 7 
 10 
2.242
 20 
0.4
 11 
2.242
 21 
0.35
 0 
LINE
 8 
0
 62 
 7 
 10 
2.233
 20 
0.35
 11 
2.25
 21 
0.35
 0 
LINE
 8 
0
 62 
 7 
 10 
2.3
 20 
0.4
 11 
2.292
 21 
0.4
 0 
LINE
 8 
0
 62 
 7 
 10 
2.292
 20 
0.4
 11 
2.275
 21 
0.383
 0 
LINE
 8 
0
 62 
 7 
 10 
2.275
 20 
0.383
 11 
2.275
 21 
0.358
 0 
LINE
 8 
0
 62 
 7 
 10 
2.275
 20 
0.358
 11 
2.283
 21 
0.35
 0 
LINE
 8 
0
 62 
 7 
 10 
2.283
 20 
0.35
 11 
2.3
 21 
0.35
 0 
LINE
 8 
0
 62 
 7 
 10 
2.3
 20 
0.35
 11 
2.308
 21 
0.358
 0 
LINE
 8 
0
 62 
 7 
 10 
2.308
 20 
0.358
 11 
2.308
 21 
0.367
 0 
LINE
 8 
0
 62 
 7 
 10 
2.308
 20 
0.367
 11 
2.3
 21 
0.375
 0 
LINE
 8 
0
 62 
 7 
 10 
2.3
 20 
0.375
 11 
2.283
 21 
0.375
 0 
LINE
 8 
0
 62 
 7 
 10 
2.283
 20 
0.375
 11 
2.275
 21 
0.367
 0 
LINE
 8 
0
 62 
 7 
 10 
2.383
 20 
0.375
 11 
2.375
 21 
0.383
 0 
LINE
 8 
0
 62 
 7 
 10 
2.375
 20 
0.383
 11 
2.375
 21 
0.392
 0 
LINE
 8 
0
 62 
 7 
 10 
2.375
 20 
0.392
 11 
2.383
 21 
0.4
 0 
LINE
 8 
0
 62 
 7 
 10 
2.383
 20 
0.4
 11 
2.4
 21 
0.4
 0 
LINE
 8 
0
 62 
 7 
 10 
2.4
 20 
0.4
 11 
2.408
 21 
0.392
 0 
LINE
 8 
0
 62 
 7 
 10 
2.408
 20 
0.392
 11 
2.408
 21 
0.383
 0 
LINE
 8 
0
 62 
 7 
 10 
2.408
 20 
0.383
 11 
2.4
 21 
0.375
 0 
LINE
 8 
0
 62 
 7 
 10 
2.4
 20 
0.375
 11 
2.383
 21 
0.375
 0 
LINE
 8 
0
 62 
 7 
 10 
2.383
 20 
0.375
 11 
2.375
 21 
0.367
 0 
LINE
 8 
0
 62 
 7 
 10 
2.375
 20 
0.367
 11 
2.375
 21 
0.358
 0 
LINE
 8 
0
 62 
 7 
 10 
2.375
 20 
0.358
 11 
2.383
 21 
0.35
 0 
LINE
 8 
0
 62 
 7 
 10 
2.383
 20 
0.35
 11 
2.4
 21 
0.35
 0 
LINE
 8 
0
 62 
 7 
 10 
2.4
 20 
0.35
 11 
2.408
 21 
0.358
 0 
LINE
 8 
0
 62 
 7 
 10 
2.408
 20 
0.358
 11 
2.408
 21 
0.367
 0 
LINE
 8 
0
 62 
 7 
 10 
2.408
 20 
0.367
 11 
2.4
 21 
0.375
 0 
LINE
 8 
0
 62 
 7 
 10 
2.508
 20 
0.367
 11 
2.475
 21 
0.367
 0 
LINE
 8 
0
 62 
 7 
 10 
2.475
 20 
0.367
 11 
2.475
 21 
0.375
 0 
LINE
 8 
0
 62 
 7 
 10 
2.475
 20 
0.375
 11 
2.5
 21 
0.4
 0 
LINE
 8 
0
 62 
 7 
 10 
2.5
 20 
0.4
 11 
2.5
 21 
0.35
 0 
LINE
 8 
0
 62 
 7 
 10 
2.575
 20 
0.392
 11 
2.583
 21 
0.4
 0 
LINE
 8 
0
 62 
 7 
 10 
2.583
 20 
0.4
 11 
2.6
 21 
0.4
 0 
LINE
 8 
0
 62 
 7 
 10 
2.6
 20 
0.4
 11 
2.608
 21 
0.392
 0 
LINE
 8 
0
 62 
 7 
 10 
2.608
 20 
0.392
 11 
2.608
 21 
0.383
 0 
LINE
 8 
0
 62 
 7 
 10 
2.608
 20 
0.383
 11 
2.6
 21 
0.375
 0 
LINE
 8 
0
 62 
 7 
 10 
2.6
 20 
0.375
 11 
2.583
 21 
0.375
 0 
LINE
 8 
0
 62 
 7 
 10 
2.583
 20 
0.375
 11 
2.575
 21 
0.367
 0 
LINE
 8 
0
 62 
 7 
 10 
2.575
 20 
0.367
 11 
2.575
 21 
0.35
 0 
LINE
 8 
0
 62 
 7 
 10 
2.575
 20 
0.35
 11 
2.608
 21 
0.35
 0 
LINE
 8 
0
 62 
 7 
 10 
2.683
 20 
0.392
 11 
2.692
 21 
0.4
 0 
LINE
 8 
0
 62 
 7 
 10 
2.692
 20 
0.4
 11 
2.692
 21 
0.35
 0 
LINE
 8 
0
 62 
 7 
 10 
2.683
 20 
0.35
 11 
2.7
 21 
0.35
 0 
LINE
 8 
0
 62 
 7 
 10 
2.265
 20 
0.29
 11 
2.255
 21 
0.3
 0 
LINE
 8 
0
 62 
 7 
 10 
2.255
 20 
0.3
 11 
2.235
 21 
0.3
 0 
LINE
 8 
0
 62 
 7 
 10 
2.235
 20 
0.3
 11 
2.225
 21 
0.29
 0 
LINE
 8 
0
 62 
 7 
 10 
2.225
 20 
0.29
 11 
2.225
 21 
0.25
 0 
LINE
 8 
0
 62 
 7 
 10 
2.225
 20 
0.25
 11 
2.235
 21 
0.24
 0 
LINE
 8 
0
 62 
 7 
 10 
2.235
 20 
0.24
 11 
2.255
 21 
0.24
 0 
LINE
 8 
0
 62 
 7 
 10 
2.255
 20 
0.24
 11 
2.265
 21 
0.25
 0 
LINE
 8 
0
 62 
 7 
 10 
2.265
 20 
0.25
 11 
2.265
 21 
0.29
 0 
LINE
 8 
0
 62 
 7 
 10 
2.325
 20 
0.29
 11 
2.315
 21 
0.3
 0 
LINE
 8 
0
 62 
 7 
 10 
2.315
 20 
0.3
 11 
2.305
 21 
0.29
 0 
LINE
 8 
0
 62 
 7 
 10 
2.305
 20 
0.29
 11 
2.305
 21 
0.24
 0 
LINE
 8 
0
 62 
 7 
 10 
2.295
 20 
0.27
 11 
2.315
 21 
0.27
 0 
LINE
 8 
0
 62 
 7 
 10 
2.295
 20 
0.24
 11 
2.315
 21 
0.24
 0 
LINE
 8 
0
 62 
 7 
 10 
2.385
 20 
0.29
 11 
2.375
 21 
0.3
 0 
LINE
 8 
0
 62 
 7 
 10 
2.375
 20 
0.3
 11 
2.365
 21 
0.29
 0 
LINE
 8 
0
 62 
 7 
 10 
2.365
 20 
0.29
 11 
2.365
 21 
0.24
 0 
LINE
 8 
0
 62 
 7 
 10 
2.355
 20 
0.27
 11 
2.375
 21 
0.27
 0 
LINE
 8 
0
 62 
 7 
 10 
2.355
 20 
0.24
 11 
2.375
 21 
0.24
 0 
LINE
 8 
0
 62 
 7 
 10 
2.445
 20 
0.28
 11 
2.415
 21 
0.28
 0 
LINE
 8 
0
 62 
 7 
 10 
2.415
 20 
0.28
 11 
2.405
 21 
0.27
 0 
LINE
 8 
0
 62 
 7 
 10 
2.405
 20 
0.27
 11 
2.415
 21 
0.26
 0 
LINE
 8 
0
 62 
 7 
 10 
2.415
 20 
0.26
 11 
2.435
 21 
0.26
 0 
LINE
 8 
0
 62 
 7 
 10 
2.435
 20 
0.26
 11 
2.445
 21 
0.25
 0 
LINE
 8 
0
 62 
 7 
 10 
2.445
 20 
0.25
 11 
2.435
 21 
0.24
 0 
LINE
 8 
0
 62 
 7 
 10 
2.435
 20 
0.24
 11 
2.405
 21 
0.24
 0 
LINE
 8 
0
 62 
 7 
 10 
2.465
 20 
0.26
 11 
2.505
 21 
0.26
 0 
LINE
 8 
0
 62 
 7 
 10 
2.505
 20 
0.26
 11 
2.505
 21 
0.27
 0 
LINE
 8 
0
 62 
 7 
 10 
2.505
 20 
0.27
 11 
2.495
 21 
0.28
 0 
LINE
 8 
0
 62 
 7 
 10 
2.495
 20 
0.28
 11 
2.475
 21 
0.28
 0 
LINE
 8 
0
 62 
 7 
 10 
2.475
 20 
0.28
 11 
2.465
 21 
0.27
 0 
LINE
 8 
0
 62 
 7 
 10 
2.465
 20 
0.27
 11 
2.465
 21 
0.25
 0 
LINE
 8 
0
 62 
 7 
 10 
2.465
 20 
0.25
 11 
2.475
 21 
0.24
 0 
LINE
 8 
0
 62 
 7 
 10 
2.475
 20 
0.24
 11 
2.495
 21 
0.24
 0 
LINE
 8 
0
 62 
 7 
 10 
2.535
 20 
0.3
 11 
2.535
 21 
0.25
 0 
LINE
 8 
0
 62 
 7 
 10 
2.535
 20 
0.25
 11 
2.545
 21 
0.24
 0 
LINE
 8 
0
 62 
 7 
 10 
2.545
 20 
0.24
 11 
2.555
 21 
0.24
 0 
LINE
 8 
0
 62 
 7 
 10 
2.555
 20 
0.24
 11 
2.565
 21 
0.25
 0 
LINE
 8 
0
 62 
 7 
 10 
2.525
 20 
0.28
 11 
2.555
 21 
0.28
 0 
LINE
 8 
0
 62 
 7 
 10 
2.675
 20 
0.3
 11 
2.655
 21 
0.28
 0 
LINE
 8 
0
 62 
 7 
 10 
2.655
 20 
0.28
 11 
2.655
 21 
0.26
 0 
LINE
 8 
0
 62 
 7 
 10 
2.655
 20 
0.26
 11 
2.675
 21 
0.24
 0 
LINE
 8 
0
 62 
 7 
 10 
2.745
 20 
0.27
 11 
2.735
 21 
0.28
 0 
LINE
 8 
0
 62 
 7 
 10 
2.735
 20 
0.28
 11 
2.715
 21 
0.28
 0 
LINE
 8 
0
 62 
 7 
 10 
2.715
 20 
0.28
 11 
2.705
 21 
0.27
 0 
LINE
 8 
0
 62 
 7 
 10 
2.705
 20 
0.27
 11 
2.705
 21 
0.25
 0 
LINE
 8 
0
 62 
 7 
 10 
2.705
 20 
0.25
 11 
2.715
 21 
0.24
 0 
LINE
 8 
0
 62 
 7 
 10 
2.715
 20 
0.24
 11 
2.735
 21 
0.24
 0 
LINE
 8 
0
 62 
 7 
 10 
2.735
 20 
0.24
 11 
2.745
 21 
0.25
 0 
LINE
 8 
0
 62 
 7 
 10 
2.765
 20 
0.28
 11 
2.765
 21 
0.24
 0 
LINE
 8 
0
 62 
 7 
 10 
2.765
 20 
0.27
 11 
2.775
 21 
0.28
 0 
LINE
 8 
0
 62 
 7 
 10 
2.775
 20 
0.28
 11 
2.785
 21 
0.27
 0 
LINE
 8 
0
 62 
 7 
 10 
2.785
 20 
0.27
 11 
2.785
 21 
0.24
 0 
LINE
 8 
0
 62 
 7 
 10 
2.785
 20 
0.27
 11 
2.795
 21 
0.28
 0 
LINE
 8 
0
 62 
 7 
 10 
2.795
 20 
0.28
 11 
2.805
 21 
0.27
 0 
LINE
 8 
0
 62 
 7 
 10 
2.805
 20 
0.27
 11 
2.805
 21 
0.24
 0 
LINE
 8 
0
 62 
 7 
 10 
2.835
 20 
0.3
 11 
2.855
 21 
0.28
 0 
LINE
 8 
0
 62 
 7 
 10 
2.855
 20 
0.28
 11 
2.855
 21 
0.26
 0 
LINE
 8 
0
 62 
 7 
 10 
2.855
 20 
0.26
 11 
2.835
 21 
0.24
 0 
LINE
 8 
0
 62 
 7 
 10 
1.935
 20 
0.3
 11 
1.955
 21 
0.3
 0 
LINE
 8 
0
 62 
 7 
 10 
1.935
 20 
0.24
 11 
1.955
 21 
0.24
 0 
LINE
 8 
0
 62 
 7 
 10 
1.945
 20 
0.3
 11 
1.945
 21 
0.24
 0 
LINE
 8 
0
 62 
 7 
 10 
1.985
 20 
0.3
 11 
2.015
 21 
0.3
 0 
LINE
 8 
0
 62 
 7 
 10 
2.015
 20 
0.3
 11 
2.025
 21 
0.29
 0 
LINE
 8 
0
 62 
 7 
 10 
2.025
 20 
0.29
 11 
2.025
 21 
0.25
 0 
LINE
 8 
0
 62 
 7 
 10 
2.025
 20 
0.25
 11 
2.015
 21 
0.24
 0 
LINE
 8 
0
 62 
 7 
 10 
2.015
 20 
0.24
 11 
1.985
 21 
0.24
 0 
LINE
 8 
0
 62 
 7 
 10 
1.995
 20 
0.3
 11 
1.995
 21 
0.24
 0 
LINE
 8 
0
 62 
 7 
 10 
2.115
 20 
0.3
 11 
2.115
 21 
0.24
 0 
LINE
 8 
0
 62 
 7 
 10 
2.135
 20 
0.3
 11 
2.135
 21 
0.24
 0 
LINE
 8 
0
 62 
 7 
 10 
2.105
 20 
0.28
 11 
2.145
 21 
0.28
 0 
LINE
 8 
0
 62 
 7 
 10 
2.105
 20 
0.26
 11 
2.145
 21 
0.26
 0 
CIRCLE
 8 
0
 62 
 7 
 10 
0.775
 20 
0.325
 40 
0.038
 0 
CIRCLE
 8 
0
 62 
 7 
 10 
0.775
 20 
0.325
 40 
0.02
 0 
CIRCLE
 8 
0
 62 
 7 
 10 
0.875
 20 
0.325
 40 
0.038
 0 
CIRCLE
 8 
0
 62 
 7 
 10 
0.875
 20 
0.325
 40 
0.02
 0 
CIRCLE
 8 
0
 62 
 7 
 10 
0.875
 20 
0.225
 40 
0.038
 0 
CIRCLE
 8 
0
 62 
 7 
 10 
0.875
 20 
0.225
 40 
0.02
 0 
CIRCLE
 8 
0
 62 
 7 
 10 
0.775
 20 
0.225
 40 
0.038
 0 
CIRCLE
 8 
0
 62 
 7 
 10 
0.775
 20 
0.225
 40 
0.02
 0 
CIRCLE
 8 
0
 62 
 7 
 10 
0.675
 20 
0.225
 40 
0.038
 0 
CIRCLE
 8 
0
 62 
 7 
 10 
0.675
 20 
0.225
 40 
0.02
 0 
LINE
 8 
0
 62 
 7 
 10 
0.856
 20 
0.425
 11 
0.85
 21 
0.419
 0 
LINE
 8 
0
 62 
 7 
 10 
0.85
 20 
0.419
 11 
0.85
 21 
0.406
 0 
LINE
 8 
0
 62 
 7 
 10 
0.85
 20 
0.406
 11 
0.856
 21 
0.4
 0 
LINE
 8 
0
 62 
 7 
 10 
0.856
 20 
0.4
 11 
0.882
 21 
0.4
 0 
LINE
 8 
0
 62 
 7 
 10 
0.882
 20 
0.4
 11 
0.888
 21 
0.406
 0 
LINE
 8 
0
 62 
 7 
 10 
0.888
 20 
0.406
 11 
0.888
 21 
0.425
 0 
LINE
 8 
0
 62 
 7 
 10 
0.888
 20 
0.425
 11 
0.875
 21 
0.425
 0 
LINE
 8 
0
 62 
 7 
 10 
0.875
 20 
0.425
 11 
0.875
 21 
0.419
 0 
LINE
 8 
0
 62 
 7 
 10 
0.888
 20 
0.438
 11 
0.85
 21 
0.438
 0 
LINE
 8 
0
 62 
 7 
 10 
0.85
 20 
0.438
 11 
0.875
 21 
0.463
 0 
LINE
 8 
0
 62 
 7 
 10 
0.85
 20 
0.463
 11 
0.888
 21 
0.463
 0 
LINE
 8 
0
 62 
 7 
 10 
0.85
 20 
0.476
 11 
0.85
 21 
0.495
 0 
LINE
 8 
0
 62 
 7 
 10 
0.85
 20 
0.495
 11 
0.856
 21 
0.501
 0 
LINE
 8 
0
 62 
 7 
 10 
0.856
 20 
0.501
 11 
0.882
 21 
0.501
 0 
LINE
 8 
0
 62 
 7 
 10 
0.882
 20 
0.501
 11 
0.888
 21 
0.495
 0 
LINE
 8 
0
 62 
 7 
 10 
0.888
 20 
0.495
 11 
0.888
 21 
0.476
 0 
LINE
 8 
0
 62 
 7 
 10 
0.85
 20 
0.482
 11 
0.888
 21 
0.482
 0 
LINE
 8 
0
 62 
 7 
 10 
0.788
 20 
0.4
 11 
0.75
 21 
0.4
 0 
LINE
 8 
0
 62 
 7 
 10 
0.75
 20 
0.4
 11 
0.763
 21 
0.413
 0 
LINE
 8 
0
 62 
 7 
 10 
0.763
 20 
0.413
 11 
0.769
 21 
0.413
 0 
LINE
 8 
0
 62 
 7 
 10 
0.763
 20 
0.413
 11 
0.75
 21 
0.425
 0 
LINE
 8 
0
 62 
 7 
 10 
0.75
 20 
0.425
 11 
0.788
 21 
0.425
 0 
LINE
 8 
0
 62 
 7 
 10 
0.756
 20 
0.463
 11 
0.75
 21 
0.457
 0 
LINE
 8 
0
 62 
 7 
 10 
0.75
 20 
0.457
 11 
0.75
 21 
0.444
 0 
LINE
 8 
0
 62 
 7 
 10 
0.75
 20 
0.444
 11 
0.756
 21 
0.438
 0 
LINE
 8 
0
 62 
 7 
 10 
0.756
 20 
0.438
 11 
0.782
 21 
0.438
 0 
LINE
 8 
0
 62 
 7 
 10 
0.782
 20 
0.438
 11 
0.788
 21 
0.444
 0 
LINE
 8 
0
 62 
 7 
 10 
0.788
 20 
0.444
 11 
0.788
 21 
0.457
 0 
LINE
 8 
0
 62 
 7 
 10 
0.788
 20 
0.457
 11 
0.782
 21 
0.463
 0 
LINE
 8 
0
 62 
 7 
 10 
0.782
 20 
0.463
 11 
0.756
 21 
0.463
 0 
LINE
 8 
0
 62 
 7 
 10 
0.671
 20 
0.411
 11 
0.671
 21 
0.386
 0 
LINE
 8 
0
 62 
 7 
 10 
0.671
 20 
0.386
 11 
0.684
 21 
0.386
 0 
LINE
 8 
0
 62 
 7 
 10 
0.684
 20 
0.386
 11 
0.684
 21 
0.405
 0 
LINE
 8 
0
 62 
 7 
 10 
0.684
 20 
0.405
 11 
0.69
 21 
0.411
 0 
LINE
 8 
0
 62 
 7 
 10 
0.69
 20 
0.411
 11 
0.703
 21 
0.411
 0 
LINE
 8 
0
 62 
 7 
 10 
0.703
 20 
0.411
 11 
0.709
 21 
0.405
 0 
LINE
 8 
0
 62 
 7 
 10 
0.709
 20 
0.405
 11 
0.709
 21 
0.392
 0 
LINE
 8 
0
 62 
 7 
 10 
0.709
 20 
0.392
 11 
0.703
 21 
0.386
 0 
LINE
 8 
0
 62 
 7 
 10 
0.671
 20 
0.424
 11 
0.69
 21 
0.424
 0 
LINE
 8 
0
 62 
 7 
 10 
0.69
 20 
0.424
 11 
0.703
 21 
0.437
 0 
LINE
 8 
0
 62 
 7 
 10 
0.703
 20 
0.437
 11 
0.69
 21 
0.449
 0 
LINE
 8 
0
 62 
 7 
 10 
0.69
 20 
0.449
 11 
0.671
 21 
0.449
 0 
LINE
 8 
0
 62 
 7 
 10 
0.703
 20 
0.437
 11 
0.709
 21 
0.437
 0 
LINE
 8 
0
 62 
 7 
 10 
0.963
 20 
0.175
 11 
0.925
 21 
0.175
 0 
LINE
 8 
0
 62 
 7 
 10 
0.925
 20 
0.175
 11 
0.925
 21 
0.194
 0 
LINE
 8 
0
 62 
 7 
 10 
0.925
 20 
0.194
 11 
0.931
 21 
0.2
 0 
LINE
 8 
0
 62 
 7 
 10 
0.931
 20 
0.2
 11 
0.938
 21 
0.2
 0 
LINE
 8 
0
 62 
 7 
 10 
0.938
 20 
0.2
 11 
0.944
 21 
0.194
 0 
LINE
 8 
0
 62 
 7 
 10 
0.944
 20 
0.194
 11 
0.944
 21 
0.175
 0 
LINE
 8 
0
 62 
 7 
 10 
0.944
 20 
0.181
 11 
0.963
 21 
0.2
 0 
LINE
 8 
0
 62 
 7 
 10 
0.931
 20 
0.238
 11 
0.925
 21 
0.232
 0 
LINE
 8 
0
 62 
 7 
 10 
0.925
 20 
0.232
 11 
0.925
 21 
0.219
 0 
LINE
 8 
0
 62 
 7 
 10 
0.925
 20 
0.219
 11 
0.931
 21 
0.213
 0 
LINE
 8 
0
 62 
 7 
 10 
0.931
 20 
0.213
 11 
0.938
 21 
0.213
 0 
LINE
 8 
0
 62 
 7 
 10 
0.938
 20 
0.213
 11 
0.944
 21 
0.219
 0 
LINE
 8 
0
 62 
 7 
 10 
0.944
 20 
0.219
 11 
0.944
 21 
0.232
 0 
LINE
 8 
0
 62 
 7 
 10 
0.944
 20 
0.232
 11 
0.95
 21 
0.238
 0 
LINE
 8 
0
 62 
 7 
 10 
0.95
 20 
0.238
 11 
0.957
 21 
0.238
 0 
LINE
 8 
0
 62 
 7 
 10 
0.957
 20 
0.238
 11 
0.963
 21 
0.232
 0 
LINE
 8 
0
 62 
 7 
 10 
0.963
 20 
0.232
 11 
0.963
 21 
0.219
 0 
LINE
 8 
0
 62 
 7 
 10 
0.963
 20 
0.219
 11 
0.957
 21 
0.213
 0 
LINE
 8 
0
 62 
 7 
 10 
0.925
 20 
0.251
 11 
0.925
 21 
0.276
 0 
LINE
 8 
0
 62 
 7 
 10 
0.925
 20 
0.264
 11 
0.963
 21 
0.264
 0 
LINE
 8 
0
 62 
 7 
 10 
0.613
 20 
0.2
 11 
0.575
 21 
0.2
 0 
LINE
 8 
0
 62 
 7 
 10 
0.575
 20 
0.2
 11 
0.588
 21 
0.213
 0 
LINE
 8 
0
 62 
 7 
 10 
0.588
 20 
0.213
 11 
0.594
 21 
0.213
 0 
LINE
 8 
0
 62 
 7 
 10 
0.588
 20 
0.213
 11 
0.575
 21 
0.225
 0 
LINE
 8 
0
 62 
 7 
 10 
0.575
 20 
0.225
 11 
0.613
 21 
0.225
 0 
LINE
 8 
0
 62 
 7 
 10 
0.575
 20 
0.244
 11 
0.575
 21 
0.257
 0 
LINE
 8 
0
 62 
 7 
 10 
0.613
 20 
0.244
 11 
0.613
 21 
0.257
 0 
LINE
 8 
0
 62 
 7 
 10 
0.575
 20 
0.251
 11 
0.613
 21 
0.251
 0 
CIRCLE
 8 
0
 62 
 7 
 10 
0.475
 20 
1.825
 40 
0.042
 0 
CIRCLE
 8 
0
 62 
 7 
 10 
0.475
 20 
1.825
 40 
0.034
 0 
CIRCLE
 8 
0
 62 
 7 
 10 
1.075
 20 
1.825
 40 
0.042
 0 
CIRCLE
 8 
0
 62 
 7 
 10 
1.075
 20 
1.825
 40 
0.034
 0 
CIRCLE
 8 
0
 62 
 7 
 10 
1.075
 20 
0.225
 40 
0.042
 0 
CIRCLE
 8 
0
 62 
 7 
 10 
1.075
 20 
0.225
 40 
0.034
 0 
CIRCLE
 8 
0
 62 
 7 
 10 
0.475
 20 
0.225
 40 
0.042
 0 
CIRCLE
 8 
0
 62 
 7 
 10 
0.475
 20 
0.225
 40 
0.034
 0 
CIRCLE
 8 
0
 62 
 7 
 10 
2.0
 20 
1.04
 40 
0.038
 0 
CIRCLE
 8 
0
 62 
 7 
 10 
2.0
 20 
1.04
 40 
0.02
 0 
LINE
 8 
0
 62 
 7 
 10 
2.482
 20 
1.127
 11 
2.475
 21 
1.12
 0 
LINE
 8 
0
 62 
 7 
 10 
2.475
 20 
1.12
 11 
2.475
 21 
1.107
 0 
LINE
 8 
0
 62 
 7 
 10 
2.475
 20 
1.107
 11 
2.482
 21 
1.1
 0 
LINE
 8 
0
 62 
 7 
 10 
2.482
 20 
1.1
 11 
2.508
 21 
1.1
 0 
LINE
 8 
0
 62 
 7 
 10 
2.508
 20 
1.1
 11 
2.515
 21 
1.107
 0 
LINE
 8 
0
 62 
 7 
 10 
2.515
 20 
1.107
 11 
2.515
 21 
1.127
 0 
LINE
 8 
0
 62 
 7 
 10 
2.515
 20 
1.127
 11 
2.502
 21 
1.127
 0 
LINE
 8 
0
 62 
 7 
 10 
2.502
 20 
1.127
 11 
2.502
 21 
1.12
 0 
LINE
 8 
0
 62 
 7 
 10 
2.515
 20 
1.14
 11 
2.475
 21 
1.14
 0 
LINE
 8 
0
 62 
 7 
 10 
2.475
 20 
1.14
 11 
2.502
 21 
1.167
 0 
LINE
 8 
0
 62 
 7 
 10 
2.475
 20 
1.167
 11 
2.515
 21 
1.167
 0 
LINE
 8 
0
 62 
 7 
 10 
2.475
 20 
1.18
 11 
2.475
 21 
1.2
 0 
LINE
 8 
0
 62 
 7 
 10 
2.475
 20 
1.2
 11 
2.482
 21 
1.207
 0 
LINE
 8 
0
 62 
 7 
 10 
2.482
 20 
1.207
 11 
2.508
 21 
1.207
 0 
LINE
 8 
0
 62 
 7 
 10 
2.508
 20 
1.207
 11 
2.515
 21 
1.2
 0 
LINE
 8 
0
 62 
 7 
 10 
2.515
 20 
1.2
 11 
2.515
 21 
1.18
 0 
LINE
 8 
0
 62 
 7 
 10 
2.475
 20 
1.187
 11 
2.515
 21 
1.187
 0 
LINE
 8 
0
 62 
 7 
 10 
2.275
 20 
1.1
 11 
2.275
 21 
1.127
 0 
LINE
 8 
0
 62 
 7 
 10 
2.275
 20 
1.113
 11 
2.315
 21 
1.113
 0 
LINE
 8 
0
 62 
 7 
 10 
2.275
 20 
1.14
 11 
2.282
 21 
1.14
 0 
LINE
 8 
0
 62 
 7 
 10 
2.282
 20 
1.14
 11 
2.308
 21 
1.167
 0 
LINE
 8 
0
 62 
 7 
 10 
2.308
 20 
1.167
 11 
2.315
 21 
1.167
 0 
LINE
 8 
0
 62 
 7 
 10 
2.275
 20 
1.167
 11 
2.282
 21 
1.167
 0 
LINE
 8 
0
 62 
 7 
 10 
2.282
 20 
1.167
 11 
2.308
 21 
1.14
 0 
LINE
 8 
0
 62 
 7 
 10 
2.308
 20 
1.14
 11 
2.315
 21 
1.14
 0 
LINE
 8 
0
 62 
 7 
 10 
2.215
 20 
1.1
 11 
2.175
 21 
1.1
 0 
LINE
 8 
0
 62 
 7 
 10 
2.175
 20 
1.1
 11 
2.175
 21 
1.12
 0 
LINE
 8 
0
 62 
 7 
 10 
2.175
 20 
1.12
 11 
2.182
 21 
1.127
 0 
LINE
 8 
0
 62 
 7 
 10 
2.182
 20 
1.127
 11 
2.188
 21 
1.127
 0 
LINE
 8 
0
 62 
 7 
 10 
2.188
 20 
1.127
 11 
2.195
 21 
1.12
 0 
LINE
 8 
0
 62 
 7 
 10 
2.195
 20 
1.12
 11 
2.195
 21 
1.1
 0 
LINE
 8 
0
 62 
 7 
 10 
2.195
 20 
1.107
 11 
2.215
 21 
1.127
 0 
LINE
 8 
0
 62 
 7 
 10 
2.175
 20 
1.14
 11 
2.182
 21 
1.14
 0 
LINE
 8 
0
 62 
 7 
 10 
2.182
 20 
1.14
 11 
2.208
 21 
1.167
 0 
LINE
 8 
0
 62 
 7 
 10 
2.208
 20 
1.167
 11 
2.215
 21 
1.167
 0 
LINE
 8 
0
 62 
 7 
 10 
2.175
 20 
1.167
 11 
2.182
 21 
1.167
 0 
LINE
 8 
0
 62 
 7 
 10 
2.182
 20 
1.167
 11 
2.208
 21 
1.14
 0 
LINE
 8 
0
 62 
 7 
 10 
2.208
 20 
1.14
 11 
2.215
 21 
1.14
 0 
LINE
 8 
0
 62 
 7 
 10 
2.115
 20 
1.1
 11 
2.088
 21 
1.1
 0 
LINE
 8 
0
 62 
 7 
 10 
2.088
 20 
1.1
 11 
2.075
 21 
1.113
 0 
LINE
 8 
0
 62 
 7 
 10 
2.075
 20 
1.113
 11 
2.088
 21 
1.127
 0 
LINE
 8 
0
 62 
 7 
 10 
2.088
 20 
1.127
 11 
2.115
 21 
1.127
 0 
LINE
 8 
0
 62 
 7 
 10 
2.102
 20 
1.1
 11 
2.102
 21 
1.127
 0 
LINE
 8 
0
 62 
 7 
 10 
2.115
 20 
1.14
 11 
2.075
 21 
1.14
 0 
LINE
 8 
0
 62 
 7 
 10 
2.075
 20 
1.14
 11 
2.102
 21 
1.167
 0 
LINE
 8 
0
 62 
 7 
 10 
2.075
 20 
1.167
 11 
2.115
 21 
1.167
 0 
LINE
 8 
0
 62 
 7 
 10 
2.015
 20 
1.1
 11 
1.975
 21 
1.1
 0 
LINE
 8 
0
 62 
 7 
 10 
1.975
 20 
1.1
 11 
1.975
 21 
1.12
 0 
LINE
 8 
0
 62 
 7 
 10 
1.975
 20 
1.12
 11 
1.982
 21 
1.127
 0 
LINE
 8 
0
 62 
 7 
 10 
1.982
 20 
1.127
 11 
1.988
 21 
1.127
 0 
LINE
 8 
0
 62 
 7 
 10 
1.988
 20 
1.127
 11 
1.995
 21 
1.12
 0 
LINE
 8 
0
 62 
 7 
 10 
1.995
 20 
1.12
 11 
1.995
 21 
1.1
 0 
LINE
 8 
0
 62 
 7 
 10 
1.975
 20 
1.14
 11 
2.015
 21 
1.14
 0 
LINE
 8 
0
 62 
 7 
 10 
2.015
 20 
1.14
 11 
2.002
 21 
1.153
 0 
LINE
 8 
0
 62 
 7 
 10 
2.002
 20 
1.153
 11 
2.015
 21 
1.167
 0 
LINE
 8 
0
 62 
 7 
 10 
2.015
 20 
1.167
 11 
1.975
 21 
1.167
 0 
LINE
 8 
0
 62 
 7 
 10 
2.002
 20 
1.153
 11 
1.995
 21 
1.153
 0 
LINE
 8 
0
 62 
 7 
 10 
1.875
 20 
1.1
 11 
1.875
 21 
1.12
 0 
LINE
 8 
0
 62 
 7 
 10 
1.875
 20 
1.12
 11 
1.882
 21 
1.127
 0 
LINE
 8 
0
 62 
 7 
 10 
1.882
 20 
1.127
 11 
1.888
 21 
1.127
 0 
LINE
 8 
0
 62 
 7 
 10 
1.888
 20 
1.127
 11 
1.895
 21 
1.12
 0 
LINE
 8 
0
 62 
 7 
 10 
1.895
 20 
1.12
 11 
1.902
 21 
1.127
 0 
LINE
 8 
0
 62 
 7 
 10 
1.902
 20 
1.127
 11 
1.908
 21 
1.127
 0 
LINE
 8 
0
 62 
 7 
 10 
1.908
 20 
1.127
 11 
1.915
 21 
1.12
 0 
LINE
 8 
0
 62 
 7 
 10 
1.915
 20 
1.12
 11 
1.915
 21 
1.1
 0 
LINE
 8 
0
 62 
 7 
 10 
1.875
 20 
1.107
 11 
1.915
 21 
1.107
 0 
LINE
 8 
0
 62 
 7 
 10 
1.895
 20 
1.107
 11 
1.895
 21 
1.12
 0 
LINE
 8 
0
 62 
 7 
 10 
1.875
 20 
1.14
 11 
1.915
 21 
1.14
 0 
LINE
 8 
0
 62 
 7 
 10 
1.915
 20 
1.14
 11 
1.902
 21 
1.153
 0 
LINE
 8 
0
 62 
 7 
 10 
1.902
 20 
1.153
 11 
1.915
 21 
1.167
 0 
LINE
 8 
0
 62 
 7 
 10 
1.915
 20 
1.167
 11 
1.875
 21 
1.167
 0 
LINE
 8 
0
 62 
 7 
 10 
1.902
 20 
1.153
 11 
1.895
 21 
1.153
 0 
LINE
 8 
0
 62 
 7 
 10 
2.382
 20 
1.113
 11 
2.408
 21 
1.113
 0 
LINE
 8 
0
 62 
 7 
 10 
2.395
 20 
1.1
 11 
2.395
 21 
1.127
 0 
LINE
 8 
0
 62 
 7 
 10 
2.375
 20 
1.167
 11 
2.375
 21 
1.14
 0 
LINE
 8 
0
 62 
 7 
 10 
2.375
 20 
1.14
 11 
2.388
 21 
1.14
 0 
LINE
 8 
0
 62 
 7 
 10 
2.388
 20 
1.14
 11 
2.388
 21 
1.16
 0 
LINE
 8 
0
 62 
 7 
 10 
2.388
 20 
1.16
 11 
2.395
 21 
1.167
 0 
LINE
 8 
0
 62 
 7 
 10 
2.395
 20 
1.167
 11 
2.408
 21 
1.167
 0 
LINE
 8 
0
 62 
 7 
 10 
2.408
 20 
1.167
 11 
2.415
 21 
1.16
 0 
LINE
 8 
0
 62 
 7 
 10 
2.415
 20 
1.16
 11 
2.415
 21 
1.147
 0 
LINE
 8 
0
 62 
 7 
 10 
2.415
 20 
1.147
 11 
2.408
 21 
1.14
 0 
LINE
 8 
0
 62 
 7 
 10 
2.125
 20 
1.46
 11 
2.125
 21 
1.5
 0 
LINE
 8 
0
 62 
 7 
 10 
2.125
 20 
1.5
 11 
2.138
 21 
1.487
 0 
LINE
 8 
0
 62 
 7 
 10 
2.138
 20 
1.487
 11 
2.138
 21 
1.48
 0 
LINE
 8 
0
 62 
 7 
 10 
2.138
 20 
1.487
 11 
2.152
 21 
1.5
 0 
LINE
 8 
0
 62 
 7 
 10 
2.152
 20 
1.5
 11 
2.152
 21 
1.46
 0 
LINE
 8 
0
 62 
 7 
 10 
2.172
 20 
1.487
 11 
2.185
 21 
1.487
 0 
LINE
 8 
0
 62 
 7 
 10 
2.185
 20 
1.487
 11 
2.192
 21 
1.48
 0 
LINE
 8 
0
 62 
 7 
 10 
2.192
 20 
1.48
 11 
2.192
 21 
1.46
 0 
LINE
 8 
0
 62 
 7 
 10 
2.192
 20 
1.473
 11 
2.172
 21 
1.473
 0 
LINE
 8 
0
 62 
 7 
 10 
2.172
 20 
1.473
 11 
2.165
 21 
1.467
 0 
LINE
 8 
0
 62 
 7 
 10 
2.165
 20 
1.467
 11 
2.172
 21 
1.46
 0 
LINE
 8 
0
 62 
 7 
 10 
2.172
 20 
1.46
 11 
2.185
 21 
1.46
 0 
LINE
 8 
0
 62 
 7 
 10 
2.185
 20 
1.46
 11 
2.192
 21 
1.467
 0 
LINE
 8 
0
 62 
 7 
 10 
2.205
 20 
1.487
 11 
2.232
 21 
1.46
 0 
LINE
 8 
0
 62 
 7 
 10 
2.205
 20 
1.46
 11 
2.232
 21 
1.487
 0 
LINE
 8 
0
 62 
 7 
 10 
2.245
 20 
1.5
 11 
2.265
 21 
1.5
 0 
LINE
 8 
0
 62 
 7 
 10 
2.265
 20 
1.5
 11 
2.272
 21 
1.493
 0 
LINE
 8 
0
 62 
 7 
 10 
2.272
 20 
1.493
 11 
2.272
 21 
1.487
 0 
LINE
 8 
0
 62 
 7 
 10 
2.272
 20 
1.487
 11 
2.265
 21 
1.48
 0 
LINE
 8 
0
 62 
 7 
 10 
2.265
 20 
1.48
 11 
2.272
 21 
1.473
 0 
LINE
 8 
0
 62 
 7 
 10 
2.272
 20 
1.473
 11 
2.272
 21 
1.467
 0 
LINE
 8 
0
 62 
 7 
 10 
2.272
 20 
1.467
 11 
2.265
 21 
1.46
 0 
LINE
 8 
0
 62 
 7 
 10 
2.265
 20 
1.46
 11 
2.245
 21 
1.46
 0 
LINE
 8 
0
 62 
 7 
 10 
2.252
 20 
1.5
 11 
2.252
 21 
1.46
 0 
LINE
 8 
0
 62 
 7 
 10 
2.252
 20 
1.48
 11 
2.265
 21 
1.48
 0 
LINE
 8 
0
 62 
 7 
 10 
2.312
 20 
1.48
 11 
2.305
 21 
1.487
 0 
LINE
 8 
0
 62 
 7 
 10 
2.305
 20 
1.487
 11 
2.292
 21 
1.487
 0 
LINE
 8 
0
 62 
 7 
 10 
2.292
 20 
1.487
 11 
2.285
 21 
1.48
 0 
LINE
 8 
0
 62 
 7 
 10 
2.285
 20 
1.48
 11 
2.285
 21 
1.467
 0 
LINE
 8 
0
 62 
 7 
 10 
2.285
 20 
1.467
 11 
2.292
 21 
1.46
 0 
LINE
 8 
0
 62 
 7 
 10 
2.292
 20 
1.46
 11 
2.305
 21 
1.46
 0 
LINE
 8 
0
 62 
 7 
 10 
2.305
 20 
1.46
 11 
2.312
 21 
1.467
 0 
LINE
 8 
0
 62 
 7 
 10 
2.312
 20 
1.467
 11 
2.312
 21 
1.48
 0 
LINE
 8 
0
 62 
 7 
 10 
2.332
 20 
1.5
 11 
2.332
 21 
1.467
 0 
LINE
 8 
0
 62 
 7 
 10 
2.332
 20 
1.467
 11 
2.338
 21 
1.46
 0 
LINE
 8 
0
 62 
 7 
 10 
2.338
 20 
1.46
 11 
2.345
 21 
1.46
 0 
LINE
 8 
0
 62 
 7 
 10 
2.345
 20 
1.46
 11 
2.352
 21 
1.467
 0 
LINE
 8 
0
 62 
 7 
 10 
2.325
 20 
1.487
 11 
2.345
 21 
1.487
 0 
LINE
 8 
0
 62 
 7 
 10 
2.378
 20 
1.5
 11 
2.378
 21 
1.493
 0 
LINE
 8 
0
 62 
 7 
 10 
2.372
 20 
1.46
 11 
2.385
 21 
1.46
 0 
LINE
 8 
0
 62 
 7 
 10 
2.372
 20 
1.48
 11 
2.378
 21 
1.48
 0 
LINE
 8 
0
 62 
 7 
 10 
2.378
 20 
1.48
 11 
2.378
 21 
1.46
 0 
LINE
 8 
0
 62 
 7 
 10 
2.405
 20 
1.487
 11 
2.432
 21 
1.46
 0 
LINE
 8 
0
 62 
 7 
 10 
2.405
 20 
1.46
 11 
2.432
 21 
1.487
 0 
LINE
 8 
0
 62 
 7 
 10 
2.025
 20 
1.425
 11 
2.025
 21 
1.385
 0 
LINE
 8 
0
 62 
 7 
 10 
2.025
 20 
1.385
 11 
2.052
 21 
1.385
 0 
LINE
 8 
0
 62 
 7 
 10 
2.065
 20 
1.425
 11 
2.065
 21 
1.405
 0 
LINE
 8 
0
 62 
 7 
 10 
2.065
 20 
1.405
 11 
2.078
 21 
1.392
 0 
LINE
 8 
0
 62 
 7 
 10 
2.078
 20 
1.392
 11 
2.092
 21 
1.405
 0 
LINE
 8 
0
 62 
 7 
 10 
2.092
 20 
1.405
 11 
2.092
 21 
1.425
 0 
LINE
 8 
0
 62 
 7 
 10 
2.078
 20 
1.392
 11 
2.078
 21 
1.385
 0 
LINE
 8 
0
 62 
 7 
 10 
2.105
 20 
1.405
 11 
2.132
 21 
1.405
 0 
LINE
 8 
0
 62 
 7 
 10 
2.145
 20 
1.385
 11 
2.145
 21 
1.425
 0 
LINE
 8 
0
 62 
 7 
 10 
2.145
 20 
1.425
 11 
2.158
 21 
1.412
 0 
LINE
 8 
0
 62 
 7 
 10 
2.158
 20 
1.412
 11 
2.158
 21 
1.405
 0 
LINE
 8 
0
 62 
 7 
 10 
2.158
 20 
1.412
 11 
2.172
 21 
1.425
 0 
LINE
 8 
0
 62 
 7 
 10 
2.172
 20 
1.425
 11 
2.172
 21 
1.385
 0 
LINE
 8 
0
 62 
 7 
 10 
2.192
 20 
1.412
 11 
2.205
 21 
1.412
 0 
LINE
 8 
0
 62 
 7 
 10 
2.205
 20 
1.412
 11 
2.212
 21 
1.405
 0 
LINE
 8 
0
 62 
 7 
 10 
2.212
 20 
1.405
 11 
2.212
 21 
1.385
 0 
LINE
 8 
0
 62 
 7 
 10 
2.212
 20 
1.398
 11 
2.192
 21 
1.398
 0 
LINE
 8 
0
 62 
 7 
 10 
2.192
 20 
1.398
 11 
2.185
 21 
1.392
 0 
LINE
 8 
0
 62 
 7 
 10 
2.185
 20 
1.392
 11 
2.192
 21 
1.385
 0 
LINE
 8 
0
 62 
 7 
 10 
2.192
 20 
1.385
 11 
2.205
 21 
1.385
 0 
LINE
 8 
0
 62 
 7 
 10 
2.205
 20 
1.385
 11 
2.212
 21 
1.392
 0 
LINE
 8 
0
 62 
 7 
 10 
2.225
 20 
1.412
 11 
2.252
 21 
1.385
 0 
LINE
 8 
0
 62 
 7 
 10 
2.225
 20 
1.385
 11 
2.252
 21 
1.412
 0 
LINE
 8 
0
 62 
 7 
 10 
2.292
 20 
1.418
 11 
2.285
 21 
1.425
 0 
LINE
 8 
0
 62 
 7 
 10 
2.285
 20 
1.425
 11 
2.272
 21 
1.425
 0 
LINE
 8 
0
 62 
 7 
 10 
2.272
 20 
1.425
 11 
2.265
 21 
1.418
 0 
LINE
 8 
0
 62 
 7 
 10 
2.265
 20 
1.418
 11 
2.265
 21 
1.412
 0 
LINE
 8 
0
 62 
 7 
 10 
2.265
 20 
1.412
 11 
2.272
 21 
1.405
 0 
LINE
 8 
0
 62 
 7 
 10 
2.272
 20 
1.405
 11 
2.285
 21 
1.405
 0 
LINE
 8 
0
 62 
 7 
 10 
2.285
 20 
1.405
 11 
2.292
 21 
1.398
 0 
LINE
 8 
0
 62 
 7 
 10 
2.292
 20 
1.398
 11 
2.292
 21 
1.392
 0 
LINE
 8 
0
 62 
 7 
 10 
2.292
 20 
1.392
 11 
2.285
 21 
1.385
 0 
LINE
 8 
0
 62 
 7 
 10 
2.285
 20 
1.385
 11 
2.272
 21 
1.385
 0 
LINE
 8 
0
 62 
 7 
 10 
2.272
 20 
1.385
 11 
2.265
 21 
1.392
 0 
LINE
 8 
0
 62 
 7 
 10 
2.332
 20 
1.405
 11 
2.325
 21 
1.412
 0 
LINE
 8 
0
 62 
 7 
 10 
2.325
 20 
1.412
 11 
2.312
 21 
1.412
 0 
LINE
 8 
0
 62 
 7 
 10 
2.312
 20 
1.412
 11 
2.305
 21 
1.405
 0 
LINE
 8 
0
 62 
 7 
 10 
2.305
 20 
1.405
 11 
2.305
 21 
1.392
 0 
LINE
 8 
0
 62 
 7 
 10 
2.305
 20 
1.392
 11 
2.312
 21 
1.385
 0 
LINE
 8 
0
 62 
 7 
 10 
2.312
 20 
1.385
 11 
2.325
 21 
1.385
 0 
LINE
 8 
0
 62 
 7 
 10 
2.325
 20 
1.385
 11 
2.332
 21 
1.392
 0 
LINE
 8 
0
 62 
 7 
 10 
2.332
 20 
1.392
 11 
2.332
 21 
1.405
 0 
LINE
 8 
0
 62 
 7 
 10 
2.345
 20 
1.412
 11 
2.345
 21 
1.385
 0 
LINE
 8 
0
 62 
 7 
 10 
2.345
 20 
1.398
 11 
2.358
 21 
1.412
 0 
LINE
 8 
0
 62 
 7 
 10 
2.358
 20 
1.412
 11 
2.365
 21 
1.412
 0 
LINE
 8 
0
 62 
 7 
 10 
2.365
 20 
1.412
 11 
2.372
 21 
1.405
 0 
LINE
 8 
0
 62 
 7 
 10 
2.372
 20 
1.405
 11 
2.372
 21 
1.385
 0 
LINE
 8 
0
 62 
 7 
 10 
2.392
 20 
1.412
 11 
2.405
 21 
1.412
 0 
LINE
 8 
0
 62 
 7 
 10 
2.405
 20 
1.412
 11 
2.412
 21 
1.405
 0 
LINE
 8 
0
 62 
 7 
 10 
2.412
 20 
1.405
 11 
2.412
 21 
1.385
 0 
LINE
 8 
0
 62 
 7 
 10 
2.412
 20 
1.398
 11 
2.392
 21 
1.398
 0 
LINE
 8 
0
 62 
 7 
 10 
2.392
 20 
1.398
 11 
2.385
 21 
1.392
 0 
LINE
 8 
0
 62 
 7 
 10 
2.385
 20 
1.392
 11 
2.392
 21 
1.385
 0 
LINE
 8 
0
 62 
 7 
 10 
2.392
 20 
1.385
 11 
2.405
 21 
1.385
 0 
LINE
 8 
0
 62 
 7 
 10 
2.405
 20 
1.385
 11 
2.412
 21 
1.392
 0 
LINE
 8 
0
 62 
 7 
 10 
2.425
 20 
1.412
 11 
2.425
 21 
1.385
 0 
LINE
 8 
0
 62 
 7 
 10 
2.425
 20 
1.398
 11 
2.438
 21 
1.412
 0 
LINE
 8 
0
 62 
 7 
 10 
2.438
 20 
1.412
 11 
2.445
 21 
1.412
 0 
LINE
 8 
0
 62 
 7 
 10 
2.445
 20 
1.412
 11 
2.452
 21 
1.405
 0 
LINE
 8 
0
 62 
 7 
 10 
2.465
 20 
1.405
 11 
2.492
 21 
1.405
 0 
LINE
 8 
0
 62 
 7 
 10 
2.532
 20 
1.425
 11 
2.505
 21 
1.425
 0 
LINE
 8 
0
 62 
 7 
 10 
2.505
 20 
1.425
 11 
2.505
 21 
1.385
 0 
LINE
 8 
0
 62 
 7 
 10 
2.505
 20 
1.385
 11 
2.532
 21 
1.385
 0 
LINE
 8 
0
 62 
 7 
 10 
2.505
 20 
1.405
 11 
2.525
 21 
1.405
 0 
LINE
 8 
0
 62 
 7 
 10 
2.545
 20 
1.418
 11 
2.545
 21 
1.425
 0 
LINE
 8 
0
 62 
 7 
 10 
2.545
 20 
1.425
 11 
2.572
 21 
1.425
 0 
LINE
 8 
0
 62 
 7 
 10 
2.572
 20 
1.425
 11 
2.572
 21 
1.418
 0 
LINE
 8 
0
 62 
 7 
 10 
2.572
 20 
1.418
 11 
2.545
 21 
1.392
 0 
LINE
 8 
0
 62 
 7 
 10 
2.545
 20 
1.392
 11 
2.545
 21 
1.385
 0 
LINE
 8 
0
 62 
 7 
 10 
2.545
 20 
1.385
 11 
2.572
 21 
1.385
 0 
LINE
 8 
0
 62 
 7 
 10 
2.572
 20 
1.385
 11 
2.572
 21 
1.392
 0 
LINE
 8 
0
 62 
 7 
 10 
2.609
 20 
1.317
 11 
2.619
 21 
1.378
 0 
LINE
 8 
0
 62 
 7 
 10 
2.619
 20 
1.378
 11 
2.618
 21 
1.439
 0 
LINE
 8 
0
 62 
 7 
 10 
2.618
 20 
1.439
 11 
2.604
 21 
1.5
 0 
LINE
 8 
0
 62 
 7 
 10 
2.604
 20 
1.5
 11 
2.579
 21 
1.556
 0 
LINE
 8 
0
 62 
 7 
 10 
2.579
 20 
1.556
 11 
2.544
 21 
1.607
 0 
LINE
 8 
0
 62 
 7 
 10 
2.544
 20 
1.607
 11 
2.5
 21 
1.65
 0 
LINE
 8 
0
 62 
 7 
 10 
2.5
 20 
1.65
 11 
2.448
 21 
1.683
 0 
LINE
 8 
0
 62 
 7 
 10 
2.448
 20 
1.683
 11 
2.391
 21 
1.707
 0 
LINE
 8 
0
 62 
 7 
 10 
2.391
 20 
1.707
 11 
2.331
 21 
1.718
 0 
LINE
 8 
0
 62 
 7 
 10 
2.331
 20 
1.718
 11 
2.269
 21 
1.718
 0 
LINE
 8 
0
 62 
 7 
 10 
2.269
 20 
1.718
 11 
2.209
 21 
1.707
 0 
LINE
 8 
0
 62 
 7 
 10 
2.209
 20 
1.707
 11 
2.152
 21 
1.683
 0 
LINE
 8 
0
 62 
 7 
 10 
2.152
 20 
1.683
 11 
2.1
 21 
1.65
 0 
LINE
 8 
0
 62 
 7 
 10 
2.1
 20 
1.65
 11 
2.056
 21 
1.607
 0 
LINE
 8 
0
 62 
 7 
 10 
2.056
 20 
1.607
 11 
2.021
 21 
1.556
 0 
LINE
 8 
0
 62 
 7 
 10 
2.021
 20 
1.556
 11 
1.996
 21 
1.5
 0 
LINE
 8 
0
 62 
 7 
 10 
1.996
 20 
1.5
 11 
1.982
 21 
1.439
 0 
LINE
 8 
0
 62 
 7 
 10 
1.982
 20 
1.439
 11 
1.981
 21 
1.378
 0 
LINE
 8 
0
 62 
 7 
 10 
1.981
 20 
1.378
 11 
1.991
 21 
1.317
 0 
ENDSEC
 0 
EOF
